M48
;Layer_Color=5050912
;FILE_FORMAT=2:3
INCH,LZ
;TYPE=PLATED
T1F00S00C0.017
T2F00S00C0.039
T4F00S00C0.053
T5F00S00C0.055
%
T01
X0315Y-00465
Y-0022
X03105Y00051
X0328
X0346
X03635
X03815
X0399
Y00286
X03815
X03635
X0346
X0328
X03105
X02925
X0275
Y00051
X02925
X0356Y-0022
Y-00465
X03915
Y-0022
X02545Y-0015
X0239Y-0021
X02225Y-0015
X0222Y00051
X02395
X0257
Y00286
X02395
X0222
X0204
X01865
X0169
X01515
X01335
Y00051
X01515
X0169
X01865
X0204
X0214Y-00393
X02405Y-00448
X02629Y-0045
X0179Y-00302
X01315Y-00385
X01155Y00051
X00975
X00795
X0062
X00445
X0027
X0009
X-0012
Y00286
X0009
X0027
X00445
X0062
X00795
X00975
X01155
X0077Y-0022
Y-00465
X00407
Y-0022
X-00365Y0037
X-0061
X-0095Y0024
X-01076Y0034
X-0085Y-00255
X-007Y-00444
X-0106Y-00475
X-01305
X-0145Y-00278
X-0151Y-00245
X-0145Y0064
X-01495Y00692
X-0154Y0073
X-01415Y00783
Y00833
X-01286Y00807
X-0119Y00755
Y00865
X-0103Y0093
X-00975Y00935
X-0095Y00745
X-00865Y00746
X-00775Y00738
X-00774Y0069
X-00775Y00792
Y00843
X-01035Y00675
X-0107Y0063
X-0123Y00585
X-0126Y00655
X-0125Y0107
X-01125Y01135
X-01291Y01574
X-01205Y0188
X-0145
X-00944Y01859
X-00529
X-00404Y01651
X-0057Y0054
X-0012Y00516
X0009
X0027
X00445
X0062
X00795
X00975
X01155
Y00751
X00975
X00795
X0062
X00445
X0027
X0009
X-0012
Y00981
X0009
X0027
X00445
X0062
X00795
X00975
X01155
Y01216
X00975
X00795
X0062
X00445
X0027
X0009
X-0012
Y01451
X0009
X0027
X00445
X0062
X00795
X00975
X01155
X01004Y02049
X01335Y01451
X01515
X0169
X01865
X0204
X0222
X02395
X0257
Y01216
X02395
X0222
X0204
X01865
X0169
X01515
X01335
Y00981
X01515
X0169
X01865
X0204
X0222
X02395
X0257
Y00751
X02395
X0222
X0204
X01865
X0169
X01515
X01335
Y00516
X01515
X0169
X01865
X0204
X0222
X02395
X0257
X02394Y02054
X0275Y01451
X02925
X03105
X0328
X0346
X03635
X03815
X0399
Y01216
X03815
X03635
X0346
X0328
X03105
X02925
X0275
Y00981
X02925
X03105
X0328
X0346
X03635
X03815
X0399
Y00751
X03815
X03635
X0346
X0328
X03105
X02925
X0275
Y00516
X02925
X03105
X0328
X0346
X03635
X03815
X0399
X03839Y02054
X03635Y0224
X03585Y0221
X03535Y02395
X0358Y02605
X0365Y02535
X03755Y02505
X0405
X0379Y0279
X0293
X0292Y025
X03305Y0231
X02675Y025
X02685Y0279
X0231Y0248
X02205Y0252
X02155Y0257
X0209Y02385
X0214Y022
X0219Y02235
X01835Y0231
X01485Y02475
X0124
X0154Y0278
X01785
X0092Y025
X00715Y0243
X0075Y022
X008Y02235
X-00031Y02406
X-01293Y0212
X-01519Y02334
T02
X-01505Y0046
X-01405
X-01505Y011
Y012
Y013
Y014
Y015
T04
X-00336Y02795
X-00403
X-0047
X-00537
X-00604
T05
X-01135Y0225
X-00535
M30
