G04*
G04 #@! TF.GenerationSoftware,Altium Limited,Altium Designer,19.0.15 (446)*
G04*
G04 Layer_Color=65535*
%FSLAX23Y23*%
%MOIN*%
G70*
G01*
G75*
%ADD10C,0.005*%
%ADD11C,0.005*%
%ADD12C,0.001*%
%ADD13C,0.040*%
%ADD14C,0.008*%
%ADD15C,0.016*%
%ADD16C,0.024*%
%ADD17C,0.010*%
%ADD18C,0.008*%
%ADD19C,0.006*%
%ADD20C,0.002*%
%ADD21C,0.010*%
%ADD22C,0.012*%
%ADD23R,0.087X0.008*%
%ADD24R,0.106X0.026*%
G36*
X-1070Y2275D02*
X-1035D01*
Y2225D01*
X-1070D01*
Y2275D01*
D02*
G37*
G36*
X-1035Y2275D02*
X-1001D01*
Y2225D01*
X-1035D01*
Y2275D01*
D02*
G37*
G36*
X-635Y2275D02*
X-600D01*
Y2225D01*
X-667D01*
Y2275D01*
X-635D01*
Y2275D01*
D02*
G37*
G36*
X-729Y2349D02*
X-693D01*
Y2152D01*
X-729D01*
Y2349D01*
D02*
G37*
D10*
X-295Y-341D02*
G03*
X-303Y-350I707J-733D01*
G01*
X-290Y-337D02*
G03*
X-295Y-341I59J-71D01*
G01*
X-287Y-334D02*
G03*
X-290Y-337I17J-26D01*
G01*
X-284Y-334D02*
G03*
X-287Y-334I0J-4D01*
G01*
X-282Y-334D02*
G03*
X-284Y-334I-3J-7D01*
G01*
X-279Y-336D02*
G03*
X-282Y-334I-5J-5D01*
G01*
X-278Y-338D02*
G03*
X-279Y-336I-7J-3D01*
G01*
X-277Y-341D02*
G03*
X-278Y-338I-7J0D01*
G01*
X-278Y-343D02*
G03*
X-277Y-341I-4J3D01*
G01*
X-280Y-347D02*
G03*
X-278Y-343I-22J19D01*
G01*
X-285Y-352D02*
G03*
X-280Y-347I-78J77D01*
G01*
X-297Y-364D02*
G03*
X-285Y-352I-1353J1360D01*
G01*
X-305Y-372D02*
G03*
X-297Y-364I-471J489D01*
G01*
X-312Y-378D02*
G03*
X-305Y-372I-222J245D01*
G01*
X-317Y-383D02*
G03*
X-312Y-378I-323J366D01*
G01*
X-319Y-384D02*
G03*
X-317Y-383I-1J4D01*
G01*
X-321Y-384D02*
G03*
X-319Y-384I-1J10D01*
G01*
X-329Y-385D02*
G03*
X-321Y-384I-67J1462D01*
G01*
X-338Y-385D02*
G03*
X-329Y-385I-31J866D01*
G01*
X-348Y-385D02*
G03*
X-338Y-385I-40J1426D01*
G01*
X-416Y-413D02*
G03*
X-408Y-413I8J952D01*
G01*
X-422Y-412D02*
G03*
X-416Y-413I10J481D01*
G01*
X-428Y-412D02*
G03*
X-422Y-412I73J3155D01*
G01*
X-428Y-411D02*
G03*
X-428Y-412I3J-2D01*
G01*
X-413Y-384D02*
G03*
X-428Y-411I38070J-20037D01*
G01*
X-400Y-358D02*
G03*
X-413Y-384I12297J-6505D01*
G01*
X-397Y-354D02*
G03*
X-400Y-358I26J-19D01*
G01*
X-396Y-352D02*
G03*
X-397Y-354I9J-9D01*
G01*
X-394Y-351D02*
G03*
X-396Y-352I16J-20D01*
G01*
X-393Y-350D02*
G03*
X-394Y-351I15J-21D01*
G01*
X-391Y-349D02*
G03*
X-393Y-350I7J-13D01*
G01*
X-388Y-347D02*
G03*
X-391Y-349I2J-12D01*
G01*
X-383Y-347D02*
G03*
X-388Y-347I2J-33D01*
G01*
X-376Y-347D02*
G03*
X-383Y-347I1J-132D01*
G01*
X-359Y-347D02*
G03*
X-376Y-347I0J-2858D01*
G01*
X-343Y-347D02*
G03*
X-359Y-347I-16J-2609D01*
G01*
X-335Y-347D02*
G03*
X-343Y-347I-8J-154D01*
G01*
X-331Y-347D02*
G03*
X-335Y-347I-7J-46D01*
G01*
X-329Y-348D02*
G03*
X-331Y-347I-3J-3D01*
G01*
X-328Y-350D02*
G03*
X-329Y-348I-5J-2D01*
G01*
X-327Y-353D02*
G03*
X-328Y-350I-7J0D01*
G01*
X-328Y-355D02*
G03*
X-327Y-353I-7J3D01*
G01*
X-329Y-358D02*
G03*
X-328Y-355I-4J4D01*
G01*
X-331Y-359D02*
G03*
X-329Y-358I-2J5D01*
G01*
X-333Y-359D02*
G03*
X-331Y-359I-1J9D01*
G01*
X-336Y-360D02*
G03*
X-333Y-359I-1J32D01*
G01*
X-344Y-360D02*
G03*
X-336Y-360I-1J508D01*
G01*
X-344Y-360D02*
G03*
X-353Y-360I0J-319D01*
G01*
D02*
G03*
X-358Y-360I1J-21D01*
G01*
D02*
G03*
X-359Y-362I1J-2D01*
G01*
X-359D02*
G03*
X-359Y-363I1J-1D01*
G01*
X-359D02*
G03*
X-358Y-364I2J1D01*
G01*
D02*
G03*
X-355Y-365I4J15D01*
G01*
D02*
G03*
X-350Y-365I7J65D01*
G01*
D02*
G03*
X-339Y-365I29J1246D01*
G01*
X194Y-383D02*
G03*
X189Y-383I-5J-328D01*
G01*
X196Y-383D02*
G03*
X194Y-383I-2J-6D01*
G01*
X197Y-384D02*
G03*
X196Y-383I-1J-0D01*
G01*
X197Y-385D02*
G03*
X197Y-384I-3J1D01*
G01*
X197Y-385D02*
G03*
X196Y-386I25J-6D01*
G01*
D02*
G03*
X196Y-388I127J-24D01*
G01*
X196D02*
G03*
X196Y-390I143J-25D01*
G01*
X196D02*
G03*
X195Y-392I129J-21D01*
G01*
X140Y-360D02*
G03*
X140Y-355I-508J-67D01*
G01*
D02*
G03*
X139Y-352I-273J-38D01*
G01*
D02*
G03*
X139Y-348I-1005J-156D01*
G01*
X139Y-348D02*
G03*
X138Y-348I-0J-0D01*
G01*
X138D02*
G03*
X138Y-351I82J-18D01*
G01*
Y-351D02*
G03*
X137Y-355I98J-18D01*
G01*
Y-355D02*
G03*
X136Y-362I471J-65D01*
G01*
X136Y-365D02*
G03*
X136Y-362I-398J53D01*
G01*
X135Y-368D02*
G03*
X136Y-365I-355J51D01*
G01*
X135Y-371D02*
G03*
X135Y-368I-324J49D01*
G01*
X134Y-373D02*
G03*
X135Y-371I-34J7D01*
G01*
X134Y-373D02*
G03*
X134Y-374I12J-2D01*
G01*
D02*
G03*
X134Y-375I1J-0D01*
G01*
D02*
G03*
X135Y-375I1J1D01*
G01*
D02*
G03*
X138Y-376I3J54D01*
G01*
D02*
G03*
X141Y-375I0J10D01*
G01*
X141Y-375D02*
G03*
X142Y-374I-0J1D01*
G01*
X142D02*
G03*
X142Y-371I-10J2D01*
G01*
D02*
G03*
X140Y-360I-1253J-153D01*
G01*
X132Y-319D02*
G03*
X130Y-319I4J-56D01*
G01*
X135Y-319D02*
G03*
X132Y-319I0J-42D01*
G01*
X138Y-319D02*
G03*
X135Y-319I-3J-83D01*
G01*
X156Y-371D02*
G03*
X153Y-357I-7535J-1348D01*
G01*
X158Y-383D02*
G03*
X156Y-371I-4060J-713D01*
G01*
X160Y-394D02*
G03*
X158Y-383I-18326J-3209D01*
G01*
X160Y-395D02*
G03*
X160Y-394I-6J-0D01*
G01*
X160Y-396D02*
G03*
X160Y-395I-0J1D01*
G01*
X158Y-396D02*
G03*
X160Y-396I-1J6D01*
G01*
X156Y-396D02*
G03*
X158Y-396I-1J17D01*
G01*
X153Y-397D02*
G03*
X156Y-396I-0J97D01*
G01*
X148Y-397D02*
G03*
X153Y-397I5J237D01*
G01*
X146Y-396D02*
G03*
X148Y-397I2J6D01*
G01*
X145Y-396D02*
G03*
X146Y-396I1J0D01*
G01*
X145Y-394D02*
G03*
X145Y-396I4J0D01*
G01*
X145Y-394D02*
G03*
X145Y-393I-9J-0D01*
G01*
Y-393D02*
G03*
X145Y-392I-20J-3D01*
G01*
Y-392D02*
G03*
X144Y-390I-21J-4D01*
G01*
X144D02*
G03*
X144Y-389I-12J-3D01*
G01*
X144D02*
G03*
X143Y-388I-7J-3D01*
G01*
X143D02*
G03*
X142Y-387I-2J-1D01*
G01*
X142D02*
G03*
X141Y-387I-1J-4D01*
G01*
Y-387D02*
G03*
X138Y-387I1J-68D01*
G01*
Y-387D02*
G03*
X135Y-387I4J-67D01*
G01*
Y-387D02*
G03*
X133Y-387I0J-4D01*
G01*
Y-387D02*
G03*
X133Y-388I1J-1D01*
G01*
D02*
G03*
X132Y-390I5J-2D01*
G01*
X132Y-394D02*
G03*
X132Y-390I-68J12D01*
G01*
X131Y-396D02*
G03*
X132Y-394I-2J2D01*
G01*
X129Y-396D02*
G03*
X131Y-396I-0J3D01*
G01*
X123Y-397D02*
G03*
X129Y-396I-0J111D01*
G01*
X119Y-397D02*
G03*
X123Y-397I5J267D01*
G01*
X117Y-396D02*
G03*
X119Y-397I2J5D01*
G01*
X116Y-396D02*
G03*
X117Y-396I1J0D01*
G01*
X116Y-394D02*
G03*
X116Y-396I3J-1D01*
G01*
X116Y-394D02*
G03*
X117Y-389I-106J24D01*
G01*
D02*
G03*
X124Y-356I-68860J12451D01*
G01*
X130Y-321D02*
G03*
X130Y-319I-8J1D01*
G01*
X100Y-319D02*
G03*
X88Y-319I-12J-359D01*
G01*
X106Y-320D02*
G03*
X100Y-319I-6J-22D01*
G01*
X109Y-322D02*
G03*
X106Y-320I-5J-4D01*
G01*
X111Y-325D02*
G03*
X109Y-322I-9J-3D01*
G01*
X112Y-331D02*
G03*
X111Y-325I-24J-0D01*
G01*
X112Y-357D02*
G03*
X112Y-331I-3114J-5D01*
G01*
X112Y-382D02*
G03*
X112Y-357I-2703J21D01*
G01*
X111Y-389D02*
G03*
X112Y-382I-31J7D01*
G01*
X109Y-393D02*
G03*
X111Y-389I-13J8D01*
G01*
X107Y-395D02*
G03*
X109Y-393I-1J4D01*
G01*
X102Y-396D02*
G03*
X107Y-395I-1J16D01*
G01*
X89Y-396D02*
G03*
X102Y-396I-10J581D01*
G01*
X54Y-397D02*
G03*
X57Y-397I3J232D01*
G01*
X51Y-396D02*
G03*
X54Y-397I4J117D01*
G01*
X49Y-396D02*
G03*
X51Y-396I18J460D01*
G01*
X49Y-396D02*
G03*
X49Y-395I-6J0D01*
G01*
D02*
G03*
X45Y-380I-8640J-2300D01*
G01*
D02*
G03*
X41Y-366I-16871J-4521D01*
G01*
X41D02*
G03*
X41Y-365I-2J-0D01*
G01*
Y-365D02*
G03*
X40Y-365I-0J-0D01*
G01*
D02*
G03*
X40Y-369I572J-25D01*
G01*
D02*
G03*
X40Y-374I222J-8D01*
G01*
D02*
G03*
X40Y-380I473J-6D01*
G01*
X1Y-360D02*
G03*
X0Y-356I-239J-27D01*
G01*
D02*
G03*
X-0Y-352I-153J-20D01*
G01*
D02*
G03*
X-1Y-349I-201J-31D01*
G01*
D02*
G03*
X-1Y-348I-3J-1D01*
G01*
X-1Y-348D02*
G03*
X-3Y-359I2164J-336D01*
G01*
D02*
G03*
X-5Y-370I719J-108D01*
G01*
D02*
G03*
X-5Y-375I30J-4D01*
G01*
X-5Y-375D02*
G03*
X-4Y-375I3J9D01*
G01*
D02*
G03*
X-2Y-376I2J12D01*
G01*
D02*
G03*
X-1Y-376I2J23D01*
G01*
D02*
G03*
X2Y-375I-0J50D01*
G01*
X2Y-375D02*
G03*
X3Y-375I-0J1D01*
G01*
D02*
G03*
X3Y-373I-5J0D01*
G01*
X2Y-372D02*
G03*
X3Y-373I16J2D01*
G01*
X2Y-368D02*
G03*
X2Y-372I378J50D01*
G01*
X1Y-364D02*
G03*
X2Y-368I362J44D01*
G01*
X1Y-360D02*
G03*
X1Y-364I490J55D01*
G01*
X-8Y-319D02*
G03*
X-9Y-320I0J-1D01*
G01*
X-1Y-319D02*
G03*
X-8Y-319I9J-243D01*
G01*
X6Y-318D02*
G03*
X-1Y-319I2J-253D01*
G01*
X7Y-319D02*
G03*
X6Y-318I-1J0D01*
G01*
X7Y-319D02*
G03*
X7Y-321I9J-0D01*
G01*
X7D02*
G03*
X14Y-357I190732J34341D01*
G01*
X14D02*
G03*
X20Y-392I111895J20168D01*
G01*
D02*
G03*
X21Y-395I26J5D01*
G01*
X21Y-396D02*
G03*
X21Y-395I-1J1D01*
G01*
X20Y-396D02*
G03*
X21Y-396I-0J1D01*
G01*
X18Y-397D02*
G03*
X20Y-396I-0J8D01*
G01*
X14Y-397D02*
G03*
X18Y-397I0J198D01*
G01*
X5Y-393D02*
G03*
X5Y-389I-68J-11D01*
G01*
D02*
G03*
X4Y-387I-3J-1D01*
G01*
D02*
G03*
X2Y-387I-2J-2D01*
G01*
D02*
G03*
X-1Y-387I-4J-51D01*
G01*
X-19Y-396D02*
G03*
X-16Y-397I3J68D01*
G01*
X-21Y-396D02*
G03*
X-19Y-396I3J24D01*
G01*
X-23Y-396D02*
G03*
X-21Y-396I4J17D01*
G01*
X-23Y-394D02*
G03*
X-23Y-396I11J-2D01*
G01*
X-16Y-358D02*
G03*
X-23Y-394I137606J-24597D01*
G01*
X-10Y-322D02*
G03*
X-16Y-358I107006J-19164D01*
G01*
X-9Y-320D02*
G03*
X-10Y-322I17J-6D01*
G01*
X-59Y-335D02*
G03*
X-57Y-341I606J158D01*
G01*
X-57D02*
G03*
X-56Y-346I334J91D01*
G01*
X-56D02*
G03*
X-54Y-350I943J272D01*
G01*
D02*
G03*
X-54Y-351I1J0D01*
G01*
X-54Y-351D02*
G03*
X-52Y-347I-474J150D01*
G01*
D02*
G03*
X-51Y-341I-184J57D01*
G01*
X-51D02*
G03*
X-49Y-335I-388J107D01*
G01*
X-43Y-378D02*
G03*
X-43Y-371I-446J0D01*
G01*
D02*
G03*
X-43Y-366I-207J-3D01*
G01*
D02*
G03*
X-43Y-361I-444J-19D01*
G01*
X-43D02*
G03*
X-44Y-361I-0J-0D01*
G01*
D02*
G03*
X-44Y-362I1J-1D01*
G01*
D02*
G03*
X-46Y-366I552J-201D01*
G01*
D02*
G03*
X-47Y-370I253J-90D01*
G01*
Y-370D02*
G03*
X-49Y-376I446J-149D01*
G01*
X-100Y-324D02*
G03*
X-100Y-323I-642J-122D01*
G01*
X-99Y-326D02*
G03*
X-100Y-324I-1214J-228D01*
G01*
X-99Y-328D02*
G03*
X-99Y-326I-1193J-222D01*
G01*
X-99Y-329D02*
G03*
X-99Y-328I-541J-99D01*
G01*
X-179Y-319D02*
G03*
X-185Y-319I-6J-249D01*
G01*
X-173Y-319D02*
G03*
X-179Y-319I-10J-179D01*
G01*
X-168Y-319D02*
G03*
X-173Y-319I-15J-188D01*
G01*
X-166Y-320D02*
G03*
X-168Y-319I-3J-7D01*
G01*
X-163Y-322D02*
G03*
X-166Y-320I-6J-6D01*
G01*
X-161Y-325D02*
G03*
X-163Y-322I-7J-2D01*
G01*
X-161Y-331D02*
G03*
X-161Y-325I-30J-1D01*
G01*
X-160Y-345D02*
G03*
X-161Y-331I-705J-10D01*
G01*
X-160Y-359D02*
G03*
X-160Y-345I-679J4D01*
G01*
X-161Y-365D02*
G03*
X-160Y-359I-38J7D01*
G01*
X-162Y-369D02*
G03*
X-161Y-365I-8J5D01*
G01*
X-165Y-371D02*
G03*
X-162Y-369I-2J6D01*
G01*
X-165Y-371D02*
G03*
X-166Y-372I3J-6D01*
G01*
X-166Y-372D02*
G03*
X-167Y-373I3J-3D01*
G01*
X-167Y-373D02*
G03*
X-167Y-374I3J0D01*
G01*
D02*
G03*
X-166Y-377I360J107D01*
G01*
D02*
G03*
X-165Y-380I214J65D01*
G01*
D02*
G03*
X-163Y-385I352J114D01*
G01*
X-162Y-389D02*
G03*
X-163Y-385I-464J-152D01*
G01*
X-161Y-392D02*
G03*
X-162Y-389I-270J-84D01*
G01*
X-160Y-395D02*
G03*
X-161Y-392I-575J-176D01*
G01*
X-160Y-396D02*
G03*
X-160Y-395I-2J0D01*
G01*
X-162Y-396D02*
G03*
X-160Y-396I-5J45D01*
G01*
X-165Y-397D02*
G03*
X-162Y-396I-1J36D01*
G01*
X-167Y-397D02*
G03*
X-165Y-397I0J70D01*
G01*
X-178Y-385D02*
G03*
X-177Y-388I2231J667D01*
G01*
X-179Y-381D02*
G03*
X-178Y-385I2598J773D01*
G01*
X-180Y-378D02*
G03*
X-179Y-381I2328J689D01*
G01*
X-181Y-376D02*
G03*
X-180Y-378I504J147D01*
G01*
X-181Y-376D02*
G03*
X-182Y-374I-15J-4D01*
G01*
D02*
G03*
X-182Y-373I-9J-4D01*
G01*
D02*
G03*
X-183Y-372I-6J-4D01*
G01*
D02*
G03*
X-184Y-372I-1J-1D01*
G01*
X-184Y-372D02*
G03*
X-185Y-374I13J-4D01*
G01*
D02*
G03*
X-185Y-378I40J-4D01*
G01*
D02*
G03*
X-185Y-384I363J-6D01*
G01*
X-224Y-368D02*
G03*
X-225Y-362I-161J-16D01*
G01*
D02*
G03*
X-226Y-354I-392J-54D01*
G01*
D02*
G03*
X-228Y-347I-849J-134D01*
G01*
X-228Y-347D02*
G03*
X-228Y-351I6074J-826D01*
G01*
Y-351D02*
G03*
X-229Y-354I2502J-339D01*
G01*
X-229D02*
G03*
X-229Y-359I4376J-586D01*
G01*
X-230Y-363D02*
G03*
X-229Y-359I-1301J178D01*
G01*
X-231Y-368D02*
G03*
X-230Y-363I-1022J144D01*
G01*
X-231Y-371D02*
G03*
X-231Y-368I-1004J145D01*
G01*
X-231Y-373D02*
G03*
X-231Y-371I-60J10D01*
G01*
X-231Y-373D02*
G03*
X-232Y-374I12J-2D01*
G01*
D02*
G03*
X-231Y-375I1J-0D01*
G01*
D02*
G03*
X-230Y-375I1J1D01*
G01*
D02*
G03*
X-228Y-376I3J52D01*
G01*
X-234Y-319D02*
G03*
X-236Y-319I4J-67D01*
G01*
X-231Y-319D02*
G03*
X-234Y-319I-0J-46D01*
G01*
X-228Y-319D02*
G03*
X-231Y-319I-3J-91D01*
G01*
X-210Y-370D02*
G03*
X-213Y-356I-5348J-963D01*
G01*
X-208Y-383D02*
G03*
X-210Y-370I-2961J-520D01*
G01*
X-206Y-393D02*
G03*
X-208Y-383I-9544J-1666D01*
G01*
X-206Y-395D02*
G03*
X-206Y-393I-9J-0D01*
G01*
X-206Y-396D02*
G03*
X-206Y-395I-1J1D01*
G01*
X-207Y-396D02*
G03*
X-206Y-396I-0J2D01*
G01*
X-209Y-397D02*
G03*
X-207Y-396I-0J10D01*
G01*
X-213Y-397D02*
G03*
X-209Y-397I-0J162D01*
G01*
X-221Y-394D02*
G03*
X-221Y-390I-40J-0D01*
G01*
X-221D02*
G03*
X-222Y-388I-3J-0D01*
G01*
X-222Y-388D02*
G03*
X-224Y-387I-2J-2D01*
G01*
Y-387D02*
G03*
X-228Y-387I-2J-30D01*
G01*
Y-387D02*
G03*
X-231Y-387I4J-83D01*
G01*
D02*
G03*
X-233Y-387I0J-4D01*
G01*
D02*
G03*
X-233Y-388I1J-1D01*
G01*
D02*
G03*
X-234Y-390I4J-2D01*
G01*
X-234Y-394D02*
G03*
X-234Y-390I-67J12D01*
G01*
X-235Y-396D02*
G03*
X-234Y-394I-2J2D01*
G01*
X-237Y-396D02*
G03*
X-235Y-396I-0J3D01*
G01*
X-243Y-397D02*
G03*
X-237Y-396I-0J113D01*
G01*
X-247Y-397D02*
G03*
X-243Y-397I4J200D01*
G01*
X-249Y-396D02*
G03*
X-247Y-397I2J8D01*
G01*
X-250Y-396D02*
G03*
X-249Y-396I1J1D01*
G01*
X-250Y-395D02*
G03*
X-250Y-396I1J-0D01*
G01*
X-250Y-395D02*
G03*
X-249Y-392I-24J7D01*
G01*
D02*
G03*
X-243Y-357I-100206J18085D01*
G01*
X-243D02*
G03*
X-236Y-321I-162466J29262D01*
G01*
X-236D02*
G03*
X-236Y-319I-10J2D01*
G01*
X-342Y-280D02*
G03*
X-342Y-282I54J-6D01*
G01*
X-342Y-278D02*
G03*
X-342Y-280I9J-3D01*
G01*
X-341Y-277D02*
G03*
X-342Y-278I2J-2D01*
G01*
X-340Y-277D02*
G03*
X-341Y-277I0J-1D01*
G01*
X-339Y-278D02*
G03*
X-340Y-277I-2J-1D01*
G01*
X-339Y-280D02*
G03*
X-339Y-278I-9J-0D01*
G01*
X-339Y-283D02*
G03*
X-339Y-280I-68J-0D01*
G01*
X-331Y-279D02*
G03*
X-331Y-283I103J-3D01*
G01*
X-331Y-278D02*
G03*
X-331Y-279I5J-2D01*
G01*
X-330Y-277D02*
G03*
X-331Y-278I1J-1D01*
G01*
X-329Y-277D02*
G03*
X-330Y-277I0J-2D01*
G01*
X-328D02*
G03*
X-329Y-277I-1J-2D01*
G01*
X-327Y-278D02*
G03*
X-328Y-277I-1J-0D01*
G01*
X-327Y-279D02*
G03*
X-327Y-278I-5J-0D01*
G01*
X-327Y-283D02*
G03*
X-327Y-279I-103J0D01*
G01*
X-308Y-299D02*
G03*
X-311Y-299I-3J-103D01*
G01*
X-306Y-299D02*
G03*
X-308Y-299I-2J-5D01*
G01*
X-305Y-299D02*
G03*
X-306Y-299I-1J-1D01*
G01*
X-305Y-301D02*
G03*
X-305Y-299I-2J0D01*
G01*
Y-302D02*
G03*
X-305Y-301I-2J1D01*
G01*
X-306Y-302D02*
G03*
X-305Y-302I-0J1D01*
G01*
X-308Y-303D02*
G03*
X-306Y-302I-0J5D01*
G01*
X-311Y-303D02*
G03*
X-308Y-303I0J103D01*
G01*
Y-311D02*
G03*
X-311Y-311I-3J-103D01*
G01*
X-306Y-311D02*
G03*
X-308Y-311I-2J-5D01*
G01*
X-305Y-311D02*
G03*
X-306Y-311I-1J-1D01*
G01*
X-305Y-313D02*
G03*
X-305Y-311I-2J0D01*
G01*
Y-314D02*
G03*
X-305Y-313I-2J1D01*
G01*
X-306Y-314D02*
G03*
X-305Y-314I-0J1D01*
G01*
X-308Y-315D02*
G03*
X-306Y-314I-0J5D01*
G01*
X-311Y-315D02*
G03*
X-308Y-315I0J103D01*
G01*
X-327Y-333D02*
G03*
X-327Y-330I-79J7D01*
G01*
X-327Y-335D02*
G03*
X-327Y-333I-5J2D01*
G01*
X-328Y-335D02*
G03*
X-327Y-335I-1J1D01*
G01*
X-329Y-336D02*
G03*
X-328Y-335I0J2D01*
G01*
X-330Y-335D02*
G03*
X-329Y-336I1J2D01*
G01*
X-331Y-335D02*
G03*
X-330Y-335I1J0D01*
G01*
X-331Y-333D02*
G03*
X-331Y-335I6J0D01*
G01*
X-331Y-329D02*
G03*
X-331Y-333I103J0D01*
G01*
X-339Y-333D02*
G03*
X-339Y-330I-54J6D01*
G01*
X-339Y-334D02*
G03*
X-339Y-333I-9J3D01*
G01*
X-340Y-335D02*
G03*
X-339Y-334I-2J2D01*
G01*
X-341Y-336D02*
G03*
X-340Y-335I0J1D01*
G01*
X-341Y-335D02*
G03*
X-341Y-336I1J1D01*
G01*
X-342Y-334D02*
G03*
X-341Y-335I2J1D01*
G01*
X-342Y-333D02*
G03*
X-342Y-334I9J0D01*
G01*
X-342Y-330D02*
G03*
X-342Y-333I68J0D01*
G01*
X-361Y-315D02*
G03*
X-358Y-315I3J103D01*
G01*
X-363Y-314D02*
G03*
X-361Y-315I2J5D01*
G01*
X-364Y-314D02*
G03*
X-363Y-314I1J1D01*
G01*
X-364Y-313D02*
G03*
X-364Y-314I2J0D01*
G01*
Y-311D02*
G03*
X-364Y-313I2J-1D01*
G01*
X-363Y-311D02*
G03*
X-364Y-311I0J-1D01*
G01*
X-361Y-311D02*
G03*
X-363Y-311I0J-5D01*
G01*
X-358Y-311D02*
G03*
X-361Y-311I-0J-103D01*
G01*
Y-303D02*
G03*
X-358Y-303I3J103D01*
G01*
X-363Y-302D02*
G03*
X-361Y-303I2J5D01*
G01*
X-364Y-302D02*
G03*
X-363Y-302I1J1D01*
G01*
X-364Y-301D02*
G03*
X-364Y-302I2J0D01*
G01*
Y-299D02*
G03*
X-364Y-301I2J-1D01*
G01*
X-363Y-299D02*
G03*
X-364Y-299I0J-1D01*
G01*
X-361Y-299D02*
G03*
X-363Y-299I0J-5D01*
G01*
X-358Y-299D02*
G03*
X-361Y-299I-0J-103D01*
G01*
X1670Y-320D02*
G03*
X1670Y-320I-71J0D01*
G01*
X-342Y-307D02*
Y-299D01*
X-335D01*
X-327D01*
Y-307D02*
Y-299D01*
Y-315D02*
Y-307D01*
X-335Y-315D02*
X-327D01*
X-342D02*
X-335D01*
X-342D02*
Y-307D01*
X-374Y-386D02*
X-348Y-385D01*
X-381Y-399D02*
X-374Y-386D01*
X-388Y-413D02*
X-381Y-399D01*
X-408Y-413D02*
X-388D01*
X-339Y-365D02*
X-320Y-366D01*
X-303Y-350D01*
X166Y-358D02*
Y-319D01*
X174D01*
X181D01*
Y-351D02*
Y-319D01*
Y-383D02*
Y-351D01*
Y-383D02*
X189D01*
X195Y-397D02*
X195Y-392D01*
X180Y-397D02*
X195D01*
X166D02*
X180D01*
X166D02*
Y-358D01*
X138Y-319D02*
X146Y-319D01*
X153Y-357D01*
X97Y-358D02*
Y-332D01*
X92Y-332D02*
X97Y-332D01*
X87Y-331D02*
X92Y-332D01*
X87Y-358D02*
Y-331D01*
Y-384D02*
Y-358D01*
Y-384D02*
X92Y-383D01*
X97Y-383D01*
Y-358D01*
X72Y-358D02*
Y-319D01*
X88D01*
X72Y-397D02*
X89Y-396D01*
X72Y-397D02*
Y-358D01*
X26Y-358D02*
Y-319D01*
X33D01*
X41D01*
X45Y-334D01*
X49Y-350D01*
X49Y-334D01*
X49Y-319D01*
X57D01*
X65D01*
Y-358D02*
Y-319D01*
Y-397D02*
Y-358D01*
X57Y-397D02*
X65D01*
X40D02*
Y-380D01*
X33Y-397D02*
X40D01*
X26D02*
X33D01*
X26D02*
Y-358D01*
X6Y-397D02*
X14D01*
X5Y-393D02*
X6Y-397D01*
X-7Y-387D02*
X-1D01*
X-8Y-392D02*
X-7Y-387D01*
X-8Y-397D02*
X-8Y-392D01*
X-16Y-397D02*
X-8D01*
X-79Y-358D02*
Y-318D01*
X-71Y-319D01*
X-63Y-319D01*
X-59Y-335D01*
X-49Y-335D02*
X-45Y-319D01*
X-37D01*
X-29D01*
Y-358D02*
Y-319D01*
Y-397D02*
Y-358D01*
X-36Y-397D02*
X-29D01*
X-43D02*
X-36D01*
X-43D02*
Y-378D01*
X-54Y-390D02*
X-49Y-376D01*
X-59Y-375D02*
X-54Y-390D01*
X-64Y-359D02*
X-59Y-375D01*
X-64Y-378D02*
X-64Y-359D01*
X-64Y-397D02*
X-64Y-378D01*
X-72Y-397D02*
X-64D01*
X-79D02*
X-72D01*
X-79D02*
Y-358D01*
X-130Y-358D02*
Y-319D01*
X-115Y-319D01*
X-101Y-319D01*
X-100Y-323D01*
X-99Y-329D02*
X-98Y-333D01*
X-107D02*
X-98D01*
X-115D02*
X-107D01*
X-115Y-343D02*
Y-333D01*
Y-353D02*
Y-343D01*
Y-353D02*
X-108D01*
X-102D01*
Y-359D02*
Y-353D01*
Y-365D02*
Y-359D01*
X-108Y-365D02*
X-102D01*
X-115D02*
X-108D01*
X-115Y-381D02*
Y-365D01*
Y-397D02*
Y-381D01*
X-123Y-397D02*
X-115D01*
X-130D02*
X-123D01*
X-130D02*
Y-358D01*
X-153Y-358D02*
Y-319D01*
X-146D01*
X-138D01*
Y-358D02*
Y-319D01*
Y-397D02*
Y-358D01*
X-146Y-397D02*
X-138D01*
X-153D02*
X-146D01*
X-153D02*
Y-358D01*
X-176Y-346D02*
Y-332D01*
X-180Y-332D02*
X-176Y-332D01*
X-185Y-331D02*
X-180Y-332D01*
X-185Y-346D02*
Y-331D01*
Y-360D02*
Y-346D01*
Y-360D02*
X-180Y-359D01*
X-176Y-359D01*
Y-346D01*
X-200Y-358D02*
Y-319D01*
X-185D01*
X-175Y-397D02*
X-167D01*
X-177Y-388D02*
X-175Y-397D01*
X-185D02*
Y-384D01*
X-192Y-397D02*
X-185D01*
X-200D02*
X-192D01*
X-200D02*
Y-358D01*
X-228Y-376D02*
X-224D01*
X-224Y-368D02*
X-224Y-376D01*
X-228Y-319D02*
X-220Y-319D01*
X-213Y-356D01*
X-221Y-397D02*
X-213D01*
X-221Y-394D02*
X-221Y-397D01*
X-321Y-306D02*
Y-293D01*
X-335D02*
X-321D01*
X-348D02*
X-335D01*
X-348Y-306D02*
Y-293D01*
Y-320D02*
Y-306D01*
Y-320D02*
X-335D01*
X-321D01*
Y-306D01*
X-339Y-289D02*
Y-283D01*
Y-289D02*
X-335D01*
X-331D01*
Y-283D01*
X-327Y-289D02*
Y-283D01*
Y-289D02*
X-322D01*
X-317D01*
Y-294D02*
Y-289D01*
Y-299D02*
Y-294D01*
Y-299D02*
X-311D01*
X-317Y-303D02*
X-311D01*
X-317Y-307D02*
Y-303D01*
Y-311D02*
Y-307D01*
Y-311D02*
X-311D01*
X-317Y-315D02*
X-311D01*
X-317Y-319D02*
Y-315D01*
Y-323D02*
Y-319D01*
X-322Y-324D02*
X-317Y-323D01*
X-326Y-324D02*
X-322Y-324D01*
X-327Y-330D02*
X-326Y-324D01*
X-331Y-329D02*
Y-323D01*
X-335Y-324D02*
X-331Y-323D01*
X-338Y-324D02*
X-335Y-324D01*
X-339Y-330D02*
X-338Y-324D01*
X-342Y-330D02*
Y-324D01*
X-347D02*
X-342D01*
X-352D02*
X-347D01*
X-352D02*
Y-319D01*
Y-315D01*
X-358D02*
X-352D01*
X-358Y-311D02*
X-352D01*
Y-307D01*
Y-303D01*
X-358D02*
X-352D01*
X-358Y-299D02*
X-352D01*
Y-294D01*
Y-289D01*
X-347Y-288D01*
X-343Y-288D01*
X-342Y-282D01*
X-1177Y2628D02*
Y2705D01*
X-1744Y2628D02*
X-1424D01*
X-1177Y2909D02*
Y2982D01*
X-1223Y2628D02*
X-1177D01*
X-1744Y2982D02*
X-1177D01*
X-1744Y2628D02*
Y2982D01*
X-677Y1064D02*
X-523D01*
X-677Y666D02*
X-523D01*
X3361Y2136D02*
Y2289D01*
X3759Y2136D02*
Y2289D01*
X1916Y2136D02*
Y2289D01*
X2314Y2136D02*
Y2289D01*
X526Y2136D02*
Y2289D01*
X924Y2136D02*
Y2289D01*
X2364Y-254D02*
X2426D01*
X2364Y-376D02*
X2426D01*
X-680Y2895D02*
X-260D01*
Y2705D02*
Y2895D01*
X-680Y2705D02*
X-260D01*
X-680D02*
Y2895D01*
X1717Y-438D02*
Y-202D01*
X1481Y-438D02*
X1717D01*
X1481D02*
Y-202D01*
X1717D01*
X4134Y1327D02*
Y1465D01*
X4015Y1327D02*
Y1465D01*
X3957Y1327D02*
Y1465D01*
X3838Y1327D02*
Y1465D01*
X3780Y1327D02*
Y1465D01*
X3661Y1327D02*
Y1465D01*
X3603Y1327D02*
Y1465D01*
X3484Y1327D02*
Y1465D01*
X3426Y1327D02*
Y1465D01*
X3307Y1327D02*
Y1465D01*
X3249Y1327D02*
Y1465D01*
X3129Y1327D02*
Y1465D01*
X3071Y1327D02*
Y1465D01*
X2952Y1327D02*
Y1465D01*
X2894Y1327D02*
Y1465D01*
X2775Y1327D02*
Y1465D01*
X2717Y1327D02*
Y1465D01*
X2598Y1327D02*
Y1465D01*
X2540Y1327D02*
Y1465D01*
X2421Y1327D02*
Y1465D01*
X2363Y1327D02*
Y1465D01*
X2244Y1327D02*
Y1465D01*
X2186Y1327D02*
Y1465D01*
X2066Y1327D02*
Y1465D01*
X2008Y1327D02*
Y1465D01*
X1889Y1327D02*
Y1465D01*
X1831Y1327D02*
Y1465D01*
X1712Y1327D02*
Y1465D01*
X1654Y1327D02*
Y1465D01*
X1535Y1327D02*
Y1465D01*
X1477Y1327D02*
Y1465D01*
X1358Y1327D02*
Y1465D01*
X1300Y1327D02*
Y1465D01*
X1181Y1327D02*
Y1465D01*
X1123Y1327D02*
Y1465D01*
X1003Y1327D02*
Y1465D01*
X945Y1327D02*
Y1465D01*
X826Y1327D02*
Y1465D01*
X768Y1327D02*
Y1465D01*
X649Y1327D02*
Y1465D01*
X591Y1327D02*
Y1465D01*
X472Y1327D02*
Y1465D01*
X414Y1327D02*
Y1465D01*
X295Y1327D02*
Y1465D01*
X237Y1327D02*
Y1465D01*
X118Y1327D02*
Y1465D01*
X60Y1329D02*
Y1466D01*
X-60Y1329D02*
Y1466D01*
X4134Y1096D02*
Y1234D01*
X4015Y1096D02*
Y1234D01*
X3957Y1096D02*
Y1234D01*
X3838Y1096D02*
Y1234D01*
X3780Y1096D02*
Y1234D01*
X3661Y1096D02*
Y1234D01*
X3603Y1096D02*
Y1234D01*
X3484Y1096D02*
Y1234D01*
X3426Y1096D02*
Y1234D01*
X3307Y1096D02*
Y1234D01*
X3249Y1096D02*
Y1234D01*
X3129Y1096D02*
Y1234D01*
X3071Y1096D02*
Y1234D01*
X2952Y1096D02*
Y1234D01*
X2894Y1096D02*
Y1234D01*
X2775Y1096D02*
Y1234D01*
X2717Y1096D02*
Y1234D01*
X2598Y1096D02*
Y1234D01*
X2540Y1096D02*
Y1234D01*
X2421Y1096D02*
Y1234D01*
X2363Y1096D02*
Y1234D01*
X2244Y1096D02*
Y1234D01*
X2186Y1096D02*
Y1234D01*
X2066Y1096D02*
Y1234D01*
X2008Y1096D02*
Y1234D01*
X1889Y1096D02*
Y1234D01*
X1831Y1096D02*
Y1234D01*
X1712Y1096D02*
Y1234D01*
X1654Y1096D02*
Y1234D01*
X1535Y1096D02*
Y1234D01*
X1477Y1096D02*
Y1234D01*
X1358Y1096D02*
Y1234D01*
X1300Y1096D02*
Y1234D01*
X1181Y1096D02*
Y1234D01*
X1123Y1096D02*
Y1234D01*
X1003Y1096D02*
Y1234D01*
X945Y1096D02*
Y1234D01*
X826Y1096D02*
Y1234D01*
X768Y1096D02*
Y1234D01*
X649Y1096D02*
Y1234D01*
X591Y1096D02*
Y1234D01*
X472Y1096D02*
Y1234D01*
X414Y1096D02*
Y1234D01*
X295Y1096D02*
Y1234D01*
X237Y1096D02*
Y1234D01*
X118Y1096D02*
Y1234D01*
X60Y1095D02*
Y1233D01*
X-60Y1095D02*
Y1233D01*
X4134Y861D02*
Y999D01*
X4015Y861D02*
Y999D01*
X3957Y861D02*
Y999D01*
X3838Y861D02*
Y999D01*
X3780Y861D02*
Y999D01*
X3661Y861D02*
Y999D01*
X3603Y861D02*
Y999D01*
X3484Y861D02*
Y999D01*
X3426Y861D02*
Y999D01*
X3307Y861D02*
Y999D01*
X3249Y861D02*
Y999D01*
X3129Y861D02*
Y999D01*
X3071Y861D02*
Y999D01*
X2952Y861D02*
Y999D01*
X2894Y861D02*
Y999D01*
X2775Y861D02*
Y999D01*
X2717Y861D02*
Y999D01*
X2598Y861D02*
Y999D01*
X2540Y861D02*
Y999D01*
X2421Y861D02*
Y999D01*
X2363Y861D02*
Y999D01*
X2244Y861D02*
Y999D01*
X2186Y861D02*
Y999D01*
X2066Y861D02*
Y999D01*
X2008Y861D02*
Y999D01*
X1889Y861D02*
Y999D01*
X1831Y861D02*
Y999D01*
X1712Y861D02*
Y999D01*
X1654Y861D02*
Y999D01*
X1535Y861D02*
Y999D01*
X1477Y861D02*
Y999D01*
X1358Y861D02*
Y999D01*
X1300Y861D02*
Y999D01*
X1181Y861D02*
Y999D01*
X1123Y861D02*
Y999D01*
X1003Y861D02*
Y999D01*
X945Y861D02*
Y999D01*
X826Y861D02*
Y999D01*
X768Y861D02*
Y999D01*
X649Y861D02*
Y999D01*
X591Y861D02*
Y999D01*
X472Y861D02*
Y999D01*
X414Y861D02*
Y999D01*
X295Y861D02*
Y999D01*
X237Y861D02*
Y999D01*
X118Y861D02*
Y999D01*
X60Y862D02*
Y1000D01*
X-60Y862D02*
Y1000D01*
X4134Y621D02*
Y759D01*
X4015Y621D02*
Y759D01*
X3957Y621D02*
Y759D01*
X3838Y621D02*
Y759D01*
X3780Y621D02*
Y759D01*
X3661Y621D02*
Y759D01*
X3603Y621D02*
Y759D01*
X3484Y621D02*
Y759D01*
X3426Y621D02*
Y759D01*
X3307Y621D02*
Y759D01*
X3249Y621D02*
Y759D01*
X3129Y621D02*
Y759D01*
X3071Y621D02*
Y759D01*
X2952Y621D02*
Y759D01*
X2894Y621D02*
Y759D01*
X2775Y621D02*
Y759D01*
X2717Y621D02*
Y759D01*
X2598Y621D02*
Y759D01*
X2540Y621D02*
Y759D01*
X2421Y621D02*
Y759D01*
X2363Y621D02*
Y759D01*
X2244Y621D02*
Y759D01*
X2186Y621D02*
Y759D01*
X2066Y621D02*
Y759D01*
X2008Y621D02*
Y759D01*
X1889Y621D02*
Y759D01*
X1831Y621D02*
Y759D01*
X1712Y621D02*
Y759D01*
X1654Y621D02*
Y759D01*
X1535Y621D02*
Y759D01*
X1477Y621D02*
Y759D01*
X1358Y621D02*
Y759D01*
X1300Y621D02*
Y759D01*
X1181Y621D02*
Y759D01*
X1123Y621D02*
Y759D01*
X1003Y621D02*
Y759D01*
X945Y621D02*
Y759D01*
X826Y621D02*
Y759D01*
X768Y621D02*
Y759D01*
X649Y621D02*
Y759D01*
X591Y621D02*
Y759D01*
X472Y621D02*
Y759D01*
X414Y621D02*
Y759D01*
X295Y621D02*
Y759D01*
X237Y621D02*
Y759D01*
X118Y621D02*
Y759D01*
X60Y629D02*
Y767D01*
X-60Y629D02*
Y767D01*
X4134Y396D02*
Y534D01*
X4015Y396D02*
Y534D01*
X3957Y396D02*
Y534D01*
X3838Y396D02*
Y534D01*
X3780Y396D02*
Y534D01*
X3661Y396D02*
Y534D01*
X3603Y396D02*
Y534D01*
X3484Y396D02*
Y534D01*
X3426Y396D02*
Y534D01*
X3307Y396D02*
Y534D01*
X3249Y396D02*
Y534D01*
X3129Y396D02*
Y534D01*
X3071Y396D02*
Y534D01*
X2952Y396D02*
Y534D01*
X2894Y396D02*
Y534D01*
X2775Y396D02*
Y534D01*
X2717Y396D02*
Y534D01*
X2598Y396D02*
Y534D01*
X2540Y396D02*
Y534D01*
X2421Y396D02*
Y534D01*
X2363Y396D02*
Y534D01*
X2244Y396D02*
Y534D01*
X2186Y396D02*
Y534D01*
X2066Y396D02*
Y534D01*
X2008Y396D02*
Y534D01*
X1889Y396D02*
Y534D01*
X1831Y396D02*
Y534D01*
X1712Y396D02*
Y534D01*
X1654Y396D02*
Y534D01*
X1535Y396D02*
Y534D01*
X1477Y396D02*
Y534D01*
X1358Y396D02*
Y534D01*
X1300Y396D02*
Y534D01*
X1181Y396D02*
Y534D01*
X1123Y396D02*
Y534D01*
X1003Y396D02*
Y534D01*
X945Y396D02*
Y534D01*
X826Y396D02*
Y534D01*
X768Y396D02*
Y534D01*
X649Y396D02*
Y534D01*
X591Y396D02*
Y534D01*
X472Y396D02*
Y534D01*
X414Y396D02*
Y534D01*
X295Y396D02*
Y534D01*
X237Y396D02*
Y534D01*
X118Y396D02*
Y534D01*
X60Y395D02*
Y533D01*
X-60Y395D02*
Y533D01*
X4134Y166D02*
Y304D01*
X4015Y166D02*
Y304D01*
X3957Y166D02*
Y304D01*
X3838Y166D02*
Y304D01*
X3780Y166D02*
Y304D01*
X3661Y166D02*
Y304D01*
X3603Y166D02*
Y304D01*
X3484Y166D02*
Y304D01*
X3426Y166D02*
Y304D01*
X3307Y166D02*
Y304D01*
X3249Y166D02*
Y304D01*
X3129Y166D02*
Y304D01*
X3071Y166D02*
Y304D01*
X2952Y166D02*
Y304D01*
X2894Y166D02*
Y304D01*
X2775Y166D02*
Y304D01*
X2717Y166D02*
Y304D01*
X2598Y166D02*
Y304D01*
X2540Y166D02*
Y304D01*
X2421Y166D02*
Y304D01*
X2363Y166D02*
Y304D01*
X2244Y166D02*
Y304D01*
X2186Y166D02*
Y304D01*
X2066Y166D02*
Y304D01*
X2008Y166D02*
Y304D01*
X1889Y166D02*
Y304D01*
X1831Y166D02*
Y304D01*
X1712Y166D02*
Y304D01*
X1654Y166D02*
Y304D01*
X1535Y166D02*
Y304D01*
X1477Y166D02*
Y304D01*
X1358Y166D02*
Y304D01*
X1300Y166D02*
Y304D01*
X1181Y166D02*
Y304D01*
X1123Y166D02*
Y304D01*
X1003Y166D02*
Y304D01*
X945Y166D02*
Y304D01*
X826Y166D02*
Y304D01*
X768Y166D02*
Y304D01*
X649Y166D02*
Y304D01*
X591Y166D02*
Y304D01*
X472Y166D02*
Y304D01*
X414Y166D02*
Y304D01*
X295Y166D02*
Y304D01*
X237Y166D02*
Y304D01*
X118Y166D02*
Y304D01*
X60Y162D02*
Y300D01*
X-60Y162D02*
Y300D01*
X4134Y-69D02*
Y69D01*
X4015Y-69D02*
Y69D01*
X3957Y-69D02*
Y69D01*
X3838Y-69D02*
Y69D01*
X3780Y-69D02*
Y69D01*
X3661Y-69D02*
Y69D01*
X3603Y-69D02*
Y69D01*
X3484Y-69D02*
Y69D01*
X3426Y-69D02*
Y69D01*
X3307Y-69D02*
Y69D01*
X3249Y-69D02*
Y69D01*
X3129Y-69D02*
Y69D01*
X3071Y-69D02*
Y69D01*
X2952Y-69D02*
Y69D01*
X2894Y-69D02*
Y69D01*
X2775Y-69D02*
Y69D01*
X2717Y-69D02*
Y69D01*
X2598Y-69D02*
Y69D01*
X2540Y-69D02*
Y69D01*
X2421Y-69D02*
Y69D01*
X2363Y-69D02*
Y69D01*
X2244Y-69D02*
Y69D01*
X2186Y-69D02*
Y69D01*
X2066Y-69D02*
Y69D01*
X2008Y-69D02*
Y69D01*
X1889Y-69D02*
Y69D01*
X1831Y-69D02*
Y69D01*
X1712Y-69D02*
Y69D01*
X1654Y-69D02*
Y69D01*
X1535Y-69D02*
Y69D01*
X1477Y-69D02*
Y69D01*
X1358Y-69D02*
Y69D01*
X1300Y-69D02*
Y69D01*
X1181Y-69D02*
Y69D01*
X1123Y-69D02*
Y69D01*
X1003Y-69D02*
Y69D01*
X945Y-69D02*
Y69D01*
X826Y-69D02*
Y69D01*
X768Y-69D02*
Y69D01*
X649Y-69D02*
Y69D01*
X591Y-69D02*
Y69D01*
X472Y-69D02*
Y69D01*
X414Y-69D02*
Y69D01*
X295Y-69D02*
Y69D01*
X237Y-69D02*
Y69D01*
X118Y-69D02*
Y69D01*
X60Y-71D02*
Y67D01*
X-60Y-71D02*
Y67D01*
D11*
X-428Y-412D02*
D03*
X139Y-348D02*
D03*
X130Y-319D02*
D03*
X49Y-396D02*
D03*
X-1Y-348D02*
D03*
X-5Y-375D02*
D03*
X2Y-375D02*
D03*
X-23Y-396D02*
D03*
X-54Y-351D02*
D03*
X-166Y-372D02*
D03*
X-167Y-373D02*
D03*
X-160Y-396D02*
D03*
X-184Y-372D02*
D03*
X-228Y-347D02*
D03*
X-228Y-347D02*
D03*
X-236Y-319D02*
D03*
X-340Y-277D02*
D03*
D12*
X5615Y73913D02*
G03*
X5611Y73894I147806J-26651D01*
G01*
D13*
X315Y2829D02*
G03*
X287Y2799I-17J-12D01*
G01*
X286Y2500D02*
G03*
X316Y2472I12J-17D01*
G01*
X615Y2471D02*
G03*
X643Y2501I17J12D01*
G01*
X644Y2800D02*
G03*
X614Y2828I-12J17D01*
G01*
D14*
X658Y2779D02*
G03*
X465Y2882I-193J-129D01*
G01*
X465Y2882D02*
G03*
X270Y2777I-0J-232D01*
G01*
X272Y2521D02*
G03*
X465Y2418I193J129D01*
G01*
X465Y2418D02*
G03*
X660Y2523I0J232D01*
G01*
X-88Y2818D02*
G03*
X-88Y2532I58J-143D01*
G01*
X28Y2532D02*
G03*
X28Y2818I-58J143D01*
G01*
X-968Y2818D02*
G03*
X-968Y2532I58J-143D01*
G01*
X-852Y2532D02*
G03*
X-852Y2818I-58J143D01*
G01*
X-1259Y2215D02*
Y2295D01*
X-1401Y2215D02*
Y2295D01*
Y2215D02*
X-1259D01*
X-1401Y2295D02*
X-1259D01*
X209Y2768D02*
Y2906D01*
Y2394D02*
Y2531D01*
X722Y2394D02*
Y2533D01*
Y2767D02*
Y2906D01*
X209D02*
X722D01*
X209Y2394D02*
X722D01*
X-195Y2805D02*
X-160Y2840D01*
X100D02*
X135Y2805D01*
X28Y2840D02*
X100D01*
X-160D02*
X-88D01*
X-195Y2510D02*
Y2805D01*
Y2510D02*
X-88D01*
X28D02*
X135D01*
Y2805D01*
X-1075D02*
X-1040Y2840D01*
X-780D02*
X-745Y2805D01*
X-852Y2840D02*
X-780D01*
X-1040D02*
X-968D01*
X-1075Y2510D02*
Y2805D01*
Y2510D02*
X-968D01*
X-852D02*
X-745D01*
Y2805D01*
X-586Y1593D02*
Y1807D01*
Y1809D02*
X-474D01*
Y1593D02*
Y1807D01*
X-586Y1593D02*
X-474D01*
X-863Y1642D02*
X-617D01*
X-863Y1778D02*
X-617D01*
Y1642D02*
Y1778D01*
X-863Y1642D02*
Y1778D01*
X-1001Y1593D02*
Y1807D01*
Y1809D02*
X-889D01*
Y1593D02*
Y1807D01*
X-1001Y1593D02*
X-889D01*
X-1555Y1375D02*
Y1425D01*
X-1530Y1450D01*
X-1480D01*
X-1455Y1425D01*
X-1555Y1275D02*
X-1530Y1250D01*
X-1555Y1275D02*
Y1325D01*
X-1530Y1350D01*
X-1480D01*
X-1455Y1325D01*
Y1275D02*
Y1325D01*
X-1480Y1250D02*
X-1455Y1275D01*
X-1555Y1375D02*
X-1530Y1350D01*
X-1480D02*
X-1455Y1375D01*
Y1425D01*
X-1555Y1075D02*
Y1125D01*
X-1530Y1150D01*
X-1480D01*
X-1455Y1125D01*
X-1555Y1175D02*
X-1530Y1150D01*
X-1555Y1175D02*
Y1225D01*
X-1530Y1250D01*
X-1480D01*
X-1455Y1225D01*
Y1175D02*
Y1225D01*
X-1480Y1150D02*
X-1455Y1175D01*
X-1530Y1050D02*
X-1480D01*
X-1555Y1075D02*
X-1530Y1050D01*
X-1480D02*
X-1455Y1075D01*
Y1125D01*
X-1555Y1475D02*
Y1525D01*
X-1530Y1550D01*
X-1480D01*
X-1455Y1525D01*
X-1555Y1475D02*
X-1530Y1450D01*
X-1480D02*
X-1455Y1475D01*
Y1525D01*
X-1381Y1360D02*
Y1440D01*
X-1239Y1360D02*
Y1440D01*
X-1381D02*
X-1239D01*
X-1381Y1360D02*
X-1239D01*
X-1244Y1160D02*
Y1240D01*
X-1386Y1160D02*
Y1240D01*
Y1160D02*
X-1244D01*
X-1386Y1240D02*
X-1244D01*
X-1530Y510D02*
X-1480D01*
X-1455Y485D01*
Y435D02*
Y485D01*
X-1480Y410D02*
X-1455Y435D01*
Y485D02*
X-1430Y510D01*
X-1380D01*
X-1355Y485D01*
Y435D02*
Y485D01*
X-1380Y410D02*
X-1355Y435D01*
X-1430Y410D02*
X-1380D01*
X-1455Y435D02*
X-1430Y410D01*
X-1555Y435D02*
Y485D01*
X-1530Y510D01*
X-1555Y435D02*
X-1530Y410D01*
X-1480D01*
X-1546Y225D02*
Y305D01*
X-1404Y225D02*
Y305D01*
X-1546D02*
X-1404D01*
X-1546Y225D02*
X-1404D01*
X-1356D02*
Y305D01*
X-1214Y225D02*
Y305D01*
X-1356D02*
X-1214D01*
X-1356Y225D02*
X-1214D01*
X1840Y-336D02*
X1920D01*
X1840Y-194D02*
X1920D01*
X1840Y-336D02*
Y-194D01*
X1920Y-336D02*
Y-194D01*
X1275D02*
X1355D01*
X1275Y-336D02*
X1355D01*
Y-194D01*
X1275Y-336D02*
Y-194D01*
X2185Y-501D02*
X2265D01*
X2185Y-359D02*
X2265D01*
X2185Y-501D02*
Y-359D01*
X2265Y-501D02*
Y-359D01*
X2185Y-189D02*
X2265D01*
X2185Y-331D02*
X2265D01*
Y-189D01*
X2185Y-331D02*
Y-189D01*
X2505D02*
X2585D01*
X2505Y-331D02*
X2585D01*
Y-189D01*
X2505Y-331D02*
Y-189D01*
D15*
X-1118Y2805D02*
G03*
X-1118Y2805I-8J0D01*
G01*
X1879Y-411D02*
G03*
X1879Y-411I-8J0D01*
G01*
D16*
X-1190Y729D02*
G03*
X-1190Y729I-12J0D01*
G01*
D17*
X-1114Y674D02*
G03*
X-1114Y674I-5J0D01*
G01*
D18*
X-759Y1060D02*
G03*
X-759Y1060I-4J0D01*
G01*
X3369Y2049D02*
G03*
X3369Y2049I-4J0D01*
G01*
X1924D02*
G03*
X1924Y2049I-4J0D01*
G01*
X534D02*
G03*
X534Y2049I-4J0D01*
G01*
X2301Y-278D02*
G03*
X2301Y-278I-4J0D01*
G01*
X-709Y2795D02*
G03*
X-709Y2795I-4J0D01*
G01*
X-1560Y2255D02*
G03*
X-1560Y2255I-4J0D01*
G01*
X-1022Y270D02*
G03*
X-1022Y270I-4J0D01*
G01*
X4083Y1522D02*
G03*
X4083Y1522I-4J0D01*
G01*
X3906D02*
G03*
X3906Y1522I-4J0D01*
G01*
X3728D02*
G03*
X3728Y1522I-4J0D01*
G01*
X3551D02*
G03*
X3551Y1522I-4J0D01*
G01*
X3374D02*
G03*
X3374Y1522I-4J0D01*
G01*
X3197D02*
G03*
X3197Y1522I-4J0D01*
G01*
X3020D02*
G03*
X3020Y1522I-4J0D01*
G01*
X2843D02*
G03*
X2843Y1522I-4J0D01*
G01*
X2665D02*
G03*
X2665Y1522I-4J0D01*
G01*
X2488D02*
G03*
X2488Y1522I-4J0D01*
G01*
X2311D02*
G03*
X2311Y1522I-4J0D01*
G01*
X2134D02*
G03*
X2134Y1522I-4J0D01*
G01*
X1957D02*
G03*
X1957Y1522I-4J0D01*
G01*
X1780D02*
G03*
X1780Y1522I-4J0D01*
G01*
X1602D02*
G03*
X1602Y1522I-4J0D01*
G01*
X1425D02*
G03*
X1425Y1522I-4J0D01*
G01*
X1248D02*
G03*
X1248Y1522I-4J0D01*
G01*
X1071D02*
G03*
X1071Y1522I-4J0D01*
G01*
X894D02*
G03*
X894Y1522I-4J0D01*
G01*
X717D02*
G03*
X717Y1522I-4J0D01*
G01*
X539D02*
G03*
X539Y1522I-4J0D01*
G01*
X362D02*
G03*
X362Y1522I-4J0D01*
G01*
X185D02*
G03*
X185Y1522I-4J0D01*
G01*
X8Y1523D02*
G03*
X8Y1523I-4J0D01*
G01*
X4083Y1291D02*
G03*
X4083Y1291I-4J0D01*
G01*
X3906D02*
G03*
X3906Y1291I-4J0D01*
G01*
X3728D02*
G03*
X3728Y1291I-4J0D01*
G01*
X3551D02*
G03*
X3551Y1291I-4J0D01*
G01*
X3374D02*
G03*
X3374Y1291I-4J0D01*
G01*
X3197D02*
G03*
X3197Y1291I-4J0D01*
G01*
X3020D02*
G03*
X3020Y1291I-4J0D01*
G01*
X2843D02*
G03*
X2843Y1291I-4J0D01*
G01*
X2665D02*
G03*
X2665Y1291I-4J0D01*
G01*
X2488D02*
G03*
X2488Y1291I-4J0D01*
G01*
X2311D02*
G03*
X2311Y1291I-4J0D01*
G01*
X2134D02*
G03*
X2134Y1291I-4J0D01*
G01*
X1957D02*
G03*
X1957Y1291I-4J0D01*
G01*
X1780D02*
G03*
X1780Y1291I-4J0D01*
G01*
X1602D02*
G03*
X1602Y1291I-4J0D01*
G01*
X1425D02*
G03*
X1425Y1291I-4J0D01*
G01*
X1248D02*
G03*
X1248Y1291I-4J0D01*
G01*
X1071D02*
G03*
X1071Y1291I-4J0D01*
G01*
X894D02*
G03*
X894Y1291I-4J0D01*
G01*
X717D02*
G03*
X717Y1291I-4J0D01*
G01*
X539D02*
G03*
X539Y1291I-4J0D01*
G01*
X362D02*
G03*
X362Y1291I-4J0D01*
G01*
X185D02*
G03*
X185Y1291I-4J0D01*
G01*
X8Y1290D02*
G03*
X8Y1290I-4J0D01*
G01*
X4083Y1056D02*
G03*
X4083Y1056I-4J0D01*
G01*
X3906D02*
G03*
X3906Y1056I-4J0D01*
G01*
X3728D02*
G03*
X3728Y1056I-4J0D01*
G01*
X3551D02*
G03*
X3551Y1056I-4J0D01*
G01*
X3374D02*
G03*
X3374Y1056I-4J0D01*
G01*
X3197D02*
G03*
X3197Y1056I-4J0D01*
G01*
X3020D02*
G03*
X3020Y1056I-4J0D01*
G01*
X2843D02*
G03*
X2843Y1056I-4J0D01*
G01*
X2665D02*
G03*
X2665Y1056I-4J0D01*
G01*
X2488D02*
G03*
X2488Y1056I-4J0D01*
G01*
X2311D02*
G03*
X2311Y1056I-4J0D01*
G01*
X2134D02*
G03*
X2134Y1056I-4J0D01*
G01*
X1957D02*
G03*
X1957Y1056I-4J0D01*
G01*
X1780D02*
G03*
X1780Y1056I-4J0D01*
G01*
X1602D02*
G03*
X1602Y1056I-4J0D01*
G01*
X1425D02*
G03*
X1425Y1056I-4J0D01*
G01*
X1248D02*
G03*
X1248Y1056I-4J0D01*
G01*
X1071D02*
G03*
X1071Y1056I-4J0D01*
G01*
X894D02*
G03*
X894Y1056I-4J0D01*
G01*
X717D02*
G03*
X717Y1056I-4J0D01*
G01*
X539D02*
G03*
X539Y1056I-4J0D01*
G01*
X362D02*
G03*
X362Y1056I-4J0D01*
G01*
X185D02*
G03*
X185Y1056I-4J0D01*
G01*
X8Y1057D02*
G03*
X8Y1057I-4J0D01*
G01*
X4083Y816D02*
G03*
X4083Y816I-4J0D01*
G01*
X3906D02*
G03*
X3906Y816I-4J0D01*
G01*
X3728D02*
G03*
X3728Y816I-4J0D01*
G01*
X3551D02*
G03*
X3551Y816I-4J0D01*
G01*
X3374D02*
G03*
X3374Y816I-4J0D01*
G01*
X3197D02*
G03*
X3197Y816I-4J0D01*
G01*
X3020D02*
G03*
X3020Y816I-4J0D01*
G01*
X2843D02*
G03*
X2843Y816I-4J0D01*
G01*
X2665D02*
G03*
X2665Y816I-4J0D01*
G01*
X2488D02*
G03*
X2488Y816I-4J0D01*
G01*
X2311D02*
G03*
X2311Y816I-4J0D01*
G01*
X2134D02*
G03*
X2134Y816I-4J0D01*
G01*
X1957D02*
G03*
X1957Y816I-4J0D01*
G01*
X1780D02*
G03*
X1780Y816I-4J0D01*
G01*
X1602D02*
G03*
X1602Y816I-4J0D01*
G01*
X1425D02*
G03*
X1425Y816I-4J0D01*
G01*
X1248D02*
G03*
X1248Y816I-4J0D01*
G01*
X1071D02*
G03*
X1071Y816I-4J0D01*
G01*
X894D02*
G03*
X894Y816I-4J0D01*
G01*
X717D02*
G03*
X717Y816I-4J0D01*
G01*
X539D02*
G03*
X539Y816I-4J0D01*
G01*
X362D02*
G03*
X362Y816I-4J0D01*
G01*
X185D02*
G03*
X185Y816I-4J0D01*
G01*
X8Y824D02*
G03*
X8Y824I-4J0D01*
G01*
X4083Y591D02*
G03*
X4083Y591I-4J0D01*
G01*
X3906D02*
G03*
X3906Y591I-4J0D01*
G01*
X3728D02*
G03*
X3728Y591I-4J0D01*
G01*
X3551D02*
G03*
X3551Y591I-4J0D01*
G01*
X3374D02*
G03*
X3374Y591I-4J0D01*
G01*
X3197D02*
G03*
X3197Y591I-4J0D01*
G01*
X3020D02*
G03*
X3020Y591I-4J0D01*
G01*
X2843D02*
G03*
X2843Y591I-4J0D01*
G01*
X2665D02*
G03*
X2665Y591I-4J0D01*
G01*
X2488D02*
G03*
X2488Y591I-4J0D01*
G01*
X2311D02*
G03*
X2311Y591I-4J0D01*
G01*
X2134D02*
G03*
X2134Y591I-4J0D01*
G01*
X1957D02*
G03*
X1957Y591I-4J0D01*
G01*
X1780D02*
G03*
X1780Y591I-4J0D01*
G01*
X1602D02*
G03*
X1602Y591I-4J0D01*
G01*
X1425D02*
G03*
X1425Y591I-4J0D01*
G01*
X1248D02*
G03*
X1248Y591I-4J0D01*
G01*
X1071D02*
G03*
X1071Y591I-4J0D01*
G01*
X894D02*
G03*
X894Y591I-4J0D01*
G01*
X717D02*
G03*
X717Y591I-4J0D01*
G01*
X539D02*
G03*
X539Y591I-4J0D01*
G01*
X362D02*
G03*
X362Y591I-4J0D01*
G01*
X185D02*
G03*
X185Y591I-4J0D01*
G01*
X8Y590D02*
G03*
X8Y590I-4J0D01*
G01*
X4083Y361D02*
G03*
X4083Y361I-4J0D01*
G01*
X3906D02*
G03*
X3906Y361I-4J0D01*
G01*
X3728D02*
G03*
X3728Y361I-4J0D01*
G01*
X3551D02*
G03*
X3551Y361I-4J0D01*
G01*
X3374D02*
G03*
X3374Y361I-4J0D01*
G01*
X3197D02*
G03*
X3197Y361I-4J0D01*
G01*
X3020D02*
G03*
X3020Y361I-4J0D01*
G01*
X2843D02*
G03*
X2843Y361I-4J0D01*
G01*
X2665D02*
G03*
X2665Y361I-4J0D01*
G01*
X2488D02*
G03*
X2488Y361I-4J0D01*
G01*
X2311D02*
G03*
X2311Y361I-4J0D01*
G01*
X2134D02*
G03*
X2134Y361I-4J0D01*
G01*
X1957D02*
G03*
X1957Y361I-4J0D01*
G01*
X1780D02*
G03*
X1780Y361I-4J0D01*
G01*
X1602D02*
G03*
X1602Y361I-4J0D01*
G01*
X1425D02*
G03*
X1425Y361I-4J0D01*
G01*
X1248D02*
G03*
X1248Y361I-4J0D01*
G01*
X1071D02*
G03*
X1071Y361I-4J0D01*
G01*
X894D02*
G03*
X894Y361I-4J0D01*
G01*
X717D02*
G03*
X717Y361I-4J0D01*
G01*
X539D02*
G03*
X539Y361I-4J0D01*
G01*
X362D02*
G03*
X362Y361I-4J0D01*
G01*
X185D02*
G03*
X185Y361I-4J0D01*
G01*
X8Y357D02*
G03*
X8Y357I-4J0D01*
G01*
X4083Y126D02*
G03*
X4083Y126I-4J0D01*
G01*
X3906D02*
G03*
X3906Y126I-4J0D01*
G01*
X3728D02*
G03*
X3728Y126I-4J0D01*
G01*
X3551D02*
G03*
X3551Y126I-4J0D01*
G01*
X3374D02*
G03*
X3374Y126I-4J0D01*
G01*
X3197D02*
G03*
X3197Y126I-4J0D01*
G01*
X3020D02*
G03*
X3020Y126I-4J0D01*
G01*
X2843D02*
G03*
X2843Y126I-4J0D01*
G01*
X2665D02*
G03*
X2665Y126I-4J0D01*
G01*
X2488D02*
G03*
X2488Y126I-4J0D01*
G01*
X2311D02*
G03*
X2311Y126I-4J0D01*
G01*
X2134D02*
G03*
X2134Y126I-4J0D01*
G01*
X1957D02*
G03*
X1957Y126I-4J0D01*
G01*
X1780D02*
G03*
X1780Y126I-4J0D01*
G01*
X1602D02*
G03*
X1602Y126I-4J0D01*
G01*
X1425D02*
G03*
X1425Y126I-4J0D01*
G01*
X1248D02*
G03*
X1248Y126I-4J0D01*
G01*
X1071D02*
G03*
X1071Y126I-4J0D01*
G01*
X894D02*
G03*
X894Y126I-4J0D01*
G01*
X717D02*
G03*
X717Y126I-4J0D01*
G01*
X539D02*
G03*
X539Y126I-4J0D01*
G01*
X362D02*
G03*
X362Y126I-4J0D01*
G01*
X185D02*
G03*
X185Y126I-4J0D01*
G01*
X8Y124D02*
G03*
X8Y124I-4J0D01*
G01*
X-1308Y950D02*
X-1162D01*
X-1308Y690D02*
X-1162D01*
X-1308D02*
Y950D01*
X-1162Y690D02*
Y950D01*
X-1493Y2279D02*
X-1477D01*
X-1493Y2231D02*
X-1477D01*
X-1113Y246D02*
X-1097D01*
X-1113Y294D02*
X-1097D01*
D19*
X-835Y2250D02*
X-785D01*
X-835Y2227D02*
Y2250D01*
X-880Y2227D02*
X-835Y2250D01*
X-880Y2227D02*
Y2273D01*
X-835Y2250D01*
X-925D02*
X-835D01*
Y2273D01*
X-670Y2152D02*
Y2348D01*
X-1000Y2152D02*
Y2348D01*
Y2152D02*
X-670D01*
X-1000Y2348D02*
X-670D01*
X-1549Y2370D02*
Y2330D01*
X-1547Y2370D02*
Y2330D01*
X-1555Y2370D02*
X-1532D01*
X-1526Y2368D01*
X-1525Y2366D01*
X-1523Y2362D01*
Y2357D01*
X-1525Y2353D01*
X-1526Y2351D01*
X-1532Y2349D01*
X-1547D01*
X-1532Y2370D02*
X-1528Y2368D01*
X-1526Y2366D01*
X-1525Y2362D01*
Y2357D01*
X-1526Y2353D01*
X-1528Y2351D01*
X-1532Y2349D01*
X-1555Y2330D02*
X-1542D01*
X-1504Y2370D02*
X-1510Y2368D01*
X-1513Y2364D01*
X-1515Y2360D01*
X-1517Y2353D01*
Y2347D01*
X-1515Y2340D01*
X-1513Y2336D01*
X-1510Y2332D01*
X-1504Y2330D01*
X-1500D01*
X-1494Y2332D01*
X-1491Y2336D01*
X-1489Y2340D01*
X-1487Y2347D01*
Y2353D01*
X-1489Y2360D01*
X-1491Y2364D01*
X-1494Y2368D01*
X-1500Y2370D01*
X-1504D01*
X-1508Y2368D01*
X-1512Y2364D01*
X-1513Y2360D01*
X-1515Y2353D01*
Y2347D01*
X-1513Y2340D01*
X-1512Y2336D01*
X-1508Y2332D01*
X-1504Y2330D01*
X-1500D02*
X-1496Y2332D01*
X-1493Y2336D01*
X-1491Y2340D01*
X-1489Y2347D01*
Y2353D01*
X-1491Y2360D01*
X-1493Y2364D01*
X-1496Y2368D01*
X-1500Y2370D01*
X-1476D02*
X-1468Y2330D01*
X-1474Y2370D02*
X-1468Y2340D01*
X-1460Y2370D02*
X-1468Y2330D01*
X-1460Y2370D02*
X-1453Y2330D01*
X-1458Y2370D02*
X-1453Y2340D01*
X-1445Y2370D02*
X-1453Y2330D01*
X-1481Y2370D02*
X-1468D01*
X-1451D02*
X-1439D01*
X-1429D02*
Y2330D01*
X-1427Y2370D02*
Y2330D01*
X-1416Y2359D02*
Y2343D01*
X-1435Y2370D02*
X-1405D01*
Y2359D01*
X-1406Y2370D01*
X-1427Y2351D02*
X-1416D01*
X-1435Y2330D02*
X-1405D01*
Y2341D01*
X-1406Y2330D01*
X-1393Y2370D02*
Y2330D01*
X-1391Y2370D02*
Y2330D01*
X-1399Y2370D02*
X-1376D01*
X-1370Y2368D01*
X-1369Y2366D01*
X-1367Y2362D01*
Y2359D01*
X-1369Y2355D01*
X-1370Y2353D01*
X-1376Y2351D01*
X-1391D01*
X-1376Y2370D02*
X-1372Y2368D01*
X-1370Y2366D01*
X-1369Y2362D01*
Y2359D01*
X-1370Y2355D01*
X-1372Y2353D01*
X-1376Y2351D01*
X-1399Y2330D02*
X-1386D01*
X-1382Y2351D02*
X-1378Y2349D01*
X-1376Y2347D01*
X-1370Y2334D01*
X-1369Y2332D01*
X-1367D01*
X-1365Y2334D01*
X-1378Y2349D02*
X-1376Y2345D01*
X-1372Y2332D01*
X-1370Y2330D01*
X-1367D01*
X-1365Y2334D01*
Y2336D01*
X-1318Y2370D02*
Y2330D01*
X-1316Y2370D02*
Y2330D01*
X-1324Y2370D02*
X-1310D01*
X-1324Y2330D02*
X-1295D01*
Y2341D01*
X-1297Y2330D01*
X-1284Y2370D02*
Y2330D01*
X-1282Y2370D02*
Y2330D01*
X-1270Y2359D02*
Y2343D01*
X-1289Y2370D02*
X-1259D01*
Y2359D01*
X-1261Y2370D01*
X-1282Y2351D02*
X-1270D01*
X-1289Y2330D02*
X-1259D01*
Y2341D01*
X-1261Y2330D01*
X-1248Y2370D02*
Y2330D01*
X-1246Y2370D02*
Y2330D01*
X-1253Y2370D02*
X-1234D01*
X-1229Y2368D01*
X-1225Y2364D01*
X-1223Y2360D01*
X-1221Y2355D01*
Y2345D01*
X-1223Y2340D01*
X-1225Y2336D01*
X-1229Y2332D01*
X-1234Y2330D01*
X-1253D01*
X-1234Y2370D02*
X-1230Y2368D01*
X-1227Y2364D01*
X-1225Y2360D01*
X-1223Y2355D01*
Y2345D01*
X-1225Y2340D01*
X-1227Y2336D01*
X-1230Y2332D01*
X-1234Y2330D01*
X-1408Y1309D02*
X-1406Y1304D01*
Y1315D01*
X-1408Y1309D01*
X-1412Y1313D01*
X-1418Y1315D01*
X-1422D01*
X-1427Y1313D01*
X-1431Y1309D01*
X-1433Y1305D01*
X-1435Y1300D01*
Y1290D01*
X-1433Y1285D01*
X-1431Y1281D01*
X-1427Y1277D01*
X-1422Y1275D01*
X-1418D01*
X-1412Y1277D01*
X-1408Y1281D01*
X-1422Y1315D02*
X-1425Y1313D01*
X-1429Y1309D01*
X-1431Y1305D01*
X-1433Y1300D01*
Y1290D01*
X-1431Y1285D01*
X-1429Y1281D01*
X-1425Y1277D01*
X-1422Y1275D01*
X-1408Y1290D02*
Y1275D01*
X-1406Y1290D02*
Y1275D01*
X-1414Y1290D02*
X-1401D01*
X-1390Y1315D02*
Y1275D01*
X-1388Y1315D02*
X-1365Y1279D01*
X-1388Y1311D02*
X-1365Y1275D01*
Y1315D02*
Y1275D01*
X-1396Y1315D02*
X-1388D01*
X-1371D02*
X-1359D01*
X-1396Y1275D02*
X-1384D01*
X-1349Y1315D02*
Y1275D01*
X-1347Y1315D02*
Y1275D01*
X-1354Y1315D02*
X-1335D01*
X-1330Y1313D01*
X-1326Y1309D01*
X-1324Y1305D01*
X-1322Y1300D01*
Y1290D01*
X-1324Y1285D01*
X-1326Y1281D01*
X-1330Y1277D01*
X-1335Y1275D01*
X-1354D01*
X-1335Y1315D02*
X-1332Y1313D01*
X-1328Y1309D01*
X-1326Y1305D01*
X-1324Y1300D01*
Y1290D01*
X-1326Y1285D01*
X-1328Y1281D01*
X-1332Y1277D01*
X-1335Y1275D01*
X-1433Y1107D02*
X-1431Y1105D01*
X-1433Y1104D01*
X-1435Y1105D01*
Y1107D01*
X-1433Y1111D01*
X-1431Y1113D01*
X-1425Y1115D01*
X-1418D01*
X-1412Y1113D01*
X-1410Y1109D01*
Y1104D01*
X-1412Y1100D01*
X-1418Y1098D01*
X-1424D01*
X-1418Y1115D02*
X-1414Y1113D01*
X-1412Y1109D01*
Y1104D01*
X-1414Y1100D01*
X-1418Y1098D01*
X-1414Y1096D01*
X-1410Y1092D01*
X-1408Y1088D01*
Y1083D01*
X-1410Y1079D01*
X-1412Y1077D01*
X-1418Y1075D01*
X-1425D01*
X-1431Y1077D01*
X-1433Y1079D01*
X-1435Y1083D01*
Y1085D01*
X-1433Y1086D01*
X-1431Y1085D01*
X-1433Y1083D01*
X-1412Y1094D02*
X-1410Y1088D01*
Y1083D01*
X-1412Y1079D01*
X-1414Y1077D01*
X-1418Y1075D01*
X-1399Y1115D02*
X-1385Y1075D01*
X-1397Y1115D02*
X-1385Y1081D01*
X-1372Y1115D02*
X-1385Y1075D01*
X-1402Y1115D02*
X-1391D01*
X-1380D02*
X-1368D01*
X-1361Y1107D02*
X-1359Y1105D01*
X-1361Y1104D01*
X-1363Y1105D01*
Y1107D01*
X-1361Y1111D01*
X-1359Y1113D01*
X-1353Y1115D01*
X-1346D01*
X-1340Y1113D01*
X-1338Y1109D01*
Y1104D01*
X-1340Y1100D01*
X-1346Y1098D01*
X-1352D01*
X-1346Y1115D02*
X-1342Y1113D01*
X-1340Y1109D01*
Y1104D01*
X-1342Y1100D01*
X-1346Y1098D01*
X-1342Y1096D01*
X-1338Y1092D01*
X-1336Y1088D01*
Y1083D01*
X-1338Y1079D01*
X-1340Y1077D01*
X-1346Y1075D01*
X-1353D01*
X-1359Y1077D01*
X-1361Y1079D01*
X-1363Y1083D01*
Y1085D01*
X-1361Y1086D01*
X-1359Y1085D01*
X-1361Y1083D01*
X-1340Y1094D02*
X-1338Y1088D01*
Y1083D01*
X-1340Y1079D01*
X-1342Y1077D01*
X-1346Y1075D01*
X-1535Y1627D02*
X-1533Y1633D01*
Y1622D01*
X-1535Y1627D01*
X-1539Y1631D01*
X-1545Y1633D01*
X-1550D01*
X-1556Y1631D01*
X-1560Y1627D01*
Y1623D01*
X-1558Y1620D01*
X-1556Y1618D01*
X-1552Y1616D01*
X-1541Y1612D01*
X-1537Y1610D01*
X-1533Y1606D01*
X-1560Y1623D02*
X-1556Y1620D01*
X-1552Y1618D01*
X-1541Y1614D01*
X-1537Y1612D01*
X-1535Y1610D01*
X-1533Y1606D01*
Y1599D01*
X-1537Y1595D01*
X-1543Y1593D01*
X-1548D01*
X-1554Y1595D01*
X-1558Y1599D01*
X-1560Y1604D01*
Y1593D01*
X-1558Y1599D01*
X-1522Y1633D02*
X-1514Y1593D01*
X-1520Y1633D02*
X-1514Y1603D01*
X-1506Y1633D02*
X-1514Y1593D01*
X-1506Y1633D02*
X-1499Y1593D01*
X-1504Y1633D02*
X-1499Y1603D01*
X-1491Y1633D02*
X-1499Y1593D01*
X-1527Y1633D02*
X-1514D01*
X-1497D02*
X-1485D01*
X-1475D02*
Y1593D01*
X-1473Y1633D02*
Y1593D01*
X-1481Y1633D02*
X-1462D01*
X-1456Y1631D01*
X-1452Y1627D01*
X-1450Y1623D01*
X-1449Y1618D01*
Y1608D01*
X-1450Y1603D01*
X-1452Y1599D01*
X-1456Y1595D01*
X-1462Y1593D01*
X-1481D01*
X-1462Y1633D02*
X-1458Y1631D01*
X-1454Y1627D01*
X-1452Y1623D01*
X-1450Y1618D01*
Y1608D01*
X-1452Y1603D01*
X-1454Y1599D01*
X-1458Y1595D01*
X-1462Y1593D01*
X-1473Y570D02*
X-1486Y530D01*
X-1473Y570D02*
X-1460Y530D01*
X-1473Y564D02*
X-1461Y530D01*
X-1482Y541D02*
X-1465D01*
X-1490Y530D02*
X-1479D01*
X-1467D02*
X-1456D01*
X-1437Y570D02*
Y530D01*
X-1435Y570D02*
Y530D01*
X-1449Y570D02*
X-1451Y559D01*
Y570D01*
X-1422D01*
Y559D01*
X-1424Y570D01*
X-1443Y530D02*
X-1430D01*
X-1179Y420D02*
Y380D01*
X-1177Y420D02*
Y380D01*
X-1185Y420D02*
X-1162D01*
X-1156Y418D01*
X-1155Y416D01*
X-1153Y412D01*
Y409D01*
X-1155Y405D01*
X-1156Y403D01*
X-1162Y401D01*
Y420D02*
X-1158Y418D01*
X-1156Y416D01*
X-1155Y412D01*
Y409D01*
X-1156Y405D01*
X-1158Y403D01*
X-1162Y401D01*
X-1177D02*
X-1162D01*
X-1156Y399D01*
X-1155Y397D01*
X-1153Y393D01*
Y388D01*
X-1155Y384D01*
X-1156Y382D01*
X-1162Y380D01*
X-1185D01*
X-1162Y401D02*
X-1158Y399D01*
X-1156Y397D01*
X-1155Y393D01*
Y388D01*
X-1156Y384D01*
X-1158Y382D01*
X-1162Y380D01*
X-1142Y420D02*
Y380D01*
X-1140Y420D02*
Y380D01*
X-1147Y420D02*
X-1134D01*
X-1147Y380D02*
X-1119D01*
Y391D01*
X-1121Y380D01*
X-1071Y420D02*
Y380D01*
X-1069Y420D02*
Y380D01*
X-1077Y420D02*
X-1064D01*
X-1077Y380D02*
X-1048D01*
Y391D01*
X-1050Y380D01*
X-1037Y420D02*
Y380D01*
X-1035Y420D02*
Y380D01*
X-1024Y409D02*
Y393D01*
X-1043Y420D02*
X-1012D01*
Y409D01*
X-1014Y420D01*
X-1035Y401D02*
X-1024D01*
X-1043Y380D02*
X-1012D01*
Y391D01*
X-1014Y380D01*
X-1001Y420D02*
Y380D01*
X-999Y420D02*
Y380D01*
X-1007Y420D02*
X-988D01*
X-982Y418D01*
X-978Y414D01*
X-976Y410D01*
X-974Y405D01*
Y395D01*
X-976Y390D01*
X-978Y386D01*
X-982Y382D01*
X-988Y380D01*
X-1007D01*
X-988Y420D02*
X-984Y418D01*
X-980Y414D01*
X-978Y410D01*
X-976Y405D01*
Y395D01*
X-978Y390D01*
X-980Y386D01*
X-984Y382D01*
X-988Y380D01*
X1371Y-465D02*
Y-505D01*
X1373Y-465D02*
Y-505D01*
X1365Y-465D02*
X1388D01*
X1394Y-467D01*
X1395Y-469D01*
X1397Y-473D01*
Y-478D01*
X1395Y-482D01*
X1394Y-484D01*
X1388Y-486D01*
X1373D01*
X1388Y-465D02*
X1392Y-467D01*
X1394Y-469D01*
X1395Y-473D01*
Y-478D01*
X1394Y-482D01*
X1392Y-484D01*
X1388Y-486D01*
X1365Y-505D02*
X1378D01*
X1416Y-465D02*
X1410Y-467D01*
X1407Y-471D01*
X1405Y-475D01*
X1403Y-482D01*
Y-488D01*
X1405Y-495D01*
X1407Y-499D01*
X1410Y-503D01*
X1416Y-505D01*
X1420D01*
X1426Y-503D01*
X1429Y-499D01*
X1431Y-495D01*
X1433Y-488D01*
Y-482D01*
X1431Y-475D01*
X1429Y-471D01*
X1426Y-467D01*
X1420Y-465D01*
X1416D01*
X1412Y-467D01*
X1408Y-471D01*
X1407Y-475D01*
X1405Y-482D01*
Y-488D01*
X1407Y-495D01*
X1408Y-499D01*
X1412Y-503D01*
X1416Y-505D01*
X1420D02*
X1424Y-503D01*
X1427Y-499D01*
X1429Y-495D01*
X1431Y-488D01*
Y-482D01*
X1429Y-475D01*
X1427Y-471D01*
X1424Y-467D01*
X1420Y-465D01*
X1444D02*
X1452Y-505D01*
X1446Y-465D02*
X1452Y-495D01*
X1460Y-465D02*
X1452Y-505D01*
X1460Y-465D02*
X1467Y-505D01*
X1462Y-465D02*
X1467Y-495D01*
X1475Y-465D02*
X1467Y-505D01*
X1439Y-465D02*
X1452D01*
X1469D02*
X1481D01*
X1491D02*
Y-505D01*
X1493Y-465D02*
Y-505D01*
X1504Y-476D02*
Y-492D01*
X1485Y-465D02*
X1515D01*
Y-476D01*
X1514Y-465D01*
X1493Y-484D02*
X1504D01*
X1485Y-505D02*
X1515D01*
Y-494D01*
X1514Y-505D01*
X1527Y-465D02*
Y-505D01*
X1529Y-465D02*
Y-505D01*
X1521Y-465D02*
X1544D01*
X1550Y-467D01*
X1551Y-469D01*
X1553Y-473D01*
Y-476D01*
X1551Y-480D01*
X1550Y-482D01*
X1544Y-484D01*
X1529D01*
X1544Y-465D02*
X1548Y-467D01*
X1550Y-469D01*
X1551Y-473D01*
Y-476D01*
X1550Y-480D01*
X1548Y-482D01*
X1544Y-484D01*
X1521Y-505D02*
X1534D01*
X1538Y-484D02*
X1542Y-486D01*
X1544Y-488D01*
X1550Y-501D01*
X1551Y-503D01*
X1553D01*
X1555Y-501D01*
X1542Y-486D02*
X1544Y-490D01*
X1548Y-503D01*
X1550Y-505D01*
X1553D01*
X1555Y-501D01*
Y-499D01*
X1602Y-465D02*
Y-505D01*
X1604Y-465D02*
Y-505D01*
X1596Y-465D02*
X1619D01*
X1625Y-467D01*
X1627Y-469D01*
X1629Y-473D01*
Y-476D01*
X1627Y-480D01*
X1625Y-482D01*
X1619Y-484D01*
Y-465D02*
X1623Y-467D01*
X1625Y-469D01*
X1627Y-473D01*
Y-476D01*
X1625Y-480D01*
X1623Y-482D01*
X1619Y-484D01*
X1604D02*
X1619D01*
X1625Y-486D01*
X1627Y-488D01*
X1629Y-492D01*
Y-497D01*
X1627Y-501D01*
X1625Y-503D01*
X1619Y-505D01*
X1596D01*
X1619Y-484D02*
X1623Y-486D01*
X1625Y-488D01*
X1627Y-492D01*
Y-497D01*
X1625Y-501D01*
X1623Y-503D01*
X1619Y-505D01*
X1640Y-465D02*
Y-494D01*
X1642Y-499D01*
X1646Y-503D01*
X1651Y-505D01*
X1655D01*
X1661Y-503D01*
X1665Y-499D01*
X1666Y-494D01*
Y-465D01*
X1642D02*
Y-494D01*
X1644Y-499D01*
X1647Y-503D01*
X1651Y-505D01*
X1634Y-465D02*
X1647D01*
X1661D02*
X1672D01*
X1690D02*
Y-505D01*
X1692Y-465D02*
Y-505D01*
X1679Y-465D02*
X1677Y-476D01*
Y-465D01*
X1705D01*
Y-476D01*
X1704Y-465D01*
X1685Y-505D02*
X1698D01*
X1725Y-465D02*
Y-505D01*
X1726Y-465D02*
Y-505D01*
X1713Y-465D02*
X1711Y-476D01*
Y-465D01*
X1740D01*
Y-476D01*
X1738Y-465D01*
X1719Y-505D02*
X1732D01*
X1759Y-465D02*
X1753Y-467D01*
X1749Y-471D01*
X1747Y-475D01*
X1745Y-482D01*
Y-488D01*
X1747Y-495D01*
X1749Y-499D01*
X1753Y-503D01*
X1759Y-505D01*
X1763D01*
X1768Y-503D01*
X1772Y-499D01*
X1774Y-495D01*
X1776Y-488D01*
Y-482D01*
X1774Y-475D01*
X1772Y-471D01*
X1768Y-467D01*
X1763Y-465D01*
X1759D01*
X1755Y-467D01*
X1751Y-471D01*
X1749Y-475D01*
X1747Y-482D01*
Y-488D01*
X1749Y-495D01*
X1751Y-499D01*
X1755Y-503D01*
X1759Y-505D01*
X1763D02*
X1766Y-503D01*
X1770Y-499D01*
X1772Y-495D01*
X1774Y-488D01*
Y-482D01*
X1772Y-475D01*
X1770Y-471D01*
X1766Y-467D01*
X1763Y-465D01*
X1787D02*
Y-505D01*
X1789Y-465D02*
X1812Y-501D01*
X1789Y-469D02*
X1812Y-505D01*
Y-465D02*
Y-505D01*
X1781Y-465D02*
X1789D01*
X1806D02*
X1818D01*
X1781Y-505D02*
X1793D01*
X-669Y200D02*
Y171D01*
X-667Y166D01*
X-664Y162D01*
X-658Y160D01*
X-654D01*
X-648Y162D01*
X-645Y166D01*
X-643Y171D01*
Y200D01*
X-667D02*
Y171D01*
X-665Y166D01*
X-662Y162D01*
X-658Y160D01*
X-675Y200D02*
X-662D01*
X-648D02*
X-637D01*
X-628D02*
X-632Y181D01*
X-628Y185D01*
X-623Y187D01*
X-617D01*
X-611Y185D01*
X-607Y181D01*
X-605Y175D01*
Y171D01*
X-607Y166D01*
X-611Y162D01*
X-617Y160D01*
X-623D01*
X-628Y162D01*
X-630Y164D01*
X-632Y168D01*
Y170D01*
X-630Y171D01*
X-628Y170D01*
X-630Y168D01*
X-617Y187D02*
X-613Y185D01*
X-609Y181D01*
X-607Y175D01*
Y171D01*
X-609Y166D01*
X-613Y162D01*
X-617Y160D01*
X-628Y200D02*
X-609D01*
X-628Y198D02*
X-619D01*
X-609Y200D01*
X2366Y-188D02*
Y-216D01*
X2368Y-222D01*
X2371Y-226D01*
X2377Y-228D01*
X2381D01*
X2387Y-226D01*
X2390Y-222D01*
X2392Y-216D01*
Y-188D01*
X2368D02*
Y-216D01*
X2370Y-222D01*
X2373Y-226D01*
X2377Y-228D01*
X2360Y-188D02*
X2373D01*
X2387D02*
X2398D01*
X2422Y-191D02*
Y-228D01*
X2433Y-216D02*
X2403D01*
X2424Y-188D01*
Y-228D01*
X2416D02*
X2430D01*
X-1265Y1015D02*
Y986D01*
X-1263Y981D01*
X-1260Y977D01*
X-1254Y975D01*
X-1250D01*
X-1244Y977D01*
X-1241Y981D01*
X-1239Y986D01*
Y1015D01*
X-1263D02*
Y986D01*
X-1262Y981D01*
X-1258Y977D01*
X-1254Y975D01*
X-1271Y1015D02*
X-1258D01*
X-1244D02*
X-1233D01*
X-1226Y1007D02*
X-1224Y1005D01*
X-1226Y1004D01*
X-1228Y1005D01*
Y1007D01*
X-1226Y1011D01*
X-1224Y1013D01*
X-1219Y1015D01*
X-1211D01*
X-1205Y1013D01*
X-1203Y1009D01*
Y1004D01*
X-1205Y1000D01*
X-1211Y998D01*
X-1217D01*
X-1211Y1015D02*
X-1207Y1013D01*
X-1205Y1009D01*
Y1004D01*
X-1207Y1000D01*
X-1211Y998D01*
X-1207Y996D01*
X-1203Y992D01*
X-1202Y988D01*
Y983D01*
X-1203Y979D01*
X-1205Y977D01*
X-1211Y975D01*
X-1219D01*
X-1224Y977D01*
X-1226Y979D01*
X-1228Y983D01*
Y985D01*
X-1226Y986D01*
X-1224Y985D01*
X-1226Y983D01*
X-1205Y994D02*
X-1203Y988D01*
Y983D01*
X-1205Y979D01*
X-1207Y977D01*
X-1211Y975D01*
X-769Y1940D02*
Y1911D01*
X-767Y1906D01*
X-764Y1902D01*
X-758Y1900D01*
X-754D01*
X-748Y1902D01*
X-745Y1906D01*
X-743Y1911D01*
Y1940D01*
X-767D02*
Y1911D01*
X-765Y1906D01*
X-762Y1902D01*
X-758Y1900D01*
X-775Y1940D02*
X-762D01*
X-748D02*
X-737D01*
X-730Y1932D02*
X-728Y1930D01*
X-730Y1929D01*
X-732Y1930D01*
Y1932D01*
X-730Y1936D01*
X-728Y1938D01*
X-723Y1940D01*
X-715D01*
X-709Y1938D01*
X-707Y1936D01*
X-705Y1932D01*
Y1929D01*
X-707Y1925D01*
X-713Y1921D01*
X-723Y1917D01*
X-726Y1915D01*
X-730Y1911D01*
X-732Y1906D01*
Y1900D01*
X-715Y1940D02*
X-711Y1938D01*
X-709Y1936D01*
X-707Y1932D01*
Y1929D01*
X-709Y1925D01*
X-715Y1921D01*
X-723Y1917D01*
X-732Y1904D02*
X-730Y1906D01*
X-726D01*
X-717Y1902D01*
X-711D01*
X-707Y1904D01*
X-705Y1906D01*
Y1910D01*
X-726Y1906D02*
X-717Y1900D01*
X-709D01*
X-707Y1902D01*
X-705Y1906D01*
X-619Y1130D02*
Y1101D01*
X-617Y1096D01*
X-614Y1092D01*
X-608Y1090D01*
X-604D01*
X-598Y1092D01*
X-595Y1096D01*
X-593Y1101D01*
Y1130D01*
X-617D02*
Y1101D01*
X-615Y1096D01*
X-612Y1092D01*
X-608Y1090D01*
X-625Y1130D02*
X-612D01*
X-598D02*
X-587D01*
X-582Y1122D02*
X-578Y1124D01*
X-573Y1130D01*
Y1090D01*
X-575Y1128D02*
Y1090D01*
X-582D02*
X-565D01*
X-1329Y365D02*
Y325D01*
X-1327Y365D02*
Y325D01*
X-1335Y365D02*
X-1312D01*
X-1306Y363D01*
X-1305Y361D01*
X-1303Y357D01*
Y354D01*
X-1305Y350D01*
X-1306Y348D01*
X-1312Y346D01*
X-1327D01*
X-1312Y365D02*
X-1308Y363D01*
X-1306Y361D01*
X-1305Y357D01*
Y354D01*
X-1306Y350D01*
X-1308Y348D01*
X-1312Y346D01*
X-1335Y325D02*
X-1322D01*
X-1318Y346D02*
X-1314Y344D01*
X-1312Y342D01*
X-1306Y329D01*
X-1305Y327D01*
X-1303D01*
X-1301Y329D01*
X-1314Y344D02*
X-1312Y340D01*
X-1308Y327D01*
X-1306Y325D01*
X-1303D01*
X-1301Y329D01*
Y331D01*
X-1294Y357D02*
X-1292Y355D01*
X-1294Y354D01*
X-1296Y355D01*
Y357D01*
X-1294Y361D01*
X-1292Y363D01*
X-1286Y365D01*
X-1278D01*
X-1273Y363D01*
X-1271Y359D01*
Y354D01*
X-1273Y350D01*
X-1278Y348D01*
X-1284D01*
X-1278Y365D02*
X-1275Y363D01*
X-1273Y359D01*
Y354D01*
X-1275Y350D01*
X-1278Y348D01*
X-1275Y346D01*
X-1271Y342D01*
X-1269Y338D01*
Y333D01*
X-1271Y329D01*
X-1273Y327D01*
X-1278Y325D01*
X-1286D01*
X-1292Y327D01*
X-1294Y329D01*
X-1296Y333D01*
Y335D01*
X-1294Y336D01*
X-1292Y335D01*
X-1294Y333D01*
X-1273Y344D02*
X-1271Y338D01*
Y333D01*
X-1273Y329D01*
X-1275Y327D01*
X-1278Y325D01*
X-1244Y361D02*
Y325D01*
X-1233Y336D02*
X-1263D01*
X-1242Y365D01*
Y325D01*
X-1250D02*
X-1236D01*
X-1514Y365D02*
Y325D01*
X-1512Y365D02*
Y325D01*
X-1520Y365D02*
X-1497D01*
X-1491Y363D01*
X-1490Y361D01*
X-1488Y357D01*
Y354D01*
X-1490Y350D01*
X-1491Y348D01*
X-1497Y346D01*
X-1512D01*
X-1497Y365D02*
X-1493Y363D01*
X-1491Y361D01*
X-1490Y357D01*
Y354D01*
X-1491Y350D01*
X-1493Y348D01*
X-1497Y346D01*
X-1520Y325D02*
X-1507D01*
X-1503Y346D02*
X-1499Y344D01*
X-1497Y342D01*
X-1491Y329D01*
X-1490Y327D01*
X-1488D01*
X-1486Y329D01*
X-1499Y344D02*
X-1497Y340D01*
X-1493Y327D01*
X-1491Y325D01*
X-1488D01*
X-1486Y329D01*
Y331D01*
X-1479Y357D02*
X-1477Y355D01*
X-1479Y354D01*
X-1481Y355D01*
Y357D01*
X-1479Y361D01*
X-1477Y363D01*
X-1471Y365D01*
X-1463D01*
X-1458Y363D01*
X-1456Y359D01*
Y354D01*
X-1458Y350D01*
X-1463Y348D01*
X-1469D01*
X-1463Y365D02*
X-1460Y363D01*
X-1458Y359D01*
Y354D01*
X-1460Y350D01*
X-1463Y348D01*
X-1460Y346D01*
X-1456Y342D01*
X-1454Y338D01*
Y333D01*
X-1456Y329D01*
X-1458Y327D01*
X-1463Y325D01*
X-1471D01*
X-1477Y327D01*
X-1479Y329D01*
X-1481Y333D01*
Y335D01*
X-1479Y336D01*
X-1477Y335D01*
X-1479Y333D01*
X-1458Y344D02*
X-1456Y338D01*
Y333D01*
X-1458Y329D01*
X-1460Y327D01*
X-1463Y325D01*
X-1446Y357D02*
X-1444Y355D01*
X-1446Y354D01*
X-1448Y355D01*
Y357D01*
X-1446Y361D01*
X-1444Y363D01*
X-1438Y365D01*
X-1431D01*
X-1425Y363D01*
X-1423Y359D01*
Y354D01*
X-1425Y350D01*
X-1431Y348D01*
X-1437D01*
X-1431Y365D02*
X-1427Y363D01*
X-1425Y359D01*
Y354D01*
X-1427Y350D01*
X-1431Y348D01*
X-1427Y346D01*
X-1423Y342D01*
X-1421Y338D01*
Y333D01*
X-1423Y329D01*
X-1425Y327D01*
X-1431Y325D01*
X-1438D01*
X-1444Y327D01*
X-1446Y329D01*
X-1448Y333D01*
Y335D01*
X-1446Y336D01*
X-1444Y335D01*
X-1446Y333D01*
X-1425Y344D02*
X-1423Y338D01*
Y333D01*
X-1425Y329D01*
X-1427Y327D01*
X-1431Y325D01*
X2071Y-410D02*
Y-450D01*
X2073Y-410D02*
Y-450D01*
X2065Y-410D02*
X2088D01*
X2094Y-412D01*
X2095Y-414D01*
X2097Y-418D01*
Y-421D01*
X2095Y-425D01*
X2094Y-427D01*
X2088Y-429D01*
X2073D01*
X2088Y-410D02*
X2092Y-412D01*
X2094Y-414D01*
X2095Y-418D01*
Y-421D01*
X2094Y-425D01*
X2092Y-427D01*
X2088Y-429D01*
X2065Y-450D02*
X2078D01*
X2082Y-429D02*
X2086Y-431D01*
X2088Y-433D01*
X2094Y-446D01*
X2095Y-448D01*
X2097D01*
X2099Y-446D01*
X2086Y-431D02*
X2088Y-435D01*
X2092Y-448D01*
X2094Y-450D01*
X2097D01*
X2099Y-446D01*
Y-444D01*
X2106Y-418D02*
X2108Y-420D01*
X2106Y-421D01*
X2104Y-420D01*
Y-418D01*
X2106Y-414D01*
X2108Y-412D01*
X2114Y-410D01*
X2122D01*
X2127Y-412D01*
X2129Y-416D01*
Y-421D01*
X2127Y-425D01*
X2122Y-427D01*
X2116D01*
X2122Y-410D02*
X2125Y-412D01*
X2127Y-416D01*
Y-421D01*
X2125Y-425D01*
X2122Y-427D01*
X2125Y-429D01*
X2129Y-433D01*
X2131Y-437D01*
Y-442D01*
X2129Y-446D01*
X2127Y-448D01*
X2122Y-450D01*
X2114D01*
X2108Y-448D01*
X2106Y-446D01*
X2104Y-442D01*
Y-440D01*
X2106Y-439D01*
X2108Y-440D01*
X2106Y-442D01*
X2127Y-431D02*
X2129Y-437D01*
Y-442D01*
X2127Y-446D01*
X2125Y-448D01*
X2122Y-450D01*
X2139Y-418D02*
X2141Y-420D01*
X2139Y-421D01*
X2137Y-420D01*
Y-418D01*
X2139Y-414D01*
X2141Y-412D01*
X2147Y-410D01*
X2154D01*
X2160Y-412D01*
X2162Y-414D01*
X2164Y-418D01*
Y-421D01*
X2162Y-425D01*
X2156Y-429D01*
X2147Y-433D01*
X2143Y-435D01*
X2139Y-439D01*
X2137Y-444D01*
Y-450D01*
X2154Y-410D02*
X2158Y-412D01*
X2160Y-414D01*
X2162Y-418D01*
Y-421D01*
X2160Y-425D01*
X2154Y-429D01*
X2147Y-433D01*
X2137Y-446D02*
X2139Y-444D01*
X2143D01*
X2152Y-448D01*
X2158D01*
X2162Y-446D01*
X2164Y-444D01*
Y-440D01*
X2143Y-444D02*
X2152Y-450D01*
X2160D01*
X2162Y-448D01*
X2164Y-444D01*
X2081Y-245D02*
Y-285D01*
X2083Y-245D02*
Y-285D01*
X2075Y-245D02*
X2098D01*
X2104Y-247D01*
X2105Y-249D01*
X2107Y-253D01*
Y-256D01*
X2105Y-260D01*
X2104Y-262D01*
X2098Y-264D01*
X2083D01*
X2098Y-245D02*
X2102Y-247D01*
X2104Y-249D01*
X2105Y-253D01*
Y-256D01*
X2104Y-260D01*
X2102Y-262D01*
X2098Y-264D01*
X2075Y-285D02*
X2088D01*
X2092Y-264D02*
X2096Y-266D01*
X2098Y-268D01*
X2104Y-281D01*
X2105Y-283D01*
X2107D01*
X2109Y-281D01*
X2096Y-266D02*
X2098Y-270D01*
X2102Y-283D01*
X2104Y-285D01*
X2107D01*
X2109Y-281D01*
Y-279D01*
X2116Y-253D02*
X2118Y-255D01*
X2116Y-256D01*
X2114Y-255D01*
Y-253D01*
X2116Y-249D01*
X2118Y-247D01*
X2124Y-245D01*
X2132D01*
X2137Y-247D01*
X2139Y-251D01*
Y-256D01*
X2137Y-260D01*
X2132Y-262D01*
X2126D01*
X2132Y-245D02*
X2135Y-247D01*
X2137Y-251D01*
Y-256D01*
X2135Y-260D01*
X2132Y-262D01*
X2135Y-264D01*
X2139Y-268D01*
X2141Y-272D01*
Y-277D01*
X2139Y-281D01*
X2137Y-283D01*
X2132Y-285D01*
X2124D01*
X2118Y-283D01*
X2116Y-281D01*
X2114Y-277D01*
Y-275D01*
X2116Y-274D01*
X2118Y-275D01*
X2116Y-277D01*
X2137Y-266D02*
X2139Y-272D01*
Y-277D01*
X2137Y-281D01*
X2135Y-283D01*
X2132Y-285D01*
X2147Y-253D02*
X2151Y-251D01*
X2157Y-245D01*
Y-285D01*
X2155Y-247D02*
Y-285D01*
X2147D02*
X2164D01*
X2606Y-238D02*
Y-278D01*
X2608Y-238D02*
Y-278D01*
X2600Y-238D02*
X2623D01*
X2629Y-240D01*
X2630Y-241D01*
X2632Y-245D01*
Y-249D01*
X2630Y-253D01*
X2629Y-255D01*
X2623Y-257D01*
X2608D01*
X2623Y-238D02*
X2627Y-240D01*
X2629Y-241D01*
X2630Y-245D01*
Y-249D01*
X2629Y-253D01*
X2627Y-255D01*
X2623Y-257D01*
X2600Y-278D02*
X2613D01*
X2617Y-257D02*
X2621Y-259D01*
X2623Y-260D01*
X2629Y-274D01*
X2630Y-276D01*
X2632D01*
X2634Y-274D01*
X2621Y-259D02*
X2623Y-262D01*
X2627Y-276D01*
X2629Y-278D01*
X2632D01*
X2634Y-274D01*
Y-272D01*
X2641Y-245D02*
X2643Y-247D01*
X2641Y-249D01*
X2639Y-247D01*
Y-245D01*
X2641Y-241D01*
X2643Y-240D01*
X2649Y-238D01*
X2657D01*
X2662Y-240D01*
X2664Y-243D01*
Y-249D01*
X2662Y-253D01*
X2657Y-255D01*
X2651D01*
X2657Y-238D02*
X2660Y-240D01*
X2662Y-243D01*
Y-249D01*
X2660Y-253D01*
X2657Y-255D01*
X2660Y-257D01*
X2664Y-260D01*
X2666Y-264D01*
Y-270D01*
X2664Y-274D01*
X2662Y-276D01*
X2657Y-278D01*
X2649D01*
X2643Y-276D01*
X2641Y-274D01*
X2639Y-270D01*
Y-268D01*
X2641Y-266D01*
X2643Y-268D01*
X2641Y-270D01*
X2662Y-259D02*
X2664Y-264D01*
Y-270D01*
X2662Y-274D01*
X2660Y-276D01*
X2657Y-278D01*
X2683Y-238D02*
X2678Y-240D01*
X2674Y-245D01*
X2672Y-255D01*
Y-260D01*
X2674Y-270D01*
X2678Y-276D01*
X2683Y-278D01*
X2687D01*
X2693Y-276D01*
X2697Y-270D01*
X2699Y-260D01*
Y-255D01*
X2697Y-245D01*
X2693Y-240D01*
X2687Y-238D01*
X2683D01*
X2680Y-240D01*
X2678Y-241D01*
X2676Y-245D01*
X2674Y-255D01*
Y-260D01*
X2676Y-270D01*
X2678Y-274D01*
X2680Y-276D01*
X2683Y-278D01*
X2687D02*
X2691Y-276D01*
X2693Y-274D01*
X2695Y-270D01*
X2697Y-260D01*
Y-255D01*
X2695Y-245D01*
X2693Y-241D01*
X2691Y-240D01*
X2687Y-238D01*
X-1214Y1225D02*
Y1185D01*
X-1212Y1225D02*
Y1185D01*
X-1220Y1225D02*
X-1197D01*
X-1191Y1223D01*
X-1190Y1221D01*
X-1188Y1217D01*
Y1214D01*
X-1190Y1210D01*
X-1191Y1208D01*
X-1197Y1206D01*
X-1212D01*
X-1197Y1225D02*
X-1193Y1223D01*
X-1191Y1221D01*
X-1190Y1217D01*
Y1214D01*
X-1191Y1210D01*
X-1193Y1208D01*
X-1197Y1206D01*
X-1220Y1185D02*
X-1207D01*
X-1203Y1206D02*
X-1199Y1204D01*
X-1197Y1202D01*
X-1191Y1189D01*
X-1190Y1187D01*
X-1188D01*
X-1186Y1189D01*
X-1199Y1204D02*
X-1197Y1200D01*
X-1193Y1187D01*
X-1191Y1185D01*
X-1188D01*
X-1186Y1189D01*
Y1191D01*
X-1179Y1217D02*
X-1177Y1215D01*
X-1179Y1214D01*
X-1181Y1215D01*
Y1217D01*
X-1179Y1221D01*
X-1177Y1223D01*
X-1171Y1225D01*
X-1163D01*
X-1158Y1223D01*
X-1156Y1221D01*
X-1154Y1217D01*
Y1214D01*
X-1156Y1210D01*
X-1162Y1206D01*
X-1171Y1202D01*
X-1175Y1200D01*
X-1179Y1196D01*
X-1181Y1191D01*
Y1185D01*
X-1163Y1225D02*
X-1160Y1223D01*
X-1158Y1221D01*
X-1156Y1217D01*
Y1214D01*
X-1158Y1210D01*
X-1163Y1206D01*
X-1171Y1202D01*
X-1181Y1189D02*
X-1179Y1191D01*
X-1175D01*
X-1165Y1187D01*
X-1160D01*
X-1156Y1189D01*
X-1154Y1191D01*
Y1195D01*
X-1175Y1191D02*
X-1165Y1185D01*
X-1158D01*
X-1156Y1187D01*
X-1154Y1191D01*
X-1123Y1212D02*
X-1125Y1206D01*
X-1129Y1202D01*
X-1135Y1200D01*
X-1137D01*
X-1142Y1202D01*
X-1146Y1206D01*
X-1148Y1212D01*
Y1214D01*
X-1146Y1219D01*
X-1142Y1223D01*
X-1137Y1225D01*
X-1133D01*
X-1127Y1223D01*
X-1123Y1219D01*
X-1121Y1214D01*
Y1202D01*
X-1123Y1195D01*
X-1125Y1191D01*
X-1129Y1187D01*
X-1135Y1185D01*
X-1140D01*
X-1144Y1187D01*
X-1146Y1191D01*
Y1193D01*
X-1144Y1195D01*
X-1142Y1193D01*
X-1144Y1191D01*
X-1137Y1200D02*
X-1140Y1202D01*
X-1144Y1206D01*
X-1146Y1212D01*
Y1214D01*
X-1144Y1219D01*
X-1140Y1223D01*
X-1137Y1225D01*
X-1133D02*
X-1129Y1223D01*
X-1125Y1219D01*
X-1123Y1214D01*
Y1202D01*
X-1125Y1195D01*
X-1127Y1191D01*
X-1131Y1187D01*
X-1135Y1185D01*
X1836Y-130D02*
Y-170D01*
X1838Y-130D02*
Y-170D01*
X1830Y-130D02*
X1853D01*
X1859Y-132D01*
X1860Y-134D01*
X1862Y-138D01*
Y-141D01*
X1860Y-145D01*
X1859Y-147D01*
X1853Y-149D01*
X1838D01*
X1853Y-130D02*
X1857Y-132D01*
X1859Y-134D01*
X1860Y-138D01*
Y-141D01*
X1859Y-145D01*
X1857Y-147D01*
X1853Y-149D01*
X1830Y-170D02*
X1843D01*
X1847Y-149D02*
X1851Y-151D01*
X1853Y-153D01*
X1859Y-166D01*
X1860Y-168D01*
X1862D01*
X1864Y-166D01*
X1851Y-151D02*
X1853Y-155D01*
X1857Y-168D01*
X1859Y-170D01*
X1862D01*
X1864Y-166D01*
Y-164D01*
X1871Y-138D02*
X1873Y-140D01*
X1871Y-141D01*
X1869Y-140D01*
Y-138D01*
X1871Y-134D01*
X1873Y-132D01*
X1879Y-130D01*
X1887D01*
X1892Y-132D01*
X1894Y-134D01*
X1896Y-138D01*
Y-141D01*
X1894Y-145D01*
X1888Y-149D01*
X1879Y-153D01*
X1875Y-155D01*
X1871Y-159D01*
X1869Y-164D01*
Y-170D01*
X1887Y-130D02*
X1890Y-132D01*
X1892Y-134D01*
X1894Y-138D01*
Y-141D01*
X1892Y-145D01*
X1887Y-149D01*
X1879Y-153D01*
X1869Y-166D02*
X1871Y-164D01*
X1875D01*
X1885Y-168D01*
X1890D01*
X1894Y-166D01*
X1896Y-164D01*
Y-160D01*
X1875Y-164D02*
X1885Y-170D01*
X1892D01*
X1894Y-168D01*
X1896Y-164D01*
X1912Y-130D02*
X1906Y-132D01*
X1904Y-136D01*
Y-141D01*
X1906Y-145D01*
X1912Y-147D01*
X1919D01*
X1925Y-145D01*
X1927Y-141D01*
Y-136D01*
X1925Y-132D01*
X1919Y-130D01*
X1912D01*
X1908Y-132D01*
X1906Y-136D01*
Y-141D01*
X1908Y-145D01*
X1912Y-147D01*
X1919D02*
X1923Y-145D01*
X1925Y-141D01*
Y-136D01*
X1923Y-132D01*
X1919Y-130D01*
X1912Y-147D02*
X1906Y-149D01*
X1904Y-151D01*
X1902Y-155D01*
Y-162D01*
X1904Y-166D01*
X1906Y-168D01*
X1912Y-170D01*
X1919D01*
X1925Y-168D01*
X1927Y-166D01*
X1929Y-162D01*
Y-155D01*
X1927Y-151D01*
X1925Y-149D01*
X1919Y-147D01*
X1912D02*
X1908Y-149D01*
X1906Y-151D01*
X1904Y-155D01*
Y-162D01*
X1906Y-166D01*
X1908Y-168D01*
X1912Y-170D01*
X1919D02*
X1923Y-168D01*
X1925Y-166D01*
X1927Y-162D01*
Y-155D01*
X1925Y-151D01*
X1923Y-149D01*
X1919Y-147D01*
X1166Y-251D02*
Y-291D01*
X1168Y-251D02*
Y-291D01*
X1160Y-251D02*
X1183D01*
X1189Y-253D01*
X1190Y-255D01*
X1192Y-259D01*
Y-262D01*
X1190Y-266D01*
X1189Y-268D01*
X1183Y-270D01*
X1168D01*
X1183Y-251D02*
X1187Y-253D01*
X1189Y-255D01*
X1190Y-259D01*
Y-262D01*
X1189Y-266D01*
X1187Y-268D01*
X1183Y-270D01*
X1160Y-291D02*
X1173D01*
X1177Y-270D02*
X1181Y-272D01*
X1183Y-274D01*
X1189Y-287D01*
X1190Y-289D01*
X1192D01*
X1194Y-287D01*
X1181Y-272D02*
X1183Y-276D01*
X1187Y-289D01*
X1189Y-291D01*
X1192D01*
X1194Y-287D01*
Y-285D01*
X1201Y-259D02*
X1203Y-261D01*
X1201Y-262D01*
X1199Y-261D01*
Y-259D01*
X1201Y-255D01*
X1203Y-253D01*
X1209Y-251D01*
X1217D01*
X1222Y-253D01*
X1224Y-255D01*
X1226Y-259D01*
Y-262D01*
X1224Y-266D01*
X1218Y-270D01*
X1209Y-274D01*
X1205Y-276D01*
X1201Y-280D01*
X1199Y-285D01*
Y-291D01*
X1217Y-251D02*
X1220Y-253D01*
X1222Y-255D01*
X1224Y-259D01*
Y-262D01*
X1222Y-266D01*
X1217Y-270D01*
X1209Y-274D01*
X1199Y-287D02*
X1201Y-285D01*
X1205D01*
X1215Y-289D01*
X1220D01*
X1224Y-287D01*
X1226Y-285D01*
Y-281D01*
X1205Y-285D02*
X1215Y-291D01*
X1222D01*
X1224Y-289D01*
X1226Y-285D01*
X1232Y-251D02*
Y-262D01*
Y-259D02*
X1234Y-255D01*
X1238Y-251D01*
X1242D01*
X1251Y-257D01*
X1255D01*
X1257Y-255D01*
X1259Y-251D01*
X1234Y-255D02*
X1238Y-253D01*
X1242D01*
X1251Y-257D01*
X1259Y-251D02*
Y-257D01*
X1257Y-262D01*
X1249Y-272D01*
X1247Y-276D01*
X1245Y-281D01*
Y-291D01*
X1257Y-262D02*
X1247Y-272D01*
X1245Y-276D01*
X1243Y-281D01*
Y-291D01*
X-1209Y1420D02*
Y1380D01*
X-1207Y1420D02*
Y1380D01*
X-1215Y1420D02*
X-1192D01*
X-1186Y1418D01*
X-1185Y1416D01*
X-1183Y1412D01*
Y1409D01*
X-1185Y1405D01*
X-1186Y1403D01*
X-1192Y1401D01*
X-1207D01*
X-1192Y1420D02*
X-1188Y1418D01*
X-1186Y1416D01*
X-1185Y1412D01*
Y1409D01*
X-1186Y1405D01*
X-1188Y1403D01*
X-1192Y1401D01*
X-1215Y1380D02*
X-1202D01*
X-1198Y1401D02*
X-1194Y1399D01*
X-1192Y1397D01*
X-1186Y1384D01*
X-1185Y1382D01*
X-1183D01*
X-1181Y1384D01*
X-1194Y1399D02*
X-1192Y1395D01*
X-1188Y1382D01*
X-1186Y1380D01*
X-1183D01*
X-1181Y1384D01*
Y1386D01*
X-1174Y1412D02*
X-1172Y1410D01*
X-1174Y1409D01*
X-1176Y1410D01*
Y1412D01*
X-1174Y1416D01*
X-1172Y1418D01*
X-1166Y1420D01*
X-1158D01*
X-1153Y1418D01*
X-1151Y1416D01*
X-1149Y1412D01*
Y1409D01*
X-1151Y1405D01*
X-1157Y1401D01*
X-1166Y1397D01*
X-1170Y1395D01*
X-1174Y1391D01*
X-1176Y1386D01*
Y1380D01*
X-1158Y1420D02*
X-1155Y1418D01*
X-1153Y1416D01*
X-1151Y1412D01*
Y1409D01*
X-1153Y1405D01*
X-1158Y1401D01*
X-1166Y1397D01*
X-1176Y1384D02*
X-1174Y1386D01*
X-1170D01*
X-1160Y1382D01*
X-1155D01*
X-1151Y1384D01*
X-1149Y1386D01*
Y1390D01*
X-1170Y1386D02*
X-1160Y1380D01*
X-1153D01*
X-1151Y1382D01*
X-1149Y1386D01*
X-1120Y1414D02*
X-1122Y1412D01*
X-1120Y1410D01*
X-1118Y1412D01*
Y1414D01*
X-1120Y1418D01*
X-1124Y1420D01*
X-1130D01*
X-1135Y1418D01*
X-1139Y1414D01*
X-1141Y1410D01*
X-1143Y1403D01*
Y1391D01*
X-1141Y1386D01*
X-1137Y1382D01*
X-1132Y1380D01*
X-1128D01*
X-1122Y1382D01*
X-1118Y1386D01*
X-1116Y1391D01*
Y1393D01*
X-1118Y1399D01*
X-1122Y1403D01*
X-1128Y1405D01*
X-1130D01*
X-1135Y1403D01*
X-1139Y1399D01*
X-1141Y1393D01*
X-1130Y1420D02*
X-1133Y1418D01*
X-1137Y1414D01*
X-1139Y1410D01*
X-1141Y1403D01*
Y1391D01*
X-1139Y1386D01*
X-1135Y1382D01*
X-1132Y1380D01*
X-1128D02*
X-1124Y1382D01*
X-1120Y1386D01*
X-1118Y1391D01*
Y1393D01*
X-1120Y1399D01*
X-1124Y1403D01*
X-1128Y1405D01*
X-1379Y2195D02*
Y2155D01*
X-1377Y2195D02*
Y2155D01*
X-1385Y2195D02*
X-1362D01*
X-1356Y2193D01*
X-1354Y2191D01*
X-1352Y2187D01*
Y2184D01*
X-1354Y2180D01*
X-1356Y2178D01*
X-1362Y2176D01*
X-1377D01*
X-1362Y2195D02*
X-1358Y2193D01*
X-1356Y2191D01*
X-1354Y2187D01*
Y2184D01*
X-1356Y2180D01*
X-1358Y2178D01*
X-1362Y2176D01*
X-1385Y2155D02*
X-1371D01*
X-1367Y2176D02*
X-1364Y2174D01*
X-1362Y2172D01*
X-1356Y2159D01*
X-1354Y2157D01*
X-1352D01*
X-1350Y2159D01*
X-1364Y2174D02*
X-1362Y2170D01*
X-1358Y2157D01*
X-1356Y2155D01*
X-1352D01*
X-1350Y2159D01*
Y2161D01*
X-1343Y2187D02*
X-1341Y2185D01*
X-1343Y2184D01*
X-1345Y2185D01*
Y2187D01*
X-1343Y2191D01*
X-1341Y2193D01*
X-1336Y2195D01*
X-1328D01*
X-1322Y2193D01*
X-1320Y2191D01*
X-1318Y2187D01*
Y2184D01*
X-1320Y2180D01*
X-1326Y2176D01*
X-1336Y2172D01*
X-1339Y2170D01*
X-1343Y2166D01*
X-1345Y2161D01*
Y2155D01*
X-1328Y2195D02*
X-1324Y2193D01*
X-1322Y2191D01*
X-1320Y2187D01*
Y2184D01*
X-1322Y2180D01*
X-1328Y2176D01*
X-1336Y2172D01*
X-1345Y2159D02*
X-1343Y2161D01*
X-1339D01*
X-1330Y2157D01*
X-1324D01*
X-1320Y2159D01*
X-1318Y2161D01*
Y2165D01*
X-1339Y2161D02*
X-1330Y2155D01*
X-1322D01*
X-1320Y2157D01*
X-1318Y2161D01*
X-1309Y2195D02*
X-1313Y2176D01*
X-1309Y2180D01*
X-1303Y2182D01*
X-1297D01*
X-1292Y2180D01*
X-1288Y2176D01*
X-1286Y2170D01*
Y2166D01*
X-1288Y2161D01*
X-1292Y2157D01*
X-1297Y2155D01*
X-1303D01*
X-1309Y2157D01*
X-1311Y2159D01*
X-1313Y2163D01*
Y2165D01*
X-1311Y2166D01*
X-1309Y2165D01*
X-1311Y2163D01*
X-1297Y2182D02*
X-1294Y2180D01*
X-1290Y2176D01*
X-1288Y2170D01*
Y2166D01*
X-1290Y2161D01*
X-1294Y2157D01*
X-1297Y2155D01*
X-1309Y2195D02*
X-1290D01*
X-1309Y2193D02*
X-1299D01*
X-1290Y2195D01*
X4041Y1915D02*
Y1875D01*
X4043Y1915D02*
Y1875D01*
X4035Y1915D02*
X4058D01*
X4064Y1913D01*
X4065Y1911D01*
X4067Y1907D01*
Y1904D01*
X4065Y1900D01*
X4064Y1898D01*
X4058Y1896D01*
X4043D01*
X4058Y1915D02*
X4062Y1913D01*
X4064Y1911D01*
X4065Y1907D01*
Y1904D01*
X4064Y1900D01*
X4062Y1898D01*
X4058Y1896D01*
X4035Y1875D02*
X4048D01*
X4052Y1896D02*
X4056Y1894D01*
X4058Y1892D01*
X4064Y1879D01*
X4065Y1877D01*
X4067D01*
X4069Y1879D01*
X4056Y1894D02*
X4058Y1890D01*
X4062Y1877D01*
X4064Y1875D01*
X4067D01*
X4069Y1879D01*
Y1881D01*
X4076Y1907D02*
X4078Y1905D01*
X4076Y1904D01*
X4074Y1905D01*
Y1907D01*
X4076Y1911D01*
X4078Y1913D01*
X4084Y1915D01*
X4092D01*
X4097Y1913D01*
X4099Y1911D01*
X4101Y1907D01*
Y1904D01*
X4099Y1900D01*
X4093Y1896D01*
X4084Y1892D01*
X4080Y1890D01*
X4076Y1886D01*
X4074Y1881D01*
Y1875D01*
X4092Y1915D02*
X4095Y1913D01*
X4097Y1911D01*
X4099Y1907D01*
Y1904D01*
X4097Y1900D01*
X4092Y1896D01*
X4084Y1892D01*
X4074Y1879D02*
X4076Y1881D01*
X4080D01*
X4090Y1877D01*
X4095D01*
X4099Y1879D01*
X4101Y1881D01*
Y1885D01*
X4080Y1881D02*
X4090Y1875D01*
X4097D01*
X4099Y1877D01*
X4101Y1881D01*
X4126Y1911D02*
Y1875D01*
X4137Y1886D02*
X4107D01*
X4128Y1915D01*
Y1875D01*
X4120D02*
X4134D01*
X3861Y1915D02*
Y1875D01*
X3863Y1915D02*
Y1875D01*
X3855Y1915D02*
X3878D01*
X3884Y1913D01*
X3885Y1911D01*
X3887Y1907D01*
Y1904D01*
X3885Y1900D01*
X3884Y1898D01*
X3878Y1896D01*
X3863D01*
X3878Y1915D02*
X3882Y1913D01*
X3884Y1911D01*
X3885Y1907D01*
Y1904D01*
X3884Y1900D01*
X3882Y1898D01*
X3878Y1896D01*
X3855Y1875D02*
X3868D01*
X3872Y1896D02*
X3876Y1894D01*
X3878Y1892D01*
X3884Y1879D01*
X3885Y1877D01*
X3887D01*
X3889Y1879D01*
X3876Y1894D02*
X3878Y1890D01*
X3882Y1877D01*
X3884Y1875D01*
X3887D01*
X3889Y1879D01*
Y1881D01*
X3896Y1907D02*
X3898Y1905D01*
X3896Y1904D01*
X3894Y1905D01*
Y1907D01*
X3896Y1911D01*
X3898Y1913D01*
X3904Y1915D01*
X3912D01*
X3917Y1913D01*
X3919Y1911D01*
X3921Y1907D01*
Y1904D01*
X3919Y1900D01*
X3913Y1896D01*
X3904Y1892D01*
X3900Y1890D01*
X3896Y1886D01*
X3894Y1881D01*
Y1875D01*
X3912Y1915D02*
X3915Y1913D01*
X3917Y1911D01*
X3919Y1907D01*
Y1904D01*
X3917Y1900D01*
X3912Y1896D01*
X3904Y1892D01*
X3894Y1879D02*
X3896Y1881D01*
X3900D01*
X3910Y1877D01*
X3915D01*
X3919Y1879D01*
X3921Y1881D01*
Y1885D01*
X3900Y1881D02*
X3910Y1875D01*
X3917D01*
X3919Y1877D01*
X3921Y1881D01*
X3929Y1907D02*
X3931Y1905D01*
X3929Y1904D01*
X3927Y1905D01*
Y1907D01*
X3929Y1911D01*
X3931Y1913D01*
X3937Y1915D01*
X3944D01*
X3950Y1913D01*
X3952Y1909D01*
Y1904D01*
X3950Y1900D01*
X3944Y1898D01*
X3938D01*
X3944Y1915D02*
X3948Y1913D01*
X3950Y1909D01*
Y1904D01*
X3948Y1900D01*
X3944Y1898D01*
X3948Y1896D01*
X3952Y1892D01*
X3954Y1888D01*
Y1883D01*
X3952Y1879D01*
X3950Y1877D01*
X3944Y1875D01*
X3937D01*
X3931Y1877D01*
X3929Y1879D01*
X3927Y1883D01*
Y1885D01*
X3929Y1886D01*
X3931Y1885D01*
X3929Y1883D01*
X3950Y1894D02*
X3952Y1888D01*
Y1883D01*
X3950Y1879D01*
X3948Y1877D01*
X3944Y1875D01*
X3686Y1915D02*
Y1875D01*
X3688Y1915D02*
Y1875D01*
X3680Y1915D02*
X3703D01*
X3709Y1913D01*
X3710Y1911D01*
X3712Y1907D01*
Y1904D01*
X3710Y1900D01*
X3709Y1898D01*
X3703Y1896D01*
X3688D01*
X3703Y1915D02*
X3707Y1913D01*
X3709Y1911D01*
X3710Y1907D01*
Y1904D01*
X3709Y1900D01*
X3707Y1898D01*
X3703Y1896D01*
X3680Y1875D02*
X3693D01*
X3697Y1896D02*
X3701Y1894D01*
X3703Y1892D01*
X3709Y1879D01*
X3710Y1877D01*
X3712D01*
X3714Y1879D01*
X3701Y1894D02*
X3703Y1890D01*
X3707Y1877D01*
X3709Y1875D01*
X3712D01*
X3714Y1879D01*
Y1881D01*
X3721Y1907D02*
X3723Y1905D01*
X3721Y1904D01*
X3719Y1905D01*
Y1907D01*
X3721Y1911D01*
X3723Y1913D01*
X3729Y1915D01*
X3737D01*
X3742Y1913D01*
X3744Y1911D01*
X3746Y1907D01*
Y1904D01*
X3744Y1900D01*
X3738Y1896D01*
X3729Y1892D01*
X3725Y1890D01*
X3721Y1886D01*
X3719Y1881D01*
Y1875D01*
X3737Y1915D02*
X3740Y1913D01*
X3742Y1911D01*
X3744Y1907D01*
Y1904D01*
X3742Y1900D01*
X3737Y1896D01*
X3729Y1892D01*
X3719Y1879D02*
X3721Y1881D01*
X3725D01*
X3735Y1877D01*
X3740D01*
X3744Y1879D01*
X3746Y1881D01*
Y1885D01*
X3725Y1881D02*
X3735Y1875D01*
X3742D01*
X3744Y1877D01*
X3746Y1881D01*
X3754Y1907D02*
X3756Y1905D01*
X3754Y1904D01*
X3752Y1905D01*
Y1907D01*
X3754Y1911D01*
X3756Y1913D01*
X3762Y1915D01*
X3769D01*
X3775Y1913D01*
X3777Y1911D01*
X3779Y1907D01*
Y1904D01*
X3777Y1900D01*
X3771Y1896D01*
X3762Y1892D01*
X3758Y1890D01*
X3754Y1886D01*
X3752Y1881D01*
Y1875D01*
X3769Y1915D02*
X3773Y1913D01*
X3775Y1911D01*
X3777Y1907D01*
Y1904D01*
X3775Y1900D01*
X3769Y1896D01*
X3762Y1892D01*
X3752Y1879D02*
X3754Y1881D01*
X3758D01*
X3767Y1877D01*
X3773D01*
X3777Y1879D01*
X3779Y1881D01*
Y1885D01*
X3758Y1881D02*
X3767Y1875D01*
X3775D01*
X3777Y1877D01*
X3779Y1881D01*
X3511Y1915D02*
Y1875D01*
X3513Y1915D02*
Y1875D01*
X3505Y1915D02*
X3528D01*
X3534Y1913D01*
X3535Y1911D01*
X3537Y1907D01*
Y1904D01*
X3535Y1900D01*
X3534Y1898D01*
X3528Y1896D01*
X3513D01*
X3528Y1915D02*
X3532Y1913D01*
X3534Y1911D01*
X3535Y1907D01*
Y1904D01*
X3534Y1900D01*
X3532Y1898D01*
X3528Y1896D01*
X3505Y1875D02*
X3518D01*
X3522Y1896D02*
X3526Y1894D01*
X3528Y1892D01*
X3534Y1879D01*
X3535Y1877D01*
X3537D01*
X3539Y1879D01*
X3526Y1894D02*
X3528Y1890D01*
X3532Y1877D01*
X3534Y1875D01*
X3537D01*
X3539Y1879D01*
Y1881D01*
X3546Y1907D02*
X3548Y1905D01*
X3546Y1904D01*
X3544Y1905D01*
Y1907D01*
X3546Y1911D01*
X3548Y1913D01*
X3554Y1915D01*
X3562D01*
X3567Y1913D01*
X3569Y1911D01*
X3571Y1907D01*
Y1904D01*
X3569Y1900D01*
X3563Y1896D01*
X3554Y1892D01*
X3550Y1890D01*
X3546Y1886D01*
X3544Y1881D01*
Y1875D01*
X3562Y1915D02*
X3565Y1913D01*
X3567Y1911D01*
X3569Y1907D01*
Y1904D01*
X3567Y1900D01*
X3562Y1896D01*
X3554Y1892D01*
X3544Y1879D02*
X3546Y1881D01*
X3550D01*
X3560Y1877D01*
X3565D01*
X3569Y1879D01*
X3571Y1881D01*
Y1885D01*
X3550Y1881D02*
X3560Y1875D01*
X3567D01*
X3569Y1877D01*
X3571Y1881D01*
X3577Y1907D02*
X3581Y1909D01*
X3587Y1915D01*
Y1875D01*
X3585Y1913D02*
Y1875D01*
X3577D02*
X3594D01*
X3326Y1915D02*
Y1875D01*
X3328Y1915D02*
Y1875D01*
X3320Y1915D02*
X3343D01*
X3349Y1913D01*
X3350Y1911D01*
X3352Y1907D01*
Y1904D01*
X3350Y1900D01*
X3349Y1898D01*
X3343Y1896D01*
X3328D01*
X3343Y1915D02*
X3347Y1913D01*
X3349Y1911D01*
X3350Y1907D01*
Y1904D01*
X3349Y1900D01*
X3347Y1898D01*
X3343Y1896D01*
X3320Y1875D02*
X3333D01*
X3337Y1896D02*
X3341Y1894D01*
X3343Y1892D01*
X3349Y1879D01*
X3350Y1877D01*
X3352D01*
X3354Y1879D01*
X3341Y1894D02*
X3343Y1890D01*
X3347Y1877D01*
X3349Y1875D01*
X3352D01*
X3354Y1879D01*
Y1881D01*
X3361Y1907D02*
X3363Y1905D01*
X3361Y1904D01*
X3359Y1905D01*
Y1907D01*
X3361Y1911D01*
X3363Y1913D01*
X3369Y1915D01*
X3377D01*
X3382Y1913D01*
X3384Y1911D01*
X3386Y1907D01*
Y1904D01*
X3384Y1900D01*
X3378Y1896D01*
X3369Y1892D01*
X3365Y1890D01*
X3361Y1886D01*
X3359Y1881D01*
Y1875D01*
X3377Y1915D02*
X3380Y1913D01*
X3382Y1911D01*
X3384Y1907D01*
Y1904D01*
X3382Y1900D01*
X3377Y1896D01*
X3369Y1892D01*
X3359Y1879D02*
X3361Y1881D01*
X3365D01*
X3375Y1877D01*
X3380D01*
X3384Y1879D01*
X3386Y1881D01*
Y1885D01*
X3365Y1881D02*
X3375Y1875D01*
X3382D01*
X3384Y1877D01*
X3386Y1881D01*
X3403Y1915D02*
X3398Y1913D01*
X3394Y1907D01*
X3392Y1898D01*
Y1892D01*
X3394Y1883D01*
X3398Y1877D01*
X3403Y1875D01*
X3407D01*
X3413Y1877D01*
X3417Y1883D01*
X3419Y1892D01*
Y1898D01*
X3417Y1907D01*
X3413Y1913D01*
X3407Y1915D01*
X3403D01*
X3400Y1913D01*
X3398Y1911D01*
X3396Y1907D01*
X3394Y1898D01*
Y1892D01*
X3396Y1883D01*
X3398Y1879D01*
X3400Y1877D01*
X3403Y1875D01*
X3407D02*
X3411Y1877D01*
X3413Y1879D01*
X3415Y1883D01*
X3417Y1892D01*
Y1898D01*
X3415Y1907D01*
X3413Y1911D01*
X3411Y1913D01*
X3407Y1915D01*
X3156Y1910D02*
Y1870D01*
X3158Y1910D02*
Y1870D01*
X3150Y1910D02*
X3173D01*
X3179Y1908D01*
X3180Y1906D01*
X3182Y1902D01*
Y1899D01*
X3180Y1895D01*
X3179Y1893D01*
X3173Y1891D01*
X3158D01*
X3173Y1910D02*
X3177Y1908D01*
X3179Y1906D01*
X3180Y1902D01*
Y1899D01*
X3179Y1895D01*
X3177Y1893D01*
X3173Y1891D01*
X3150Y1870D02*
X3163D01*
X3167Y1891D02*
X3171Y1889D01*
X3173Y1887D01*
X3179Y1874D01*
X3180Y1872D01*
X3182D01*
X3184Y1874D01*
X3171Y1889D02*
X3173Y1885D01*
X3177Y1872D01*
X3179Y1870D01*
X3182D01*
X3184Y1874D01*
Y1876D01*
X3189Y1902D02*
X3193Y1904D01*
X3199Y1910D01*
Y1870D01*
X3197Y1908D02*
Y1870D01*
X3189D02*
X3207D01*
X3238Y1897D02*
X3236Y1891D01*
X3232Y1887D01*
X3227Y1885D01*
X3225D01*
X3219Y1887D01*
X3215Y1891D01*
X3213Y1897D01*
Y1899D01*
X3215Y1904D01*
X3219Y1908D01*
X3225Y1910D01*
X3229D01*
X3234Y1908D01*
X3238Y1904D01*
X3240Y1899D01*
Y1887D01*
X3238Y1880D01*
X3236Y1876D01*
X3232Y1872D01*
X3227Y1870D01*
X3221D01*
X3217Y1872D01*
X3215Y1876D01*
Y1878D01*
X3217Y1880D01*
X3219Y1878D01*
X3217Y1876D01*
X3225Y1885D02*
X3221Y1887D01*
X3217Y1891D01*
X3215Y1897D01*
Y1899D01*
X3217Y1904D01*
X3221Y1908D01*
X3225Y1910D01*
X3229D02*
X3232Y1908D01*
X3236Y1904D01*
X3238Y1899D01*
Y1887D01*
X3236Y1880D01*
X3234Y1876D01*
X3231Y1872D01*
X3227Y1870D01*
X2976Y1915D02*
Y1875D01*
X2978Y1915D02*
Y1875D01*
X2970Y1915D02*
X2993D01*
X2999Y1913D01*
X3000Y1911D01*
X3002Y1907D01*
Y1904D01*
X3000Y1900D01*
X2999Y1898D01*
X2993Y1896D01*
X2978D01*
X2993Y1915D02*
X2997Y1913D01*
X2999Y1911D01*
X3000Y1907D01*
Y1904D01*
X2999Y1900D01*
X2997Y1898D01*
X2993Y1896D01*
X2970Y1875D02*
X2983D01*
X2987Y1896D02*
X2991Y1894D01*
X2993Y1892D01*
X2999Y1879D01*
X3000Y1877D01*
X3002D01*
X3004Y1879D01*
X2991Y1894D02*
X2993Y1890D01*
X2997Y1877D01*
X2999Y1875D01*
X3002D01*
X3004Y1879D01*
Y1881D01*
X3009Y1907D02*
X3013Y1909D01*
X3019Y1915D01*
Y1875D01*
X3017Y1913D02*
Y1875D01*
X3009D02*
X3027D01*
X3043Y1915D02*
X3037Y1913D01*
X3035Y1909D01*
Y1904D01*
X3037Y1900D01*
X3043Y1898D01*
X3051D01*
X3056Y1900D01*
X3058Y1904D01*
Y1909D01*
X3056Y1913D01*
X3051Y1915D01*
X3043D01*
X3039Y1913D01*
X3037Y1909D01*
Y1904D01*
X3039Y1900D01*
X3043Y1898D01*
X3051D02*
X3054Y1900D01*
X3056Y1904D01*
Y1909D01*
X3054Y1913D01*
X3051Y1915D01*
X3043Y1898D02*
X3037Y1896D01*
X3035Y1894D01*
X3033Y1890D01*
Y1883D01*
X3035Y1879D01*
X3037Y1877D01*
X3043Y1875D01*
X3051D01*
X3056Y1877D01*
X3058Y1879D01*
X3060Y1883D01*
Y1890D01*
X3058Y1894D01*
X3056Y1896D01*
X3051Y1898D01*
X3043D02*
X3039Y1896D01*
X3037Y1894D01*
X3035Y1890D01*
Y1883D01*
X3037Y1879D01*
X3039Y1877D01*
X3043Y1875D01*
X3051D02*
X3054Y1877D01*
X3056Y1879D01*
X3058Y1883D01*
Y1890D01*
X3056Y1894D01*
X3054Y1896D01*
X3051Y1898D01*
X2801Y1915D02*
Y1875D01*
X2803Y1915D02*
Y1875D01*
X2795Y1915D02*
X2818D01*
X2824Y1913D01*
X2825Y1911D01*
X2827Y1907D01*
Y1904D01*
X2825Y1900D01*
X2824Y1898D01*
X2818Y1896D01*
X2803D01*
X2818Y1915D02*
X2822Y1913D01*
X2824Y1911D01*
X2825Y1907D01*
Y1904D01*
X2824Y1900D01*
X2822Y1898D01*
X2818Y1896D01*
X2795Y1875D02*
X2808D01*
X2812Y1896D02*
X2816Y1894D01*
X2818Y1892D01*
X2824Y1879D01*
X2825Y1877D01*
X2827D01*
X2829Y1879D01*
X2816Y1894D02*
X2818Y1890D01*
X2822Y1877D01*
X2824Y1875D01*
X2827D01*
X2829Y1879D01*
Y1881D01*
X2834Y1907D02*
X2838Y1909D01*
X2844Y1915D01*
Y1875D01*
X2842Y1913D02*
Y1875D01*
X2834D02*
X2852D01*
X2858Y1915D02*
Y1904D01*
Y1907D02*
X2860Y1911D01*
X2864Y1915D01*
X2868D01*
X2877Y1909D01*
X2881D01*
X2883Y1911D01*
X2885Y1915D01*
X2860Y1911D02*
X2864Y1913D01*
X2868D01*
X2877Y1909D01*
X2885Y1915D02*
Y1909D01*
X2883Y1904D01*
X2876Y1894D01*
X2874Y1890D01*
X2872Y1885D01*
Y1875D01*
X2883Y1904D02*
X2874Y1894D01*
X2872Y1890D01*
X2870Y1885D01*
Y1875D01*
X2616Y1915D02*
Y1875D01*
X2618Y1915D02*
Y1875D01*
X2610Y1915D02*
X2633D01*
X2639Y1913D01*
X2640Y1911D01*
X2642Y1907D01*
Y1904D01*
X2640Y1900D01*
X2639Y1898D01*
X2633Y1896D01*
X2618D01*
X2633Y1915D02*
X2637Y1913D01*
X2639Y1911D01*
X2640Y1907D01*
Y1904D01*
X2639Y1900D01*
X2637Y1898D01*
X2633Y1896D01*
X2610Y1875D02*
X2623D01*
X2627Y1896D02*
X2631Y1894D01*
X2633Y1892D01*
X2639Y1879D01*
X2640Y1877D01*
X2642D01*
X2644Y1879D01*
X2631Y1894D02*
X2633Y1890D01*
X2637Y1877D01*
X2639Y1875D01*
X2642D01*
X2644Y1879D01*
Y1881D01*
X2649Y1907D02*
X2653Y1909D01*
X2659Y1915D01*
Y1875D01*
X2657Y1913D02*
Y1875D01*
X2649D02*
X2667D01*
X2696Y1909D02*
X2694Y1907D01*
X2696Y1905D01*
X2698Y1907D01*
Y1909D01*
X2696Y1913D01*
X2692Y1915D01*
X2687D01*
X2681Y1913D01*
X2677Y1909D01*
X2675Y1905D01*
X2673Y1898D01*
Y1886D01*
X2675Y1881D01*
X2679Y1877D01*
X2685Y1875D01*
X2689D01*
X2694Y1877D01*
X2698Y1881D01*
X2700Y1886D01*
Y1888D01*
X2698Y1894D01*
X2694Y1898D01*
X2689Y1900D01*
X2687D01*
X2681Y1898D01*
X2677Y1894D01*
X2675Y1888D01*
X2687Y1915D02*
X2683Y1913D01*
X2679Y1909D01*
X2677Y1905D01*
X2675Y1898D01*
Y1886D01*
X2677Y1881D01*
X2681Y1877D01*
X2685Y1875D01*
X2689D02*
X2692Y1877D01*
X2696Y1881D01*
X2698Y1886D01*
Y1888D01*
X2696Y1894D01*
X2692Y1898D01*
X2689Y1900D01*
X2441Y1915D02*
Y1875D01*
X2443Y1915D02*
Y1875D01*
X2435Y1915D02*
X2458D01*
X2464Y1913D01*
X2465Y1911D01*
X2467Y1907D01*
Y1904D01*
X2465Y1900D01*
X2464Y1898D01*
X2458Y1896D01*
X2443D01*
X2458Y1915D02*
X2462Y1913D01*
X2464Y1911D01*
X2465Y1907D01*
Y1904D01*
X2464Y1900D01*
X2462Y1898D01*
X2458Y1896D01*
X2435Y1875D02*
X2448D01*
X2452Y1896D02*
X2456Y1894D01*
X2458Y1892D01*
X2464Y1879D01*
X2465Y1877D01*
X2467D01*
X2469Y1879D01*
X2456Y1894D02*
X2458Y1890D01*
X2462Y1877D01*
X2464Y1875D01*
X2467D01*
X2469Y1879D01*
Y1881D01*
X2474Y1907D02*
X2478Y1909D01*
X2484Y1915D01*
Y1875D01*
X2482Y1913D02*
Y1875D01*
X2474D02*
X2492D01*
X2502Y1915D02*
X2498Y1896D01*
X2502Y1900D01*
X2508Y1902D01*
X2514D01*
X2519Y1900D01*
X2523Y1896D01*
X2525Y1890D01*
Y1886D01*
X2523Y1881D01*
X2519Y1877D01*
X2514Y1875D01*
X2508D01*
X2502Y1877D01*
X2500Y1879D01*
X2498Y1883D01*
Y1885D01*
X2500Y1886D01*
X2502Y1885D01*
X2500Y1883D01*
X2514Y1902D02*
X2517Y1900D01*
X2521Y1896D01*
X2523Y1890D01*
Y1886D01*
X2521Y1881D01*
X2517Y1877D01*
X2514Y1875D01*
X2502Y1915D02*
X2521D01*
X2502Y1913D02*
X2512D01*
X2521Y1915D01*
X2256D02*
Y1875D01*
X2258Y1915D02*
Y1875D01*
X2250Y1915D02*
X2273D01*
X2279Y1913D01*
X2280Y1911D01*
X2282Y1907D01*
Y1904D01*
X2280Y1900D01*
X2279Y1898D01*
X2273Y1896D01*
X2258D01*
X2273Y1915D02*
X2277Y1913D01*
X2279Y1911D01*
X2280Y1907D01*
Y1904D01*
X2279Y1900D01*
X2277Y1898D01*
X2273Y1896D01*
X2250Y1875D02*
X2263D01*
X2267Y1896D02*
X2271Y1894D01*
X2273Y1892D01*
X2279Y1879D01*
X2280Y1877D01*
X2282D01*
X2284Y1879D01*
X2271Y1894D02*
X2273Y1890D01*
X2277Y1877D01*
X2279Y1875D01*
X2282D01*
X2284Y1879D01*
Y1881D01*
X2289Y1907D02*
X2293Y1909D01*
X2299Y1915D01*
Y1875D01*
X2297Y1913D02*
Y1875D01*
X2289D02*
X2307D01*
X2332Y1911D02*
Y1875D01*
X2344Y1886D02*
X2313D01*
X2334Y1915D01*
Y1875D01*
X2327D02*
X2340D01*
X2086Y1910D02*
Y1870D01*
X2088Y1910D02*
Y1870D01*
X2080Y1910D02*
X2103D01*
X2109Y1908D01*
X2110Y1906D01*
X2112Y1902D01*
Y1899D01*
X2110Y1895D01*
X2109Y1893D01*
X2103Y1891D01*
X2088D01*
X2103Y1910D02*
X2107Y1908D01*
X2109Y1906D01*
X2110Y1902D01*
Y1899D01*
X2109Y1895D01*
X2107Y1893D01*
X2103Y1891D01*
X2080Y1870D02*
X2093D01*
X2097Y1891D02*
X2101Y1889D01*
X2103Y1887D01*
X2109Y1874D01*
X2110Y1872D01*
X2112D01*
X2114Y1874D01*
X2101Y1889D02*
X2103Y1885D01*
X2107Y1872D01*
X2109Y1870D01*
X2112D01*
X2114Y1874D01*
Y1876D01*
X2119Y1902D02*
X2123Y1904D01*
X2129Y1910D01*
Y1870D01*
X2127Y1908D02*
Y1870D01*
X2119D02*
X2137D01*
X2145Y1902D02*
X2147Y1900D01*
X2145Y1899D01*
X2143Y1900D01*
Y1902D01*
X2145Y1906D01*
X2147Y1908D01*
X2153Y1910D01*
X2161D01*
X2166Y1908D01*
X2168Y1904D01*
Y1899D01*
X2166Y1895D01*
X2161Y1893D01*
X2155D01*
X2161Y1910D02*
X2164Y1908D01*
X2166Y1904D01*
Y1899D01*
X2164Y1895D01*
X2161Y1893D01*
X2164Y1891D01*
X2168Y1887D01*
X2170Y1883D01*
Y1878D01*
X2168Y1874D01*
X2166Y1872D01*
X2161Y1870D01*
X2153D01*
X2147Y1872D01*
X2145Y1874D01*
X2143Y1878D01*
Y1880D01*
X2145Y1881D01*
X2147Y1880D01*
X2145Y1878D01*
X2166Y1889D02*
X2168Y1883D01*
Y1878D01*
X2166Y1874D01*
X2164Y1872D01*
X2161Y1870D01*
X1911Y1915D02*
Y1875D01*
X1913Y1915D02*
Y1875D01*
X1905Y1915D02*
X1928D01*
X1934Y1913D01*
X1935Y1911D01*
X1937Y1907D01*
Y1904D01*
X1935Y1900D01*
X1934Y1898D01*
X1928Y1896D01*
X1913D01*
X1928Y1915D02*
X1932Y1913D01*
X1934Y1911D01*
X1935Y1907D01*
Y1904D01*
X1934Y1900D01*
X1932Y1898D01*
X1928Y1896D01*
X1905Y1875D02*
X1918D01*
X1922Y1896D02*
X1926Y1894D01*
X1928Y1892D01*
X1934Y1879D01*
X1935Y1877D01*
X1937D01*
X1939Y1879D01*
X1926Y1894D02*
X1928Y1890D01*
X1932Y1877D01*
X1934Y1875D01*
X1937D01*
X1939Y1879D01*
Y1881D01*
X1944Y1907D02*
X1948Y1909D01*
X1954Y1915D01*
Y1875D01*
X1952Y1913D02*
Y1875D01*
X1944D02*
X1962D01*
X1970Y1907D02*
X1972Y1905D01*
X1970Y1904D01*
X1968Y1905D01*
Y1907D01*
X1970Y1911D01*
X1972Y1913D01*
X1978Y1915D01*
X1986D01*
X1991Y1913D01*
X1993Y1911D01*
X1995Y1907D01*
Y1904D01*
X1993Y1900D01*
X1987Y1896D01*
X1978Y1892D01*
X1974Y1890D01*
X1970Y1886D01*
X1968Y1881D01*
Y1875D01*
X1986Y1915D02*
X1989Y1913D01*
X1991Y1911D01*
X1993Y1907D01*
Y1904D01*
X1991Y1900D01*
X1986Y1896D01*
X1978Y1892D01*
X1968Y1879D02*
X1970Y1881D01*
X1974D01*
X1984Y1877D01*
X1989D01*
X1993Y1879D01*
X1995Y1881D01*
Y1885D01*
X1974Y1881D02*
X1984Y1875D01*
X1991D01*
X1993Y1877D01*
X1995Y1881D01*
X1731Y1910D02*
Y1870D01*
X1733Y1910D02*
Y1870D01*
X1725Y1910D02*
X1748D01*
X1754Y1908D01*
X1755Y1906D01*
X1757Y1902D01*
Y1899D01*
X1755Y1895D01*
X1754Y1893D01*
X1748Y1891D01*
X1733D01*
X1748Y1910D02*
X1752Y1908D01*
X1754Y1906D01*
X1755Y1902D01*
Y1899D01*
X1754Y1895D01*
X1752Y1893D01*
X1748Y1891D01*
X1725Y1870D02*
X1738D01*
X1742Y1891D02*
X1746Y1889D01*
X1748Y1887D01*
X1754Y1874D01*
X1755Y1872D01*
X1757D01*
X1759Y1874D01*
X1746Y1889D02*
X1748Y1885D01*
X1752Y1872D01*
X1754Y1870D01*
X1757D01*
X1759Y1874D01*
Y1876D01*
X1764Y1902D02*
X1768Y1904D01*
X1774Y1910D01*
Y1870D01*
X1772Y1908D02*
Y1870D01*
X1764D02*
X1782D01*
X1788Y1902D02*
X1792Y1904D01*
X1798Y1910D01*
Y1870D01*
X1796Y1908D02*
Y1870D01*
X1788D02*
X1806D01*
X1546Y1915D02*
Y1875D01*
X1548Y1915D02*
Y1875D01*
X1540Y1915D02*
X1563D01*
X1569Y1913D01*
X1570Y1911D01*
X1572Y1907D01*
Y1904D01*
X1570Y1900D01*
X1569Y1898D01*
X1563Y1896D01*
X1548D01*
X1563Y1915D02*
X1567Y1913D01*
X1569Y1911D01*
X1570Y1907D01*
Y1904D01*
X1569Y1900D01*
X1567Y1898D01*
X1563Y1896D01*
X1540Y1875D02*
X1553D01*
X1557Y1896D02*
X1561Y1894D01*
X1563Y1892D01*
X1569Y1879D01*
X1570Y1877D01*
X1572D01*
X1574Y1879D01*
X1561Y1894D02*
X1563Y1890D01*
X1567Y1877D01*
X1569Y1875D01*
X1572D01*
X1574Y1879D01*
Y1881D01*
X1579Y1907D02*
X1583Y1909D01*
X1589Y1915D01*
Y1875D01*
X1587Y1913D02*
Y1875D01*
X1579D02*
X1597D01*
X1615Y1915D02*
X1609Y1913D01*
X1605Y1907D01*
X1603Y1898D01*
Y1892D01*
X1605Y1883D01*
X1609Y1877D01*
X1615Y1875D01*
X1619D01*
X1624Y1877D01*
X1628Y1883D01*
X1630Y1892D01*
Y1898D01*
X1628Y1907D01*
X1624Y1913D01*
X1619Y1915D01*
X1615D01*
X1611Y1913D01*
X1609Y1911D01*
X1607Y1907D01*
X1605Y1898D01*
Y1892D01*
X1607Y1883D01*
X1609Y1879D01*
X1611Y1877D01*
X1615Y1875D01*
X1619D02*
X1622Y1877D01*
X1624Y1879D01*
X1626Y1883D01*
X1628Y1892D01*
Y1898D01*
X1626Y1907D01*
X1624Y1911D01*
X1622Y1913D01*
X1619Y1915D01*
X1376Y1910D02*
Y1870D01*
X1378Y1910D02*
Y1870D01*
X1370Y1910D02*
X1393D01*
X1399Y1908D01*
X1400Y1906D01*
X1402Y1902D01*
Y1899D01*
X1400Y1895D01*
X1399Y1893D01*
X1393Y1891D01*
X1378D01*
X1393Y1910D02*
X1397Y1908D01*
X1399Y1906D01*
X1400Y1902D01*
Y1899D01*
X1399Y1895D01*
X1397Y1893D01*
X1393Y1891D01*
X1370Y1870D02*
X1383D01*
X1387Y1891D02*
X1391Y1889D01*
X1393Y1887D01*
X1399Y1874D01*
X1400Y1872D01*
X1402D01*
X1404Y1874D01*
X1391Y1889D02*
X1393Y1885D01*
X1397Y1872D01*
X1399Y1870D01*
X1402D01*
X1404Y1874D01*
Y1876D01*
X1434Y1897D02*
X1432Y1891D01*
X1428Y1887D01*
X1423Y1885D01*
X1421D01*
X1415Y1887D01*
X1411Y1891D01*
X1409Y1897D01*
Y1899D01*
X1411Y1904D01*
X1415Y1908D01*
X1421Y1910D01*
X1425D01*
X1430Y1908D01*
X1434Y1904D01*
X1436Y1899D01*
Y1887D01*
X1434Y1880D01*
X1432Y1876D01*
X1428Y1872D01*
X1423Y1870D01*
X1417D01*
X1413Y1872D01*
X1411Y1876D01*
Y1878D01*
X1413Y1880D01*
X1415Y1878D01*
X1413Y1876D01*
X1421Y1885D02*
X1417Y1887D01*
X1413Y1891D01*
X1411Y1897D01*
Y1899D01*
X1413Y1904D01*
X1417Y1908D01*
X1421Y1910D01*
X1425D02*
X1428Y1908D01*
X1432Y1904D01*
X1434Y1899D01*
Y1887D01*
X1432Y1880D01*
X1430Y1876D01*
X1427Y1872D01*
X1423Y1870D01*
X1196Y1910D02*
Y1870D01*
X1198Y1910D02*
Y1870D01*
X1190Y1910D02*
X1213D01*
X1219Y1908D01*
X1220Y1906D01*
X1222Y1902D01*
Y1899D01*
X1220Y1895D01*
X1219Y1893D01*
X1213Y1891D01*
X1198D01*
X1213Y1910D02*
X1217Y1908D01*
X1219Y1906D01*
X1220Y1902D01*
Y1899D01*
X1219Y1895D01*
X1217Y1893D01*
X1213Y1891D01*
X1190Y1870D02*
X1203D01*
X1207Y1891D02*
X1211Y1889D01*
X1213Y1887D01*
X1219Y1874D01*
X1220Y1872D01*
X1222D01*
X1224Y1874D01*
X1211Y1889D02*
X1213Y1885D01*
X1217Y1872D01*
X1219Y1870D01*
X1222D01*
X1224Y1874D01*
Y1876D01*
X1239Y1910D02*
X1233Y1908D01*
X1231Y1904D01*
Y1899D01*
X1233Y1895D01*
X1239Y1893D01*
X1247D01*
X1252Y1895D01*
X1254Y1899D01*
Y1904D01*
X1252Y1908D01*
X1247Y1910D01*
X1239D01*
X1235Y1908D01*
X1233Y1904D01*
Y1899D01*
X1235Y1895D01*
X1239Y1893D01*
X1247D02*
X1250Y1895D01*
X1252Y1899D01*
Y1904D01*
X1250Y1908D01*
X1247Y1910D01*
X1239Y1893D02*
X1233Y1891D01*
X1231Y1889D01*
X1229Y1885D01*
Y1878D01*
X1231Y1874D01*
X1233Y1872D01*
X1239Y1870D01*
X1247D01*
X1252Y1872D01*
X1254Y1874D01*
X1256Y1878D01*
Y1885D01*
X1254Y1889D01*
X1252Y1891D01*
X1247Y1893D01*
X1239D02*
X1235Y1891D01*
X1233Y1889D01*
X1231Y1885D01*
Y1878D01*
X1233Y1874D01*
X1235Y1872D01*
X1239Y1870D01*
X1247D02*
X1250Y1872D01*
X1252Y1874D01*
X1254Y1878D01*
Y1885D01*
X1252Y1889D01*
X1250Y1891D01*
X1247Y1893D01*
X1026Y1910D02*
Y1870D01*
X1028Y1910D02*
Y1870D01*
X1020Y1910D02*
X1043D01*
X1049Y1908D01*
X1050Y1906D01*
X1052Y1902D01*
Y1899D01*
X1050Y1895D01*
X1049Y1893D01*
X1043Y1891D01*
X1028D01*
X1043Y1910D02*
X1047Y1908D01*
X1049Y1906D01*
X1050Y1902D01*
Y1899D01*
X1049Y1895D01*
X1047Y1893D01*
X1043Y1891D01*
X1020Y1870D02*
X1033D01*
X1037Y1891D02*
X1041Y1889D01*
X1043Y1887D01*
X1049Y1874D01*
X1050Y1872D01*
X1052D01*
X1054Y1874D01*
X1041Y1889D02*
X1043Y1885D01*
X1047Y1872D01*
X1049Y1870D01*
X1052D01*
X1054Y1874D01*
Y1876D01*
X1059Y1910D02*
Y1899D01*
Y1902D02*
X1061Y1906D01*
X1065Y1910D01*
X1069D01*
X1078Y1904D01*
X1082D01*
X1084Y1906D01*
X1086Y1910D01*
X1061Y1906D02*
X1065Y1908D01*
X1069D01*
X1078Y1904D01*
X1086Y1910D02*
Y1904D01*
X1084Y1899D01*
X1077Y1889D01*
X1075Y1885D01*
X1073Y1880D01*
Y1870D01*
X1084Y1899D02*
X1075Y1889D01*
X1073Y1885D01*
X1071Y1880D01*
Y1870D01*
X846Y1910D02*
Y1870D01*
X848Y1910D02*
Y1870D01*
X840Y1910D02*
X863D01*
X869Y1908D01*
X870Y1906D01*
X872Y1902D01*
Y1899D01*
X870Y1895D01*
X869Y1893D01*
X863Y1891D01*
X848D01*
X863Y1910D02*
X867Y1908D01*
X869Y1906D01*
X870Y1902D01*
Y1899D01*
X869Y1895D01*
X867Y1893D01*
X863Y1891D01*
X840Y1870D02*
X853D01*
X857Y1891D02*
X861Y1889D01*
X863Y1887D01*
X869Y1874D01*
X870Y1872D01*
X872D01*
X874Y1874D01*
X861Y1889D02*
X863Y1885D01*
X867Y1872D01*
X869Y1870D01*
X872D01*
X874Y1874D01*
Y1876D01*
X902Y1904D02*
X900Y1902D01*
X902Y1900D01*
X904Y1902D01*
Y1904D01*
X902Y1908D01*
X898Y1910D01*
X893D01*
X887Y1908D01*
X883Y1904D01*
X881Y1900D01*
X879Y1893D01*
Y1881D01*
X881Y1876D01*
X885Y1872D01*
X891Y1870D01*
X895D01*
X900Y1872D01*
X904Y1876D01*
X906Y1881D01*
Y1883D01*
X904Y1889D01*
X900Y1893D01*
X895Y1895D01*
X893D01*
X887Y1893D01*
X883Y1889D01*
X881Y1883D01*
X893Y1910D02*
X889Y1908D01*
X885Y1904D01*
X883Y1900D01*
X881Y1893D01*
Y1881D01*
X883Y1876D01*
X887Y1872D01*
X891Y1870D01*
X895D02*
X898Y1872D01*
X902Y1876D01*
X904Y1881D01*
Y1883D01*
X902Y1889D01*
X898Y1893D01*
X895Y1895D01*
X666Y1910D02*
Y1870D01*
X668Y1910D02*
Y1870D01*
X660Y1910D02*
X683D01*
X689Y1908D01*
X690Y1906D01*
X692Y1902D01*
Y1899D01*
X690Y1895D01*
X689Y1893D01*
X683Y1891D01*
X668D01*
X683Y1910D02*
X687Y1908D01*
X689Y1906D01*
X690Y1902D01*
Y1899D01*
X689Y1895D01*
X687Y1893D01*
X683Y1891D01*
X660Y1870D02*
X673D01*
X677Y1891D02*
X681Y1889D01*
X683Y1887D01*
X689Y1874D01*
X690Y1872D01*
X692D01*
X694Y1874D01*
X681Y1889D02*
X683Y1885D01*
X687Y1872D01*
X689Y1870D01*
X692D01*
X694Y1874D01*
Y1876D01*
X703Y1910D02*
X699Y1891D01*
X703Y1895D01*
X709Y1897D01*
X715D01*
X720Y1895D01*
X724Y1891D01*
X726Y1885D01*
Y1881D01*
X724Y1876D01*
X720Y1872D01*
X715Y1870D01*
X709D01*
X703Y1872D01*
X701Y1874D01*
X699Y1878D01*
Y1880D01*
X701Y1881D01*
X703Y1880D01*
X701Y1878D01*
X715Y1897D02*
X718Y1895D01*
X722Y1891D01*
X724Y1885D01*
Y1881D01*
X722Y1876D01*
X718Y1872D01*
X715Y1870D01*
X703Y1910D02*
X722D01*
X703Y1908D02*
X713D01*
X722Y1910D01*
X491D02*
Y1870D01*
X493Y1910D02*
Y1870D01*
X485Y1910D02*
X508D01*
X514Y1908D01*
X515Y1906D01*
X517Y1902D01*
Y1899D01*
X515Y1895D01*
X514Y1893D01*
X508Y1891D01*
X493D01*
X508Y1910D02*
X512Y1908D01*
X514Y1906D01*
X515Y1902D01*
Y1899D01*
X514Y1895D01*
X512Y1893D01*
X508Y1891D01*
X485Y1870D02*
X498D01*
X502Y1891D02*
X506Y1889D01*
X508Y1887D01*
X514Y1874D01*
X515Y1872D01*
X517D01*
X519Y1874D01*
X506Y1889D02*
X508Y1885D01*
X512Y1872D01*
X514Y1870D01*
X517D01*
X519Y1874D01*
Y1876D01*
X543Y1906D02*
Y1870D01*
X555Y1881D02*
X524D01*
X545Y1910D01*
Y1870D01*
X538D02*
X551D01*
X311Y1910D02*
Y1870D01*
X313Y1910D02*
Y1870D01*
X305Y1910D02*
X328D01*
X334Y1908D01*
X335Y1906D01*
X337Y1902D01*
Y1899D01*
X335Y1895D01*
X334Y1893D01*
X328Y1891D01*
X313D01*
X328Y1910D02*
X332Y1908D01*
X334Y1906D01*
X335Y1902D01*
Y1899D01*
X334Y1895D01*
X332Y1893D01*
X328Y1891D01*
X305Y1870D02*
X318D01*
X322Y1891D02*
X326Y1889D01*
X328Y1887D01*
X334Y1874D01*
X335Y1872D01*
X337D01*
X339Y1874D01*
X326Y1889D02*
X328Y1885D01*
X332Y1872D01*
X334Y1870D01*
X337D01*
X339Y1874D01*
Y1876D01*
X346Y1902D02*
X348Y1900D01*
X346Y1899D01*
X344Y1900D01*
Y1902D01*
X346Y1906D01*
X348Y1908D01*
X354Y1910D01*
X362D01*
X367Y1908D01*
X369Y1904D01*
Y1899D01*
X367Y1895D01*
X362Y1893D01*
X356D01*
X362Y1910D02*
X365Y1908D01*
X367Y1904D01*
Y1899D01*
X365Y1895D01*
X362Y1893D01*
X365Y1891D01*
X369Y1887D01*
X371Y1883D01*
Y1878D01*
X369Y1874D01*
X367Y1872D01*
X362Y1870D01*
X354D01*
X348Y1872D01*
X346Y1874D01*
X344Y1878D01*
Y1880D01*
X346Y1881D01*
X348Y1880D01*
X346Y1878D01*
X367Y1889D02*
X369Y1883D01*
Y1878D01*
X367Y1874D01*
X365Y1872D01*
X362Y1870D01*
X141Y1910D02*
Y1870D01*
X143Y1910D02*
Y1870D01*
X135Y1910D02*
X158D01*
X164Y1908D01*
X165Y1906D01*
X167Y1902D01*
Y1899D01*
X165Y1895D01*
X164Y1893D01*
X158Y1891D01*
X143D01*
X158Y1910D02*
X162Y1908D01*
X164Y1906D01*
X165Y1902D01*
Y1899D01*
X164Y1895D01*
X162Y1893D01*
X158Y1891D01*
X135Y1870D02*
X148D01*
X152Y1891D02*
X156Y1889D01*
X158Y1887D01*
X164Y1874D01*
X165Y1872D01*
X167D01*
X169Y1874D01*
X156Y1889D02*
X158Y1885D01*
X162Y1872D01*
X164Y1870D01*
X167D01*
X169Y1874D01*
Y1876D01*
X176Y1902D02*
X178Y1900D01*
X176Y1899D01*
X174Y1900D01*
Y1902D01*
X176Y1906D01*
X178Y1908D01*
X184Y1910D01*
X192D01*
X197Y1908D01*
X199Y1906D01*
X201Y1902D01*
Y1899D01*
X199Y1895D01*
X193Y1891D01*
X184Y1887D01*
X180Y1885D01*
X176Y1881D01*
X174Y1876D01*
Y1870D01*
X192Y1910D02*
X195Y1908D01*
X197Y1906D01*
X199Y1902D01*
Y1899D01*
X197Y1895D01*
X192Y1891D01*
X184Y1887D01*
X174Y1874D02*
X176Y1876D01*
X180D01*
X190Y1872D01*
X195D01*
X199Y1874D01*
X201Y1876D01*
Y1880D01*
X180Y1876D02*
X190Y1870D01*
X197D01*
X199Y1872D01*
X201Y1876D01*
X-34Y1910D02*
Y1870D01*
X-32Y1910D02*
Y1870D01*
X-40Y1910D02*
X-17D01*
X-11Y1908D01*
X-10Y1906D01*
X-8Y1902D01*
Y1899D01*
X-10Y1895D01*
X-11Y1893D01*
X-17Y1891D01*
X-32D01*
X-17Y1910D02*
X-13Y1908D01*
X-11Y1906D01*
X-10Y1902D01*
Y1899D01*
X-11Y1895D01*
X-13Y1893D01*
X-17Y1891D01*
X-40Y1870D02*
X-27D01*
X-23Y1891D02*
X-19Y1889D01*
X-17Y1887D01*
X-11Y1874D01*
X-10Y1872D01*
X-8D01*
X-6Y1874D01*
X-19Y1889D02*
X-17Y1885D01*
X-13Y1872D01*
X-11Y1870D01*
X-8D01*
X-6Y1874D01*
Y1876D01*
X-1Y1902D02*
X3Y1904D01*
X9Y1910D01*
Y1870D01*
X7Y1908D02*
Y1870D01*
X-1D02*
X17D01*
X766Y2930D02*
Y2890D01*
X768Y2930D02*
Y2890D01*
X760Y2930D02*
X773D01*
X760Y2890D02*
X789D01*
Y2901D01*
X787Y2890D01*
X794Y2922D02*
X798Y2924D01*
X804Y2930D01*
Y2890D01*
X802Y2928D02*
Y2890D01*
X794D02*
X811D01*
X-1535Y2577D02*
Y2545D01*
X-1537Y2539D01*
X-1540Y2537D01*
X-1544D01*
X-1548Y2539D01*
X-1550Y2543D01*
Y2547D01*
X-1548Y2548D01*
X-1546Y2547D01*
X-1548Y2545D01*
X-1537Y2577D02*
Y2545D01*
X-1539Y2539D01*
X-1540Y2537D01*
X-1542Y2577D02*
X-1529D01*
X-1523Y2569D02*
X-1519Y2571D01*
X-1513Y2577D01*
Y2537D01*
X-1515Y2575D02*
Y2537D01*
X-1523D02*
X-1505D01*
X3261Y2235D02*
Y2195D01*
X3263Y2235D02*
Y2195D01*
X3255Y2235D02*
X3268D01*
X3255Y2195D02*
X3268D01*
X3302Y2229D02*
X3304Y2224D01*
Y2235D01*
X3302Y2229D01*
X3298Y2233D01*
X3293Y2235D01*
X3289D01*
X3283Y2233D01*
X3279Y2229D01*
X3277Y2225D01*
X3276Y2220D01*
Y2210D01*
X3277Y2205D01*
X3279Y2201D01*
X3283Y2197D01*
X3289Y2195D01*
X3293D01*
X3298Y2197D01*
X3302Y2201D01*
X3304Y2205D01*
X3289Y2235D02*
X3285Y2233D01*
X3281Y2229D01*
X3279Y2225D01*
X3277Y2220D01*
Y2210D01*
X3279Y2205D01*
X3281Y2201D01*
X3285Y2197D01*
X3289Y2195D01*
X3312Y2227D02*
X3314Y2225D01*
X3312Y2224D01*
X3310Y2225D01*
Y2227D01*
X3312Y2231D01*
X3314Y2233D01*
X3319Y2235D01*
X3327D01*
X3333Y2233D01*
X3335Y2229D01*
Y2224D01*
X3333Y2220D01*
X3327Y2218D01*
X3321D01*
X3327Y2235D02*
X3331Y2233D01*
X3333Y2229D01*
Y2224D01*
X3331Y2220D01*
X3327Y2218D01*
X3331Y2216D01*
X3335Y2212D01*
X3337Y2208D01*
Y2203D01*
X3335Y2199D01*
X3333Y2197D01*
X3327Y2195D01*
X3319D01*
X3314Y2197D01*
X3312Y2199D01*
X3310Y2203D01*
Y2205D01*
X3312Y2206D01*
X3314Y2205D01*
X3312Y2203D01*
X3333Y2214D02*
X3335Y2208D01*
Y2203D01*
X3333Y2199D01*
X3331Y2197D01*
X3327Y2195D01*
X1813Y2235D02*
Y2195D01*
X1815Y2235D02*
Y2195D01*
X1808Y2235D02*
X1821D01*
X1808Y2195D02*
X1821D01*
X1855Y2229D02*
X1857Y2224D01*
Y2235D01*
X1855Y2229D01*
X1851Y2233D01*
X1845Y2235D01*
X1842D01*
X1836Y2233D01*
X1832Y2229D01*
X1830Y2225D01*
X1828Y2220D01*
Y2210D01*
X1830Y2205D01*
X1832Y2201D01*
X1836Y2197D01*
X1842Y2195D01*
X1845D01*
X1851Y2197D01*
X1855Y2201D01*
X1857Y2205D01*
X1842Y2235D02*
X1838Y2233D01*
X1834Y2229D01*
X1832Y2225D01*
X1830Y2220D01*
Y2210D01*
X1832Y2205D01*
X1834Y2201D01*
X1838Y2197D01*
X1842Y2195D01*
X1864Y2227D02*
X1866Y2225D01*
X1864Y2224D01*
X1862Y2225D01*
Y2227D01*
X1864Y2231D01*
X1866Y2233D01*
X1872Y2235D01*
X1880D01*
X1885Y2233D01*
X1887Y2231D01*
X1889Y2227D01*
Y2224D01*
X1887Y2220D01*
X1881Y2216D01*
X1872Y2212D01*
X1868Y2210D01*
X1864Y2206D01*
X1862Y2201D01*
Y2195D01*
X1880Y2235D02*
X1883Y2233D01*
X1885Y2231D01*
X1887Y2227D01*
Y2224D01*
X1885Y2220D01*
X1880Y2216D01*
X1872Y2212D01*
X1862Y2199D02*
X1864Y2201D01*
X1868D01*
X1878Y2197D01*
X1883D01*
X1887Y2199D01*
X1889Y2201D01*
Y2205D01*
X1868Y2201D02*
X1878Y2195D01*
X1885D01*
X1887Y2197D01*
X1889Y2201D01*
X431Y2215D02*
Y2175D01*
X433Y2215D02*
Y2175D01*
X425Y2215D02*
X438D01*
X425Y2175D02*
X438D01*
X472Y2209D02*
X474Y2204D01*
Y2215D01*
X472Y2209D01*
X468Y2213D01*
X463Y2215D01*
X459D01*
X453Y2213D01*
X449Y2209D01*
X447Y2205D01*
X446Y2200D01*
Y2190D01*
X447Y2185D01*
X449Y2181D01*
X453Y2177D01*
X459Y2175D01*
X463D01*
X468Y2177D01*
X472Y2181D01*
X474Y2185D01*
X459Y2215D02*
X455Y2213D01*
X451Y2209D01*
X449Y2205D01*
X447Y2200D01*
Y2190D01*
X449Y2185D01*
X451Y2181D01*
X455Y2177D01*
X459Y2175D01*
X480Y2207D02*
X484Y2209D01*
X489Y2215D01*
Y2175D01*
X487Y2213D02*
Y2175D01*
X480D02*
X497D01*
X-889Y2105D02*
Y2065D01*
X-887Y2105D02*
Y2065D01*
X-895Y2105D02*
X-876D01*
X-870Y2103D01*
X-866Y2099D01*
X-865Y2095D01*
X-863Y2090D01*
Y2080D01*
X-865Y2075D01*
X-866Y2071D01*
X-870Y2067D01*
X-876Y2065D01*
X-895D01*
X-876Y2105D02*
X-872Y2103D01*
X-868Y2099D01*
X-866Y2095D01*
X-865Y2090D01*
Y2080D01*
X-866Y2075D01*
X-868Y2071D01*
X-872Y2067D01*
X-876Y2065D01*
X-857Y2097D02*
X-853Y2099D01*
X-848Y2105D01*
Y2065D01*
X-850Y2103D02*
Y2065D01*
X-857D02*
X-840D01*
X-810Y2099D02*
X-812Y2097D01*
X-810Y2095D01*
X-809Y2097D01*
Y2099D01*
X-810Y2103D01*
X-814Y2105D01*
X-820D01*
X-826Y2103D01*
X-829Y2099D01*
X-831Y2095D01*
X-833Y2088D01*
Y2076D01*
X-831Y2071D01*
X-828Y2067D01*
X-822Y2065D01*
X-818D01*
X-812Y2067D01*
X-809Y2071D01*
X-807Y2076D01*
Y2078D01*
X-809Y2084D01*
X-812Y2088D01*
X-818Y2090D01*
X-820D01*
X-826Y2088D01*
X-829Y2084D01*
X-831Y2078D01*
X-820Y2105D02*
X-824Y2103D01*
X-828Y2099D01*
X-829Y2095D01*
X-831Y2088D01*
Y2076D01*
X-829Y2071D01*
X-826Y2067D01*
X-822Y2065D01*
X-818D02*
X-814Y2067D01*
X-810Y2071D01*
X-809Y2076D01*
Y2078D01*
X-810Y2084D01*
X-814Y2088D01*
X-818Y2090D01*
X-776Y2092D02*
X-778Y2086D01*
X-782Y2082D01*
X-787Y2080D01*
X-789D01*
X-795Y2082D01*
X-799Y2086D01*
X-801Y2092D01*
Y2094D01*
X-799Y2099D01*
X-795Y2103D01*
X-789Y2105D01*
X-785D01*
X-780Y2103D01*
X-776Y2099D01*
X-774Y2094D01*
Y2082D01*
X-776Y2075D01*
X-778Y2071D01*
X-782Y2067D01*
X-787Y2065D01*
X-793D01*
X-797Y2067D01*
X-799Y2071D01*
Y2073D01*
X-797Y2075D01*
X-795Y2073D01*
X-797Y2071D01*
X-789Y2080D02*
X-793Y2082D01*
X-797Y2086D01*
X-799Y2092D01*
Y2094D01*
X-797Y2099D01*
X-793Y2103D01*
X-789Y2105D01*
X-785D02*
X-782Y2103D01*
X-778Y2099D01*
X-776Y2094D01*
Y2082D01*
X-778Y2075D01*
X-780Y2071D01*
X-784Y2067D01*
X-787Y2065D01*
X-538Y549D02*
X-536Y544D01*
Y555D01*
X-538Y549D01*
X-542Y553D01*
X-548Y555D01*
X-552D01*
X-557Y553D01*
X-561Y549D01*
X-563Y545D01*
X-565Y540D01*
Y530D01*
X-563Y525D01*
X-561Y521D01*
X-557Y517D01*
X-552Y515D01*
X-548D01*
X-542Y517D01*
X-538Y521D01*
X-536Y525D01*
X-552Y555D02*
X-555Y553D01*
X-559Y549D01*
X-561Y545D01*
X-563Y540D01*
Y530D01*
X-561Y525D01*
X-559Y521D01*
X-555Y517D01*
X-552Y515D01*
X-531Y547D02*
X-527Y549D01*
X-521Y555D01*
Y515D01*
X-523Y553D02*
Y515D01*
X-531D02*
X-514D01*
X-484Y549D02*
X-486Y547D01*
X-484Y545D01*
X-482Y547D01*
Y549D01*
X-484Y553D01*
X-488Y555D01*
X-493D01*
X-499Y553D01*
X-503Y549D01*
X-505Y545D01*
X-507Y538D01*
Y526D01*
X-505Y521D01*
X-501Y517D01*
X-495Y515D01*
X-491D01*
X-486Y517D01*
X-482Y521D01*
X-480Y526D01*
Y528D01*
X-482Y534D01*
X-486Y538D01*
X-491Y540D01*
X-493D01*
X-499Y538D01*
X-503Y534D01*
X-505Y528D01*
X-493Y555D02*
X-497Y553D01*
X-501Y549D01*
X-503Y545D01*
X-505Y538D01*
Y526D01*
X-503Y521D01*
X-499Y517D01*
X-495Y515D01*
X-491D02*
X-488Y517D01*
X-484Y521D01*
X-482Y526D01*
Y528D01*
X-484Y534D01*
X-488Y538D01*
X-491Y540D01*
X-698Y-431D02*
X-696Y-436D01*
Y-425D01*
X-698Y-431D01*
X-702Y-427D01*
X-708Y-425D01*
X-712D01*
X-717Y-427D01*
X-721Y-431D01*
X-723Y-435D01*
X-725Y-440D01*
Y-450D01*
X-723Y-455D01*
X-721Y-459D01*
X-717Y-463D01*
X-712Y-465D01*
X-708D01*
X-702Y-463D01*
X-698Y-459D01*
X-696Y-455D01*
X-712Y-425D02*
X-715Y-427D01*
X-719Y-431D01*
X-721Y-435D01*
X-723Y-440D01*
Y-450D01*
X-721Y-455D01*
X-719Y-459D01*
X-715Y-463D01*
X-712Y-465D01*
X-691Y-433D02*
X-687Y-431D01*
X-681Y-425D01*
Y-465D01*
X-683Y-427D02*
Y-465D01*
X-691D02*
X-674D01*
X-663Y-425D02*
X-667Y-444D01*
X-663Y-440D01*
X-657Y-438D01*
X-651D01*
X-646Y-440D01*
X-642Y-444D01*
X-640Y-450D01*
Y-454D01*
X-642Y-459D01*
X-646Y-463D01*
X-651Y-465D01*
X-657D01*
X-663Y-463D01*
X-665Y-461D01*
X-667Y-457D01*
Y-455D01*
X-665Y-454D01*
X-663Y-455D01*
X-665Y-457D01*
X-651Y-438D02*
X-648Y-440D01*
X-644Y-444D01*
X-642Y-450D01*
Y-454D01*
X-644Y-459D01*
X-648Y-463D01*
X-651Y-465D01*
X-663Y-425D02*
X-644D01*
X-663Y-427D02*
X-653D01*
X-644Y-425D01*
X-873Y564D02*
X-871Y559D01*
Y570D01*
X-873Y564D01*
X-877Y568D01*
X-883Y570D01*
X-887D01*
X-892Y568D01*
X-896Y564D01*
X-898Y560D01*
X-900Y555D01*
Y545D01*
X-898Y540D01*
X-896Y536D01*
X-892Y532D01*
X-887Y530D01*
X-883D01*
X-877Y532D01*
X-873Y536D01*
X-871Y540D01*
X-887Y570D02*
X-890Y568D01*
X-894Y564D01*
X-896Y560D01*
X-898Y555D01*
Y545D01*
X-896Y540D01*
X-894Y536D01*
X-890Y532D01*
X-887Y530D01*
X-866Y562D02*
X-862Y564D01*
X-856Y570D01*
Y530D01*
X-858Y568D02*
Y530D01*
X-866D02*
X-849D01*
X-823Y566D02*
Y530D01*
X-811Y541D02*
X-842D01*
X-821Y570D01*
Y530D01*
X-828D02*
X-815D01*
X-978Y564D02*
X-976Y559D01*
Y570D01*
X-978Y564D01*
X-982Y568D01*
X-988Y570D01*
X-992D01*
X-997Y568D01*
X-1001Y564D01*
X-1003Y560D01*
X-1005Y555D01*
Y545D01*
X-1003Y540D01*
X-1001Y536D01*
X-997Y532D01*
X-992Y530D01*
X-988D01*
X-982Y532D01*
X-978Y536D01*
X-976Y540D01*
X-992Y570D02*
X-995Y568D01*
X-999Y564D01*
X-1001Y560D01*
X-1003Y555D01*
Y545D01*
X-1001Y540D01*
X-999Y536D01*
X-995Y532D01*
X-992Y530D01*
X-971Y562D02*
X-967Y564D01*
X-961Y570D01*
Y530D01*
X-963Y568D02*
Y530D01*
X-971D02*
X-954D01*
X-945Y562D02*
X-943Y560D01*
X-945Y559D01*
X-947Y560D01*
Y562D01*
X-945Y566D01*
X-943Y568D01*
X-937Y570D01*
X-930D01*
X-924Y568D01*
X-922Y564D01*
Y559D01*
X-924Y555D01*
X-930Y553D01*
X-935D01*
X-930Y570D02*
X-926Y568D01*
X-924Y564D01*
Y559D01*
X-926Y555D01*
X-930Y553D01*
X-926Y551D01*
X-922Y547D01*
X-920Y543D01*
Y538D01*
X-922Y534D01*
X-924Y532D01*
X-930Y530D01*
X-937D01*
X-943Y532D01*
X-945Y534D01*
X-947Y538D01*
Y540D01*
X-945Y541D01*
X-943Y540D01*
X-945Y538D01*
X-924Y549D02*
X-922Y543D01*
Y538D01*
X-924Y534D01*
X-926Y532D01*
X-930Y530D01*
X-983Y939D02*
X-981Y934D01*
Y945D01*
X-983Y939D01*
X-987Y943D01*
X-993Y945D01*
X-997D01*
X-1002Y943D01*
X-1006Y939D01*
X-1008Y935D01*
X-1010Y930D01*
Y920D01*
X-1008Y915D01*
X-1006Y911D01*
X-1002Y907D01*
X-997Y905D01*
X-993D01*
X-987Y907D01*
X-983Y911D01*
X-981Y915D01*
X-997Y945D02*
X-1000Y943D01*
X-1004Y939D01*
X-1006Y935D01*
X-1008Y930D01*
Y920D01*
X-1006Y915D01*
X-1004Y911D01*
X-1000Y907D01*
X-997Y905D01*
X-976Y937D02*
X-972Y939D01*
X-966Y945D01*
Y905D01*
X-968Y943D02*
Y905D01*
X-976D02*
X-959D01*
X-950Y937D02*
X-948Y935D01*
X-950Y934D01*
X-952Y935D01*
Y937D01*
X-950Y941D01*
X-948Y943D01*
X-942Y945D01*
X-935D01*
X-929Y943D01*
X-927Y941D01*
X-925Y937D01*
Y934D01*
X-927Y930D01*
X-933Y926D01*
X-942Y922D01*
X-946Y920D01*
X-950Y916D01*
X-952Y911D01*
Y905D01*
X-935Y945D02*
X-931Y943D01*
X-929Y941D01*
X-927Y937D01*
Y934D01*
X-929Y930D01*
X-935Y926D01*
X-942Y922D01*
X-952Y909D02*
X-950Y911D01*
X-946D01*
X-936Y907D01*
X-931D01*
X-927Y909D01*
X-925Y911D01*
Y915D01*
X-946Y911D02*
X-936Y905D01*
X-929D01*
X-927Y907D01*
X-925Y911D01*
X-868Y939D02*
X-866Y934D01*
Y945D01*
X-868Y939D01*
X-872Y943D01*
X-878Y945D01*
X-882D01*
X-887Y943D01*
X-891Y939D01*
X-893Y935D01*
X-895Y930D01*
Y920D01*
X-893Y915D01*
X-891Y911D01*
X-887Y907D01*
X-882Y905D01*
X-878D01*
X-872Y907D01*
X-868Y911D01*
X-866Y915D01*
X-882Y945D02*
X-885Y943D01*
X-889Y939D01*
X-891Y935D01*
X-893Y930D01*
Y920D01*
X-891Y915D01*
X-889Y911D01*
X-885Y907D01*
X-882Y905D01*
X-861Y937D02*
X-857Y939D01*
X-851Y945D01*
Y905D01*
X-853Y943D02*
Y905D01*
X-861D02*
X-844D01*
X-837Y937D02*
X-833Y939D01*
X-827Y945D01*
Y905D01*
X-829Y943D02*
Y905D01*
X-837D02*
X-820D01*
X2622Y-431D02*
X2624Y-436D01*
Y-425D01*
X2622Y-431D01*
X2618Y-427D01*
X2612Y-425D01*
X2608D01*
X2603Y-427D01*
X2599Y-431D01*
X2597Y-435D01*
X2595Y-440D01*
Y-450D01*
X2597Y-455D01*
X2599Y-459D01*
X2603Y-463D01*
X2608Y-465D01*
X2612D01*
X2618Y-463D01*
X2622Y-459D01*
X2624Y-455D01*
X2608Y-425D02*
X2605Y-427D01*
X2601Y-431D01*
X2599Y-435D01*
X2597Y-440D01*
Y-450D01*
X2599Y-455D01*
X2601Y-459D01*
X2605Y-463D01*
X2608Y-465D01*
X2629Y-433D02*
X2633Y-431D01*
X2639Y-425D01*
Y-465D01*
X2637Y-427D02*
Y-465D01*
X2629D02*
X2646D01*
X2665Y-425D02*
X2659Y-427D01*
X2655Y-433D01*
X2653Y-442D01*
Y-448D01*
X2655Y-457D01*
X2659Y-463D01*
X2665Y-465D01*
X2669D01*
X2674Y-463D01*
X2678Y-457D01*
X2680Y-448D01*
Y-442D01*
X2678Y-433D01*
X2674Y-427D01*
X2669Y-425D01*
X2665D01*
X2661Y-427D01*
X2659Y-429D01*
X2657Y-433D01*
X2655Y-442D01*
Y-448D01*
X2657Y-457D01*
X2659Y-461D01*
X2661Y-463D01*
X2665Y-465D01*
X2669D02*
X2672Y-463D01*
X2674Y-461D01*
X2676Y-457D01*
X2678Y-448D01*
Y-442D01*
X2676Y-433D01*
X2674Y-429D01*
X2672Y-427D01*
X2669Y-425D01*
X-1213Y1519D02*
X-1211Y1514D01*
Y1525D01*
X-1213Y1519D01*
X-1217Y1523D01*
X-1223Y1525D01*
X-1227D01*
X-1232Y1523D01*
X-1236Y1519D01*
X-1238Y1515D01*
X-1240Y1510D01*
Y1500D01*
X-1238Y1495D01*
X-1236Y1491D01*
X-1232Y1487D01*
X-1227Y1485D01*
X-1223D01*
X-1217Y1487D01*
X-1213Y1491D01*
X-1211Y1495D01*
X-1227Y1525D02*
X-1230Y1523D01*
X-1234Y1519D01*
X-1236Y1515D01*
X-1238Y1510D01*
Y1500D01*
X-1236Y1495D01*
X-1234Y1491D01*
X-1230Y1487D01*
X-1227Y1485D01*
X-1181Y1512D02*
X-1183Y1506D01*
X-1187Y1502D01*
X-1192Y1500D01*
X-1194D01*
X-1200Y1502D01*
X-1204Y1506D01*
X-1206Y1512D01*
Y1514D01*
X-1204Y1519D01*
X-1200Y1523D01*
X-1194Y1525D01*
X-1190D01*
X-1185Y1523D01*
X-1181Y1519D01*
X-1179Y1514D01*
Y1502D01*
X-1181Y1495D01*
X-1183Y1491D01*
X-1187Y1487D01*
X-1192Y1485D01*
X-1198D01*
X-1202Y1487D01*
X-1204Y1491D01*
Y1493D01*
X-1202Y1495D01*
X-1200Y1493D01*
X-1202Y1491D01*
X-1194Y1500D02*
X-1198Y1502D01*
X-1202Y1506D01*
X-1204Y1512D01*
Y1514D01*
X-1202Y1519D01*
X-1198Y1523D01*
X-1194Y1525D01*
X-1190D02*
X-1187Y1523D01*
X-1183Y1519D01*
X-1181Y1514D01*
Y1502D01*
X-1183Y1495D01*
X-1185Y1491D01*
X-1189Y1487D01*
X-1192Y1485D01*
X1977Y-366D02*
X1979Y-371D01*
Y-360D01*
X1977Y-366D01*
X1973Y-362D01*
X1967Y-360D01*
X1963D01*
X1958Y-362D01*
X1954Y-366D01*
X1952Y-370D01*
X1950Y-375D01*
Y-385D01*
X1952Y-390D01*
X1954Y-394D01*
X1958Y-398D01*
X1963Y-400D01*
X1967D01*
X1973Y-398D01*
X1977Y-394D01*
X1979Y-390D01*
X1963Y-360D02*
X1960Y-362D01*
X1956Y-366D01*
X1954Y-370D01*
X1952Y-375D01*
Y-385D01*
X1954Y-390D01*
X1956Y-394D01*
X1960Y-398D01*
X1963Y-400D01*
X1994Y-360D02*
X1988Y-362D01*
X1986Y-366D01*
Y-371D01*
X1988Y-375D01*
X1994Y-377D01*
X2001D01*
X2007Y-375D01*
X2009Y-371D01*
Y-366D01*
X2007Y-362D01*
X2001Y-360D01*
X1994D01*
X1990Y-362D01*
X1988Y-366D01*
Y-371D01*
X1990Y-375D01*
X1994Y-377D01*
X2001D02*
X2005Y-375D01*
X2007Y-371D01*
Y-366D01*
X2005Y-362D01*
X2001Y-360D01*
X1994Y-377D02*
X1988Y-379D01*
X1986Y-381D01*
X1984Y-385D01*
Y-392D01*
X1986Y-396D01*
X1988Y-398D01*
X1994Y-400D01*
X2001D01*
X2007Y-398D01*
X2009Y-396D01*
X2011Y-392D01*
Y-385D01*
X2009Y-381D01*
X2007Y-379D01*
X2001Y-377D01*
X1994D02*
X1990Y-379D01*
X1988Y-381D01*
X1986Y-385D01*
Y-392D01*
X1988Y-396D01*
X1990Y-398D01*
X1994Y-400D01*
X2001D02*
X2005Y-398D01*
X2007Y-396D01*
X2009Y-392D01*
Y-385D01*
X2007Y-381D01*
X2005Y-379D01*
X2001Y-377D01*
X-1088Y2924D02*
X-1086Y2919D01*
Y2930D01*
X-1088Y2924D01*
X-1092Y2928D01*
X-1098Y2930D01*
X-1102D01*
X-1107Y2928D01*
X-1111Y2924D01*
X-1113Y2920D01*
X-1115Y2915D01*
Y2905D01*
X-1113Y2900D01*
X-1111Y2896D01*
X-1107Y2892D01*
X-1102Y2890D01*
X-1098D01*
X-1092Y2892D01*
X-1088Y2896D01*
X-1086Y2900D01*
X-1102Y2930D02*
X-1105Y2928D01*
X-1109Y2924D01*
X-1111Y2920D01*
X-1113Y2915D01*
Y2905D01*
X-1111Y2900D01*
X-1109Y2896D01*
X-1105Y2892D01*
X-1102Y2890D01*
X-1081Y2930D02*
Y2919D01*
Y2922D02*
X-1079Y2926D01*
X-1075Y2930D01*
X-1071D01*
X-1062Y2924D01*
X-1058D01*
X-1056Y2926D01*
X-1054Y2930D01*
X-1079Y2926D02*
X-1075Y2928D01*
X-1071D01*
X-1062Y2924D01*
X-1054Y2930D02*
Y2924D01*
X-1056Y2919D01*
X-1064Y2909D01*
X-1065Y2905D01*
X-1067Y2900D01*
Y2890D01*
X-1056Y2919D02*
X-1065Y2909D01*
X-1067Y2905D01*
X-1069Y2900D01*
Y2890D01*
X-193Y2934D02*
X-191Y2929D01*
Y2940D01*
X-193Y2934D01*
X-197Y2938D01*
X-203Y2940D01*
X-207D01*
X-212Y2938D01*
X-216Y2934D01*
X-218Y2930D01*
X-220Y2925D01*
Y2915D01*
X-218Y2910D01*
X-216Y2906D01*
X-212Y2902D01*
X-207Y2900D01*
X-203D01*
X-197Y2902D01*
X-193Y2906D01*
X-191Y2910D01*
X-207Y2940D02*
X-210Y2938D01*
X-214Y2934D01*
X-216Y2930D01*
X-218Y2925D01*
Y2915D01*
X-216Y2910D01*
X-214Y2906D01*
X-210Y2902D01*
X-207Y2900D01*
X-163Y2934D02*
X-165Y2932D01*
X-163Y2930D01*
X-161Y2932D01*
Y2934D01*
X-163Y2938D01*
X-167Y2940D01*
X-172D01*
X-178Y2938D01*
X-182Y2934D01*
X-184Y2930D01*
X-186Y2923D01*
Y2911D01*
X-184Y2906D01*
X-180Y2902D01*
X-174Y2900D01*
X-170D01*
X-165Y2902D01*
X-161Y2906D01*
X-159Y2911D01*
Y2913D01*
X-161Y2919D01*
X-165Y2923D01*
X-170Y2925D01*
X-172D01*
X-178Y2923D01*
X-182Y2919D01*
X-184Y2913D01*
X-172Y2940D02*
X-176Y2938D01*
X-180Y2934D01*
X-182Y2930D01*
X-184Y2923D01*
Y2911D01*
X-182Y2906D01*
X-178Y2902D01*
X-174Y2900D01*
X-170D02*
X-167Y2902D01*
X-163Y2906D01*
X-161Y2911D01*
Y2913D01*
X-163Y2919D01*
X-167Y2923D01*
X-170Y2925D01*
X-528Y1874D02*
X-526Y1869D01*
Y1880D01*
X-528Y1874D01*
X-532Y1878D01*
X-538Y1880D01*
X-542D01*
X-547Y1878D01*
X-551Y1874D01*
X-553Y1870D01*
X-555Y1865D01*
Y1855D01*
X-553Y1850D01*
X-551Y1846D01*
X-547Y1842D01*
X-542Y1840D01*
X-538D01*
X-532Y1842D01*
X-528Y1846D01*
X-526Y1850D01*
X-542Y1880D02*
X-545Y1878D01*
X-549Y1874D01*
X-551Y1870D01*
X-553Y1865D01*
Y1855D01*
X-551Y1850D01*
X-549Y1846D01*
X-545Y1842D01*
X-542Y1840D01*
X-517Y1880D02*
X-521Y1861D01*
X-517Y1865D01*
X-511Y1867D01*
X-505D01*
X-500Y1865D01*
X-496Y1861D01*
X-494Y1855D01*
Y1851D01*
X-496Y1846D01*
X-500Y1842D01*
X-505Y1840D01*
X-511D01*
X-517Y1842D01*
X-519Y1844D01*
X-521Y1848D01*
Y1850D01*
X-519Y1851D01*
X-517Y1850D01*
X-519Y1848D01*
X-505Y1867D02*
X-502Y1865D01*
X-498Y1861D01*
X-496Y1855D01*
Y1851D01*
X-498Y1846D01*
X-502Y1842D01*
X-505Y1840D01*
X-517Y1880D02*
X-498D01*
X-517Y1878D02*
X-507D01*
X-498Y1880D01*
X-943Y1874D02*
X-941Y1869D01*
Y1880D01*
X-943Y1874D01*
X-947Y1878D01*
X-953Y1880D01*
X-957D01*
X-962Y1878D01*
X-966Y1874D01*
X-968Y1870D01*
X-970Y1865D01*
Y1855D01*
X-968Y1850D01*
X-966Y1846D01*
X-962Y1842D01*
X-957Y1840D01*
X-953D01*
X-947Y1842D01*
X-943Y1846D01*
X-941Y1850D01*
X-957Y1880D02*
X-960Y1878D01*
X-964Y1874D01*
X-966Y1870D01*
X-968Y1865D01*
Y1855D01*
X-966Y1850D01*
X-964Y1846D01*
X-960Y1842D01*
X-957Y1840D01*
X-917Y1876D02*
Y1840D01*
X-905Y1851D02*
X-936D01*
X-915Y1880D01*
Y1840D01*
X-922D02*
X-909D01*
X3832Y2449D02*
X3834Y2444D01*
Y2455D01*
X3832Y2449D01*
X3828Y2453D01*
X3822Y2455D01*
X3818D01*
X3813Y2453D01*
X3809Y2449D01*
X3807Y2445D01*
X3805Y2440D01*
Y2430D01*
X3807Y2425D01*
X3809Y2421D01*
X3813Y2417D01*
X3818Y2415D01*
X3822D01*
X3828Y2417D01*
X3832Y2421D01*
X3834Y2425D01*
X3818Y2455D02*
X3815Y2453D01*
X3811Y2449D01*
X3809Y2445D01*
X3807Y2440D01*
Y2430D01*
X3809Y2425D01*
X3811Y2421D01*
X3815Y2417D01*
X3818Y2415D01*
X3841Y2447D02*
X3843Y2445D01*
X3841Y2444D01*
X3839Y2445D01*
Y2447D01*
X3841Y2451D01*
X3843Y2453D01*
X3849Y2455D01*
X3856D01*
X3862Y2453D01*
X3864Y2449D01*
Y2444D01*
X3862Y2440D01*
X3856Y2438D01*
X3851D01*
X3856Y2455D02*
X3860Y2453D01*
X3862Y2449D01*
Y2444D01*
X3860Y2440D01*
X3856Y2438D01*
X3860Y2436D01*
X3864Y2432D01*
X3866Y2428D01*
Y2423D01*
X3864Y2419D01*
X3862Y2417D01*
X3856Y2415D01*
X3849D01*
X3843Y2417D01*
X3841Y2419D01*
X3839Y2423D01*
Y2425D01*
X3841Y2426D01*
X3843Y2425D01*
X3841Y2423D01*
X3862Y2434D02*
X3864Y2428D01*
Y2423D01*
X3862Y2419D01*
X3860Y2417D01*
X3856Y2415D01*
X2387Y2439D02*
X2389Y2434D01*
Y2445D01*
X2387Y2439D01*
X2383Y2443D01*
X2377Y2445D01*
X2373D01*
X2368Y2443D01*
X2364Y2439D01*
X2362Y2435D01*
X2360Y2430D01*
Y2420D01*
X2362Y2415D01*
X2364Y2411D01*
X2368Y2407D01*
X2373Y2405D01*
X2377D01*
X2383Y2407D01*
X2387Y2411D01*
X2389Y2415D01*
X2373Y2445D02*
X2370Y2443D01*
X2366Y2439D01*
X2364Y2435D01*
X2362Y2430D01*
Y2420D01*
X2364Y2415D01*
X2366Y2411D01*
X2370Y2407D01*
X2373Y2405D01*
X2396Y2437D02*
X2398Y2435D01*
X2396Y2434D01*
X2394Y2435D01*
Y2437D01*
X2396Y2441D01*
X2398Y2443D01*
X2404Y2445D01*
X2411D01*
X2417Y2443D01*
X2419Y2441D01*
X2421Y2437D01*
Y2434D01*
X2419Y2430D01*
X2413Y2426D01*
X2404Y2422D01*
X2400Y2420D01*
X2396Y2416D01*
X2394Y2411D01*
Y2405D01*
X2411Y2445D02*
X2415Y2443D01*
X2417Y2441D01*
X2419Y2437D01*
Y2434D01*
X2417Y2430D01*
X2411Y2426D01*
X2404Y2422D01*
X2394Y2409D02*
X2396Y2411D01*
X2400D01*
X2410Y2407D01*
X2415D01*
X2419Y2409D01*
X2421Y2411D01*
Y2415D01*
X2400Y2411D02*
X2410Y2405D01*
X2417D01*
X2419Y2407D01*
X2421Y2411D01*
X1002Y2449D02*
X1004Y2444D01*
Y2455D01*
X1002Y2449D01*
X998Y2453D01*
X992Y2455D01*
X988D01*
X983Y2453D01*
X979Y2449D01*
X977Y2445D01*
X975Y2440D01*
Y2430D01*
X977Y2425D01*
X979Y2421D01*
X983Y2417D01*
X988Y2415D01*
X992D01*
X998Y2417D01*
X1002Y2421D01*
X1004Y2425D01*
X988Y2455D02*
X985Y2453D01*
X981Y2449D01*
X979Y2445D01*
X977Y2440D01*
Y2430D01*
X979Y2425D01*
X981Y2421D01*
X985Y2417D01*
X988Y2415D01*
X1009Y2447D02*
X1013Y2449D01*
X1019Y2455D01*
Y2415D01*
X1017Y2453D02*
Y2415D01*
X1009D02*
X1026D01*
D20*
X-1258Y1463D02*
Y1537D01*
X-1392Y1463D02*
Y1537D01*
X-1258D01*
X-1392Y1463D02*
X-1258D01*
X-902Y758D02*
Y892D01*
X-828Y758D02*
Y892D01*
X-902D02*
X-828D01*
X-902Y758D02*
X-828D01*
X-987D02*
X-913D01*
X-987Y892D02*
X-913D01*
Y758D02*
Y892D01*
X-987Y758D02*
Y892D01*
X-828Y593D02*
Y727D01*
X-902Y593D02*
Y727D01*
Y593D02*
X-828D01*
X-902Y727D02*
X-828D01*
X-913Y593D02*
Y727D01*
X-987Y593D02*
Y727D01*
Y593D02*
X-913D01*
X-987Y727D02*
X-913D01*
X-602Y578D02*
Y652D01*
X-468Y578D02*
Y652D01*
X-602Y578D02*
X-468D01*
X-602Y652D02*
X-468D01*
X-748Y-482D02*
Y-408D01*
X-882Y-482D02*
Y-408D01*
X-748D01*
X-882Y-482D02*
X-748D01*
X3787Y2393D02*
Y2467D01*
X3653Y2393D02*
Y2467D01*
X3787D01*
X3653Y2393D02*
X3787D01*
X2342Y2383D02*
Y2457D01*
X2208Y2383D02*
Y2457D01*
X2342D01*
X2208Y2383D02*
X2342D01*
X952Y2393D02*
Y2467D01*
X818Y2393D02*
Y2467D01*
X952D01*
X818Y2393D02*
X952D01*
X1938Y-198D02*
X2012D01*
X1938Y-332D02*
X2012D01*
X1938D02*
Y-198D01*
X2012Y-332D02*
Y-198D01*
X2577Y-487D02*
Y-413D01*
X2443Y-487D02*
Y-413D01*
X2577D01*
X2443Y-487D02*
X2577D01*
X-1552Y2216D02*
Y2294D01*
X-1418Y2216D02*
Y2294D01*
X-1552D02*
X-1418D01*
X-1552Y2216D02*
X-1418D01*
X-1038Y231D02*
Y309D01*
X-1172Y231D02*
Y309D01*
Y231D02*
X-1038D01*
X-1172Y309D02*
X-1038D01*
D21*
X-1795Y-351D02*
X-730D01*
X-1795D02*
Y154D01*
X-730D01*
Y-351D02*
Y154D01*
X4160Y1530D02*
Y1850D01*
X4010Y1530D02*
X4160D01*
X4010D02*
Y1850D01*
X4160D01*
X3982Y1530D02*
Y1850D01*
X3832Y1530D02*
X3982D01*
X3832D02*
Y1850D01*
X3982D01*
X3803Y1530D02*
Y1850D01*
X3653Y1530D02*
X3803D01*
X3653D02*
Y1850D01*
X3803D01*
X3625Y1530D02*
Y1850D01*
X3475Y1530D02*
X3625D01*
X3475D02*
Y1850D01*
X3625D01*
X3447Y1530D02*
Y1850D01*
X3297Y1530D02*
X3447D01*
X3297D02*
Y1850D01*
X3447D01*
X3269Y1530D02*
Y1850D01*
X3119Y1530D02*
X3269D01*
X3119D02*
Y1850D01*
X3269D01*
X3090Y1530D02*
Y1850D01*
X2940Y1530D02*
X3090D01*
X2940D02*
Y1850D01*
X3090D01*
X2912Y1530D02*
Y1850D01*
X2762Y1530D02*
X2912D01*
X2762D02*
Y1850D01*
X2912D01*
X2734Y1530D02*
Y1850D01*
X2584Y1530D02*
X2734D01*
X2584D02*
Y1850D01*
X2734D01*
X2556Y1530D02*
Y1850D01*
X2406Y1530D02*
X2556D01*
X2406D02*
Y1850D01*
X2556D01*
X2377Y1530D02*
Y1850D01*
X2227Y1530D02*
X2377D01*
X2227D02*
Y1850D01*
X2377D01*
X2199Y1530D02*
Y1850D01*
X2049Y1530D02*
X2199D01*
X2049D02*
Y1850D01*
X2199D01*
X2021Y1530D02*
Y1850D01*
X1871Y1530D02*
X2021D01*
X1871D02*
Y1850D01*
X2021D01*
X1843Y1530D02*
Y1850D01*
X1693Y1530D02*
X1843D01*
X1693D02*
Y1850D01*
X1843D01*
X1664Y1530D02*
Y1850D01*
X1514Y1530D02*
X1664D01*
X1514D02*
Y1850D01*
X1664D01*
X1486Y1530D02*
Y1850D01*
X1336Y1530D02*
X1486D01*
X1336D02*
Y1850D01*
X1486D01*
X1308Y1530D02*
Y1850D01*
X1158Y1530D02*
X1308D01*
X1158D02*
Y1850D01*
X1308D01*
X1130Y1530D02*
Y1850D01*
X980Y1530D02*
X1130D01*
X980D02*
Y1850D01*
X1130D01*
X951Y1530D02*
Y1850D01*
X801Y1530D02*
X951D01*
X801D02*
Y1850D01*
X951D01*
X773Y1530D02*
Y1850D01*
X623Y1530D02*
X773D01*
X623D02*
Y1850D01*
X773D01*
X595Y1530D02*
Y1850D01*
X445Y1530D02*
X595D01*
X445D02*
Y1850D01*
X595D01*
X417Y1530D02*
Y1850D01*
X267Y1530D02*
X417D01*
X267D02*
Y1850D01*
X417D01*
X238Y1530D02*
Y1850D01*
X88Y1530D02*
X238D01*
X88D02*
Y1850D01*
X238D01*
X60Y1530D02*
Y1850D01*
X-90Y1530D02*
X60D01*
X-90D02*
Y1850D01*
X60D01*
D22*
X906Y2935D02*
Y2855D01*
X910Y2935D02*
Y2855D01*
X895Y2935D02*
X941D01*
X952Y2931D01*
X956Y2927D01*
X960Y2920D01*
Y2912D01*
X956Y2905D01*
X952Y2901D01*
X941Y2897D01*
Y2935D02*
X948Y2931D01*
X952Y2927D01*
X956Y2920D01*
Y2912D01*
X952Y2905D01*
X948Y2901D01*
X941Y2897D01*
X910D02*
X941D01*
X952Y2893D01*
X956Y2889D01*
X960Y2882D01*
Y2870D01*
X956Y2863D01*
X952Y2859D01*
X941Y2855D01*
X895D01*
X941Y2897D02*
X948Y2893D01*
X952Y2889D01*
X956Y2882D01*
Y2870D01*
X952Y2863D01*
X948Y2859D01*
X941Y2855D01*
X982Y2935D02*
Y2855D01*
X986Y2935D02*
Y2855D01*
X970Y2935D02*
X997D01*
X970Y2855D02*
X1028D01*
Y2878D01*
X1024Y2855D01*
X1164Y2924D02*
X1168Y2912D01*
Y2935D01*
X1164Y2924D01*
X1157Y2931D01*
X1145Y2935D01*
X1138D01*
X1126Y2931D01*
X1119Y2924D01*
X1115Y2916D01*
X1111Y2905D01*
Y2885D01*
X1115Y2874D01*
X1119Y2866D01*
X1126Y2859D01*
X1138Y2855D01*
X1145D01*
X1157Y2859D01*
X1164Y2866D01*
X1168Y2874D01*
X1138Y2935D02*
X1130Y2931D01*
X1122Y2924D01*
X1119Y2916D01*
X1115Y2905D01*
Y2885D01*
X1119Y2874D01*
X1122Y2866D01*
X1130Y2859D01*
X1138Y2855D01*
X1206Y2935D02*
X1195Y2931D01*
X1187Y2924D01*
X1183Y2916D01*
X1180Y2901D01*
Y2889D01*
X1183Y2874D01*
X1187Y2866D01*
X1195Y2859D01*
X1206Y2855D01*
X1214D01*
X1225Y2859D01*
X1233Y2866D01*
X1237Y2874D01*
X1240Y2889D01*
Y2901D01*
X1237Y2916D01*
X1233Y2924D01*
X1225Y2931D01*
X1214Y2935D01*
X1206D01*
X1199Y2931D01*
X1191Y2924D01*
X1187Y2916D01*
X1183Y2901D01*
Y2889D01*
X1187Y2874D01*
X1191Y2866D01*
X1199Y2859D01*
X1206Y2855D01*
X1214D02*
X1221Y2859D01*
X1229Y2866D01*
X1233Y2874D01*
X1237Y2889D01*
Y2901D01*
X1233Y2916D01*
X1229Y2924D01*
X1221Y2931D01*
X1214Y2935D01*
X1263D02*
Y2855D01*
X1267Y2935D02*
X1312Y2863D01*
X1267Y2927D02*
X1312Y2855D01*
Y2935D02*
Y2855D01*
X1251Y2935D02*
X1267D01*
X1301D02*
X1324D01*
X1251Y2855D02*
X1274D01*
X1360Y2935D02*
Y2855D01*
X1364Y2935D02*
Y2855D01*
X1338Y2935D02*
X1334Y2912D01*
Y2935D01*
X1391D01*
Y2912D01*
X1387Y2935D01*
X1349Y2855D02*
X1376D01*
X1414Y2935D02*
Y2855D01*
X1418Y2935D02*
Y2855D01*
X1402Y2935D02*
X1448D01*
X1459Y2931D01*
X1463Y2927D01*
X1467Y2920D01*
Y2912D01*
X1463Y2905D01*
X1459Y2901D01*
X1448Y2897D01*
X1418D01*
X1448Y2935D02*
X1456Y2931D01*
X1459Y2927D01*
X1463Y2920D01*
Y2912D01*
X1459Y2905D01*
X1456Y2901D01*
X1448Y2897D01*
X1402Y2855D02*
X1429D01*
X1437Y2897D02*
X1444Y2893D01*
X1448Y2889D01*
X1459Y2863D01*
X1463Y2859D01*
X1467D01*
X1471Y2863D01*
X1444Y2893D02*
X1448Y2885D01*
X1456Y2859D01*
X1459Y2855D01*
X1467D01*
X1471Y2863D01*
Y2866D01*
X1508Y2935D02*
X1496Y2931D01*
X1489Y2924D01*
X1485Y2916D01*
X1481Y2901D01*
Y2889D01*
X1485Y2874D01*
X1489Y2866D01*
X1496Y2859D01*
X1508Y2855D01*
X1515D01*
X1527Y2859D01*
X1534Y2866D01*
X1538Y2874D01*
X1542Y2889D01*
Y2901D01*
X1538Y2916D01*
X1534Y2924D01*
X1527Y2931D01*
X1515Y2935D01*
X1508D01*
X1500Y2931D01*
X1493Y2924D01*
X1489Y2916D01*
X1485Y2901D01*
Y2889D01*
X1489Y2874D01*
X1493Y2866D01*
X1500Y2859D01*
X1508Y2855D01*
X1515D02*
X1523Y2859D01*
X1531Y2866D01*
X1534Y2874D01*
X1538Y2889D01*
Y2901D01*
X1534Y2916D01*
X1531Y2924D01*
X1523Y2931D01*
X1515Y2935D01*
X1565D02*
Y2855D01*
X1568Y2935D02*
Y2855D01*
X1553Y2935D02*
X1580D01*
X1553Y2855D02*
X1610D01*
Y2878D01*
X1606Y2855D01*
X1633Y2935D02*
Y2855D01*
X1637Y2935D02*
Y2855D01*
X1622Y2935D02*
X1648D01*
X1622Y2855D02*
X1679D01*
Y2878D01*
X1675Y2855D01*
X1702Y2935D02*
Y2855D01*
X1705Y2935D02*
Y2855D01*
X1728Y2912D02*
Y2882D01*
X1690Y2935D02*
X1751D01*
Y2912D01*
X1747Y2935D01*
X1705Y2897D02*
X1728D01*
X1690Y2855D02*
X1751D01*
Y2878D01*
X1747Y2855D01*
X1774Y2935D02*
Y2855D01*
X1777Y2935D02*
Y2855D01*
X1762Y2935D02*
X1800D01*
X1812Y2931D01*
X1819Y2924D01*
X1823Y2916D01*
X1827Y2905D01*
Y2885D01*
X1823Y2874D01*
X1819Y2866D01*
X1812Y2859D01*
X1800Y2855D01*
X1762D01*
X1800Y2935D02*
X1808Y2931D01*
X1816Y2924D01*
X1819Y2916D01*
X1823Y2905D01*
Y2885D01*
X1819Y2874D01*
X1816Y2866D01*
X1808Y2859D01*
X1800Y2855D01*
X1921Y2935D02*
Y2855D01*
X1925Y2935D02*
Y2855D01*
X1910Y2935D02*
X1936D01*
X1910Y2855D02*
X1967D01*
Y2878D01*
X1963Y2855D01*
X1990Y2935D02*
Y2855D01*
X1993Y2935D02*
Y2855D01*
X2016Y2912D02*
Y2882D01*
X1978Y2935D02*
X2039D01*
Y2912D01*
X2035Y2935D01*
X1993Y2897D02*
X2016D01*
X1978Y2855D02*
X2039D01*
Y2878D01*
X2035Y2855D01*
X2062Y2935D02*
Y2855D01*
X2065Y2935D02*
Y2855D01*
X2050Y2935D02*
X2088D01*
X2100Y2931D01*
X2107Y2924D01*
X2111Y2916D01*
X2115Y2905D01*
Y2885D01*
X2111Y2874D01*
X2107Y2866D01*
X2100Y2859D01*
X2088Y2855D01*
X2050D01*
X2088Y2935D02*
X2096Y2931D01*
X2104Y2924D01*
X2107Y2916D01*
X2111Y2905D01*
Y2885D01*
X2107Y2874D01*
X2104Y2866D01*
X2096Y2859D01*
X2088Y2855D01*
X2209Y2935D02*
Y2855D01*
X2213Y2935D02*
X2236Y2866D01*
X2209Y2935D02*
X2236Y2855D01*
X2262Y2935D02*
X2236Y2855D01*
X2262Y2935D02*
Y2855D01*
X2266Y2935D02*
Y2855D01*
X2198Y2935D02*
X2213D01*
X2262D02*
X2278D01*
X2198Y2855D02*
X2220D01*
X2251D02*
X2278D01*
X2321Y2935D02*
X2294Y2855D01*
X2321Y2935D02*
X2348Y2855D01*
X2321Y2924D02*
X2344Y2855D01*
X2302Y2878D02*
X2336D01*
X2287Y2855D02*
X2310D01*
X2332D02*
X2355D01*
X2392Y2935D02*
Y2855D01*
X2396Y2935D02*
Y2855D01*
X2369Y2935D02*
X2366Y2912D01*
Y2935D01*
X2423D01*
Y2912D01*
X2419Y2935D01*
X2381Y2855D02*
X2407D01*
X2446Y2935D02*
Y2855D01*
X2449Y2935D02*
Y2855D01*
X2434Y2935D02*
X2480D01*
X2491Y2931D01*
X2495Y2927D01*
X2499Y2920D01*
Y2912D01*
X2495Y2905D01*
X2491Y2901D01*
X2480Y2897D01*
X2449D01*
X2480Y2935D02*
X2487Y2931D01*
X2491Y2927D01*
X2495Y2920D01*
Y2912D01*
X2491Y2905D01*
X2487Y2901D01*
X2480Y2897D01*
X2434Y2855D02*
X2461D01*
X2468Y2897D02*
X2476Y2893D01*
X2480Y2889D01*
X2491Y2863D01*
X2495Y2859D01*
X2499D01*
X2503Y2863D01*
X2476Y2893D02*
X2480Y2885D01*
X2487Y2859D01*
X2491Y2855D01*
X2499D01*
X2503Y2863D01*
Y2866D01*
X2524Y2935D02*
Y2855D01*
X2528Y2935D02*
Y2855D01*
X2513Y2935D02*
X2540D01*
X2513Y2855D02*
X2540D01*
X2562Y2935D02*
X2611Y2855D01*
X2565Y2935D02*
X2615Y2855D01*
Y2935D02*
X2562Y2855D01*
X2554Y2935D02*
X2577D01*
X2600D02*
X2623D01*
X2554Y2855D02*
X2577D01*
X2600D02*
X2623D01*
X2716Y2935D02*
Y2855D01*
X2720Y2935D02*
Y2855D01*
X2705Y2935D02*
X2743D01*
X2754Y2931D01*
X2762Y2924D01*
X2766Y2916D01*
X2770Y2905D01*
Y2885D01*
X2766Y2874D01*
X2762Y2866D01*
X2754Y2859D01*
X2743Y2855D01*
X2705D01*
X2743Y2935D02*
X2751Y2931D01*
X2758Y2924D01*
X2762Y2916D01*
X2766Y2905D01*
Y2885D01*
X2762Y2874D01*
X2758Y2866D01*
X2751Y2859D01*
X2743Y2855D01*
X2792Y2935D02*
Y2855D01*
X2796Y2935D02*
Y2855D01*
X2818Y2912D02*
Y2882D01*
X2780Y2935D02*
X2841D01*
Y2912D01*
X2837Y2935D01*
X2796Y2897D02*
X2818D01*
X2780Y2855D02*
X2841D01*
Y2878D01*
X2837Y2855D01*
X2902Y2924D02*
X2906Y2935D01*
Y2912D01*
X2902Y2924D01*
X2894Y2931D01*
X2883Y2935D01*
X2871D01*
X2860Y2931D01*
X2852Y2924D01*
Y2916D01*
X2856Y2908D01*
X2860Y2905D01*
X2868Y2901D01*
X2890Y2893D01*
X2898Y2889D01*
X2906Y2882D01*
X2852Y2916D02*
X2860Y2908D01*
X2868Y2905D01*
X2890Y2897D01*
X2898Y2893D01*
X2902Y2889D01*
X2906Y2882D01*
Y2866D01*
X2898Y2859D01*
X2887Y2855D01*
X2875D01*
X2864Y2859D01*
X2856Y2866D01*
X2852Y2878D01*
Y2855D01*
X2856Y2866D01*
X2929Y2935D02*
Y2855D01*
X2933Y2935D02*
Y2855D01*
X2917Y2935D02*
X2944D01*
X2917Y2855D02*
X2944D01*
X3012Y2924D02*
X3016Y2912D01*
Y2935D01*
X3012Y2924D01*
X3004Y2931D01*
X2993Y2935D01*
X2985D01*
X2974Y2931D01*
X2966Y2924D01*
X2962Y2916D01*
X2959Y2905D01*
Y2885D01*
X2962Y2874D01*
X2966Y2866D01*
X2974Y2859D01*
X2985Y2855D01*
X2993D01*
X3004Y2859D01*
X3012Y2866D01*
X2985Y2935D02*
X2978Y2931D01*
X2970Y2924D01*
X2966Y2916D01*
X2962Y2905D01*
Y2885D01*
X2966Y2874D01*
X2970Y2866D01*
X2978Y2859D01*
X2985Y2855D01*
X3012Y2885D02*
Y2855D01*
X3016Y2885D02*
Y2855D01*
X3000Y2885D02*
X3027D01*
X3049Y2935D02*
Y2855D01*
X3053Y2935D02*
X3098Y2863D01*
X3053Y2927D02*
X3098Y2855D01*
Y2935D02*
Y2855D01*
X3037Y2935D02*
X3053D01*
X3087D02*
X3110D01*
X3037Y2855D02*
X3060D01*
D23*
X-530Y1587D02*
D03*
X-530Y1815D02*
D03*
X-945Y1587D02*
D03*
X-945Y1815D02*
D03*
D24*
X-530Y1602D02*
D03*
X-945D02*
D03*
M02*
