G04*
G04 #@! TF.GenerationSoftware,Altium Limited,Altium Designer,19.0.15 (446)*
G04*
G04 Layer_Physical_Order=1*
G04 Layer_Color=255*
%FSLAX23Y23*%
%MOIN*%
G70*
G01*
G75*
%ADD21C,0.010*%
%ADD25R,0.051X0.063*%
%ADD26R,0.180X0.217*%
%ADD27R,0.098X0.170*%
%ADD28R,0.094X0.063*%
%ADD29R,0.150X0.079*%
%ADD30R,0.059X0.079*%
%ADD31R,0.043X0.055*%
%ADD32O,0.055X0.010*%
%ADD33O,0.055X0.010*%
%ADD34R,0.055X0.043*%
G04:AMPARAMS|DCode=35|XSize=78mil|YSize=24mil|CornerRadius=3mil|HoleSize=0mil|Usage=FLASHONLY|Rotation=0.000|XOffset=0mil|YOffset=0mil|HoleType=Round|Shape=RoundedRectangle|*
%AMROUNDEDRECTD35*
21,1,0.078,0.018,0,0,0.0*
21,1,0.072,0.024,0,0,0.0*
1,1,0.006,0.036,-0.009*
1,1,0.006,-0.036,-0.009*
1,1,0.006,-0.036,0.009*
1,1,0.006,0.036,0.009*
%
%ADD35ROUNDEDRECTD35*%
%ADD36R,0.040X0.060*%
%ADD37R,0.030X0.060*%
%ADD38R,0.060X0.030*%
%ADD39R,0.060X0.040*%
G04:AMPARAMS|DCode=40|XSize=78mil|YSize=24mil|CornerRadius=3mil|HoleSize=0mil|Usage=FLASHONLY|Rotation=90.000|XOffset=0mil|YOffset=0mil|HoleType=Round|Shape=RoundedRectangle|*
%AMROUNDEDRECTD40*
21,1,0.078,0.018,0,0,90.0*
21,1,0.072,0.024,0,0,90.0*
1,1,0.006,0.009,0.036*
1,1,0.006,0.009,-0.036*
1,1,0.006,-0.009,-0.036*
1,1,0.006,-0.009,0.036*
%
%ADD40ROUNDEDRECTD40*%
%ADD41R,0.130X0.090*%
%ADD42R,0.063X0.051*%
G04:AMPARAMS|DCode=43|XSize=48mil|YSize=23mil|CornerRadius=3mil|HoleSize=0mil|Usage=FLASHONLY|Rotation=0.000|XOffset=0mil|YOffset=0mil|HoleType=Round|Shape=RoundedRectangle|*
%AMROUNDEDRECTD43*
21,1,0.048,0.017,0,0,0.0*
21,1,0.042,0.023,0,0,0.0*
1,1,0.006,0.021,-0.009*
1,1,0.006,-0.021,-0.009*
1,1,0.006,-0.021,0.009*
1,1,0.006,0.021,0.009*
%
%ADD43ROUNDEDRECTD43*%
%ADD44R,0.043X0.057*%
%ADD45R,0.083X0.055*%
%ADD75C,0.030*%
%ADD76C,0.020*%
%ADD77R,0.098X0.098*%
%ADD78C,0.098*%
%ADD79O,0.177X0.089*%
%ADD80O,0.089X0.177*%
%ADD81O,0.098X0.197*%
G04:AMPARAMS|DCode=82|XSize=80mil|YSize=60mil|CornerRadius=0mil|HoleSize=0mil|Usage=FLASHONLY|Rotation=180.000|XOffset=0mil|YOffset=0mil|HoleType=Round|Shape=Octagon|*
%AMOCTAGOND82*
4,1,8,-0.040,0.015,-0.040,-0.015,-0.025,-0.030,0.025,-0.030,0.040,-0.015,0.040,0.015,0.025,0.030,-0.025,0.030,-0.040,0.015,0.0*
%
%ADD82OCTAGOND82*%

G04:AMPARAMS|DCode=83|XSize=80mil|YSize=60mil|CornerRadius=0mil|HoleSize=0mil|Usage=FLASHONLY|Rotation=90.000|XOffset=0mil|YOffset=0mil|HoleType=Round|Shape=Octagon|*
%AMOCTAGOND83*
4,1,8,0.015,0.040,-0.015,0.040,-0.030,0.025,-0.030,-0.025,-0.015,-0.040,0.015,-0.040,0.030,-0.025,0.030,0.025,0.015,0.040,0.0*
%
%ADD83OCTAGOND83*%

%ADD84O,0.061X0.122*%
%ADD85C,0.035*%
G36*
X4196Y-551D02*
X-1586D01*
Y3046D01*
X4196D01*
Y-551D01*
D02*
G37*
%LPC*%
G36*
X4045Y2918D02*
X4032Y2917D01*
X4019Y2913D01*
X4007Y2907D01*
X3997Y2898D01*
X3988Y2888D01*
X3982Y2876D01*
X3978Y2863D01*
X3977Y2850D01*
X3978Y2837D01*
X3982Y2824D01*
X3988Y2812D01*
X3997Y2802D01*
X4007Y2793D01*
X4019Y2787D01*
X4032Y2783D01*
X4045Y2782D01*
X4058Y2783D01*
X4071Y2787D01*
X4083Y2793D01*
X4093Y2802D01*
X4102Y2812D01*
X4108Y2824D01*
X4112Y2837D01*
X4113Y2850D01*
X4112Y2863D01*
X4108Y2876D01*
X4102Y2888D01*
X4093Y2898D01*
X4083Y2907D01*
X4071Y2913D01*
X4058Y2917D01*
X4045Y2918D01*
D02*
G37*
G36*
X-575Y3004D02*
X-1278D01*
X-1281Y3003D01*
X-1282Y3000D01*
Y2723D01*
X-1281Y2720D01*
X-1218Y2657D01*
X-1215Y2656D01*
X-575D01*
X-572Y2657D01*
X-571Y2660D01*
Y2744D01*
X-566Y2745D01*
X-562Y2740D01*
X-556Y2736D01*
Y2700D01*
Y2303D01*
X-588D01*
Y2197D01*
X-482D01*
Y2303D01*
X-518D01*
Y2647D01*
X-513Y2649D01*
X-511Y2646D01*
X-504Y2642D01*
X-497Y2641D01*
X160D01*
Y2538D01*
X348D01*
Y2762D01*
X160D01*
Y2679D01*
X-489D01*
X-518Y2708D01*
Y2736D01*
X-512Y2740D01*
X-507Y2747D01*
X-503Y2755D01*
X-502Y2764D01*
Y2826D01*
X-503Y2835D01*
X-507Y2843D01*
X-512Y2850D01*
X-520Y2856D01*
X-528Y2859D01*
X-537Y2860D01*
X-546Y2859D01*
X-554Y2856D01*
X-562Y2850D01*
X-566Y2845D01*
X-571Y2846D01*
Y3000D01*
X-572Y3003D01*
X-575Y3004D01*
D02*
G37*
G36*
X920Y2514D02*
X915Y2513D01*
X910Y2510D01*
X907Y2505D01*
X906Y2500D01*
Y2436D01*
X907Y2430D01*
X910Y2425D01*
X915Y2422D01*
X920Y2421D01*
X925Y2422D01*
X930Y2425D01*
X933Y2430D01*
X934Y2436D01*
Y2500D01*
X933Y2505D01*
X930Y2510D01*
X925Y2513D01*
X920Y2514D01*
D02*
G37*
G36*
X3755Y2519D02*
X3750Y2518D01*
X3745Y2515D01*
X3742Y2510D01*
X3741Y2505D01*
Y2441D01*
X3741Y2441D01*
X3742Y2436D01*
X3741Y2435D01*
X3740Y2430D01*
X3741Y2425D01*
X3744Y2420D01*
X3749Y2417D01*
X3754Y2416D01*
X3760Y2417D01*
X3765Y2420D01*
X3770Y2425D01*
X3770Y2425D01*
X3773Y2430D01*
X3774Y2436D01*
X3773Y2441D01*
X3770Y2446D01*
X3770Y2446D01*
X3769Y2446D01*
Y2505D01*
X3768Y2510D01*
X3765Y2515D01*
X3760Y2518D01*
X3755Y2519D01*
D02*
G37*
G36*
X715Y2452D02*
X707Y2450D01*
X699Y2446D01*
X695Y2438D01*
X693Y2430D01*
X695Y2423D01*
X644Y2371D01*
X642Y2369D01*
X641Y2365D01*
Y2353D01*
X638Y2352D01*
X636Y2351D01*
X635Y2349D01*
X634Y2346D01*
Y2274D01*
X635Y2271D01*
X636Y2269D01*
X638Y2268D01*
X641Y2267D01*
X659D01*
X662Y2268D01*
X664Y2269D01*
X665Y2271D01*
X666Y2274D01*
Y2346D01*
X665Y2349D01*
X664Y2351D01*
X662Y2352D01*
X659Y2353D01*
Y2361D01*
X708Y2410D01*
X715Y2408D01*
X723Y2410D01*
X731Y2414D01*
X735Y2422D01*
X737Y2430D01*
X735Y2438D01*
X731Y2446D01*
X723Y2450D01*
X715Y2452D01*
D02*
G37*
G36*
X2310Y2494D02*
X2305Y2493D01*
X2300Y2490D01*
X2297Y2485D01*
X2296Y2480D01*
Y2416D01*
X2297Y2410D01*
X2300Y2405D01*
X2305Y2402D01*
X2310Y2401D01*
X2315Y2402D01*
X2320Y2405D01*
X2323Y2410D01*
X2324Y2416D01*
Y2480D01*
X2323Y2485D01*
X2320Y2490D01*
X2315Y2493D01*
X2310Y2494D01*
D02*
G37*
G36*
X-31Y2497D02*
X-37Y2496D01*
X-41Y2493D01*
X-44Y2488D01*
X-45Y2483D01*
Y2406D01*
X-44Y2401D01*
X-41Y2396D01*
X-37Y2393D01*
X-31Y2392D01*
X-26Y2393D01*
X-21Y2396D01*
X-18Y2401D01*
X-17Y2406D01*
Y2483D01*
X-18Y2488D01*
X-21Y2493D01*
X-26Y2496D01*
X-31Y2497D01*
D02*
G37*
G36*
X3394Y2353D02*
X3376D01*
X3373Y2352D01*
X3371Y2351D01*
X3370Y2349D01*
X3369Y2346D01*
Y2329D01*
X3315D01*
X3313Y2331D01*
X3305Y2332D01*
X3297Y2331D01*
X3289Y2326D01*
X3285Y2319D01*
X3283Y2310D01*
X3285Y2302D01*
X3289Y2295D01*
X3297Y2290D01*
X3305Y2288D01*
X3313Y2290D01*
X3314Y2291D01*
X3369D01*
Y2274D01*
X3370Y2271D01*
X3371Y2269D01*
X3373Y2268D01*
X3376Y2267D01*
X3394D01*
X3397Y2268D01*
X3399Y2269D01*
X3400Y2271D01*
X3401Y2274D01*
Y2300D01*
X3403Y2303D01*
X3404Y2310D01*
X3403Y2317D01*
X3401Y2320D01*
Y2346D01*
X3400Y2349D01*
X3399Y2351D01*
X3397Y2352D01*
X3394Y2353D01*
D02*
G37*
G36*
X1949D02*
X1931D01*
X1928Y2352D01*
X1926Y2351D01*
X1925Y2349D01*
X1924Y2346D01*
Y2329D01*
X1845D01*
X1843Y2330D01*
X1835Y2332D01*
X1827Y2330D01*
X1819Y2326D01*
X1815Y2318D01*
X1813Y2310D01*
X1815Y2302D01*
X1819Y2294D01*
X1827Y2290D01*
X1835Y2288D01*
X1843Y2290D01*
X1845Y2291D01*
X1924D01*
Y2274D01*
X1925Y2271D01*
X1926Y2269D01*
X1928Y2268D01*
X1931Y2267D01*
X1949D01*
X1952Y2268D01*
X1954Y2269D01*
X1955Y2271D01*
X1956Y2274D01*
Y2306D01*
X1956Y2307D01*
Y2310D01*
X1956Y2311D01*
Y2346D01*
X1955Y2349D01*
X1954Y2351D01*
X1952Y2352D01*
X1949Y2353D01*
D02*
G37*
G36*
X3535Y2409D02*
X3530Y2408D01*
X3525Y2405D01*
X3522Y2400D01*
X3521Y2395D01*
Y2331D01*
X3522Y2325D01*
X3525Y2320D01*
X3530Y2317D01*
X3535Y2316D01*
X3540Y2317D01*
X3545Y2320D01*
X3548Y2325D01*
X3549Y2331D01*
Y2395D01*
X3548Y2400D01*
X3545Y2405D01*
X3540Y2408D01*
X3535Y2409D01*
D02*
G37*
G36*
X2090Y2399D02*
X2085Y2398D01*
X2080Y2395D01*
X2077Y2390D01*
X2076Y2385D01*
Y2321D01*
X2077Y2315D01*
X2080Y2310D01*
X2085Y2307D01*
X2090Y2306D01*
X2095Y2307D01*
X2100Y2310D01*
X2103Y2315D01*
X2104Y2321D01*
Y2385D01*
X2103Y2390D01*
X2100Y2395D01*
X2095Y2398D01*
X2090Y2399D01*
D02*
G37*
G36*
X-1338Y2290D02*
X-1397D01*
Y2269D01*
X-1424D01*
Y2288D01*
X-1475D01*
Y2222D01*
X-1424D01*
Y2241D01*
X-1397D01*
Y2220D01*
X-1338D01*
Y2290D01*
D02*
G37*
G36*
X3744Y2353D02*
X3726D01*
X3723Y2352D01*
X3721Y2351D01*
X3720Y2349D01*
X3719Y2346D01*
Y2274D01*
X3720Y2271D01*
X3721Y2269D01*
X3723Y2268D01*
X3726Y2267D01*
X3744D01*
X3747Y2268D01*
X3749Y2269D01*
X3750Y2271D01*
X3751Y2274D01*
Y2346D01*
X3750Y2349D01*
X3749Y2351D01*
X3747Y2352D01*
X3744Y2353D01*
D02*
G37*
G36*
X800Y2979D02*
X-435Y2979D01*
X-438Y2978D01*
X-439Y2975D01*
X-439Y2723D01*
X-438Y2720D01*
X-435Y2718D01*
X-370D01*
X-367Y2720D01*
X-366Y2723D01*
Y2757D01*
X-366Y2758D01*
X-366Y2758D01*
X-367Y2765D01*
Y2825D01*
X-366Y2832D01*
X-366Y2832D01*
X-366Y2833D01*
Y2906D01*
X-202D01*
X-199Y2901D01*
X-199Y2900D01*
Y2715D01*
X-198Y2712D01*
X-195Y2711D01*
X120D01*
X123Y2712D01*
X124Y2715D01*
Y2836D01*
X431D01*
X476Y2791D01*
Y2530D01*
X477Y2527D01*
X480Y2526D01*
X657D01*
Y2493D01*
X539Y2376D01*
X535Y2370D01*
X534Y2362D01*
Y2313D01*
X534Y2312D01*
Y2274D01*
X535Y2271D01*
X536Y2269D01*
X538Y2268D01*
X541Y2267D01*
X559D01*
X562Y2268D01*
X564Y2269D01*
X565Y2271D01*
X566Y2274D01*
Y2299D01*
X567Y2299D01*
X571Y2306D01*
X573Y2313D01*
Y2354D01*
X690Y2471D01*
X694Y2478D01*
X695Y2485D01*
Y2526D01*
X800D01*
X803Y2527D01*
X804Y2530D01*
Y2560D01*
Y2623D01*
X809Y2625D01*
X831Y2602D01*
Y2462D01*
X825D01*
Y2398D01*
X836D01*
Y2351D01*
X835Y2349D01*
X834Y2346D01*
Y2274D01*
X835Y2271D01*
X836Y2269D01*
X838Y2268D01*
X841Y2267D01*
X859D01*
X862Y2268D01*
X864Y2269D01*
X865Y2271D01*
X866Y2274D01*
Y2346D01*
X865Y2349D01*
X865Y2350D01*
Y2398D01*
X876D01*
Y2462D01*
X870D01*
Y2610D01*
X868Y2618D01*
X864Y2624D01*
X862Y2626D01*
X864Y2631D01*
X2067D01*
X2134Y2563D01*
X2135Y2562D01*
X2139Y2554D01*
X2147Y2550D01*
X2148Y2549D01*
X2184Y2513D01*
X2185Y2512D01*
X2189Y2504D01*
X2197Y2500D01*
X2198Y2499D01*
X2216Y2482D01*
Y2452D01*
X2215D01*
Y2388D01*
X2226D01*
Y2351D01*
X2225Y2349D01*
X2224Y2346D01*
Y2274D01*
X2225Y2271D01*
X2226Y2269D01*
X2228Y2268D01*
X2231Y2267D01*
X2249D01*
X2252Y2268D01*
X2254Y2269D01*
X2255Y2271D01*
X2256Y2274D01*
Y2346D01*
X2255Y2349D01*
X2255Y2350D01*
Y2388D01*
X2266D01*
Y2452D01*
X2254D01*
Y2490D01*
X2253Y2497D01*
X2249Y2504D01*
X2226Y2527D01*
X2225Y2528D01*
X2221Y2536D01*
X2213Y2540D01*
X2212Y2541D01*
X2176Y2577D01*
X2175Y2578D01*
X2171Y2586D01*
X2163Y2590D01*
X2162Y2591D01*
X2126Y2626D01*
X2128Y2631D01*
X3527D01*
X3559Y2598D01*
X3560Y2597D01*
X3564Y2589D01*
X3572Y2585D01*
X3573Y2584D01*
X3629Y2528D01*
X3630Y2527D01*
X3634Y2519D01*
X3642Y2515D01*
X3643Y2514D01*
X3663Y2495D01*
Y2462D01*
X3660D01*
Y2398D01*
X3671D01*
Y2351D01*
X3670Y2349D01*
X3669Y2346D01*
Y2274D01*
X3670Y2271D01*
X3671Y2269D01*
X3673Y2268D01*
X3676Y2267D01*
X3694D01*
X3697Y2268D01*
X3699Y2269D01*
X3700Y2271D01*
X3701Y2274D01*
Y2346D01*
X3700Y2349D01*
X3700Y2350D01*
Y2398D01*
X3711D01*
Y2462D01*
X3702D01*
Y2503D01*
X3700Y2510D01*
X3696Y2516D01*
X3671Y2542D01*
X3670Y2543D01*
X3666Y2551D01*
X3658Y2555D01*
X3657Y2556D01*
X3601Y2612D01*
X3600Y2613D01*
X3596Y2621D01*
X3588Y2625D01*
X3587Y2626D01*
X3549Y2664D01*
X3542Y2668D01*
X3535Y2669D01*
X804D01*
Y2975D01*
X803Y2978D01*
X800Y2979D01*
D02*
G37*
G36*
X3479Y2379D02*
X2296D01*
X2293Y2378D01*
X2290Y2376D01*
X2284Y2370D01*
X2282Y2367D01*
X2281Y2364D01*
Y2353D01*
X2278Y2352D01*
X2276Y2351D01*
X2275Y2349D01*
X2274Y2346D01*
Y2274D01*
X2275Y2271D01*
X2276Y2269D01*
X2278Y2268D01*
X2281Y2267D01*
X2299D01*
X2302Y2268D01*
X2304Y2269D01*
X2305Y2271D01*
X2306Y2274D01*
Y2346D01*
X2305Y2349D01*
X2304Y2351D01*
X2302Y2352D01*
X2299Y2353D01*
Y2360D01*
X2300Y2361D01*
X3475D01*
X3476Y2360D01*
Y2353D01*
X3473Y2352D01*
X3471Y2351D01*
X3470Y2349D01*
X3469Y2346D01*
Y2274D01*
X3470Y2271D01*
X3471Y2269D01*
X3473Y2268D01*
X3476Y2267D01*
X3494D01*
X3497Y2268D01*
X3499Y2269D01*
X3500Y2271D01*
X3501Y2274D01*
Y2346D01*
X3500Y2349D01*
X3499Y2351D01*
X3497Y2352D01*
X3494Y2353D01*
Y2364D01*
X3493Y2368D01*
X3491Y2371D01*
X3486Y2376D01*
X3483Y2378D01*
X3479Y2379D01*
D02*
G37*
G36*
X2028D02*
X910D01*
X906Y2378D01*
X903Y2376D01*
X892Y2365D01*
X890Y2362D01*
X889Y2358D01*
Y2352D01*
X888Y2352D01*
X886Y2351D01*
X885Y2349D01*
X884Y2346D01*
Y2274D01*
X885Y2271D01*
X886Y2269D01*
X888Y2268D01*
X891Y2267D01*
X909D01*
X912Y2268D01*
X914Y2269D01*
X915Y2271D01*
X916Y2274D01*
Y2346D01*
X915Y2349D01*
X914Y2351D01*
X912Y2352D01*
X911Y2353D01*
X911Y2357D01*
X914Y2361D01*
X2024D01*
X2028Y2357D01*
X2028Y2356D01*
X2028Y2352D01*
X2026Y2351D01*
X2025Y2349D01*
X2024Y2346D01*
Y2274D01*
X2025Y2271D01*
X2026Y2269D01*
X2028Y2268D01*
X2031Y2267D01*
X2049D01*
X2052Y2268D01*
X2054Y2269D01*
X2055Y2271D01*
X2056Y2274D01*
Y2346D01*
X2055Y2349D01*
X2054Y2351D01*
X2052Y2352D01*
X2049Y2353D01*
X2047D01*
Y2360D01*
X2047Y2364D01*
X2045Y2367D01*
X2035Y2376D01*
X2032Y2378D01*
X2028Y2379D01*
D02*
G37*
G36*
X609Y2353D02*
X591D01*
X588Y2352D01*
X586Y2351D01*
X585Y2349D01*
X584Y2346D01*
Y2274D01*
X585Y2271D01*
X586Y2270D01*
Y2252D01*
X578Y2244D01*
X285D01*
X285Y2244D01*
X280Y2243D01*
X275Y2240D01*
X275Y2240D01*
X-25Y1940D01*
X-28Y1935D01*
X-29Y1930D01*
X-29Y1930D01*
Y1844D01*
X-84D01*
Y1746D01*
X54D01*
Y1844D01*
X-1D01*
Y1924D01*
X291Y2216D01*
X584D01*
X584Y2216D01*
X590Y2217D01*
X594Y2220D01*
X610Y2236D01*
X610Y2236D01*
X613Y2240D01*
X614Y2246D01*
X614Y2246D01*
Y2270D01*
X615Y2271D01*
X616Y2274D01*
Y2346D01*
X615Y2349D01*
X614Y2351D01*
X612Y2352D01*
X609Y2353D01*
D02*
G37*
G36*
X-1519Y2348D02*
X-1524Y2347D01*
X-1529Y2344D01*
X-1532Y2339D01*
X-1533Y2334D01*
Y2257D01*
X-1532Y2252D01*
X-1529Y2247D01*
X-1524Y2244D01*
X-1519Y2243D01*
X-1513Y2244D01*
X-1509Y2247D01*
X-1506Y2252D01*
X-1505Y2257D01*
Y2334D01*
X-1506Y2339D01*
X-1509Y2344D01*
X-1513Y2347D01*
X-1519Y2348D01*
D02*
G37*
G36*
X3444Y2353D02*
X3426D01*
X3423Y2352D01*
X3421Y2351D01*
X3420Y2349D01*
X3419Y2346D01*
Y2274D01*
X3420Y2271D01*
X3421Y2270D01*
Y2261D01*
X3389Y2229D01*
X3020D01*
X3020Y2229D01*
X3015Y2228D01*
X3010Y2225D01*
X2827Y2042D01*
X2824Y2038D01*
X2823Y2032D01*
X2823Y2032D01*
Y1844D01*
X2768D01*
Y1746D01*
X2906D01*
Y1844D01*
X2851D01*
Y2026D01*
X3026Y2201D01*
X3395D01*
X3395Y2201D01*
X3400Y2202D01*
X3405Y2205D01*
X3445Y2245D01*
X3445Y2245D01*
X3448Y2250D01*
X3449Y2255D01*
Y2270D01*
X3450Y2271D01*
X3451Y2274D01*
Y2346D01*
X3450Y2349D01*
X3449Y2351D01*
X3447Y2352D01*
X3444Y2353D01*
D02*
G37*
G36*
X1999D02*
X1981D01*
X1978Y2352D01*
X1976Y2351D01*
X1975Y2349D01*
X1974Y2346D01*
Y2274D01*
X1975Y2271D01*
X1976Y2270D01*
Y2246D01*
X1949Y2219D01*
X1660D01*
X1660Y2219D01*
X1655Y2218D01*
X1650Y2215D01*
X1650Y2215D01*
X1401Y1966D01*
X1398Y1962D01*
X1397Y1956D01*
X1397Y1956D01*
Y1844D01*
X1342D01*
Y1746D01*
X1480D01*
Y1844D01*
X1425D01*
Y1950D01*
X1666Y2191D01*
X1955D01*
X1955Y2191D01*
X1960Y2192D01*
X1965Y2195D01*
X2000Y2230D01*
X2000Y2230D01*
X2003Y2235D01*
X2004Y2240D01*
X2004Y2240D01*
Y2270D01*
X2005Y2271D01*
X2006Y2274D01*
Y2346D01*
X2005Y2349D01*
X2004Y2351D01*
X2002Y2352D01*
X1999Y2353D01*
D02*
G37*
G36*
X3644D02*
X3626D01*
X3623Y2352D01*
X3621Y2351D01*
X3620Y2349D01*
X3619Y2346D01*
Y2274D01*
X3620Y2271D01*
X3621Y2269D01*
X3623Y2268D01*
X3626Y2267D01*
Y2260D01*
X3619Y2256D01*
X3615Y2248D01*
X3613Y2240D01*
X3615Y2232D01*
X3619Y2224D01*
X3627Y2220D01*
X3635Y2218D01*
X3643Y2220D01*
X3651Y2224D01*
X3655Y2232D01*
X3657Y2240D01*
X3655Y2248D01*
X3651Y2256D01*
X3644Y2260D01*
Y2267D01*
X3647Y2268D01*
X3649Y2269D01*
X3650Y2271D01*
X3651Y2274D01*
Y2346D01*
X3650Y2349D01*
X3649Y2351D01*
X3647Y2352D01*
X3644Y2353D01*
D02*
G37*
G36*
X2199D02*
X2181D01*
X2178Y2352D01*
X2176Y2351D01*
X2175Y2349D01*
X2174Y2346D01*
Y2274D01*
X2175Y2271D01*
X2176Y2269D01*
X2178Y2268D01*
X2181Y2267D01*
Y2255D01*
X2174Y2251D01*
X2170Y2243D01*
X2168Y2235D01*
X2170Y2227D01*
X2174Y2219D01*
X2182Y2215D01*
X2190Y2213D01*
X2198Y2215D01*
X2206Y2219D01*
X2210Y2227D01*
X2212Y2235D01*
X2210Y2243D01*
X2206Y2251D01*
X2199Y2255D01*
Y2267D01*
X2202Y2268D01*
X2204Y2269D01*
X2205Y2271D01*
X2206Y2274D01*
Y2346D01*
X2205Y2349D01*
X2204Y2351D01*
X2202Y2352D01*
X2199Y2353D01*
D02*
G37*
G36*
X809D02*
X791D01*
X788Y2352D01*
X786Y2351D01*
X785Y2349D01*
X784Y2346D01*
Y2274D01*
X785Y2271D01*
X786Y2269D01*
X788Y2268D01*
X791Y2267D01*
Y2255D01*
X784Y2251D01*
X780Y2243D01*
X778Y2235D01*
X780Y2227D01*
X784Y2219D01*
X792Y2215D01*
X800Y2213D01*
X808Y2215D01*
X816Y2219D01*
X820Y2227D01*
X822Y2235D01*
X820Y2243D01*
X816Y2251D01*
X809Y2255D01*
Y2267D01*
X812Y2268D01*
X814Y2269D01*
X815Y2271D01*
X816Y2274D01*
Y2346D01*
X815Y2349D01*
X814Y2351D01*
X812Y2352D01*
X809Y2353D01*
D02*
G37*
G36*
X3594D02*
X3576D01*
X3573Y2352D01*
X3571Y2351D01*
X3570Y2349D01*
X3569Y2346D01*
Y2274D01*
X3570Y2271D01*
X3571Y2269D01*
X3573Y2268D01*
X3576Y2267D01*
Y2230D01*
X3569Y2226D01*
X3565Y2218D01*
X3563Y2210D01*
X3565Y2202D01*
X3569Y2194D01*
X3577Y2190D01*
X3585Y2188D01*
X3593Y2190D01*
X3601Y2194D01*
X3605Y2202D01*
X3607Y2210D01*
X3605Y2218D01*
X3601Y2226D01*
X3594Y2230D01*
Y2267D01*
X3597Y2268D01*
X3599Y2269D01*
X3600Y2271D01*
X3601Y2274D01*
Y2346D01*
X3600Y2349D01*
X3599Y2351D01*
X3597Y2352D01*
X3594Y2353D01*
D02*
G37*
G36*
X2149D02*
X2131D01*
X2128Y2352D01*
X2126Y2351D01*
X2125Y2349D01*
X2124Y2346D01*
Y2274D01*
X2125Y2271D01*
X2126Y2269D01*
X2128Y2268D01*
X2131Y2267D01*
Y2220D01*
X2124Y2216D01*
X2120Y2208D01*
X2118Y2200D01*
X2120Y2192D01*
X2124Y2184D01*
X2132Y2180D01*
X2140Y2178D01*
X2148Y2180D01*
X2156Y2184D01*
X2160Y2192D01*
X2162Y2200D01*
X2160Y2208D01*
X2156Y2216D01*
X2149Y2220D01*
Y2267D01*
X2152Y2268D01*
X2154Y2269D01*
X2155Y2271D01*
X2156Y2274D01*
Y2346D01*
X2155Y2349D01*
X2154Y2351D01*
X2152Y2352D01*
X2149Y2353D01*
D02*
G37*
G36*
X759D02*
X741D01*
X738Y2352D01*
X736Y2351D01*
X735Y2349D01*
X734Y2346D01*
Y2274D01*
X735Y2271D01*
X736Y2269D01*
X738Y2268D01*
X741Y2267D01*
Y2220D01*
X734Y2216D01*
X730Y2208D01*
X728Y2200D01*
X730Y2192D01*
X734Y2184D01*
X742Y2180D01*
X750Y2178D01*
X758Y2180D01*
X766Y2184D01*
X770Y2192D01*
X772Y2200D01*
X770Y2208D01*
X766Y2216D01*
X759Y2220D01*
Y2267D01*
X762Y2268D01*
X764Y2269D01*
X765Y2271D01*
X766Y2274D01*
Y2346D01*
X765Y2349D01*
X764Y2351D01*
X762Y2352D01*
X759Y2353D01*
D02*
G37*
G36*
X-1263Y2290D02*
X-1322D01*
Y2220D01*
X-1312D01*
Y2130D01*
X-1313Y2128D01*
X-1315Y2120D01*
X-1313Y2112D01*
X-1308Y2104D01*
X-1301Y2100D01*
X-1293Y2098D01*
X-1284Y2100D01*
X-1277Y2104D01*
X-1272Y2112D01*
X-1271Y2120D01*
X-1272Y2128D01*
X-1273Y2130D01*
Y2220D01*
X-1263D01*
Y2290D01*
D02*
G37*
G36*
X1949Y2158D02*
X1931D01*
X1928Y2157D01*
X1926Y2156D01*
X1925Y2154D01*
X1924Y2151D01*
Y2079D01*
X1925Y2077D01*
X1926Y2075D01*
Y2066D01*
X1919Y2059D01*
X1714D01*
X1714Y2059D01*
X1709Y2058D01*
X1704Y2055D01*
X1579Y1930D01*
X1576Y1925D01*
X1575Y1920D01*
X1575Y1920D01*
Y1844D01*
X1520D01*
Y1746D01*
X1658D01*
Y1844D01*
X1604D01*
Y1914D01*
X1720Y2031D01*
X1925D01*
X1925Y2031D01*
X1930Y2032D01*
X1935Y2035D01*
X1950Y2050D01*
X1953Y2055D01*
X1954Y2060D01*
X1954Y2060D01*
Y2075D01*
X1955Y2077D01*
X1956Y2079D01*
Y2151D01*
X1955Y2154D01*
X1954Y2156D01*
X1952Y2157D01*
X1949Y2158D01*
D02*
G37*
G36*
X3444D02*
X3426D01*
X3423Y2157D01*
X3421Y2156D01*
X3420Y2154D01*
X3419Y2151D01*
Y2079D01*
X3420Y2077D01*
X3421Y2075D01*
Y2066D01*
X3403Y2048D01*
X3402Y2048D01*
X3398Y2051D01*
X3399Y2055D01*
X3399Y2055D01*
Y2075D01*
X3400Y2077D01*
X3401Y2079D01*
Y2151D01*
X3400Y2154D01*
X3399Y2156D01*
X3397Y2157D01*
X3394Y2158D01*
X3376D01*
X3373Y2157D01*
X3371Y2156D01*
X3370Y2154D01*
X3369Y2151D01*
Y2079D01*
X3370Y2077D01*
X3371Y2075D01*
Y2061D01*
X3304Y1994D01*
X3085D01*
X3080Y1993D01*
X3075Y1990D01*
X3075Y1990D01*
X3005Y1920D01*
X3002Y1915D01*
X3001Y1910D01*
X3001Y1910D01*
Y1844D01*
X2946D01*
Y1746D01*
X3084D01*
Y1844D01*
X3030D01*
Y1904D01*
X3091Y1966D01*
X3310D01*
X3310Y1966D01*
X3313Y1966D01*
X3316Y1962D01*
X3314Y1959D01*
X3241D01*
X3241Y1959D01*
X3235Y1958D01*
X3231Y1955D01*
X3190Y1914D01*
X3187Y1910D01*
X3186Y1904D01*
X3186Y1904D01*
Y1844D01*
X3125D01*
Y1746D01*
X3263D01*
Y1844D01*
X3214D01*
Y1898D01*
X3247Y1931D01*
X3320D01*
X3320Y1931D01*
X3325Y1932D01*
X3330Y1935D01*
X3445Y2050D01*
X3445Y2050D01*
X3448Y2055D01*
X3449Y2060D01*
X3449Y2060D01*
Y2075D01*
X3450Y2077D01*
X3451Y2079D01*
Y2151D01*
X3450Y2154D01*
X3449Y2156D01*
X3447Y2157D01*
X3444Y2158D01*
D02*
G37*
G36*
X3737Y2133D02*
X3731Y2131D01*
X3727Y2128D01*
X3724Y2124D01*
X3723Y2118D01*
Y2068D01*
X3723Y2068D01*
X3724Y2063D01*
X3727Y2058D01*
X3741Y2044D01*
X3741Y2044D01*
X3746Y2041D01*
X3751Y2040D01*
X3751Y2040D01*
X3839D01*
X3844Y2041D01*
X3849Y2044D01*
X3852Y2048D01*
X3853Y2054D01*
X3852Y2059D01*
X3849Y2064D01*
X3844Y2067D01*
X3839Y2068D01*
X3757D01*
X3751Y2074D01*
Y2118D01*
X3750Y2124D01*
X3747Y2128D01*
X3742Y2131D01*
X3737Y2133D01*
D02*
G37*
G36*
X2292D02*
X2286Y2131D01*
X2282Y2128D01*
X2279Y2124D01*
X2278Y2118D01*
Y2068D01*
X2278Y2068D01*
X2279Y2063D01*
X2282Y2058D01*
X2296Y2044D01*
X2296Y2044D01*
X2301Y2041D01*
X2306Y2040D01*
X2306Y2040D01*
X2394D01*
X2399Y2041D01*
X2404Y2044D01*
X2407Y2048D01*
X2408Y2054D01*
X2407Y2059D01*
X2404Y2064D01*
X2399Y2067D01*
X2394Y2068D01*
X2312D01*
X2306Y2074D01*
Y2118D01*
X2305Y2124D01*
X2302Y2128D01*
X2297Y2131D01*
X2292Y2133D01*
D02*
G37*
G36*
X900Y2129D02*
X895Y2128D01*
X890Y2125D01*
X887Y2121D01*
X886Y2115D01*
X887Y2110D01*
X888Y2109D01*
Y2063D01*
X888Y2063D01*
X889Y2058D01*
X892Y2053D01*
X906Y2039D01*
X906Y2039D01*
X911Y2036D01*
X916Y2035D01*
X916Y2035D01*
X1004D01*
X1009Y2036D01*
X1014Y2039D01*
X1017Y2043D01*
X1018Y2049D01*
X1017Y2054D01*
X1014Y2059D01*
X1009Y2062D01*
X1004Y2063D01*
X922D01*
X916Y2069D01*
Y2113D01*
X915Y2119D01*
X912Y2123D01*
X912Y2123D01*
X910Y2125D01*
X905Y2128D01*
X900Y2129D01*
D02*
G37*
G36*
X559Y2158D02*
X541D01*
X538Y2157D01*
X536Y2156D01*
X535Y2154D01*
X534Y2151D01*
Y2079D01*
X535Y2077D01*
X536Y2075D01*
Y2071D01*
X454Y1989D01*
X260D01*
X260Y1989D01*
X255Y1988D01*
X250Y1985D01*
X250Y1985D01*
X153Y1888D01*
X150Y1884D01*
X149Y1878D01*
X149Y1878D01*
Y1844D01*
X94D01*
Y1746D01*
X232D01*
Y1844D01*
X178D01*
Y1872D01*
X266Y1961D01*
X460D01*
X460Y1961D01*
X465Y1962D01*
X470Y1965D01*
X560Y2055D01*
X560Y2055D01*
X563Y2060D01*
X564Y2065D01*
X564Y2065D01*
Y2075D01*
X565Y2077D01*
X566Y2079D01*
Y2151D01*
X565Y2154D01*
X564Y2156D01*
X562Y2157D01*
X559Y2158D01*
D02*
G37*
G36*
X609D02*
X591D01*
X588Y2157D01*
X586Y2156D01*
X585Y2154D01*
X584Y2151D01*
Y2079D01*
X585Y2077D01*
X586Y2075D01*
Y2061D01*
X459Y1934D01*
X400D01*
X395Y1933D01*
X390Y1930D01*
X390Y1930D01*
X350Y1890D01*
X347Y1885D01*
X346Y1880D01*
X346Y1880D01*
Y1844D01*
X273D01*
Y1746D01*
X411D01*
Y1844D01*
X374D01*
Y1874D01*
X406Y1906D01*
X465D01*
X465Y1906D01*
X470Y1907D01*
X475Y1910D01*
X610Y2045D01*
X610Y2045D01*
X613Y2050D01*
X614Y2055D01*
Y2075D01*
X615Y2077D01*
X616Y2079D01*
Y2151D01*
X615Y2154D01*
X614Y2156D01*
X612Y2157D01*
X609Y2158D01*
D02*
G37*
G36*
X-529Y1873D02*
X-534Y1872D01*
X-539Y1869D01*
X-542Y1864D01*
X-543Y1859D01*
Y1782D01*
X-542Y1777D01*
X-539Y1772D01*
X-534Y1769D01*
X-529Y1768D01*
X-523Y1769D01*
X-519Y1772D01*
X-516Y1777D01*
X-515Y1782D01*
Y1859D01*
X-516Y1864D01*
X-519Y1869D01*
X-523Y1872D01*
X-529Y1873D01*
D02*
G37*
G36*
X-944D02*
X-949Y1872D01*
X-954Y1869D01*
X-957Y1864D01*
X-958Y1859D01*
Y1782D01*
X-957Y1777D01*
X-954Y1772D01*
X-949Y1769D01*
X-944Y1768D01*
X-938Y1769D01*
X-934Y1772D01*
X-931Y1777D01*
X-930Y1782D01*
Y1859D01*
X-931Y1864D01*
X-934Y1869D01*
X-938Y1872D01*
X-944Y1873D01*
D02*
G37*
G36*
X3694Y2158D02*
X3676D01*
X3673Y2157D01*
X3671Y2156D01*
X3670Y2154D01*
X3669Y2151D01*
Y2079D01*
X3670Y2077D01*
X3671Y2075D01*
Y2065D01*
X3671Y2065D01*
X3672Y2060D01*
X3675Y2055D01*
X3730Y2000D01*
X3730Y2000D01*
X3735Y1997D01*
X3740Y1996D01*
X4054D01*
X4071Y1979D01*
Y1844D01*
X4016D01*
Y1746D01*
X4154D01*
Y1844D01*
X4099D01*
Y1985D01*
X4098Y1990D01*
X4095Y1995D01*
X4095Y1995D01*
X4070Y2020D01*
X4065Y2023D01*
X4060Y2024D01*
X4060Y2024D01*
X3746D01*
X3699Y2071D01*
Y2075D01*
X3700Y2077D01*
X3701Y2079D01*
Y2151D01*
X3700Y2154D01*
X3699Y2156D01*
X3697Y2157D01*
X3694Y2158D01*
D02*
G37*
G36*
X3644D02*
X3626D01*
X3623Y2157D01*
X3621Y2156D01*
X3620Y2154D01*
X3619Y2151D01*
Y2079D01*
X3620Y2077D01*
X3621Y2075D01*
Y2055D01*
X3621Y2055D01*
X3622Y2050D01*
X3625Y2045D01*
X3715Y1955D01*
X3715Y1955D01*
X3720Y1952D01*
X3725Y1951D01*
X3725Y1951D01*
X3869D01*
X3890Y1930D01*
Y1844D01*
X3838D01*
Y1746D01*
X3976D01*
Y1844D01*
X3918D01*
Y1936D01*
X3918Y1936D01*
X3917Y1941D01*
X3914Y1946D01*
X3914Y1946D01*
X3885Y1975D01*
X3880Y1978D01*
X3875Y1979D01*
X3875Y1979D01*
X3731D01*
X3649Y2061D01*
Y2075D01*
X3650Y2077D01*
X3651Y2079D01*
Y2151D01*
X3650Y2154D01*
X3649Y2156D01*
X3647Y2157D01*
X3644Y2158D01*
D02*
G37*
G36*
X3594D02*
X3576D01*
X3573Y2157D01*
X3571Y2156D01*
X3570Y2154D01*
X3569Y2151D01*
Y2079D01*
X3570Y2077D01*
X3571Y2075D01*
Y2035D01*
X3571Y2035D01*
X3572Y2030D01*
X3575Y2025D01*
X3714Y1886D01*
Y1844D01*
X3659D01*
Y1746D01*
X3797D01*
Y1844D01*
X3743D01*
Y1892D01*
X3742Y1897D01*
X3739Y1902D01*
X3739Y1902D01*
X3599Y2041D01*
Y2075D01*
X3600Y2077D01*
X3601Y2079D01*
Y2151D01*
X3600Y2154D01*
X3599Y2156D01*
X3597Y2157D01*
X3594Y2158D01*
D02*
G37*
G36*
X3544D02*
X3526D01*
X3523Y2157D01*
X3521Y2156D01*
X3520Y2154D01*
X3519Y2151D01*
Y2079D01*
X3520Y2077D01*
X3521Y2075D01*
Y1844D01*
X3481D01*
Y1746D01*
X3619D01*
Y1844D01*
X3549D01*
Y2075D01*
X3550Y2077D01*
X3551Y2079D01*
Y2151D01*
X3550Y2154D01*
X3549Y2156D01*
X3547Y2157D01*
X3544Y2158D01*
D02*
G37*
G36*
X3494D02*
X3476D01*
X3473Y2157D01*
X3471Y2156D01*
X3470Y2154D01*
X3469Y2151D01*
Y2079D01*
X3470Y2077D01*
X3471Y2075D01*
Y2046D01*
X3370Y1945D01*
X3367Y1940D01*
X3366Y1935D01*
X3366Y1935D01*
Y1844D01*
X3303D01*
Y1746D01*
X3441D01*
Y1844D01*
X3394D01*
Y1929D01*
X3495Y2030D01*
X3495Y2030D01*
X3498Y2035D01*
X3499Y2040D01*
Y2075D01*
X3500Y2077D01*
X3501Y2079D01*
Y2151D01*
X3500Y2154D01*
X3499Y2156D01*
X3497Y2157D01*
X3494Y2158D01*
D02*
G37*
G36*
X2249D02*
X2231D01*
X2228Y2157D01*
X2226Y2156D01*
X2225Y2154D01*
X2224Y2151D01*
Y2079D01*
X2225Y2077D01*
X2226Y2075D01*
Y2060D01*
X2226Y2060D01*
X2227Y2055D01*
X2230Y2050D01*
X2285Y1995D01*
X2285Y1995D01*
X2290Y1992D01*
X2295Y1991D01*
X2589D01*
X2656Y1924D01*
Y1844D01*
X2590D01*
Y1746D01*
X2728D01*
Y1844D01*
X2684D01*
Y1930D01*
X2684Y1930D01*
X2683Y1935D01*
X2680Y1940D01*
X2680Y1940D01*
X2605Y2015D01*
X2600Y2018D01*
X2595Y2019D01*
X2595Y2019D01*
X2301D01*
X2254Y2066D01*
Y2075D01*
X2255Y2077D01*
X2256Y2079D01*
Y2151D01*
X2255Y2154D01*
X2254Y2156D01*
X2252Y2157D01*
X2249Y2158D01*
D02*
G37*
G36*
X2199D02*
X2181D01*
X2178Y2157D01*
X2176Y2156D01*
X2175Y2154D01*
X2174Y2151D01*
Y2079D01*
X2175Y2077D01*
X2176Y2075D01*
Y2035D01*
X2176Y2035D01*
X2177Y2030D01*
X2180Y2025D01*
X2250Y1955D01*
X2250Y1955D01*
X2255Y1952D01*
X2260Y1951D01*
X2444D01*
X2466Y1928D01*
Y1844D01*
X2412D01*
Y1746D01*
X2550D01*
Y1844D01*
X2495D01*
Y1934D01*
X2494Y1940D01*
X2491Y1944D01*
X2491Y1944D01*
X2460Y1975D01*
X2455Y1978D01*
X2450Y1979D01*
X2450Y1979D01*
X2266D01*
X2204Y2041D01*
Y2075D01*
X2205Y2077D01*
X2206Y2079D01*
Y2151D01*
X2205Y2154D01*
X2204Y2156D01*
X2202Y2157D01*
X2199Y2158D01*
D02*
G37*
G36*
X2149D02*
X2131D01*
X2128Y2157D01*
X2126Y2156D01*
X2125Y2154D01*
X2124Y2151D01*
Y2079D01*
X2125Y2077D01*
X2126Y2075D01*
Y2025D01*
X2126Y2025D01*
X2127Y2020D01*
X2130Y2015D01*
X2288Y1857D01*
Y1844D01*
X2233D01*
Y1746D01*
X2371D01*
Y1844D01*
X2317D01*
Y1863D01*
X2317Y1863D01*
X2316Y1868D01*
X2312Y1873D01*
X2154Y2031D01*
Y2075D01*
X2155Y2077D01*
X2156Y2079D01*
Y2151D01*
X2155Y2154D01*
X2154Y2156D01*
X2152Y2157D01*
X2149Y2158D01*
D02*
G37*
G36*
X2099D02*
X2081D01*
X2078Y2157D01*
X2076Y2156D01*
X2075Y2154D01*
X2074Y2151D01*
Y2079D01*
X2075Y2077D01*
X2076Y2075D01*
Y1985D01*
X2076Y1985D01*
X2077Y1980D01*
X2080Y1975D01*
X2106Y1949D01*
Y1844D01*
X2055D01*
Y1746D01*
X2193D01*
Y1844D01*
X2134D01*
Y1955D01*
X2134Y1955D01*
X2133Y1960D01*
X2130Y1965D01*
X2130Y1965D01*
X2104Y1991D01*
Y2075D01*
X2105Y2077D01*
X2106Y2079D01*
Y2151D01*
X2105Y2154D01*
X2104Y2156D01*
X2102Y2157D01*
X2099Y2158D01*
D02*
G37*
G36*
X2049D02*
X2031D01*
X2028Y2157D01*
X2026Y2156D01*
X2025Y2154D01*
X2024Y2151D01*
Y2079D01*
X2025Y2077D01*
X2026Y2075D01*
Y2030D01*
X1936Y1940D01*
X1933Y1935D01*
X1932Y1930D01*
X1932Y1930D01*
Y1844D01*
X1877D01*
Y1746D01*
X2015D01*
Y1844D01*
X1960D01*
Y1924D01*
X2050Y2014D01*
X2050Y2014D01*
X2053Y2019D01*
X2054Y2024D01*
X2054Y2024D01*
Y2075D01*
X2055Y2077D01*
X2056Y2079D01*
Y2151D01*
X2055Y2154D01*
X2054Y2156D01*
X2052Y2157D01*
X2049Y2158D01*
D02*
G37*
G36*
X1999D02*
X1981D01*
X1978Y2157D01*
X1976Y2156D01*
X1975Y2154D01*
X1974Y2151D01*
Y2079D01*
X1975Y2077D01*
X1976Y2075D01*
Y2061D01*
X1759Y1844D01*
X1699D01*
Y1746D01*
X1837D01*
Y1844D01*
X1806D01*
X1804Y1849D01*
X2000Y2045D01*
X2000Y2045D01*
X2003Y2050D01*
X2004Y2055D01*
X2004Y2055D01*
Y2075D01*
X2005Y2077D01*
X2006Y2079D01*
Y2151D01*
X2005Y2154D01*
X2004Y2156D01*
X2002Y2157D01*
X1999Y2158D01*
D02*
G37*
G36*
X859D02*
X841D01*
X838Y2157D01*
X836Y2156D01*
X835Y2154D01*
X834Y2151D01*
Y2079D01*
X835Y2077D01*
X836Y2075D01*
Y2040D01*
X836Y2040D01*
X837Y2035D01*
X840Y2030D01*
X920Y1950D01*
X920Y1950D01*
X925Y1947D01*
X930Y1946D01*
X930Y1946D01*
X1204D01*
X1219Y1931D01*
Y1844D01*
X1164D01*
Y1746D01*
X1302D01*
Y1844D01*
X1247D01*
Y1937D01*
X1247Y1937D01*
X1246Y1943D01*
X1243Y1947D01*
X1243Y1947D01*
X1220Y1970D01*
X1215Y1973D01*
X1210Y1974D01*
X1210Y1974D01*
X936D01*
X864Y2046D01*
Y2075D01*
X865Y2077D01*
X866Y2079D01*
Y2151D01*
X865Y2154D01*
X864Y2156D01*
X862Y2157D01*
X859Y2158D01*
D02*
G37*
G36*
X809D02*
X791D01*
X788Y2157D01*
X786Y2156D01*
X785Y2154D01*
X784Y2151D01*
Y2079D01*
X785Y2077D01*
X786Y2075D01*
Y2010D01*
X786Y2010D01*
X787Y2005D01*
X790Y2000D01*
X885Y1905D01*
X885Y1905D01*
X890Y1902D01*
X895Y1901D01*
X895Y1901D01*
X1044D01*
X1049Y1896D01*
Y1844D01*
X986D01*
Y1746D01*
X1124D01*
Y1844D01*
X1077D01*
Y1902D01*
X1077Y1902D01*
X1076Y1907D01*
X1073Y1912D01*
X1073Y1912D01*
X1060Y1925D01*
X1055Y1928D01*
X1050Y1929D01*
X1050Y1929D01*
X901D01*
X814Y2016D01*
Y2075D01*
X815Y2077D01*
X816Y2079D01*
Y2151D01*
X815Y2154D01*
X814Y2156D01*
X812Y2157D01*
X809Y2158D01*
D02*
G37*
G36*
X759D02*
X741D01*
X738Y2157D01*
X736Y2156D01*
X735Y2154D01*
X734Y2151D01*
Y2079D01*
X735Y2077D01*
X736Y2075D01*
Y1985D01*
X736Y1985D01*
X737Y1980D01*
X740Y1975D01*
X862Y1853D01*
Y1844D01*
X807D01*
Y1746D01*
X945D01*
Y1844D01*
X891D01*
Y1859D01*
X889Y1864D01*
X886Y1869D01*
X886Y1869D01*
X764Y1991D01*
Y2075D01*
X765Y2077D01*
X766Y2079D01*
Y2151D01*
X765Y2154D01*
X764Y2156D01*
X762Y2157D01*
X759Y2158D01*
D02*
G37*
G36*
X709D02*
X691D01*
X688Y2157D01*
X686Y2156D01*
X685Y2154D01*
X684Y2151D01*
Y2079D01*
X685Y2077D01*
X686Y2075D01*
Y1844D01*
X629D01*
Y1746D01*
X767D01*
Y1844D01*
X714D01*
Y2075D01*
X715Y2077D01*
X716Y2079D01*
Y2151D01*
X715Y2154D01*
X714Y2156D01*
X712Y2157D01*
X709Y2158D01*
D02*
G37*
G36*
X659D02*
X641D01*
X638Y2157D01*
X636Y2156D01*
X635Y2154D01*
X634Y2151D01*
Y2079D01*
X635Y2077D01*
X636Y2075D01*
Y2041D01*
X510Y1915D01*
X507Y1910D01*
X506Y1905D01*
X506Y1905D01*
Y1844D01*
X451D01*
Y1746D01*
X589D01*
Y1844D01*
X534D01*
Y1899D01*
X660Y2025D01*
X663Y2030D01*
X664Y2035D01*
X664Y2035D01*
Y2075D01*
X665Y2077D01*
X666Y2079D01*
Y2151D01*
X665Y2154D01*
X664Y2156D01*
X662Y2157D01*
X659Y2158D01*
D02*
G37*
G36*
X-1330Y1818D02*
X-1343Y1817D01*
X-1356Y1813D01*
X-1368Y1807D01*
X-1378Y1798D01*
X-1387Y1788D01*
X-1393Y1776D01*
X-1397Y1763D01*
X-1398Y1750D01*
X-1397Y1737D01*
X-1393Y1724D01*
X-1387Y1712D01*
X-1378Y1702D01*
X-1368Y1693D01*
X-1356Y1687D01*
X-1343Y1683D01*
X-1330Y1682D01*
X-1317Y1683D01*
X-1304Y1687D01*
X-1292Y1693D01*
X-1282Y1702D01*
X-1273Y1712D01*
X-1267Y1724D01*
X-1263Y1737D01*
X-1262Y1750D01*
X-1263Y1763D01*
X-1267Y1776D01*
X-1273Y1788D01*
X-1282Y1798D01*
X-1292Y1807D01*
X-1304Y1813D01*
X-1317Y1817D01*
X-1330Y1818D01*
D02*
G37*
G36*
X-1291Y1588D02*
X-1297Y1587D01*
X-1301Y1584D01*
X-1304Y1579D01*
X-1306Y1574D01*
Y1497D01*
X-1304Y1492D01*
X-1301Y1487D01*
X-1297Y1484D01*
X-1291Y1483D01*
X-1286Y1484D01*
X-1281Y1487D01*
X-1278Y1492D01*
X-1277Y1497D01*
Y1574D01*
X-1278Y1579D01*
X-1281Y1584D01*
X-1286Y1587D01*
X-1291Y1588D01*
D02*
G37*
G36*
X-661Y1877D02*
X-819D01*
Y1790D01*
X-758D01*
Y1629D01*
X-772D01*
Y1542D01*
X-758D01*
Y1487D01*
X-765Y1481D01*
X-897D01*
X-926Y1509D01*
Y1615D01*
X-894D01*
Y1686D01*
X-996D01*
Y1615D01*
X-964D01*
Y1509D01*
X-1054Y1419D01*
X-1243D01*
Y1435D01*
X-1302D01*
Y1365D01*
X-1287D01*
Y1328D01*
X-1287Y1328D01*
X-1286Y1322D01*
X-1283Y1318D01*
X-1214Y1249D01*
Y1176D01*
X-1276Y1114D01*
X-1461D01*
Y1117D01*
X-1478Y1134D01*
X-1532D01*
X-1549Y1117D01*
Y1083D01*
X-1532Y1066D01*
X-1478D01*
X-1461Y1083D01*
Y1086D01*
X-1271D01*
X-1269Y1083D01*
X-1269Y1081D01*
X-1270Y1078D01*
X-1272Y1070D01*
X-1270Y1062D01*
X-1266Y1054D01*
X-1258Y1050D01*
X-1250Y1048D01*
X-1242Y1050D01*
X-1234Y1054D01*
X-1230Y1061D01*
X-1150D01*
X-1146Y1062D01*
X-1144Y1064D01*
X-1119Y1089D01*
X-1117Y1091D01*
X-1116Y1095D01*
Y1115D01*
X-1109Y1119D01*
X-1105Y1127D01*
X-1103Y1135D01*
X-1105Y1143D01*
X-1109Y1151D01*
X-1117Y1155D01*
X-1125Y1157D01*
X-1133Y1155D01*
X-1141Y1151D01*
X-1145Y1143D01*
X-1147Y1135D01*
X-1145Y1127D01*
X-1141Y1119D01*
X-1134Y1115D01*
Y1099D01*
X-1154Y1079D01*
X-1230D01*
X-1234Y1086D01*
X-1242Y1090D01*
X-1250Y1092D01*
X-1251Y1092D01*
X-1253Y1096D01*
X-1190Y1160D01*
X-1190Y1160D01*
X-1187Y1165D01*
X-1186Y1170D01*
Y1255D01*
X-1186Y1255D01*
X-1187Y1260D01*
X-1190Y1265D01*
X-1190Y1265D01*
X-1258Y1334D01*
Y1365D01*
X-1243D01*
Y1381D01*
X-1046D01*
X-1039Y1382D01*
X-1033Y1386D01*
X-945Y1474D01*
X-919Y1448D01*
X-912Y1443D01*
X-905Y1442D01*
X-757D01*
X-753Y1439D01*
Y1319D01*
X-753Y1319D01*
X-752Y1313D01*
X-749Y1309D01*
X-634Y1194D01*
Y676D01*
X-671Y639D01*
X-806D01*
Y849D01*
X-807Y853D01*
X-809Y856D01*
X-814Y861D01*
X-817Y863D01*
X-821Y864D01*
X-833D01*
Y885D01*
X-897D01*
Y869D01*
X-918D01*
Y885D01*
X-982D01*
Y869D01*
X-984Y868D01*
X-986Y866D01*
X-1062Y791D01*
X-1141D01*
X-1145Y790D01*
X-1148Y788D01*
X-1150Y785D01*
X-1151Y782D01*
X-1150Y778D01*
X-1148Y775D01*
X-1145Y773D01*
X-1141Y772D01*
X-1058D01*
X-1055Y773D01*
X-1052Y775D01*
X-986Y841D01*
X-982Y839D01*
Y834D01*
X-918D01*
Y850D01*
X-897D01*
Y834D01*
X-833D01*
Y846D01*
X-825D01*
X-824Y845D01*
Y639D01*
X-833D01*
Y651D01*
X-897D01*
Y635D01*
X-918D01*
Y651D01*
X-982D01*
Y600D01*
X-959D01*
Y319D01*
X-964Y317D01*
X-1114Y466D01*
X-1116Y468D01*
X-1120Y469D01*
X-1371D01*
Y487D01*
X-1388Y504D01*
X-1422D01*
X-1439Y487D01*
Y433D01*
X-1422Y416D01*
X-1388D01*
X-1371Y433D01*
Y451D01*
X-1124D01*
X-959Y286D01*
Y260D01*
X-966Y256D01*
X-970Y248D01*
X-972Y240D01*
X-970Y232D01*
X-966Y224D01*
X-958Y220D01*
X-950Y218D01*
X-942Y220D01*
X-934Y224D01*
X-930Y232D01*
X-928Y240D01*
X-930Y248D01*
X-934Y256D01*
X-941Y260D01*
Y290D01*
Y600D01*
X-918D01*
Y616D01*
X-897D01*
Y600D01*
X-833D01*
Y611D01*
X-665D01*
X-665Y611D01*
X-660Y612D01*
X-655Y615D01*
X-610Y660D01*
X-610Y660D01*
X-607Y665D01*
X-606Y670D01*
X-606Y670D01*
Y1200D01*
X-607Y1205D01*
X-610Y1210D01*
X-610Y1210D01*
X-724Y1325D01*
Y1467D01*
X-721Y1472D01*
X-719Y1479D01*
Y1542D01*
X-705D01*
Y1629D01*
X-719D01*
Y1790D01*
X-661D01*
Y1877D01*
D02*
G37*
G36*
X-1478Y1534D02*
X-1532D01*
X-1549Y1517D01*
Y1483D01*
X-1532Y1466D01*
X-1478D01*
X-1461Y1483D01*
Y1491D01*
X-1385D01*
Y1468D01*
X-1334D01*
Y1532D01*
X-1385D01*
Y1509D01*
X-1461D01*
Y1517D01*
X-1478Y1534D01*
D02*
G37*
G36*
X4154Y1634D02*
X4016D01*
Y1536D01*
X4071D01*
Y1488D01*
X4024D01*
Y1466D01*
X4006D01*
X4006Y1467D01*
X3998Y1472D01*
X3990Y1473D01*
X3982Y1472D01*
X3974Y1467D01*
X3970Y1460D01*
X3968Y1451D01*
X3970Y1443D01*
X3974Y1436D01*
X3982Y1431D01*
X3990Y1429D01*
X3998Y1431D01*
X4006Y1436D01*
X4006Y1437D01*
X4024D01*
Y1417D01*
X4126D01*
Y1488D01*
X4099D01*
Y1536D01*
X4154D01*
Y1634D01*
D02*
G37*
G36*
X3976D02*
X3838D01*
Y1536D01*
X3892D01*
Y1488D01*
X3846D01*
Y1466D01*
X3831D01*
X3831Y1467D01*
X3823Y1472D01*
X3815Y1473D01*
X3807Y1472D01*
X3799Y1467D01*
X3795Y1460D01*
X3793Y1451D01*
X3795Y1443D01*
X3799Y1436D01*
X3807Y1431D01*
X3815Y1429D01*
X3823Y1431D01*
X3831Y1436D01*
X3831Y1437D01*
X3846D01*
Y1417D01*
X3949D01*
Y1488D01*
X3921D01*
Y1536D01*
X3976D01*
Y1634D01*
D02*
G37*
G36*
X3797D02*
X3659D01*
Y1536D01*
X3700D01*
Y1488D01*
X3669D01*
Y1466D01*
X3651D01*
X3651Y1467D01*
X3643Y1472D01*
X3635Y1473D01*
X3627Y1472D01*
X3619Y1467D01*
X3615Y1460D01*
X3613Y1451D01*
X3615Y1443D01*
X3619Y1436D01*
X3627Y1431D01*
X3635Y1429D01*
X3643Y1431D01*
X3651Y1436D01*
X3651Y1437D01*
X3669D01*
Y1417D01*
X3772D01*
Y1488D01*
X3729D01*
Y1536D01*
X3797D01*
Y1634D01*
D02*
G37*
G36*
X3619D02*
X3481D01*
Y1536D01*
X3516D01*
Y1488D01*
X3492D01*
Y1466D01*
X3476D01*
X3476Y1467D01*
X3468Y1472D01*
X3460Y1473D01*
X3452Y1472D01*
X3444Y1467D01*
X3440Y1460D01*
X3438Y1451D01*
X3440Y1443D01*
X3444Y1436D01*
X3452Y1431D01*
X3460Y1429D01*
X3468Y1431D01*
X3476Y1436D01*
X3476Y1437D01*
X3492D01*
Y1417D01*
X3595D01*
Y1488D01*
X3544D01*
Y1536D01*
X3619D01*
Y1634D01*
D02*
G37*
G36*
X3441D02*
X3303D01*
Y1536D01*
X3358D01*
Y1488D01*
X3315D01*
Y1466D01*
X3296D01*
X3296Y1467D01*
X3288Y1472D01*
X3280Y1473D01*
X3272Y1472D01*
X3264Y1467D01*
X3260Y1460D01*
X3258Y1451D01*
X3260Y1443D01*
X3264Y1436D01*
X3272Y1431D01*
X3280Y1429D01*
X3288Y1431D01*
X3296Y1436D01*
X3296Y1437D01*
X3315D01*
Y1417D01*
X3417D01*
Y1488D01*
X3386D01*
Y1536D01*
X3441D01*
Y1634D01*
D02*
G37*
G36*
X3263D02*
X3125D01*
Y1536D01*
X3179D01*
Y1488D01*
X3138D01*
Y1466D01*
X3121D01*
X3121Y1467D01*
X3113Y1472D01*
X3105Y1473D01*
X3097Y1472D01*
X3089Y1467D01*
X3085Y1460D01*
X3083Y1451D01*
X3085Y1443D01*
X3089Y1436D01*
X3097Y1431D01*
X3105Y1429D01*
X3113Y1431D01*
X3121Y1436D01*
X3121Y1437D01*
X3138D01*
Y1417D01*
X3240D01*
Y1488D01*
X3208D01*
Y1536D01*
X3263D01*
Y1634D01*
D02*
G37*
G36*
X3084D02*
X2946D01*
Y1536D01*
X3001D01*
Y1488D01*
X2961D01*
Y1466D01*
X2941D01*
X2941Y1467D01*
X2933Y1472D01*
X2925Y1473D01*
X2917Y1472D01*
X2909Y1467D01*
X2905Y1460D01*
X2903Y1451D01*
X2905Y1443D01*
X2909Y1436D01*
X2917Y1431D01*
X2925Y1429D01*
X2933Y1431D01*
X2941Y1436D01*
X2941Y1437D01*
X2961D01*
Y1417D01*
X3063D01*
Y1488D01*
X3030D01*
Y1536D01*
X3084D01*
Y1634D01*
D02*
G37*
G36*
X2906D02*
X2768D01*
Y1536D01*
X2823D01*
Y1488D01*
X2783D01*
Y1466D01*
X2766D01*
X2766Y1467D01*
X2758Y1472D01*
X2750Y1473D01*
X2742Y1472D01*
X2734Y1467D01*
X2730Y1460D01*
X2728Y1451D01*
X2730Y1443D01*
X2734Y1436D01*
X2742Y1431D01*
X2750Y1429D01*
X2758Y1431D01*
X2766Y1436D01*
X2766Y1437D01*
X2783D01*
Y1417D01*
X2886D01*
Y1488D01*
X2851D01*
Y1536D01*
X2906D01*
Y1634D01*
D02*
G37*
G36*
X2728D02*
X2590D01*
Y1536D01*
X2645D01*
Y1488D01*
X2606D01*
Y1466D01*
X2586D01*
X2586Y1467D01*
X2578Y1472D01*
X2570Y1473D01*
X2562Y1472D01*
X2554Y1467D01*
X2550Y1460D01*
X2548Y1451D01*
X2550Y1443D01*
X2554Y1436D01*
X2562Y1431D01*
X2570Y1429D01*
X2578Y1431D01*
X2586Y1436D01*
X2586Y1437D01*
X2606D01*
Y1417D01*
X2709D01*
Y1488D01*
X2673D01*
Y1536D01*
X2728D01*
Y1634D01*
D02*
G37*
G36*
X2550D02*
X2412D01*
Y1536D01*
X2466D01*
Y1488D01*
X2429D01*
Y1466D01*
X2411D01*
X2411Y1467D01*
X2403Y1472D01*
X2395Y1473D01*
X2387Y1472D01*
X2379Y1467D01*
X2375Y1460D01*
X2373Y1451D01*
X2375Y1443D01*
X2379Y1436D01*
X2387Y1431D01*
X2395Y1429D01*
X2403Y1431D01*
X2411Y1436D01*
X2411Y1437D01*
X2429D01*
Y1417D01*
X2532D01*
Y1488D01*
X2495D01*
Y1536D01*
X2550D01*
Y1634D01*
D02*
G37*
G36*
X2371D02*
X2233D01*
Y1536D01*
X2288D01*
Y1488D01*
X2252D01*
Y1466D01*
X2236D01*
X2236Y1467D01*
X2228Y1472D01*
X2220Y1473D01*
X2212Y1472D01*
X2204Y1467D01*
X2200Y1460D01*
X2198Y1451D01*
X2200Y1443D01*
X2204Y1436D01*
X2212Y1431D01*
X2220Y1429D01*
X2228Y1431D01*
X2236Y1436D01*
X2236Y1437D01*
X2252D01*
Y1417D01*
X2354D01*
Y1488D01*
X2317D01*
Y1536D01*
X2371D01*
Y1634D01*
D02*
G37*
G36*
X2193D02*
X2055D01*
Y1536D01*
X2110D01*
Y1488D01*
X2075D01*
Y1466D01*
X2056D01*
X2056Y1467D01*
X2048Y1472D01*
X2040Y1473D01*
X2032Y1472D01*
X2024Y1467D01*
X2020Y1460D01*
X2018Y1451D01*
X2020Y1443D01*
X2024Y1436D01*
X2032Y1431D01*
X2040Y1429D01*
X2048Y1431D01*
X2056Y1436D01*
X2056Y1437D01*
X2075D01*
Y1417D01*
X2177D01*
Y1488D01*
X2138D01*
Y1536D01*
X2193D01*
Y1634D01*
D02*
G37*
G36*
X2015D02*
X1877D01*
Y1536D01*
X1935D01*
Y1488D01*
X1898D01*
Y1466D01*
X1881D01*
X1881Y1467D01*
X1873Y1472D01*
X1865Y1473D01*
X1857Y1472D01*
X1849Y1467D01*
X1845Y1460D01*
X1843Y1451D01*
X1845Y1443D01*
X1849Y1436D01*
X1857Y1431D01*
X1865Y1429D01*
X1873Y1431D01*
X1881Y1436D01*
X1881Y1437D01*
X1898D01*
Y1417D01*
X2000D01*
Y1488D01*
X1963D01*
Y1536D01*
X2015D01*
Y1634D01*
D02*
G37*
G36*
X1837D02*
X1699D01*
Y1536D01*
X1753D01*
Y1488D01*
X1720D01*
Y1466D01*
X1706D01*
X1706Y1467D01*
X1698Y1472D01*
X1690Y1473D01*
X1682Y1472D01*
X1674Y1467D01*
X1670Y1460D01*
X1668Y1451D01*
X1670Y1443D01*
X1674Y1436D01*
X1682Y1431D01*
X1690Y1429D01*
X1698Y1431D01*
X1706Y1436D01*
X1706Y1437D01*
X1720D01*
Y1417D01*
X1823D01*
Y1488D01*
X1782D01*
Y1536D01*
X1837D01*
Y1634D01*
D02*
G37*
G36*
X1658D02*
X1520D01*
Y1536D01*
X1575D01*
Y1488D01*
X1543D01*
Y1466D01*
X1531D01*
X1531Y1467D01*
X1523Y1472D01*
X1515Y1473D01*
X1507Y1472D01*
X1499Y1467D01*
X1495Y1460D01*
X1493Y1451D01*
X1495Y1443D01*
X1499Y1436D01*
X1507Y1431D01*
X1515Y1429D01*
X1523Y1431D01*
X1531Y1436D01*
X1531Y1437D01*
X1543D01*
Y1417D01*
X1646D01*
Y1488D01*
X1604D01*
Y1536D01*
X1658D01*
Y1634D01*
D02*
G37*
G36*
X1480D02*
X1342D01*
Y1536D01*
X1397D01*
Y1488D01*
X1366D01*
Y1466D01*
X1351D01*
X1351Y1467D01*
X1343Y1472D01*
X1335Y1473D01*
X1327Y1472D01*
X1319Y1467D01*
X1315Y1460D01*
X1313Y1451D01*
X1315Y1443D01*
X1319Y1436D01*
X1327Y1431D01*
X1335Y1429D01*
X1343Y1431D01*
X1351Y1436D01*
X1351Y1437D01*
X1366D01*
Y1417D01*
X1469D01*
Y1488D01*
X1425D01*
Y1536D01*
X1480D01*
Y1634D01*
D02*
G37*
G36*
X1302D02*
X1164D01*
Y1536D01*
X1219D01*
Y1488D01*
X1189D01*
Y1466D01*
X1171D01*
X1171Y1467D01*
X1163Y1472D01*
X1155Y1473D01*
X1147Y1472D01*
X1139Y1467D01*
X1135Y1460D01*
X1133Y1451D01*
X1135Y1443D01*
X1139Y1436D01*
X1147Y1431D01*
X1155Y1429D01*
X1163Y1431D01*
X1171Y1436D01*
X1171Y1437D01*
X1189D01*
Y1417D01*
X1291D01*
Y1488D01*
X1247D01*
Y1536D01*
X1302D01*
Y1634D01*
D02*
G37*
G36*
X1124D02*
X986D01*
Y1536D01*
X1040D01*
Y1488D01*
X1012D01*
Y1466D01*
X991D01*
X991Y1467D01*
X983Y1472D01*
X975Y1473D01*
X967Y1472D01*
X959Y1467D01*
X955Y1460D01*
X953Y1451D01*
X955Y1443D01*
X959Y1436D01*
X967Y1431D01*
X975Y1429D01*
X983Y1431D01*
X991Y1436D01*
X991Y1437D01*
X1012D01*
Y1417D01*
X1114D01*
Y1488D01*
X1069D01*
Y1536D01*
X1124D01*
Y1634D01*
D02*
G37*
G36*
X945D02*
X807D01*
Y1536D01*
X862D01*
Y1488D01*
X835D01*
Y1466D01*
X811D01*
X811Y1467D01*
X803Y1472D01*
X795Y1473D01*
X787Y1472D01*
X779Y1467D01*
X775Y1460D01*
X773Y1451D01*
X775Y1443D01*
X779Y1436D01*
X787Y1431D01*
X795Y1429D01*
X803Y1431D01*
X811Y1436D01*
X811Y1437D01*
X835D01*
Y1417D01*
X937D01*
Y1488D01*
X891D01*
Y1536D01*
X945D01*
Y1634D01*
D02*
G37*
G36*
X767D02*
X629D01*
Y1536D01*
X686D01*
Y1488D01*
X657D01*
Y1466D01*
X636D01*
X636Y1467D01*
X628Y1472D01*
X620Y1473D01*
X612Y1472D01*
X604Y1467D01*
X600Y1460D01*
X598Y1451D01*
X600Y1443D01*
X604Y1436D01*
X612Y1431D01*
X620Y1429D01*
X628Y1431D01*
X636Y1436D01*
X636Y1437D01*
X657D01*
Y1417D01*
X760D01*
Y1488D01*
X714D01*
Y1536D01*
X767D01*
Y1634D01*
D02*
G37*
G36*
X589D02*
X451D01*
Y1536D01*
X506D01*
Y1488D01*
X480D01*
Y1466D01*
X461D01*
X461Y1467D01*
X453Y1472D01*
X445Y1473D01*
X437Y1472D01*
X429Y1467D01*
X425Y1460D01*
X423Y1451D01*
X425Y1443D01*
X429Y1436D01*
X437Y1431D01*
X445Y1429D01*
X453Y1431D01*
X461Y1436D01*
X461Y1437D01*
X480D01*
Y1417D01*
X583D01*
Y1488D01*
X534D01*
Y1536D01*
X589D01*
Y1634D01*
D02*
G37*
G36*
X411D02*
X273D01*
Y1536D01*
X327D01*
Y1488D01*
X303D01*
Y1466D01*
X286D01*
X286Y1467D01*
X278Y1472D01*
X270Y1473D01*
X262Y1472D01*
X254Y1467D01*
X250Y1460D01*
X248Y1451D01*
X250Y1443D01*
X254Y1436D01*
X262Y1431D01*
X270Y1429D01*
X278Y1431D01*
X286Y1436D01*
X286Y1437D01*
X303D01*
Y1417D01*
X406D01*
Y1488D01*
X356D01*
Y1536D01*
X411D01*
Y1634D01*
D02*
G37*
G36*
X232D02*
X94D01*
Y1536D01*
X149D01*
Y1488D01*
X126D01*
Y1466D01*
X106D01*
X106Y1467D01*
X98Y1472D01*
X90Y1473D01*
X82Y1472D01*
X74Y1467D01*
X70Y1460D01*
X68Y1451D01*
X70Y1443D01*
X74Y1436D01*
X82Y1431D01*
X90Y1429D01*
X98Y1431D01*
X106Y1436D01*
X106Y1437D01*
X126D01*
Y1417D01*
X228D01*
Y1488D01*
X178D01*
Y1536D01*
X232D01*
Y1634D01*
D02*
G37*
G36*
X54D02*
X-84D01*
Y1536D01*
X-29D01*
Y1489D01*
X-51D01*
Y1466D01*
X-104D01*
X-104Y1467D01*
X-112Y1472D01*
X-120Y1473D01*
X-128Y1472D01*
X-136Y1467D01*
X-140Y1460D01*
X-142Y1451D01*
X-140Y1443D01*
X-136Y1436D01*
X-128Y1431D01*
X-120Y1429D01*
X-112Y1431D01*
X-104Y1436D01*
X-104Y1437D01*
X-51D01*
Y1418D01*
X51D01*
Y1489D01*
X-1D01*
Y1536D01*
X54D01*
Y1634D01*
D02*
G37*
G36*
X-1318Y1435D02*
X-1377D01*
Y1409D01*
X-1461D01*
Y1417D01*
X-1478Y1434D01*
X-1532D01*
X-1549Y1417D01*
Y1383D01*
X-1532Y1366D01*
X-1478D01*
X-1461Y1383D01*
Y1391D01*
X-1377D01*
Y1365D01*
X-1318D01*
Y1435D01*
D02*
G37*
G36*
X51Y1377D02*
X-51D01*
Y1351D01*
X-84D01*
X-87Y1350D01*
X-90Y1348D01*
X-389Y1049D01*
X-460D01*
X-460Y1052D01*
X-462Y1054D01*
X-464Y1055D01*
X-467Y1056D01*
X-538D01*
X-541Y1055D01*
X-543Y1054D01*
X-545Y1052D01*
X-545Y1049D01*
Y1031D01*
X-545Y1028D01*
X-543Y1026D01*
X-541Y1025D01*
X-538Y1024D01*
X-467D01*
X-464Y1025D01*
X-462Y1026D01*
X-460Y1028D01*
X-460Y1031D01*
X-385D01*
X-381Y1032D01*
X-379Y1034D01*
X-80Y1332D01*
X-51D01*
Y1306D01*
X51D01*
Y1327D01*
X126D01*
Y1305D01*
X228D01*
Y1327D01*
X303D01*
Y1305D01*
X406D01*
Y1327D01*
X480D01*
Y1305D01*
X583D01*
Y1327D01*
X657D01*
Y1305D01*
X760D01*
Y1327D01*
X835D01*
Y1305D01*
X937D01*
Y1327D01*
X1012D01*
Y1305D01*
X1114D01*
Y1327D01*
X1189D01*
Y1305D01*
X1291D01*
Y1327D01*
X1366D01*
Y1305D01*
X1469D01*
Y1327D01*
X1543D01*
Y1305D01*
X1646D01*
Y1327D01*
X1720D01*
Y1305D01*
X1823D01*
Y1327D01*
X1898D01*
Y1305D01*
X2000D01*
Y1327D01*
X2075D01*
Y1305D01*
X2177D01*
Y1327D01*
X2252D01*
Y1305D01*
X2354D01*
Y1327D01*
X2429D01*
Y1305D01*
X2532D01*
Y1327D01*
X2606D01*
Y1305D01*
X2709D01*
Y1327D01*
X2783D01*
Y1305D01*
X2886D01*
Y1327D01*
X2961D01*
Y1305D01*
X3063D01*
Y1327D01*
X3138D01*
Y1305D01*
X3240D01*
Y1327D01*
X3315D01*
Y1305D01*
X3417D01*
Y1327D01*
X3492D01*
Y1305D01*
X3595D01*
Y1327D01*
X3669D01*
Y1305D01*
X3772D01*
Y1327D01*
X3846D01*
Y1305D01*
X3949D01*
Y1327D01*
X4024D01*
Y1305D01*
X4126D01*
Y1376D01*
X4024D01*
Y1356D01*
X3949D01*
Y1376D01*
X3846D01*
Y1356D01*
X3772D01*
Y1376D01*
X3669D01*
Y1356D01*
X3595D01*
Y1376D01*
X3492D01*
Y1356D01*
X3417D01*
Y1376D01*
X3315D01*
Y1356D01*
X3240D01*
Y1376D01*
X3138D01*
Y1356D01*
X3063D01*
Y1376D01*
X2961D01*
Y1356D01*
X2886D01*
Y1376D01*
X2783D01*
Y1356D01*
X2709D01*
Y1376D01*
X2606D01*
Y1356D01*
X2532D01*
Y1376D01*
X2429D01*
Y1356D01*
X2354D01*
Y1376D01*
X2252D01*
Y1356D01*
X2177D01*
Y1376D01*
X2075D01*
Y1356D01*
X2000D01*
Y1376D01*
X1898D01*
Y1356D01*
X1823D01*
Y1376D01*
X1720D01*
Y1356D01*
X1646D01*
Y1376D01*
X1543D01*
Y1356D01*
X1469D01*
Y1376D01*
X1366D01*
Y1356D01*
X1291D01*
Y1376D01*
X1189D01*
Y1356D01*
X1114D01*
Y1376D01*
X1012D01*
Y1356D01*
X937D01*
Y1376D01*
X835D01*
Y1356D01*
X760D01*
Y1376D01*
X657D01*
Y1356D01*
X583D01*
Y1376D01*
X480D01*
Y1356D01*
X406D01*
Y1376D01*
X303D01*
Y1356D01*
X228D01*
Y1376D01*
X126D01*
Y1356D01*
X51D01*
Y1377D01*
D02*
G37*
G36*
X4126Y1257D02*
X4024D01*
Y1231D01*
X4006D01*
X4006Y1232D01*
X3998Y1237D01*
X3990Y1238D01*
X3982Y1237D01*
X3974Y1232D01*
X3970Y1225D01*
X3968Y1216D01*
X3970Y1208D01*
X3974Y1201D01*
X3982Y1196D01*
X3990Y1194D01*
X3998Y1196D01*
X4006Y1201D01*
X4006Y1202D01*
X4024D01*
Y1186D01*
X4126D01*
Y1257D01*
D02*
G37*
G36*
X3949D02*
X3846D01*
Y1231D01*
X3831D01*
X3831Y1232D01*
X3823Y1237D01*
X3815Y1238D01*
X3807Y1237D01*
X3799Y1232D01*
X3795Y1225D01*
X3793Y1216D01*
X3795Y1208D01*
X3799Y1201D01*
X3807Y1196D01*
X3815Y1194D01*
X3823Y1196D01*
X3831Y1201D01*
X3831Y1202D01*
X3846D01*
Y1186D01*
X3949D01*
Y1257D01*
D02*
G37*
G36*
X3772D02*
X3669D01*
Y1231D01*
X3651D01*
X3651Y1232D01*
X3643Y1237D01*
X3635Y1238D01*
X3627Y1237D01*
X3619Y1232D01*
X3615Y1225D01*
X3613Y1216D01*
X3615Y1208D01*
X3619Y1201D01*
X3627Y1196D01*
X3635Y1194D01*
X3643Y1196D01*
X3651Y1201D01*
X3651Y1202D01*
X3669D01*
Y1186D01*
X3772D01*
Y1257D01*
D02*
G37*
G36*
X3595D02*
X3492D01*
Y1231D01*
X3476D01*
X3476Y1232D01*
X3468Y1237D01*
X3460Y1238D01*
X3452Y1237D01*
X3444Y1232D01*
X3440Y1225D01*
X3438Y1216D01*
X3440Y1208D01*
X3444Y1201D01*
X3452Y1196D01*
X3460Y1194D01*
X3468Y1196D01*
X3476Y1201D01*
X3476Y1202D01*
X3492D01*
Y1186D01*
X3595D01*
Y1257D01*
D02*
G37*
G36*
X3417D02*
X3315D01*
Y1231D01*
X3296D01*
X3296Y1232D01*
X3288Y1237D01*
X3280Y1238D01*
X3272Y1237D01*
X3264Y1232D01*
X3260Y1225D01*
X3258Y1216D01*
X3260Y1208D01*
X3264Y1201D01*
X3272Y1196D01*
X3280Y1194D01*
X3288Y1196D01*
X3296Y1201D01*
X3296Y1202D01*
X3315D01*
Y1186D01*
X3417D01*
Y1257D01*
D02*
G37*
G36*
X3240D02*
X3138D01*
Y1231D01*
X3121D01*
X3121Y1232D01*
X3113Y1237D01*
X3105Y1238D01*
X3097Y1237D01*
X3089Y1232D01*
X3085Y1225D01*
X3083Y1216D01*
X3085Y1208D01*
X3089Y1201D01*
X3097Y1196D01*
X3105Y1194D01*
X3113Y1196D01*
X3121Y1201D01*
X3121Y1202D01*
X3138D01*
Y1186D01*
X3240D01*
Y1257D01*
D02*
G37*
G36*
X3063D02*
X2961D01*
Y1231D01*
X2941D01*
X2941Y1232D01*
X2933Y1237D01*
X2925Y1238D01*
X2917Y1237D01*
X2909Y1232D01*
X2905Y1225D01*
X2903Y1216D01*
X2905Y1208D01*
X2909Y1201D01*
X2917Y1196D01*
X2925Y1194D01*
X2933Y1196D01*
X2941Y1201D01*
X2941Y1202D01*
X2961D01*
Y1186D01*
X3063D01*
Y1257D01*
D02*
G37*
G36*
X2886D02*
X2783D01*
Y1231D01*
X2766D01*
X2766Y1232D01*
X2758Y1237D01*
X2750Y1238D01*
X2742Y1237D01*
X2734Y1232D01*
X2730Y1225D01*
X2728Y1216D01*
X2730Y1208D01*
X2734Y1201D01*
X2742Y1196D01*
X2750Y1194D01*
X2758Y1196D01*
X2766Y1201D01*
X2766Y1202D01*
X2783D01*
Y1186D01*
X2886D01*
Y1257D01*
D02*
G37*
G36*
X2709D02*
X2606D01*
Y1231D01*
X2586D01*
X2586Y1232D01*
X2578Y1237D01*
X2570Y1238D01*
X2562Y1237D01*
X2554Y1232D01*
X2550Y1225D01*
X2548Y1216D01*
X2550Y1208D01*
X2554Y1201D01*
X2562Y1196D01*
X2570Y1194D01*
X2578Y1196D01*
X2586Y1201D01*
X2586Y1202D01*
X2606D01*
Y1186D01*
X2709D01*
Y1257D01*
D02*
G37*
G36*
X2532D02*
X2429D01*
Y1231D01*
X2411D01*
X2411Y1232D01*
X2403Y1237D01*
X2395Y1238D01*
X2387Y1237D01*
X2379Y1232D01*
X2375Y1225D01*
X2373Y1216D01*
X2375Y1208D01*
X2379Y1201D01*
X2387Y1196D01*
X2395Y1194D01*
X2403Y1196D01*
X2411Y1201D01*
X2411Y1202D01*
X2429D01*
Y1186D01*
X2532D01*
Y1257D01*
D02*
G37*
G36*
X2354D02*
X2252D01*
Y1231D01*
X2236D01*
X2236Y1232D01*
X2228Y1237D01*
X2220Y1238D01*
X2212Y1237D01*
X2204Y1232D01*
X2200Y1225D01*
X2198Y1216D01*
X2200Y1208D01*
X2204Y1201D01*
X2212Y1196D01*
X2220Y1194D01*
X2228Y1196D01*
X2236Y1201D01*
X2236Y1202D01*
X2252D01*
Y1186D01*
X2354D01*
Y1257D01*
D02*
G37*
G36*
X2177D02*
X2075D01*
Y1231D01*
X2056D01*
X2056Y1232D01*
X2048Y1237D01*
X2040Y1238D01*
X2032Y1237D01*
X2024Y1232D01*
X2020Y1225D01*
X2018Y1216D01*
X2020Y1208D01*
X2024Y1201D01*
X2032Y1196D01*
X2040Y1194D01*
X2048Y1196D01*
X2056Y1201D01*
X2056Y1202D01*
X2075D01*
Y1186D01*
X2177D01*
Y1257D01*
D02*
G37*
G36*
X2000D02*
X1898D01*
Y1231D01*
X1881D01*
X1881Y1232D01*
X1873Y1237D01*
X1865Y1238D01*
X1857Y1237D01*
X1849Y1232D01*
X1845Y1225D01*
X1843Y1216D01*
X1845Y1208D01*
X1849Y1201D01*
X1857Y1196D01*
X1865Y1194D01*
X1873Y1196D01*
X1881Y1201D01*
X1881Y1202D01*
X1898D01*
Y1186D01*
X2000D01*
Y1257D01*
D02*
G37*
G36*
X1823D02*
X1720D01*
Y1231D01*
X1706D01*
X1706Y1232D01*
X1698Y1237D01*
X1690Y1238D01*
X1682Y1237D01*
X1674Y1232D01*
X1670Y1225D01*
X1668Y1216D01*
X1670Y1208D01*
X1674Y1201D01*
X1682Y1196D01*
X1690Y1194D01*
X1698Y1196D01*
X1706Y1201D01*
X1706Y1202D01*
X1720D01*
Y1186D01*
X1823D01*
Y1257D01*
D02*
G37*
G36*
X1646D02*
X1543D01*
Y1231D01*
X1531D01*
X1531Y1232D01*
X1523Y1237D01*
X1515Y1238D01*
X1507Y1237D01*
X1499Y1232D01*
X1495Y1225D01*
X1493Y1216D01*
X1495Y1208D01*
X1499Y1201D01*
X1507Y1196D01*
X1515Y1194D01*
X1523Y1196D01*
X1531Y1201D01*
X1531Y1202D01*
X1543D01*
Y1186D01*
X1646D01*
Y1257D01*
D02*
G37*
G36*
X1469D02*
X1366D01*
Y1231D01*
X1351D01*
X1351Y1232D01*
X1343Y1237D01*
X1335Y1238D01*
X1327Y1237D01*
X1319Y1232D01*
X1315Y1225D01*
X1313Y1216D01*
X1315Y1208D01*
X1319Y1201D01*
X1327Y1196D01*
X1335Y1194D01*
X1343Y1196D01*
X1351Y1201D01*
X1351Y1202D01*
X1366D01*
Y1186D01*
X1469D01*
Y1257D01*
D02*
G37*
G36*
X1291D02*
X1189D01*
Y1231D01*
X1171D01*
X1171Y1232D01*
X1163Y1237D01*
X1155Y1238D01*
X1147Y1237D01*
X1139Y1232D01*
X1135Y1225D01*
X1133Y1216D01*
X1135Y1208D01*
X1139Y1201D01*
X1147Y1196D01*
X1155Y1194D01*
X1163Y1196D01*
X1171Y1201D01*
X1171Y1202D01*
X1189D01*
Y1186D01*
X1291D01*
Y1257D01*
D02*
G37*
G36*
X1114D02*
X1012D01*
Y1231D01*
X991D01*
X991Y1232D01*
X983Y1237D01*
X975Y1238D01*
X967Y1237D01*
X959Y1232D01*
X955Y1225D01*
X953Y1216D01*
X955Y1208D01*
X959Y1201D01*
X967Y1196D01*
X975Y1194D01*
X983Y1196D01*
X991Y1201D01*
X991Y1202D01*
X1012D01*
Y1186D01*
X1114D01*
Y1257D01*
D02*
G37*
G36*
X937D02*
X835D01*
Y1231D01*
X811D01*
X811Y1232D01*
X803Y1237D01*
X795Y1238D01*
X787Y1237D01*
X779Y1232D01*
X775Y1225D01*
X773Y1216D01*
X775Y1208D01*
X779Y1201D01*
X787Y1196D01*
X795Y1194D01*
X803Y1196D01*
X811Y1201D01*
X811Y1202D01*
X835D01*
Y1186D01*
X937D01*
Y1257D01*
D02*
G37*
G36*
X760D02*
X657D01*
Y1231D01*
X636D01*
X636Y1232D01*
X628Y1237D01*
X620Y1238D01*
X612Y1237D01*
X604Y1232D01*
X600Y1225D01*
X598Y1216D01*
X600Y1208D01*
X604Y1201D01*
X612Y1196D01*
X620Y1194D01*
X628Y1196D01*
X636Y1201D01*
X636Y1202D01*
X657D01*
Y1186D01*
X760D01*
Y1257D01*
D02*
G37*
G36*
X583D02*
X480D01*
Y1231D01*
X461D01*
X461Y1232D01*
X453Y1237D01*
X445Y1238D01*
X437Y1237D01*
X429Y1232D01*
X425Y1225D01*
X423Y1216D01*
X425Y1208D01*
X429Y1201D01*
X437Y1196D01*
X445Y1194D01*
X453Y1196D01*
X461Y1201D01*
X461Y1202D01*
X480D01*
Y1186D01*
X583D01*
Y1257D01*
D02*
G37*
G36*
X406D02*
X303D01*
Y1231D01*
X286D01*
X286Y1232D01*
X278Y1237D01*
X270Y1238D01*
X262Y1237D01*
X254Y1232D01*
X250Y1225D01*
X248Y1216D01*
X250Y1208D01*
X254Y1201D01*
X262Y1196D01*
X270Y1194D01*
X278Y1196D01*
X286Y1201D01*
X286Y1202D01*
X303D01*
Y1186D01*
X406D01*
Y1257D01*
D02*
G37*
G36*
X228D02*
X126D01*
Y1231D01*
X106D01*
X106Y1232D01*
X98Y1237D01*
X90Y1238D01*
X82Y1237D01*
X74Y1232D01*
X70Y1225D01*
X68Y1216D01*
X70Y1208D01*
X74Y1201D01*
X82Y1196D01*
X90Y1194D01*
X98Y1196D01*
X106Y1201D01*
X106Y1202D01*
X126D01*
Y1186D01*
X228D01*
Y1257D01*
D02*
G37*
G36*
X51Y1256D02*
X-51D01*
Y1231D01*
X-104D01*
X-104Y1232D01*
X-112Y1237D01*
X-120Y1238D01*
X-128Y1237D01*
X-136Y1232D01*
X-140Y1225D01*
X-142Y1216D01*
X-140Y1208D01*
X-136Y1201D01*
X-128Y1196D01*
X-120Y1194D01*
X-112Y1196D01*
X-104Y1201D01*
X-104Y1202D01*
X-51D01*
Y1185D01*
X51D01*
Y1256D01*
D02*
G37*
G36*
X-1323Y1235D02*
X-1382D01*
Y1209D01*
X-1461D01*
Y1217D01*
X-1478Y1234D01*
X-1532D01*
X-1549Y1217D01*
Y1183D01*
X-1532Y1166D01*
X-1478D01*
X-1461Y1183D01*
Y1191D01*
X-1382D01*
Y1165D01*
X-1323D01*
Y1235D01*
D02*
G37*
G36*
X4126Y1144D02*
X4024D01*
Y1121D01*
X3949D01*
Y1144D01*
X3846D01*
Y1121D01*
X3772D01*
Y1144D01*
X3669D01*
Y1121D01*
X3595D01*
Y1144D01*
X3492D01*
Y1121D01*
X3417D01*
Y1144D01*
X3315D01*
Y1121D01*
X3240D01*
Y1144D01*
X3138D01*
Y1121D01*
X3063D01*
Y1144D01*
X2961D01*
Y1121D01*
X2886D01*
Y1144D01*
X2783D01*
Y1121D01*
X2709D01*
Y1144D01*
X2606D01*
Y1121D01*
X2532D01*
Y1144D01*
X2429D01*
Y1121D01*
X2354D01*
Y1144D01*
X2252D01*
Y1121D01*
X2177D01*
Y1144D01*
X2075D01*
Y1121D01*
X2000D01*
Y1144D01*
X1898D01*
Y1121D01*
X1823D01*
Y1144D01*
X1720D01*
Y1121D01*
X1646D01*
Y1144D01*
X1543D01*
Y1121D01*
X1469D01*
Y1144D01*
X1366D01*
Y1121D01*
X1291D01*
Y1144D01*
X1189D01*
Y1121D01*
X1114D01*
Y1144D01*
X1012D01*
Y1121D01*
X937D01*
Y1144D01*
X835D01*
Y1121D01*
X760D01*
Y1144D01*
X657D01*
Y1121D01*
X583D01*
Y1144D01*
X480D01*
Y1121D01*
X406D01*
Y1144D01*
X303D01*
Y1121D01*
X228D01*
Y1144D01*
X126D01*
Y1121D01*
X51D01*
Y1144D01*
X-51D01*
Y1119D01*
X-135D01*
X-139Y1118D01*
X-141Y1116D01*
X-259Y999D01*
X-460D01*
X-460Y1002D01*
X-462Y1004D01*
X-464Y1005D01*
X-467Y1006D01*
X-538D01*
X-541Y1005D01*
X-543Y1004D01*
X-545Y1002D01*
X-545Y999D01*
Y981D01*
X-545Y978D01*
X-543Y976D01*
X-541Y975D01*
X-538Y974D01*
X-467D01*
X-464Y975D01*
X-462Y976D01*
X-460Y978D01*
X-460Y981D01*
X-255D01*
X-251Y982D01*
X-249Y984D01*
X-131Y1101D01*
X-51D01*
Y1073D01*
X51D01*
Y1092D01*
X126D01*
Y1073D01*
X228D01*
Y1092D01*
X303D01*
Y1073D01*
X406D01*
Y1092D01*
X480D01*
Y1073D01*
X583D01*
Y1092D01*
X657D01*
Y1073D01*
X760D01*
Y1092D01*
X835D01*
Y1073D01*
X937D01*
Y1092D01*
X1012D01*
Y1073D01*
X1114D01*
Y1092D01*
X1189D01*
Y1073D01*
X1291D01*
Y1092D01*
X1366D01*
Y1073D01*
X1469D01*
Y1092D01*
X1543D01*
Y1073D01*
X1646D01*
Y1092D01*
X1720D01*
Y1073D01*
X1823D01*
Y1092D01*
X1898D01*
Y1073D01*
X2000D01*
Y1092D01*
X2075D01*
Y1073D01*
X2177D01*
Y1092D01*
X2252D01*
Y1073D01*
X2354D01*
Y1092D01*
X2429D01*
Y1073D01*
X2532D01*
Y1092D01*
X2606D01*
Y1073D01*
X2709D01*
Y1092D01*
X2783D01*
Y1073D01*
X2886D01*
Y1092D01*
X2961D01*
Y1073D01*
X3063D01*
Y1092D01*
X3138D01*
Y1073D01*
X3240D01*
Y1092D01*
X3315D01*
Y1073D01*
X3417D01*
Y1092D01*
X3492D01*
Y1073D01*
X3595D01*
Y1092D01*
X3669D01*
Y1073D01*
X3772D01*
Y1092D01*
X3846D01*
Y1073D01*
X3949D01*
Y1092D01*
X4024D01*
Y1073D01*
X4126D01*
Y1144D01*
D02*
G37*
G36*
X-662Y1056D02*
X-733D01*
X-736Y1055D01*
X-738Y1054D01*
X-740Y1052D01*
X-740Y1049D01*
X-1205D01*
X-1209Y1048D01*
X-1211Y1046D01*
X-1314Y944D01*
X-1374D01*
X-1377Y944D01*
X-1380Y942D01*
X-1382Y939D01*
X-1383Y935D01*
X-1382Y932D01*
X-1380Y929D01*
X-1377Y927D01*
X-1374Y926D01*
X-1311D01*
X-1309Y923D01*
X-1308Y921D01*
X-1310Y919D01*
X-1374D01*
X-1377Y918D01*
X-1380Y916D01*
X-1382Y913D01*
X-1383Y910D01*
X-1382Y906D01*
X-1380Y903D01*
X-1377Y901D01*
X-1374Y900D01*
X-1313D01*
X-1310Y895D01*
X-1312Y893D01*
X-1374D01*
X-1377Y892D01*
X-1380Y890D01*
X-1382Y887D01*
X-1383Y884D01*
X-1382Y880D01*
X-1380Y877D01*
X-1377Y875D01*
X-1374Y875D01*
X-1313D01*
X-1311Y870D01*
X-1312Y868D01*
X-1374D01*
X-1377Y867D01*
X-1380Y865D01*
X-1382Y862D01*
X-1383Y858D01*
X-1382Y855D01*
X-1380Y852D01*
X-1377Y850D01*
X-1374Y849D01*
X-1307D01*
X-1303Y850D01*
X-1300Y852D01*
X-1264Y888D01*
X-1259Y886D01*
Y678D01*
X-1260Y677D01*
X-1268Y675D01*
X-1276Y671D01*
X-1280Y663D01*
X-1282Y655D01*
X-1280Y647D01*
X-1276Y639D01*
X-1268Y635D01*
X-1260Y633D01*
X-1252Y635D01*
X-1244Y639D01*
X-1244Y640D01*
X-1239Y638D01*
Y605D01*
X-1246Y601D01*
X-1250Y593D01*
X-1252Y585D01*
X-1250Y577D01*
X-1246Y569D01*
X-1238Y565D01*
X-1230Y563D01*
X-1222Y565D01*
X-1214Y569D01*
X-1210Y577D01*
X-1208Y585D01*
X-1210Y593D01*
X-1214Y601D01*
X-1221Y605D01*
Y881D01*
X-1202Y900D01*
X-1096D01*
X-1093Y901D01*
X-1090Y903D01*
X-1088Y906D01*
X-1087Y910D01*
X-1088Y913D01*
X-1090Y916D01*
X-1093Y918D01*
X-1096Y919D01*
X-1198D01*
X-1201Y924D01*
X-1199Y926D01*
X-1096D01*
X-1093Y927D01*
X-1090Y929D01*
X-1088Y932D01*
X-1087Y935D01*
X-1088Y939D01*
X-1090Y942D01*
X-1093Y944D01*
X-1096Y944D01*
X-1201D01*
X-1203Y949D01*
X-1186Y966D01*
X-839D01*
X-758Y885D01*
X-755Y883D01*
X-751Y882D01*
X-740D01*
Y881D01*
X-740Y878D01*
X-738Y876D01*
X-736Y875D01*
X-733Y874D01*
X-662D01*
X-659Y875D01*
X-657Y876D01*
X-655Y878D01*
X-655Y881D01*
Y899D01*
X-655Y902D01*
X-657Y904D01*
X-659Y905D01*
X-662Y906D01*
X-733D01*
X-736Y905D01*
X-738Y904D01*
X-740Y902D01*
X-740Y900D01*
X-747D01*
X-828Y981D01*
X-827Y984D01*
X-826Y986D01*
X-804D01*
X-751Y934D01*
X-749Y932D01*
X-745Y931D01*
X-740D01*
X-740Y928D01*
X-738Y926D01*
X-736Y925D01*
X-733Y924D01*
X-662D01*
X-659Y925D01*
X-657Y926D01*
X-655Y928D01*
X-655Y931D01*
Y949D01*
X-655Y952D01*
X-657Y954D01*
X-659Y955D01*
X-662Y956D01*
X-733D01*
X-736Y955D01*
X-738Y954D01*
X-738Y954D01*
X-744Y952D01*
X-745Y953D01*
X-794Y1001D01*
X-796Y1003D01*
X-800Y1004D01*
X-1187D01*
X-1189Y1009D01*
X-1188Y1011D01*
X-789D01*
X-761Y984D01*
X-759Y982D01*
X-755Y981D01*
X-740D01*
X-740Y978D01*
X-738Y976D01*
X-736Y975D01*
X-733Y974D01*
X-662D01*
X-659Y975D01*
X-657Y976D01*
X-655Y978D01*
X-655Y981D01*
Y999D01*
X-655Y1002D01*
X-657Y1004D01*
X-659Y1005D01*
X-662Y1006D01*
X-733D01*
X-736Y1005D01*
X-738Y1004D01*
X-740Y1002D01*
X-740Y999D01*
X-751D01*
X-778Y1026D01*
X-777Y1029D01*
X-776Y1031D01*
X-740D01*
X-740Y1028D01*
X-738Y1026D01*
X-736Y1025D01*
X-733Y1024D01*
X-662D01*
X-659Y1025D01*
X-657Y1026D01*
X-655Y1028D01*
X-655Y1031D01*
Y1049D01*
X-655Y1052D01*
X-657Y1054D01*
X-659Y1055D01*
X-662Y1056D01*
D02*
G37*
G36*
X4126Y1022D02*
X4024D01*
Y996D01*
X4006D01*
X4006Y997D01*
X3998Y1002D01*
X3990Y1003D01*
X3982Y1002D01*
X3974Y997D01*
X3970Y990D01*
X3968Y981D01*
X3970Y973D01*
X3974Y966D01*
X3982Y961D01*
X3990Y959D01*
X3998Y961D01*
X4006Y966D01*
X4006Y967D01*
X4024D01*
Y951D01*
X4126D01*
Y1022D01*
D02*
G37*
G36*
X3949D02*
X3846D01*
Y996D01*
X3831D01*
X3831Y997D01*
X3823Y1002D01*
X3815Y1003D01*
X3807Y1002D01*
X3799Y997D01*
X3795Y990D01*
X3793Y981D01*
X3795Y973D01*
X3799Y966D01*
X3807Y961D01*
X3815Y959D01*
X3823Y961D01*
X3831Y966D01*
X3831Y967D01*
X3846D01*
Y951D01*
X3949D01*
Y1022D01*
D02*
G37*
G36*
X3772D02*
X3669D01*
Y996D01*
X3651D01*
X3651Y997D01*
X3643Y1002D01*
X3635Y1003D01*
X3627Y1002D01*
X3619Y997D01*
X3615Y990D01*
X3613Y981D01*
X3615Y973D01*
X3619Y966D01*
X3627Y961D01*
X3635Y959D01*
X3643Y961D01*
X3651Y966D01*
X3651Y967D01*
X3669D01*
Y951D01*
X3772D01*
Y1022D01*
D02*
G37*
G36*
X3595D02*
X3492D01*
Y996D01*
X3476D01*
X3476Y997D01*
X3468Y1002D01*
X3460Y1003D01*
X3452Y1002D01*
X3444Y997D01*
X3440Y990D01*
X3438Y981D01*
X3440Y973D01*
X3444Y966D01*
X3452Y961D01*
X3460Y959D01*
X3468Y961D01*
X3476Y966D01*
X3476Y967D01*
X3492D01*
Y951D01*
X3595D01*
Y1022D01*
D02*
G37*
G36*
X3417D02*
X3315D01*
Y996D01*
X3296D01*
X3296Y997D01*
X3288Y1002D01*
X3280Y1003D01*
X3272Y1002D01*
X3264Y997D01*
X3260Y990D01*
X3258Y981D01*
X3260Y973D01*
X3264Y966D01*
X3272Y961D01*
X3280Y959D01*
X3288Y961D01*
X3296Y966D01*
X3296Y967D01*
X3315D01*
Y951D01*
X3417D01*
Y1022D01*
D02*
G37*
G36*
X3240D02*
X3138D01*
Y996D01*
X3121D01*
X3121Y997D01*
X3113Y1002D01*
X3105Y1003D01*
X3097Y1002D01*
X3089Y997D01*
X3085Y990D01*
X3083Y981D01*
X3085Y973D01*
X3089Y966D01*
X3097Y961D01*
X3105Y959D01*
X3113Y961D01*
X3121Y966D01*
X3121Y967D01*
X3138D01*
Y951D01*
X3240D01*
Y1022D01*
D02*
G37*
G36*
X3063D02*
X2961D01*
Y996D01*
X2941D01*
X2941Y997D01*
X2933Y1002D01*
X2925Y1003D01*
X2917Y1002D01*
X2909Y997D01*
X2905Y990D01*
X2903Y981D01*
X2905Y973D01*
X2909Y966D01*
X2917Y961D01*
X2925Y959D01*
X2933Y961D01*
X2941Y966D01*
X2941Y967D01*
X2961D01*
Y951D01*
X3063D01*
Y1022D01*
D02*
G37*
G36*
X2886D02*
X2783D01*
Y996D01*
X2766D01*
X2766Y997D01*
X2758Y1002D01*
X2750Y1003D01*
X2742Y1002D01*
X2734Y997D01*
X2730Y990D01*
X2728Y981D01*
X2730Y973D01*
X2734Y966D01*
X2742Y961D01*
X2750Y959D01*
X2758Y961D01*
X2766Y966D01*
X2766Y967D01*
X2783D01*
Y951D01*
X2886D01*
Y1022D01*
D02*
G37*
G36*
X2709D02*
X2606D01*
Y996D01*
X2586D01*
X2586Y997D01*
X2578Y1002D01*
X2570Y1003D01*
X2562Y1002D01*
X2554Y997D01*
X2550Y990D01*
X2548Y981D01*
X2550Y973D01*
X2554Y966D01*
X2562Y961D01*
X2570Y959D01*
X2578Y961D01*
X2586Y966D01*
X2586Y967D01*
X2606D01*
Y951D01*
X2709D01*
Y1022D01*
D02*
G37*
G36*
X2532D02*
X2429D01*
Y996D01*
X2411D01*
X2411Y997D01*
X2403Y1002D01*
X2395Y1003D01*
X2387Y1002D01*
X2379Y997D01*
X2375Y990D01*
X2373Y981D01*
X2375Y973D01*
X2379Y966D01*
X2387Y961D01*
X2395Y959D01*
X2403Y961D01*
X2411Y966D01*
X2411Y967D01*
X2429D01*
Y951D01*
X2532D01*
Y1022D01*
D02*
G37*
G36*
X2354D02*
X2252D01*
Y996D01*
X2236D01*
X2236Y997D01*
X2228Y1002D01*
X2220Y1003D01*
X2212Y1002D01*
X2204Y997D01*
X2200Y990D01*
X2198Y981D01*
X2200Y973D01*
X2204Y966D01*
X2212Y961D01*
X2220Y959D01*
X2228Y961D01*
X2236Y966D01*
X2236Y967D01*
X2252D01*
Y951D01*
X2354D01*
Y1022D01*
D02*
G37*
G36*
X2177D02*
X2075D01*
Y996D01*
X2056D01*
X2056Y997D01*
X2048Y1002D01*
X2040Y1003D01*
X2032Y1002D01*
X2024Y997D01*
X2020Y990D01*
X2018Y981D01*
X2020Y973D01*
X2024Y966D01*
X2032Y961D01*
X2040Y959D01*
X2048Y961D01*
X2056Y966D01*
X2056Y967D01*
X2075D01*
Y951D01*
X2177D01*
Y1022D01*
D02*
G37*
G36*
X2000D02*
X1898D01*
Y996D01*
X1881D01*
X1881Y997D01*
X1873Y1002D01*
X1865Y1003D01*
X1857Y1002D01*
X1849Y997D01*
X1845Y990D01*
X1843Y981D01*
X1845Y973D01*
X1849Y966D01*
X1857Y961D01*
X1865Y959D01*
X1873Y961D01*
X1881Y966D01*
X1881Y967D01*
X1898D01*
Y951D01*
X2000D01*
Y1022D01*
D02*
G37*
G36*
X1823D02*
X1720D01*
Y996D01*
X1706D01*
X1706Y997D01*
X1698Y1002D01*
X1690Y1003D01*
X1682Y1002D01*
X1674Y997D01*
X1670Y990D01*
X1668Y981D01*
X1670Y973D01*
X1674Y966D01*
X1682Y961D01*
X1690Y959D01*
X1698Y961D01*
X1706Y966D01*
X1706Y967D01*
X1720D01*
Y951D01*
X1823D01*
Y1022D01*
D02*
G37*
G36*
X1646D02*
X1543D01*
Y996D01*
X1531D01*
X1531Y997D01*
X1523Y1002D01*
X1515Y1003D01*
X1507Y1002D01*
X1499Y997D01*
X1495Y990D01*
X1493Y981D01*
X1495Y973D01*
X1499Y966D01*
X1507Y961D01*
X1515Y959D01*
X1523Y961D01*
X1531Y966D01*
X1531Y967D01*
X1543D01*
Y951D01*
X1646D01*
Y1022D01*
D02*
G37*
G36*
X1469D02*
X1366D01*
Y996D01*
X1351D01*
X1351Y997D01*
X1343Y1002D01*
X1335Y1003D01*
X1327Y1002D01*
X1319Y997D01*
X1315Y990D01*
X1313Y981D01*
X1315Y973D01*
X1319Y966D01*
X1327Y961D01*
X1335Y959D01*
X1343Y961D01*
X1351Y966D01*
X1351Y967D01*
X1366D01*
Y951D01*
X1469D01*
Y1022D01*
D02*
G37*
G36*
X1291D02*
X1189D01*
Y996D01*
X1171D01*
X1171Y997D01*
X1163Y1002D01*
X1155Y1003D01*
X1147Y1002D01*
X1139Y997D01*
X1135Y990D01*
X1133Y981D01*
X1135Y973D01*
X1139Y966D01*
X1147Y961D01*
X1155Y959D01*
X1163Y961D01*
X1171Y966D01*
X1171Y967D01*
X1189D01*
Y951D01*
X1291D01*
Y1022D01*
D02*
G37*
G36*
X1114D02*
X1012D01*
Y996D01*
X991D01*
X991Y997D01*
X983Y1002D01*
X975Y1003D01*
X967Y1002D01*
X959Y997D01*
X955Y990D01*
X953Y981D01*
X955Y973D01*
X959Y966D01*
X967Y961D01*
X975Y959D01*
X983Y961D01*
X991Y966D01*
X991Y967D01*
X1012D01*
Y951D01*
X1114D01*
Y1022D01*
D02*
G37*
G36*
X937D02*
X835D01*
Y996D01*
X811D01*
X811Y997D01*
X803Y1002D01*
X795Y1003D01*
X787Y1002D01*
X779Y997D01*
X775Y990D01*
X773Y981D01*
X775Y973D01*
X779Y966D01*
X787Y961D01*
X795Y959D01*
X803Y961D01*
X811Y966D01*
X811Y967D01*
X835D01*
Y951D01*
X937D01*
Y1022D01*
D02*
G37*
G36*
X760D02*
X657D01*
Y996D01*
X636D01*
X636Y997D01*
X628Y1002D01*
X620Y1003D01*
X612Y1002D01*
X604Y997D01*
X600Y990D01*
X598Y981D01*
X600Y973D01*
X604Y966D01*
X612Y961D01*
X620Y959D01*
X628Y961D01*
X636Y966D01*
X636Y967D01*
X657D01*
Y951D01*
X760D01*
Y1022D01*
D02*
G37*
G36*
X583D02*
X480D01*
Y996D01*
X461D01*
X461Y997D01*
X453Y1002D01*
X445Y1003D01*
X437Y1002D01*
X429Y997D01*
X425Y990D01*
X423Y981D01*
X425Y973D01*
X429Y966D01*
X437Y961D01*
X445Y959D01*
X453Y961D01*
X461Y966D01*
X461Y967D01*
X480D01*
Y951D01*
X583D01*
Y1022D01*
D02*
G37*
G36*
X406D02*
X303D01*
Y996D01*
X286D01*
X286Y997D01*
X278Y1002D01*
X270Y1003D01*
X262Y1002D01*
X254Y997D01*
X250Y990D01*
X248Y981D01*
X250Y973D01*
X254Y966D01*
X262Y961D01*
X270Y959D01*
X278Y961D01*
X286Y966D01*
X286Y967D01*
X303D01*
Y951D01*
X406D01*
Y1022D01*
D02*
G37*
G36*
X228D02*
X126D01*
Y996D01*
X106D01*
X106Y997D01*
X98Y1002D01*
X90Y1003D01*
X82Y1002D01*
X74Y997D01*
X70Y990D01*
X68Y981D01*
X70Y973D01*
X74Y966D01*
X82Y961D01*
X90Y959D01*
X98Y961D01*
X106Y966D01*
X106Y967D01*
X126D01*
Y951D01*
X228D01*
Y1022D01*
D02*
G37*
G36*
X51Y1023D02*
X-51D01*
Y996D01*
X-104D01*
X-104Y997D01*
X-112Y1002D01*
X-120Y1003D01*
X-128Y1002D01*
X-136Y997D01*
X-140Y990D01*
X-142Y981D01*
X-140Y973D01*
X-136Y966D01*
X-128Y961D01*
X-120Y959D01*
X-112Y961D01*
X-104Y966D01*
X-104Y967D01*
X-51D01*
Y952D01*
X51D01*
Y1023D01*
D02*
G37*
G36*
X-975Y957D02*
X-983Y955D01*
X-991Y951D01*
X-995Y943D01*
X-997Y935D01*
X-995Y928D01*
X-1009Y914D01*
X-1012Y918D01*
X-1010Y922D01*
X-1008Y930D01*
X-1010Y938D01*
X-1014Y946D01*
X-1022Y950D01*
X-1030Y952D01*
X-1038Y950D01*
X-1046Y946D01*
X-1050Y938D01*
X-1052Y930D01*
X-1050Y923D01*
X-1080Y893D01*
X-1141D01*
X-1145Y892D01*
X-1148Y890D01*
X-1150Y887D01*
X-1151Y884D01*
X-1150Y880D01*
X-1148Y877D01*
X-1145Y875D01*
X-1141Y875D01*
X-1076D01*
X-1073Y875D01*
X-1070Y877D01*
X-1037Y910D01*
X-1030Y908D01*
X-1022Y910D01*
X-1018Y912D01*
X-1014Y909D01*
X-1055Y868D01*
X-1141D01*
X-1145Y867D01*
X-1148Y865D01*
X-1150Y862D01*
X-1151Y858D01*
X-1150Y855D01*
X-1148Y852D01*
X-1145Y850D01*
X-1141Y849D01*
X-1052D01*
X-1048Y850D01*
X-1045Y852D01*
X-982Y915D01*
X-975Y913D01*
X-967Y915D01*
X-959Y919D01*
X-955Y927D01*
X-953Y935D01*
X-955Y943D01*
X-959Y951D01*
X-967Y955D01*
X-975Y957D01*
D02*
G37*
G36*
X-467Y956D02*
X-538D01*
X-541Y955D01*
X-543Y954D01*
X-545Y952D01*
X-545Y949D01*
Y931D01*
X-545Y928D01*
X-543Y926D01*
X-541Y925D01*
X-538Y924D01*
X-467D01*
X-464Y925D01*
X-462Y926D01*
X-460Y928D01*
X-460Y931D01*
X-259D01*
X-196Y868D01*
X-193Y866D01*
X-190Y866D01*
X-51D01*
Y839D01*
X51D01*
Y862D01*
X126D01*
Y838D01*
X228D01*
Y862D01*
X303D01*
Y838D01*
X406D01*
Y862D01*
X480D01*
Y838D01*
X583D01*
Y862D01*
X657D01*
Y838D01*
X760D01*
Y862D01*
X835D01*
Y838D01*
X937D01*
Y862D01*
X1012D01*
Y838D01*
X1114D01*
Y862D01*
X1189D01*
Y838D01*
X1291D01*
Y862D01*
X1366D01*
Y838D01*
X1469D01*
Y862D01*
X1543D01*
Y838D01*
X1646D01*
Y862D01*
X1720D01*
Y838D01*
X1823D01*
Y862D01*
X1898D01*
Y838D01*
X2000D01*
Y862D01*
X2075D01*
Y838D01*
X2177D01*
Y862D01*
X2252D01*
Y838D01*
X2354D01*
Y862D01*
X2429D01*
Y838D01*
X2532D01*
Y862D01*
X2606D01*
Y838D01*
X2709D01*
Y862D01*
X2783D01*
Y838D01*
X2886D01*
Y862D01*
X2961D01*
Y838D01*
X3063D01*
Y862D01*
X3138D01*
Y838D01*
X3240D01*
Y862D01*
X3315D01*
Y838D01*
X3417D01*
Y862D01*
X3492D01*
Y838D01*
X3595D01*
Y862D01*
X3669D01*
Y838D01*
X3772D01*
Y862D01*
X3846D01*
Y838D01*
X3949D01*
Y862D01*
X4024D01*
Y838D01*
X4126D01*
Y909D01*
X4024D01*
Y891D01*
X3949D01*
Y909D01*
X3846D01*
Y891D01*
X3772D01*
Y909D01*
X3669D01*
Y891D01*
X3595D01*
Y909D01*
X3492D01*
Y891D01*
X3417D01*
Y909D01*
X3315D01*
Y891D01*
X3240D01*
Y909D01*
X3138D01*
Y891D01*
X3063D01*
Y909D01*
X2961D01*
Y891D01*
X2886D01*
Y909D01*
X2783D01*
Y891D01*
X2709D01*
Y909D01*
X2606D01*
Y891D01*
X2532D01*
Y909D01*
X2429D01*
Y891D01*
X2354D01*
Y909D01*
X2252D01*
Y891D01*
X2177D01*
Y909D01*
X2075D01*
Y891D01*
X2000D01*
Y909D01*
X1898D01*
Y891D01*
X1823D01*
Y909D01*
X1720D01*
Y891D01*
X1646D01*
Y909D01*
X1543D01*
Y891D01*
X1469D01*
Y909D01*
X1366D01*
Y891D01*
X1291D01*
Y909D01*
X1189D01*
Y891D01*
X1114D01*
Y909D01*
X1012D01*
Y891D01*
X937D01*
Y909D01*
X835D01*
Y891D01*
X760D01*
Y909D01*
X657D01*
Y891D01*
X583D01*
Y909D01*
X480D01*
Y891D01*
X406D01*
Y909D01*
X303D01*
Y891D01*
X228D01*
Y909D01*
X126D01*
Y891D01*
X51D01*
Y910D01*
X-51D01*
Y884D01*
X-186D01*
X-249Y946D01*
X-251Y948D01*
X-255Y949D01*
X-460D01*
X-460Y952D01*
X-462Y954D01*
X-464Y955D01*
X-467Y956D01*
D02*
G37*
G36*
X-775Y865D02*
X-783Y863D01*
X-791Y858D01*
X-795Y851D01*
X-797Y843D01*
X-795Y834D01*
X-791Y827D01*
X-783Y823D01*
X-775Y821D01*
X-767Y823D01*
X-759Y827D01*
X-755Y834D01*
X-740D01*
Y831D01*
X-740Y828D01*
X-738Y826D01*
X-736Y825D01*
X-733Y824D01*
X-662D01*
X-659Y825D01*
X-657Y826D01*
X-655Y828D01*
X-655Y831D01*
Y849D01*
X-655Y852D01*
X-657Y854D01*
X-659Y855D01*
X-662Y856D01*
X-733D01*
X-736Y855D01*
X-738Y854D01*
X-740Y852D01*
X-755D01*
X-759Y858D01*
X-767Y863D01*
X-775Y865D01*
D02*
G37*
G36*
X-1190Y887D02*
X-1198Y885D01*
X-1206Y881D01*
X-1210Y873D01*
X-1212Y865D01*
X-1210Y857D01*
X-1206Y849D01*
X-1198Y845D01*
X-1190Y843D01*
X-1183Y845D01*
X-1165Y827D01*
X-1162Y825D01*
X-1159Y825D01*
X-1146D01*
X-1145Y824D01*
X-1141Y824D01*
X-1096D01*
X-1093Y824D01*
X-1090Y826D01*
X-1088Y829D01*
X-1087Y833D01*
X-1088Y836D01*
X-1090Y839D01*
X-1093Y841D01*
X-1096Y842D01*
X-1116D01*
X-1116Y842D01*
X-1120Y843D01*
X-1155D01*
X-1170Y858D01*
X-1168Y865D01*
X-1170Y873D01*
X-1174Y881D01*
X-1182Y885D01*
X-1190Y887D01*
D02*
G37*
G36*
X-1415Y855D02*
X-1423Y853D01*
X-1431Y848D01*
X-1435Y841D01*
X-1437Y833D01*
X-1435Y824D01*
X-1431Y817D01*
X-1423Y813D01*
X-1415Y811D01*
X-1407Y813D01*
X-1399Y817D01*
X-1395Y824D01*
X-1329D01*
X-1325Y824D01*
X-1322Y826D01*
X-1320Y829D01*
X-1319Y833D01*
X-1320Y836D01*
X-1322Y839D01*
X-1325Y841D01*
X-1329Y842D01*
X-1395D01*
X-1399Y848D01*
X-1407Y853D01*
X-1415Y855D01*
D02*
G37*
G36*
X-1286Y829D02*
X-1294Y827D01*
X-1302Y823D01*
X-1306Y816D01*
X-1374D01*
X-1377Y816D01*
X-1380Y814D01*
X-1382Y811D01*
X-1383Y807D01*
X-1382Y804D01*
X-1380Y801D01*
X-1377Y799D01*
X-1374Y798D01*
X-1306D01*
X-1302Y792D01*
X-1294Y787D01*
X-1286Y785D01*
X-1278Y787D01*
X-1271Y792D01*
X-1266Y799D01*
X-1264Y807D01*
X-1266Y816D01*
X-1271Y823D01*
X-1278Y827D01*
X-1286Y829D01*
D02*
G37*
G36*
X-775Y813D02*
X-783Y812D01*
X-791Y807D01*
X-795Y800D01*
X-797Y792D01*
X-795Y783D01*
X-791Y776D01*
X-783Y771D01*
X-775Y770D01*
X-767Y771D01*
X-759Y776D01*
X-755Y782D01*
X-740D01*
Y781D01*
X-740Y778D01*
X-738Y776D01*
X-736Y775D01*
X-733Y774D01*
X-662D01*
X-659Y775D01*
X-657Y776D01*
X-655Y778D01*
X-655Y781D01*
Y799D01*
X-655Y802D01*
X-657Y804D01*
X-659Y805D01*
X-662Y806D01*
X-733D01*
X-736Y805D01*
X-738Y804D01*
X-740Y802D01*
X-740Y801D01*
X-755D01*
X-759Y807D01*
X-767Y812D01*
X-775Y813D01*
D02*
G37*
G36*
X-1415Y805D02*
X-1423Y803D01*
X-1431Y798D01*
X-1435Y791D01*
X-1437Y783D01*
X-1435Y774D01*
X-1431Y767D01*
X-1423Y763D01*
X-1415Y761D01*
X-1414Y761D01*
X-1412Y756D01*
X-1428Y740D01*
X-1520D01*
X-1524Y746D01*
X-1532Y751D01*
X-1540Y752D01*
X-1548Y751D01*
X-1556Y746D01*
X-1560Y739D01*
X-1562Y730D01*
X-1560Y722D01*
X-1556Y715D01*
X-1548Y710D01*
X-1540Y709D01*
X-1532Y710D01*
X-1524Y715D01*
X-1520Y721D01*
X-1431D01*
X-1429Y716D01*
X-1444Y701D01*
X-1475D01*
X-1479Y707D01*
X-1487Y712D01*
X-1495Y714D01*
X-1503Y712D01*
X-1511Y707D01*
X-1515Y700D01*
X-1517Y692D01*
X-1515Y683D01*
X-1511Y676D01*
X-1503Y672D01*
X-1495Y670D01*
X-1487Y672D01*
X-1479Y676D01*
X-1475Y683D01*
X-1440D01*
X-1437Y683D01*
X-1434Y685D01*
X-1398Y721D01*
X-1329D01*
X-1325Y722D01*
X-1322Y724D01*
X-1320Y727D01*
X-1319Y730D01*
X-1320Y734D01*
X-1322Y737D01*
X-1325Y739D01*
X-1329Y740D01*
X-1392D01*
X-1395Y745D01*
X-1393Y747D01*
X-1329D01*
X-1325Y748D01*
X-1322Y750D01*
X-1320Y753D01*
X-1319Y756D01*
X-1320Y760D01*
X-1322Y763D01*
X-1325Y765D01*
X-1329Y765D01*
X-1395D01*
X-1397Y769D01*
X-1394Y774D01*
X-1378D01*
X-1377Y773D01*
X-1374Y772D01*
X-1329D01*
X-1325Y773D01*
X-1322Y775D01*
X-1320Y778D01*
X-1319Y782D01*
X-1320Y785D01*
X-1322Y788D01*
X-1325Y790D01*
X-1329Y791D01*
X-1347D01*
X-1348Y791D01*
X-1351Y792D01*
X-1395D01*
X-1399Y798D01*
X-1407Y803D01*
X-1415Y805D01*
D02*
G37*
G36*
X4126Y782D02*
X4024D01*
Y766D01*
X4006D01*
X4006Y767D01*
X3998Y772D01*
X3990Y773D01*
X3982Y772D01*
X3974Y767D01*
X3970Y760D01*
X3968Y751D01*
X3970Y743D01*
X3974Y736D01*
X3982Y731D01*
X3990Y729D01*
X3998Y731D01*
X4006Y736D01*
X4006Y737D01*
X4024D01*
Y711D01*
X4126D01*
Y782D01*
D02*
G37*
G36*
X3949D02*
X3846D01*
Y766D01*
X3831D01*
X3831Y767D01*
X3823Y772D01*
X3815Y773D01*
X3807Y772D01*
X3799Y767D01*
X3795Y760D01*
X3793Y751D01*
X3795Y743D01*
X3799Y736D01*
X3807Y731D01*
X3815Y729D01*
X3823Y731D01*
X3831Y736D01*
X3831Y737D01*
X3846D01*
Y711D01*
X3949D01*
Y782D01*
D02*
G37*
G36*
X3772D02*
X3669D01*
Y766D01*
X3651D01*
X3651Y767D01*
X3643Y772D01*
X3635Y773D01*
X3627Y772D01*
X3619Y767D01*
X3615Y760D01*
X3613Y751D01*
X3615Y743D01*
X3619Y736D01*
X3627Y731D01*
X3635Y729D01*
X3643Y731D01*
X3651Y736D01*
X3651Y737D01*
X3669D01*
Y711D01*
X3772D01*
Y782D01*
D02*
G37*
G36*
X3595D02*
X3492D01*
Y766D01*
X3476D01*
X3476Y767D01*
X3468Y772D01*
X3460Y773D01*
X3452Y772D01*
X3444Y767D01*
X3440Y760D01*
X3438Y751D01*
X3440Y743D01*
X3444Y736D01*
X3452Y731D01*
X3460Y729D01*
X3468Y731D01*
X3476Y736D01*
X3476Y737D01*
X3492D01*
Y711D01*
X3595D01*
Y782D01*
D02*
G37*
G36*
X3417D02*
X3315D01*
Y766D01*
X3296D01*
X3296Y767D01*
X3288Y772D01*
X3280Y773D01*
X3272Y772D01*
X3264Y767D01*
X3260Y760D01*
X3258Y751D01*
X3260Y743D01*
X3264Y736D01*
X3272Y731D01*
X3280Y729D01*
X3288Y731D01*
X3296Y736D01*
X3296Y737D01*
X3315D01*
Y711D01*
X3417D01*
Y782D01*
D02*
G37*
G36*
X3240D02*
X3138D01*
Y766D01*
X3121D01*
X3121Y767D01*
X3113Y772D01*
X3105Y773D01*
X3097Y772D01*
X3089Y767D01*
X3085Y760D01*
X3083Y751D01*
X3085Y743D01*
X3089Y736D01*
X3097Y731D01*
X3105Y729D01*
X3113Y731D01*
X3121Y736D01*
X3121Y737D01*
X3138D01*
Y711D01*
X3240D01*
Y782D01*
D02*
G37*
G36*
X3063D02*
X2961D01*
Y766D01*
X2941D01*
X2941Y767D01*
X2933Y772D01*
X2925Y773D01*
X2917Y772D01*
X2909Y767D01*
X2905Y760D01*
X2903Y751D01*
X2905Y743D01*
X2909Y736D01*
X2917Y731D01*
X2925Y729D01*
X2933Y731D01*
X2941Y736D01*
X2941Y737D01*
X2961D01*
Y711D01*
X3063D01*
Y782D01*
D02*
G37*
G36*
X2886D02*
X2783D01*
Y766D01*
X2766D01*
X2766Y767D01*
X2758Y772D01*
X2750Y773D01*
X2742Y772D01*
X2734Y767D01*
X2730Y760D01*
X2728Y751D01*
X2730Y743D01*
X2734Y736D01*
X2742Y731D01*
X2750Y729D01*
X2758Y731D01*
X2766Y736D01*
X2766Y737D01*
X2783D01*
Y711D01*
X2886D01*
Y782D01*
D02*
G37*
G36*
X2709D02*
X2606D01*
Y766D01*
X2586D01*
X2586Y767D01*
X2578Y772D01*
X2570Y773D01*
X2562Y772D01*
X2554Y767D01*
X2550Y760D01*
X2548Y751D01*
X2550Y743D01*
X2554Y736D01*
X2562Y731D01*
X2570Y729D01*
X2578Y731D01*
X2586Y736D01*
X2586Y737D01*
X2606D01*
Y711D01*
X2709D01*
Y782D01*
D02*
G37*
G36*
X2532D02*
X2429D01*
Y766D01*
X2411D01*
X2411Y767D01*
X2403Y772D01*
X2395Y773D01*
X2387Y772D01*
X2379Y767D01*
X2375Y760D01*
X2373Y751D01*
X2375Y743D01*
X2379Y736D01*
X2387Y731D01*
X2395Y729D01*
X2403Y731D01*
X2411Y736D01*
X2411Y737D01*
X2429D01*
Y711D01*
X2532D01*
Y782D01*
D02*
G37*
G36*
X2354D02*
X2252D01*
Y766D01*
X2236D01*
X2236Y767D01*
X2228Y772D01*
X2220Y773D01*
X2212Y772D01*
X2204Y767D01*
X2200Y760D01*
X2198Y751D01*
X2200Y743D01*
X2204Y736D01*
X2212Y731D01*
X2220Y729D01*
X2228Y731D01*
X2236Y736D01*
X2236Y737D01*
X2252D01*
Y711D01*
X2354D01*
Y782D01*
D02*
G37*
G36*
X2177D02*
X2075D01*
Y766D01*
X2056D01*
X2056Y767D01*
X2048Y772D01*
X2040Y773D01*
X2032Y772D01*
X2024Y767D01*
X2020Y760D01*
X2018Y751D01*
X2020Y743D01*
X2024Y736D01*
X2032Y731D01*
X2040Y729D01*
X2048Y731D01*
X2056Y736D01*
X2056Y737D01*
X2075D01*
Y711D01*
X2177D01*
Y782D01*
D02*
G37*
G36*
X2000D02*
X1898D01*
Y766D01*
X1881D01*
X1881Y767D01*
X1873Y772D01*
X1865Y773D01*
X1857Y772D01*
X1849Y767D01*
X1845Y760D01*
X1843Y751D01*
X1845Y743D01*
X1849Y736D01*
X1857Y731D01*
X1865Y729D01*
X1873Y731D01*
X1881Y736D01*
X1881Y737D01*
X1898D01*
Y711D01*
X2000D01*
Y782D01*
D02*
G37*
G36*
X1823D02*
X1720D01*
Y766D01*
X1706D01*
X1706Y767D01*
X1698Y772D01*
X1690Y773D01*
X1682Y772D01*
X1674Y767D01*
X1670Y760D01*
X1668Y751D01*
X1670Y743D01*
X1674Y736D01*
X1682Y731D01*
X1690Y729D01*
X1698Y731D01*
X1706Y736D01*
X1706Y737D01*
X1720D01*
Y711D01*
X1823D01*
Y782D01*
D02*
G37*
G36*
X1646D02*
X1543D01*
Y766D01*
X1531D01*
X1531Y767D01*
X1523Y772D01*
X1515Y773D01*
X1507Y772D01*
X1499Y767D01*
X1495Y760D01*
X1493Y751D01*
X1495Y743D01*
X1499Y736D01*
X1507Y731D01*
X1515Y729D01*
X1523Y731D01*
X1531Y736D01*
X1531Y737D01*
X1543D01*
Y711D01*
X1646D01*
Y782D01*
D02*
G37*
G36*
X1469D02*
X1366D01*
Y766D01*
X1351D01*
X1351Y767D01*
X1343Y772D01*
X1335Y773D01*
X1327Y772D01*
X1319Y767D01*
X1315Y760D01*
X1313Y751D01*
X1315Y743D01*
X1319Y736D01*
X1327Y731D01*
X1335Y729D01*
X1343Y731D01*
X1351Y736D01*
X1351Y737D01*
X1366D01*
Y711D01*
X1469D01*
Y782D01*
D02*
G37*
G36*
X1291D02*
X1189D01*
Y766D01*
X1171D01*
X1171Y767D01*
X1163Y772D01*
X1155Y773D01*
X1147Y772D01*
X1139Y767D01*
X1135Y760D01*
X1133Y751D01*
X1135Y743D01*
X1139Y736D01*
X1147Y731D01*
X1155Y729D01*
X1163Y731D01*
X1171Y736D01*
X1171Y737D01*
X1189D01*
Y711D01*
X1291D01*
Y782D01*
D02*
G37*
G36*
X1114D02*
X1012D01*
Y766D01*
X991D01*
X991Y767D01*
X983Y772D01*
X975Y773D01*
X967Y772D01*
X959Y767D01*
X955Y760D01*
X953Y751D01*
X955Y743D01*
X959Y736D01*
X967Y731D01*
X975Y729D01*
X983Y731D01*
X991Y736D01*
X991Y737D01*
X1012D01*
Y711D01*
X1114D01*
Y782D01*
D02*
G37*
G36*
X937D02*
X835D01*
Y766D01*
X811D01*
X811Y767D01*
X803Y772D01*
X795Y773D01*
X787Y772D01*
X779Y767D01*
X775Y760D01*
X773Y751D01*
X775Y743D01*
X779Y736D01*
X787Y731D01*
X795Y729D01*
X803Y731D01*
X811Y736D01*
X811Y737D01*
X835D01*
Y711D01*
X937D01*
Y782D01*
D02*
G37*
G36*
X760D02*
X657D01*
Y766D01*
X636D01*
X636Y767D01*
X628Y772D01*
X620Y773D01*
X612Y772D01*
X604Y767D01*
X600Y760D01*
X598Y751D01*
X600Y743D01*
X604Y736D01*
X612Y731D01*
X620Y729D01*
X628Y731D01*
X636Y736D01*
X636Y737D01*
X657D01*
Y711D01*
X760D01*
Y782D01*
D02*
G37*
G36*
X583D02*
X480D01*
Y766D01*
X461D01*
X461Y767D01*
X453Y772D01*
X445Y773D01*
X437Y772D01*
X429Y767D01*
X425Y760D01*
X423Y751D01*
X425Y743D01*
X429Y736D01*
X437Y731D01*
X445Y729D01*
X453Y731D01*
X461Y736D01*
X461Y737D01*
X480D01*
Y711D01*
X583D01*
Y782D01*
D02*
G37*
G36*
X406D02*
X303D01*
Y766D01*
X286D01*
X286Y767D01*
X278Y772D01*
X270Y773D01*
X262Y772D01*
X254Y767D01*
X250Y760D01*
X248Y751D01*
X250Y743D01*
X254Y736D01*
X262Y731D01*
X270Y729D01*
X278Y731D01*
X286Y736D01*
X286Y737D01*
X303D01*
Y711D01*
X406D01*
Y782D01*
D02*
G37*
G36*
X228D02*
X126D01*
Y766D01*
X106D01*
X106Y767D01*
X98Y772D01*
X90Y773D01*
X82Y772D01*
X74Y767D01*
X70Y760D01*
X68Y751D01*
X70Y743D01*
X74Y736D01*
X82Y731D01*
X90Y729D01*
X98Y731D01*
X106Y736D01*
X106Y737D01*
X126D01*
Y711D01*
X228D01*
Y782D01*
D02*
G37*
G36*
X51Y789D02*
X-51D01*
Y766D01*
X-104D01*
X-104Y767D01*
X-112Y772D01*
X-120Y773D01*
X-128Y772D01*
X-136Y767D01*
X-140Y760D01*
X-142Y751D01*
X-140Y743D01*
X-136Y736D01*
X-128Y731D01*
X-120Y729D01*
X-112Y731D01*
X-104Y736D01*
X-104Y737D01*
X-51D01*
Y718D01*
X51D01*
Y789D01*
D02*
G37*
G36*
X-1190Y777D02*
X-1198Y775D01*
X-1206Y771D01*
X-1210Y763D01*
X-1212Y755D01*
X-1210Y747D01*
X-1206Y739D01*
X-1198Y735D01*
X-1190Y733D01*
X-1182Y735D01*
X-1174Y739D01*
X-1170Y746D01*
X-1120D01*
X-1116Y747D01*
X-1116Y747D01*
X-1096D01*
X-1093Y748D01*
X-1090Y750D01*
X-1088Y753D01*
X-1087Y756D01*
X-1088Y760D01*
X-1090Y763D01*
X-1093Y765D01*
X-1096Y765D01*
X-1141D01*
X-1145Y765D01*
X-1145Y764D01*
X-1170D01*
X-1174Y771D01*
X-1182Y775D01*
X-1190Y777D01*
D02*
G37*
G36*
X-865Y806D02*
X-870Y805D01*
X-875Y802D01*
X-878Y797D01*
X-879Y792D01*
Y746D01*
X-878Y741D01*
X-875Y736D01*
X-870Y733D01*
X-865Y732D01*
X-860Y733D01*
X-855Y736D01*
X-852Y741D01*
X-851Y746D01*
Y792D01*
X-852Y797D01*
X-855Y802D01*
X-860Y805D01*
X-865Y806D01*
D02*
G37*
G36*
X-950Y805D02*
X-955Y804D01*
X-960Y801D01*
X-963Y796D01*
X-964Y791D01*
Y745D01*
X-963Y740D01*
X-960Y735D01*
X-955Y732D01*
X-950Y731D01*
X-945Y732D01*
X-940Y735D01*
X-937Y740D01*
X-936Y745D01*
Y791D01*
X-937Y796D01*
X-940Y801D01*
X-945Y804D01*
X-950Y805D01*
D02*
G37*
G36*
X-775Y760D02*
X-783Y758D01*
X-791Y753D01*
X-795Y746D01*
X-797Y738D01*
X-795Y729D01*
X-791Y722D01*
X-783Y718D01*
X-775Y716D01*
X-767Y718D01*
X-759Y722D01*
X-755Y729D01*
X-740D01*
X-740Y728D01*
X-738Y726D01*
X-736Y725D01*
X-733Y724D01*
X-662D01*
X-659Y725D01*
X-657Y726D01*
X-655Y728D01*
X-655Y731D01*
Y749D01*
X-655Y752D01*
X-657Y754D01*
X-659Y755D01*
X-662Y756D01*
X-733D01*
X-736Y755D01*
X-738Y754D01*
X-740Y752D01*
X-740Y749D01*
Y747D01*
X-755D01*
X-759Y753D01*
X-767Y758D01*
X-775Y760D01*
D02*
G37*
G36*
X-1065Y740D02*
X-1141D01*
X-1145Y739D01*
X-1148Y737D01*
X-1150Y734D01*
X-1151Y730D01*
X-1150Y727D01*
X-1148Y724D01*
X-1145Y722D01*
X-1141Y721D01*
X-1069D01*
X-1047Y699D01*
X-1047Y693D01*
X-1051Y691D01*
X-1055Y683D01*
X-1056Y679D01*
X-1060Y679D01*
X-1061Y679D01*
X-1063Y682D01*
X-1087Y706D01*
X-1088Y708D01*
X-1090Y711D01*
X-1093Y713D01*
X-1096Y714D01*
X-1141D01*
X-1145Y713D01*
X-1148Y711D01*
X-1150Y708D01*
X-1151Y705D01*
X-1150Y701D01*
X-1148Y698D01*
X-1145Y696D01*
X-1141Y696D01*
X-1103D01*
X-1079Y671D01*
Y650D01*
X-1085Y646D01*
X-1090Y638D01*
X-1091Y630D01*
X-1090Y622D01*
X-1085Y614D01*
X-1078Y610D01*
X-1070Y608D01*
X-1061Y610D01*
X-1054Y614D01*
X-1049Y622D01*
X-1048Y630D01*
X-1049Y638D01*
X-1054Y646D01*
X-1060Y650D01*
Y667D01*
X-1055Y667D01*
X-1055Y667D01*
X-1051Y659D01*
X-1043Y655D01*
X-1035Y653D01*
X-1027Y655D01*
X-1019Y659D01*
X-1015Y667D01*
X-1013Y675D01*
X-1015Y683D01*
X-1019Y691D01*
X-1026Y695D01*
Y700D01*
X-1027Y704D01*
X-1029Y707D01*
X-1059Y737D01*
X-1061Y739D01*
X-1065Y740D01*
D02*
G37*
G36*
X-697Y704D02*
X-774D01*
X-779Y703D01*
X-784Y700D01*
X-787Y695D01*
X-788Y690D01*
X-787Y685D01*
X-784Y680D01*
X-779Y677D01*
X-774Y676D01*
X-697D01*
X-692Y677D01*
X-687Y680D01*
X-684Y685D01*
X-683Y690D01*
X-684Y695D01*
X-687Y700D01*
X-692Y703D01*
X-697Y704D01*
D02*
G37*
G36*
X-1329Y714D02*
X-1374D01*
X-1377Y713D01*
X-1380Y711D01*
X-1382Y708D01*
X-1383Y706D01*
X-1433Y655D01*
X-1434Y656D01*
X-1442Y660D01*
X-1450Y662D01*
X-1458Y660D01*
X-1466Y656D01*
X-1470Y648D01*
X-1472Y640D01*
X-1470Y632D01*
X-1466Y624D01*
X-1458Y620D01*
X-1450Y618D01*
X-1442Y620D01*
X-1434Y624D01*
X-1430Y632D01*
X-1429Y636D01*
X-1427Y636D01*
X-1424Y638D01*
X-1367Y696D01*
X-1329D01*
X-1325Y696D01*
X-1322Y698D01*
X-1320Y701D01*
X-1319Y705D01*
X-1320Y708D01*
X-1322Y711D01*
X-1325Y713D01*
X-1329Y714D01*
D02*
G37*
G36*
X-467Y906D02*
X-538D01*
X-541Y905D01*
X-543Y904D01*
X-545Y902D01*
X-545Y899D01*
Y881D01*
X-545Y878D01*
X-543Y876D01*
X-541Y875D01*
X-538Y874D01*
X-467D01*
X-464Y875D01*
X-462Y876D01*
X-460Y878D01*
X-460Y881D01*
X-354D01*
X-116Y644D01*
X-114Y642D01*
X-110Y641D01*
X-51D01*
Y606D01*
X51D01*
Y627D01*
X126D01*
Y598D01*
X228D01*
Y627D01*
X303D01*
Y598D01*
X406D01*
Y627D01*
X480D01*
Y598D01*
X583D01*
Y627D01*
X657D01*
Y598D01*
X760D01*
Y627D01*
X835D01*
Y598D01*
X937D01*
Y627D01*
X1012D01*
Y598D01*
X1114D01*
Y627D01*
X1189D01*
Y598D01*
X1291D01*
Y627D01*
X1366D01*
Y598D01*
X1469D01*
Y627D01*
X1543D01*
Y598D01*
X1646D01*
Y627D01*
X1720D01*
Y598D01*
X1823D01*
Y627D01*
X1898D01*
Y598D01*
X2000D01*
Y627D01*
X2075D01*
Y598D01*
X2177D01*
Y627D01*
X2252D01*
Y598D01*
X2354D01*
Y627D01*
X2429D01*
Y598D01*
X2532D01*
Y627D01*
X2606D01*
Y598D01*
X2709D01*
Y627D01*
X2783D01*
Y598D01*
X2886D01*
Y627D01*
X2961D01*
Y598D01*
X3063D01*
Y627D01*
X3138D01*
Y598D01*
X3240D01*
Y627D01*
X3315D01*
Y598D01*
X3417D01*
Y627D01*
X3492D01*
Y598D01*
X3595D01*
Y627D01*
X3669D01*
Y598D01*
X3772D01*
Y627D01*
X3846D01*
Y598D01*
X3949D01*
Y627D01*
X4024D01*
Y598D01*
X4126D01*
Y669D01*
X4024D01*
Y656D01*
X3949D01*
Y669D01*
X3846D01*
Y656D01*
X3772D01*
Y669D01*
X3669D01*
Y656D01*
X3595D01*
Y669D01*
X3492D01*
Y656D01*
X3417D01*
Y669D01*
X3315D01*
Y656D01*
X3240D01*
Y669D01*
X3138D01*
Y656D01*
X3063D01*
Y669D01*
X2961D01*
Y656D01*
X2886D01*
Y669D01*
X2783D01*
Y656D01*
X2709D01*
Y669D01*
X2606D01*
Y656D01*
X2532D01*
Y669D01*
X2429D01*
Y656D01*
X2354D01*
Y669D01*
X2252D01*
Y656D01*
X2177D01*
Y669D01*
X2075D01*
Y656D01*
X2000D01*
Y669D01*
X1898D01*
Y656D01*
X1823D01*
Y669D01*
X1720D01*
Y656D01*
X1646D01*
Y669D01*
X1543D01*
Y656D01*
X1469D01*
Y669D01*
X1366D01*
Y656D01*
X1291D01*
Y669D01*
X1189D01*
Y656D01*
X1114D01*
Y669D01*
X1012D01*
Y656D01*
X937D01*
Y669D01*
X835D01*
Y656D01*
X760D01*
Y669D01*
X657D01*
Y656D01*
X583D01*
Y669D01*
X480D01*
Y656D01*
X406D01*
Y669D01*
X303D01*
Y656D01*
X228D01*
Y669D01*
X126D01*
Y656D01*
X51D01*
Y677D01*
X-51D01*
Y659D01*
X-106D01*
X-344Y896D01*
X-346Y898D01*
X-350Y899D01*
X-460D01*
X-460Y902D01*
X-462Y904D01*
X-464Y905D01*
X-467Y906D01*
D02*
G37*
G36*
X-479Y1686D02*
X-581D01*
Y1615D01*
X-549D01*
Y1509D01*
X-622D01*
X-629Y1517D01*
Y1542D01*
X-615D01*
Y1629D01*
X-682D01*
Y1542D01*
X-668D01*
Y1509D01*
X-667Y1501D01*
X-662Y1495D01*
X-644Y1476D01*
X-637Y1472D01*
X-630Y1471D01*
X-540D01*
X-533Y1472D01*
X-526Y1476D01*
X-516Y1486D01*
X-512Y1493D01*
X-511Y1500D01*
Y1615D01*
X-479D01*
Y1632D01*
X-418D01*
Y1307D01*
X-585Y1140D01*
X-588Y1135D01*
X-589Y1130D01*
X-589Y1130D01*
Y707D01*
X-589Y707D01*
X-588Y701D01*
X-585Y697D01*
X-570Y682D01*
X-570Y682D01*
X-566Y679D01*
X-560Y678D01*
X-560Y678D01*
X-544D01*
X-543Y676D01*
X-541Y675D01*
X-538Y674D01*
X-515D01*
Y647D01*
X-526D01*
Y583D01*
X-475D01*
Y647D01*
X-486D01*
Y674D01*
X-467D01*
X-464Y675D01*
X-462Y676D01*
X-460Y678D01*
X-460Y681D01*
Y699D01*
X-460Y702D01*
X-462Y704D01*
X-464Y705D01*
X-467Y706D01*
X-504D01*
X-504Y706D01*
X-504Y706D01*
X-554D01*
X-561Y713D01*
Y1124D01*
X-394Y1291D01*
X-394Y1291D01*
X-391Y1295D01*
X-390Y1301D01*
Y1635D01*
X-389Y1635D01*
X-384Y1643D01*
X-382Y1651D01*
X-384Y1659D01*
X-389Y1666D01*
X-396Y1671D01*
X-404Y1673D01*
X-412Y1671D01*
X-414Y1670D01*
X-479D01*
Y1686D01*
D02*
G37*
G36*
X4126Y557D02*
X4024D01*
Y531D01*
X4006D01*
X4006Y532D01*
X3998Y537D01*
X3990Y538D01*
X3982Y537D01*
X3974Y532D01*
X3970Y525D01*
X3968Y516D01*
X3970Y508D01*
X3974Y501D01*
X3982Y496D01*
X3990Y494D01*
X3998Y496D01*
X4006Y501D01*
X4006Y502D01*
X4024D01*
Y486D01*
X4126D01*
Y557D01*
D02*
G37*
G36*
X3949D02*
X3846D01*
Y531D01*
X3831D01*
X3831Y532D01*
X3823Y537D01*
X3815Y538D01*
X3807Y537D01*
X3799Y532D01*
X3795Y525D01*
X3793Y516D01*
X3795Y508D01*
X3799Y501D01*
X3807Y496D01*
X3815Y494D01*
X3823Y496D01*
X3831Y501D01*
X3831Y502D01*
X3846D01*
Y486D01*
X3949D01*
Y557D01*
D02*
G37*
G36*
X3772D02*
X3669D01*
Y531D01*
X3651D01*
X3651Y532D01*
X3643Y537D01*
X3635Y538D01*
X3627Y537D01*
X3619Y532D01*
X3615Y525D01*
X3613Y516D01*
X3615Y508D01*
X3619Y501D01*
X3627Y496D01*
X3635Y494D01*
X3643Y496D01*
X3651Y501D01*
X3651Y502D01*
X3669D01*
Y486D01*
X3772D01*
Y557D01*
D02*
G37*
G36*
X3595D02*
X3492D01*
Y531D01*
X3476D01*
X3476Y532D01*
X3468Y537D01*
X3460Y538D01*
X3452Y537D01*
X3444Y532D01*
X3440Y525D01*
X3438Y516D01*
X3440Y508D01*
X3444Y501D01*
X3452Y496D01*
X3460Y494D01*
X3468Y496D01*
X3476Y501D01*
X3476Y502D01*
X3492D01*
Y486D01*
X3595D01*
Y557D01*
D02*
G37*
G36*
X3417D02*
X3315D01*
Y531D01*
X3296D01*
X3296Y532D01*
X3288Y537D01*
X3280Y538D01*
X3272Y537D01*
X3264Y532D01*
X3260Y525D01*
X3258Y516D01*
X3260Y508D01*
X3264Y501D01*
X3272Y496D01*
X3280Y494D01*
X3288Y496D01*
X3296Y501D01*
X3296Y502D01*
X3315D01*
Y486D01*
X3417D01*
Y557D01*
D02*
G37*
G36*
X3240D02*
X3138D01*
Y531D01*
X3121D01*
X3121Y532D01*
X3113Y537D01*
X3105Y538D01*
X3097Y537D01*
X3089Y532D01*
X3085Y525D01*
X3083Y516D01*
X3085Y508D01*
X3089Y501D01*
X3097Y496D01*
X3105Y494D01*
X3113Y496D01*
X3121Y501D01*
X3121Y502D01*
X3138D01*
Y486D01*
X3240D01*
Y557D01*
D02*
G37*
G36*
X3063D02*
X2961D01*
Y531D01*
X2941D01*
X2941Y532D01*
X2933Y537D01*
X2925Y538D01*
X2917Y537D01*
X2909Y532D01*
X2905Y525D01*
X2903Y516D01*
X2905Y508D01*
X2909Y501D01*
X2917Y496D01*
X2925Y494D01*
X2933Y496D01*
X2941Y501D01*
X2941Y502D01*
X2961D01*
Y486D01*
X3063D01*
Y557D01*
D02*
G37*
G36*
X2886D02*
X2783D01*
Y531D01*
X2766D01*
X2766Y532D01*
X2758Y537D01*
X2750Y538D01*
X2742Y537D01*
X2734Y532D01*
X2730Y525D01*
X2728Y516D01*
X2730Y508D01*
X2734Y501D01*
X2742Y496D01*
X2750Y494D01*
X2758Y496D01*
X2766Y501D01*
X2766Y502D01*
X2783D01*
Y486D01*
X2886D01*
Y557D01*
D02*
G37*
G36*
X2709D02*
X2606D01*
Y531D01*
X2586D01*
X2586Y532D01*
X2578Y537D01*
X2570Y538D01*
X2562Y537D01*
X2554Y532D01*
X2550Y525D01*
X2548Y516D01*
X2550Y508D01*
X2554Y501D01*
X2562Y496D01*
X2570Y494D01*
X2578Y496D01*
X2586Y501D01*
X2586Y502D01*
X2606D01*
Y486D01*
X2709D01*
Y557D01*
D02*
G37*
G36*
X2532D02*
X2429D01*
Y531D01*
X2411D01*
X2411Y532D01*
X2403Y537D01*
X2395Y538D01*
X2387Y537D01*
X2379Y532D01*
X2375Y525D01*
X2373Y516D01*
X2375Y508D01*
X2379Y501D01*
X2387Y496D01*
X2395Y494D01*
X2403Y496D01*
X2411Y501D01*
X2411Y502D01*
X2429D01*
Y486D01*
X2532D01*
Y557D01*
D02*
G37*
G36*
X2354D02*
X2252D01*
Y531D01*
X2236D01*
X2236Y532D01*
X2228Y537D01*
X2220Y538D01*
X2212Y537D01*
X2204Y532D01*
X2200Y525D01*
X2198Y516D01*
X2200Y508D01*
X2204Y501D01*
X2212Y496D01*
X2220Y494D01*
X2228Y496D01*
X2236Y501D01*
X2236Y502D01*
X2252D01*
Y486D01*
X2354D01*
Y557D01*
D02*
G37*
G36*
X2177D02*
X2075D01*
Y531D01*
X2056D01*
X2056Y532D01*
X2048Y537D01*
X2040Y538D01*
X2032Y537D01*
X2024Y532D01*
X2020Y525D01*
X2018Y516D01*
X2020Y508D01*
X2024Y501D01*
X2032Y496D01*
X2040Y494D01*
X2048Y496D01*
X2056Y501D01*
X2056Y502D01*
X2075D01*
Y486D01*
X2177D01*
Y557D01*
D02*
G37*
G36*
X2000D02*
X1898D01*
Y531D01*
X1881D01*
X1881Y532D01*
X1873Y537D01*
X1865Y538D01*
X1857Y537D01*
X1849Y532D01*
X1845Y525D01*
X1843Y516D01*
X1845Y508D01*
X1849Y501D01*
X1857Y496D01*
X1865Y494D01*
X1873Y496D01*
X1881Y501D01*
X1881Y502D01*
X1898D01*
Y486D01*
X2000D01*
Y557D01*
D02*
G37*
G36*
X1823D02*
X1720D01*
Y531D01*
X1706D01*
X1706Y532D01*
X1698Y537D01*
X1690Y538D01*
X1682Y537D01*
X1674Y532D01*
X1670Y525D01*
X1668Y516D01*
X1670Y508D01*
X1674Y501D01*
X1682Y496D01*
X1690Y494D01*
X1698Y496D01*
X1706Y501D01*
X1706Y502D01*
X1720D01*
Y486D01*
X1823D01*
Y557D01*
D02*
G37*
G36*
X1646D02*
X1543D01*
Y531D01*
X1531D01*
X1531Y532D01*
X1523Y537D01*
X1515Y538D01*
X1507Y537D01*
X1499Y532D01*
X1495Y525D01*
X1493Y516D01*
X1495Y508D01*
X1499Y501D01*
X1507Y496D01*
X1515Y494D01*
X1523Y496D01*
X1531Y501D01*
X1531Y502D01*
X1543D01*
Y486D01*
X1646D01*
Y557D01*
D02*
G37*
G36*
X1469D02*
X1366D01*
Y531D01*
X1351D01*
X1351Y532D01*
X1343Y537D01*
X1335Y538D01*
X1327Y537D01*
X1319Y532D01*
X1315Y525D01*
X1313Y516D01*
X1315Y508D01*
X1319Y501D01*
X1327Y496D01*
X1335Y494D01*
X1343Y496D01*
X1351Y501D01*
X1351Y502D01*
X1366D01*
Y486D01*
X1469D01*
Y557D01*
D02*
G37*
G36*
X1291D02*
X1189D01*
Y531D01*
X1171D01*
X1171Y532D01*
X1163Y537D01*
X1155Y538D01*
X1147Y537D01*
X1139Y532D01*
X1135Y525D01*
X1133Y516D01*
X1135Y508D01*
X1139Y501D01*
X1147Y496D01*
X1155Y494D01*
X1163Y496D01*
X1171Y501D01*
X1171Y502D01*
X1189D01*
Y486D01*
X1291D01*
Y557D01*
D02*
G37*
G36*
X1114D02*
X1012D01*
Y531D01*
X991D01*
X991Y532D01*
X983Y537D01*
X975Y538D01*
X967Y537D01*
X959Y532D01*
X955Y525D01*
X953Y516D01*
X955Y508D01*
X959Y501D01*
X967Y496D01*
X975Y494D01*
X983Y496D01*
X991Y501D01*
X991Y502D01*
X1012D01*
Y486D01*
X1114D01*
Y557D01*
D02*
G37*
G36*
X937D02*
X835D01*
Y531D01*
X811D01*
X811Y532D01*
X803Y537D01*
X795Y538D01*
X787Y537D01*
X779Y532D01*
X775Y525D01*
X773Y516D01*
X775Y508D01*
X779Y501D01*
X787Y496D01*
X795Y494D01*
X803Y496D01*
X811Y501D01*
X811Y502D01*
X835D01*
Y486D01*
X937D01*
Y557D01*
D02*
G37*
G36*
X760D02*
X657D01*
Y531D01*
X636D01*
X636Y532D01*
X628Y537D01*
X620Y538D01*
X612Y537D01*
X604Y532D01*
X600Y525D01*
X598Y516D01*
X600Y508D01*
X604Y501D01*
X612Y496D01*
X620Y494D01*
X628Y496D01*
X636Y501D01*
X636Y502D01*
X657D01*
Y486D01*
X760D01*
Y557D01*
D02*
G37*
G36*
X583D02*
X480D01*
Y531D01*
X461D01*
X461Y532D01*
X453Y537D01*
X445Y538D01*
X437Y537D01*
X429Y532D01*
X425Y525D01*
X423Y516D01*
X425Y508D01*
X429Y501D01*
X437Y496D01*
X445Y494D01*
X453Y496D01*
X461Y501D01*
X461Y502D01*
X480D01*
Y486D01*
X583D01*
Y557D01*
D02*
G37*
G36*
X406D02*
X303D01*
Y531D01*
X286D01*
X286Y532D01*
X278Y537D01*
X270Y538D01*
X262Y537D01*
X254Y532D01*
X250Y525D01*
X248Y516D01*
X250Y508D01*
X254Y501D01*
X262Y496D01*
X270Y494D01*
X278Y496D01*
X286Y501D01*
X286Y502D01*
X303D01*
Y486D01*
X406D01*
Y557D01*
D02*
G37*
G36*
X228D02*
X126D01*
Y531D01*
X106D01*
X106Y532D01*
X98Y537D01*
X90Y538D01*
X82Y537D01*
X74Y532D01*
X70Y525D01*
X68Y516D01*
X70Y508D01*
X74Y501D01*
X82Y496D01*
X90Y494D01*
X98Y496D01*
X106Y501D01*
X106Y502D01*
X126D01*
Y486D01*
X228D01*
Y557D01*
D02*
G37*
G36*
X51Y556D02*
X-51D01*
Y531D01*
X-104D01*
X-104Y532D01*
X-112Y537D01*
X-120Y538D01*
X-128Y537D01*
X-136Y532D01*
X-140Y525D01*
X-142Y516D01*
X-140Y508D01*
X-136Y501D01*
X-128Y496D01*
X-120Y494D01*
X-112Y496D01*
X-104Y501D01*
X-104Y502D01*
X-51D01*
Y485D01*
X51D01*
Y556D01*
D02*
G37*
G36*
X-570Y629D02*
X-575Y628D01*
X-580Y625D01*
X-583Y620D01*
X-584Y615D01*
Y540D01*
X-583Y535D01*
X-580Y530D01*
X-575Y527D01*
X-570Y526D01*
X-565Y527D01*
X-560Y530D01*
X-557Y535D01*
X-556Y540D01*
Y615D01*
X-557Y620D01*
X-560Y625D01*
X-565Y628D01*
X-570Y629D01*
D02*
G37*
G36*
X-467Y856D02*
X-538D01*
X-541Y855D01*
X-543Y854D01*
X-545Y852D01*
X-545Y849D01*
Y831D01*
X-545Y828D01*
X-543Y826D01*
X-541Y825D01*
X-538Y824D01*
X-467D01*
X-464Y825D01*
X-462Y826D01*
X-460Y828D01*
X-460Y831D01*
X-379D01*
X-179Y631D01*
Y420D01*
X-178Y416D01*
X-176Y414D01*
X-165Y402D01*
X-162Y400D01*
X-158Y399D01*
X-51D01*
Y373D01*
X51D01*
Y397D01*
X126D01*
Y373D01*
X228D01*
Y397D01*
X303D01*
Y373D01*
X406D01*
Y397D01*
X480D01*
Y373D01*
X583D01*
Y397D01*
X657D01*
Y373D01*
X760D01*
Y397D01*
X835D01*
Y373D01*
X937D01*
Y397D01*
X1012D01*
Y373D01*
X1114D01*
Y397D01*
X1189D01*
Y373D01*
X1291D01*
Y397D01*
X1366D01*
Y373D01*
X1469D01*
Y397D01*
X1543D01*
Y373D01*
X1646D01*
Y397D01*
X1720D01*
Y373D01*
X1823D01*
Y397D01*
X1898D01*
Y373D01*
X2000D01*
Y397D01*
X2075D01*
Y373D01*
X2177D01*
Y397D01*
X2252D01*
Y373D01*
X2354D01*
Y397D01*
X2429D01*
Y373D01*
X2532D01*
Y397D01*
X2606D01*
Y373D01*
X2709D01*
Y397D01*
X2783D01*
Y373D01*
X2886D01*
Y397D01*
X2961D01*
Y373D01*
X3063D01*
Y397D01*
X3138D01*
Y373D01*
X3240D01*
Y397D01*
X3315D01*
Y373D01*
X3417D01*
Y397D01*
X3492D01*
Y373D01*
X3595D01*
Y397D01*
X3669D01*
Y373D01*
X3772D01*
Y397D01*
X3846D01*
Y373D01*
X3949D01*
Y397D01*
X4024D01*
Y373D01*
X4126D01*
Y444D01*
X4024D01*
Y426D01*
X3949D01*
Y444D01*
X3846D01*
Y426D01*
X3772D01*
Y444D01*
X3669D01*
Y426D01*
X3595D01*
Y444D01*
X3492D01*
Y426D01*
X3417D01*
Y444D01*
X3315D01*
Y426D01*
X3240D01*
Y444D01*
X3138D01*
Y426D01*
X3063D01*
Y444D01*
X2961D01*
Y426D01*
X2886D01*
Y444D01*
X2783D01*
Y426D01*
X2709D01*
Y444D01*
X2606D01*
Y426D01*
X2532D01*
Y444D01*
X2429D01*
Y426D01*
X2354D01*
Y444D01*
X2252D01*
Y426D01*
X2177D01*
Y444D01*
X2075D01*
Y426D01*
X2000D01*
Y444D01*
X1898D01*
Y426D01*
X1823D01*
Y444D01*
X1720D01*
Y426D01*
X1646D01*
Y444D01*
X1543D01*
Y426D01*
X1469D01*
Y444D01*
X1366D01*
Y426D01*
X1291D01*
Y444D01*
X1189D01*
Y426D01*
X1114D01*
Y444D01*
X1012D01*
Y426D01*
X937D01*
Y444D01*
X835D01*
Y426D01*
X760D01*
Y444D01*
X657D01*
Y426D01*
X583D01*
Y444D01*
X480D01*
Y426D01*
X406D01*
Y444D01*
X303D01*
Y426D01*
X228D01*
Y444D01*
X126D01*
Y426D01*
X51D01*
Y444D01*
X-51D01*
Y417D01*
X-154D01*
X-161Y424D01*
Y635D01*
X-162Y639D01*
X-164Y641D01*
X-369Y846D01*
X-371Y848D01*
X-375Y849D01*
X-460D01*
X-460Y852D01*
X-462Y854D01*
X-464Y855D01*
X-467Y856D01*
D02*
G37*
G36*
X4126Y327D02*
X4024D01*
Y301D01*
X4006D01*
X4006Y302D01*
X3998Y307D01*
X3990Y308D01*
X3982Y307D01*
X3974Y302D01*
X3970Y295D01*
X3968Y286D01*
X3970Y278D01*
X3974Y271D01*
X3982Y266D01*
X3990Y264D01*
X3998Y266D01*
X4006Y271D01*
X4006Y272D01*
X4024D01*
Y256D01*
X4126D01*
Y327D01*
D02*
G37*
G36*
X3949D02*
X3846D01*
Y301D01*
X3831D01*
X3831Y302D01*
X3823Y307D01*
X3815Y308D01*
X3807Y307D01*
X3799Y302D01*
X3795Y295D01*
X3793Y286D01*
X3795Y278D01*
X3799Y271D01*
X3807Y266D01*
X3815Y264D01*
X3823Y266D01*
X3831Y271D01*
X3831Y272D01*
X3846D01*
Y256D01*
X3949D01*
Y327D01*
D02*
G37*
G36*
X3772D02*
X3669D01*
Y301D01*
X3651D01*
X3651Y302D01*
X3643Y307D01*
X3635Y308D01*
X3627Y307D01*
X3619Y302D01*
X3615Y295D01*
X3613Y286D01*
X3615Y278D01*
X3619Y271D01*
X3627Y266D01*
X3635Y264D01*
X3643Y266D01*
X3651Y271D01*
X3651Y272D01*
X3669D01*
Y256D01*
X3772D01*
Y327D01*
D02*
G37*
G36*
X3595D02*
X3492D01*
Y301D01*
X3476D01*
X3476Y302D01*
X3468Y307D01*
X3460Y308D01*
X3452Y307D01*
X3444Y302D01*
X3440Y295D01*
X3438Y286D01*
X3440Y278D01*
X3444Y271D01*
X3452Y266D01*
X3460Y264D01*
X3468Y266D01*
X3476Y271D01*
X3476Y272D01*
X3492D01*
Y256D01*
X3595D01*
Y327D01*
D02*
G37*
G36*
X3417D02*
X3315D01*
Y301D01*
X3296D01*
X3296Y302D01*
X3288Y307D01*
X3280Y308D01*
X3272Y307D01*
X3264Y302D01*
X3260Y295D01*
X3258Y286D01*
X3260Y278D01*
X3264Y271D01*
X3272Y266D01*
X3280Y264D01*
X3288Y266D01*
X3296Y271D01*
X3296Y272D01*
X3315D01*
Y256D01*
X3417D01*
Y327D01*
D02*
G37*
G36*
X3240D02*
X3138D01*
Y301D01*
X3121D01*
X3121Y302D01*
X3113Y307D01*
X3105Y308D01*
X3097Y307D01*
X3089Y302D01*
X3085Y295D01*
X3083Y286D01*
X3085Y278D01*
X3089Y271D01*
X3097Y266D01*
X3105Y264D01*
X3113Y266D01*
X3121Y271D01*
X3121Y272D01*
X3138D01*
Y256D01*
X3240D01*
Y327D01*
D02*
G37*
G36*
X3063D02*
X2961D01*
Y301D01*
X2941D01*
X2941Y302D01*
X2933Y307D01*
X2925Y308D01*
X2917Y307D01*
X2909Y302D01*
X2905Y295D01*
X2903Y286D01*
X2905Y278D01*
X2909Y271D01*
X2917Y266D01*
X2925Y264D01*
X2933Y266D01*
X2941Y271D01*
X2941Y272D01*
X2961D01*
Y256D01*
X3063D01*
Y327D01*
D02*
G37*
G36*
X2886D02*
X2783D01*
Y301D01*
X2766D01*
X2766Y302D01*
X2758Y307D01*
X2750Y308D01*
X2742Y307D01*
X2734Y302D01*
X2730Y295D01*
X2728Y286D01*
X2730Y278D01*
X2734Y271D01*
X2742Y266D01*
X2750Y264D01*
X2758Y266D01*
X2766Y271D01*
X2766Y272D01*
X2783D01*
Y256D01*
X2886D01*
Y327D01*
D02*
G37*
G36*
X2709D02*
X2606D01*
Y301D01*
X2586D01*
X2586Y302D01*
X2578Y307D01*
X2570Y308D01*
X2562Y307D01*
X2554Y302D01*
X2550Y295D01*
X2548Y286D01*
X2550Y278D01*
X2554Y271D01*
X2562Y266D01*
X2570Y264D01*
X2578Y266D01*
X2586Y271D01*
X2586Y272D01*
X2606D01*
Y256D01*
X2709D01*
Y327D01*
D02*
G37*
G36*
X2532D02*
X2429D01*
Y301D01*
X2411D01*
X2411Y302D01*
X2403Y307D01*
X2395Y308D01*
X2387Y307D01*
X2379Y302D01*
X2375Y295D01*
X2373Y286D01*
X2375Y278D01*
X2379Y271D01*
X2387Y266D01*
X2395Y264D01*
X2403Y266D01*
X2411Y271D01*
X2411Y272D01*
X2429D01*
Y256D01*
X2532D01*
Y327D01*
D02*
G37*
G36*
X2354D02*
X2252D01*
Y301D01*
X2236D01*
X2236Y302D01*
X2228Y307D01*
X2220Y308D01*
X2212Y307D01*
X2204Y302D01*
X2200Y295D01*
X2198Y286D01*
X2200Y278D01*
X2204Y271D01*
X2212Y266D01*
X2220Y264D01*
X2228Y266D01*
X2236Y271D01*
X2236Y272D01*
X2252D01*
Y256D01*
X2354D01*
Y327D01*
D02*
G37*
G36*
X2177D02*
X2075D01*
Y301D01*
X2056D01*
X2056Y302D01*
X2048Y307D01*
X2040Y308D01*
X2032Y307D01*
X2024Y302D01*
X2020Y295D01*
X2018Y286D01*
X2020Y278D01*
X2024Y271D01*
X2032Y266D01*
X2040Y264D01*
X2048Y266D01*
X2056Y271D01*
X2056Y272D01*
X2075D01*
Y256D01*
X2177D01*
Y327D01*
D02*
G37*
G36*
X2000D02*
X1898D01*
Y301D01*
X1881D01*
X1881Y302D01*
X1873Y307D01*
X1865Y308D01*
X1857Y307D01*
X1849Y302D01*
X1845Y295D01*
X1843Y286D01*
X1845Y278D01*
X1849Y271D01*
X1857Y266D01*
X1865Y264D01*
X1873Y266D01*
X1881Y271D01*
X1881Y272D01*
X1898D01*
Y256D01*
X2000D01*
Y327D01*
D02*
G37*
G36*
X1823D02*
X1720D01*
Y301D01*
X1706D01*
X1706Y302D01*
X1698Y307D01*
X1690Y308D01*
X1682Y307D01*
X1674Y302D01*
X1670Y295D01*
X1668Y286D01*
X1670Y278D01*
X1674Y271D01*
X1682Y266D01*
X1690Y264D01*
X1698Y266D01*
X1706Y271D01*
X1706Y272D01*
X1720D01*
Y256D01*
X1823D01*
Y327D01*
D02*
G37*
G36*
X1646D02*
X1543D01*
Y301D01*
X1531D01*
X1531Y302D01*
X1523Y307D01*
X1515Y308D01*
X1507Y307D01*
X1499Y302D01*
X1495Y295D01*
X1493Y286D01*
X1495Y278D01*
X1499Y271D01*
X1507Y266D01*
X1515Y264D01*
X1523Y266D01*
X1531Y271D01*
X1531Y272D01*
X1543D01*
Y256D01*
X1646D01*
Y327D01*
D02*
G37*
G36*
X1469D02*
X1366D01*
Y301D01*
X1351D01*
X1351Y302D01*
X1343Y307D01*
X1335Y308D01*
X1327Y307D01*
X1319Y302D01*
X1315Y295D01*
X1313Y286D01*
X1315Y278D01*
X1319Y271D01*
X1327Y266D01*
X1335Y264D01*
X1343Y266D01*
X1351Y271D01*
X1351Y272D01*
X1366D01*
Y256D01*
X1469D01*
Y327D01*
D02*
G37*
G36*
X1291D02*
X1189D01*
Y301D01*
X1171D01*
X1171Y302D01*
X1163Y307D01*
X1155Y308D01*
X1147Y307D01*
X1139Y302D01*
X1135Y295D01*
X1133Y286D01*
X1135Y278D01*
X1139Y271D01*
X1147Y266D01*
X1155Y264D01*
X1163Y266D01*
X1171Y271D01*
X1171Y272D01*
X1189D01*
Y256D01*
X1291D01*
Y327D01*
D02*
G37*
G36*
X1114D02*
X1012D01*
Y301D01*
X991D01*
X991Y302D01*
X983Y307D01*
X975Y308D01*
X967Y307D01*
X959Y302D01*
X955Y295D01*
X953Y286D01*
X955Y278D01*
X959Y271D01*
X967Y266D01*
X975Y264D01*
X983Y266D01*
X991Y271D01*
X991Y272D01*
X1012D01*
Y256D01*
X1114D01*
Y327D01*
D02*
G37*
G36*
X937D02*
X835D01*
Y301D01*
X811D01*
X811Y302D01*
X803Y307D01*
X795Y308D01*
X787Y307D01*
X779Y302D01*
X775Y295D01*
X773Y286D01*
X775Y278D01*
X779Y271D01*
X787Y266D01*
X795Y264D01*
X803Y266D01*
X811Y271D01*
X811Y272D01*
X835D01*
Y256D01*
X937D01*
Y327D01*
D02*
G37*
G36*
X760D02*
X657D01*
Y301D01*
X636D01*
X636Y302D01*
X628Y307D01*
X620Y308D01*
X612Y307D01*
X604Y302D01*
X600Y295D01*
X598Y286D01*
X600Y278D01*
X604Y271D01*
X612Y266D01*
X620Y264D01*
X628Y266D01*
X636Y271D01*
X636Y272D01*
X657D01*
Y256D01*
X760D01*
Y327D01*
D02*
G37*
G36*
X583D02*
X480D01*
Y301D01*
X461D01*
X461Y302D01*
X453Y307D01*
X445Y308D01*
X437Y307D01*
X429Y302D01*
X425Y295D01*
X423Y286D01*
X425Y278D01*
X429Y271D01*
X437Y266D01*
X445Y264D01*
X453Y266D01*
X461Y271D01*
X461Y272D01*
X480D01*
Y256D01*
X583D01*
Y327D01*
D02*
G37*
G36*
X406D02*
X303D01*
Y301D01*
X286D01*
X286Y302D01*
X278Y307D01*
X270Y308D01*
X262Y307D01*
X254Y302D01*
X250Y295D01*
X248Y286D01*
X250Y278D01*
X254Y271D01*
X262Y266D01*
X270Y264D01*
X278Y266D01*
X286Y271D01*
X286Y272D01*
X303D01*
Y256D01*
X406D01*
Y327D01*
D02*
G37*
G36*
X228D02*
X126D01*
Y301D01*
X106D01*
X106Y302D01*
X98Y307D01*
X90Y308D01*
X82Y307D01*
X74Y302D01*
X70Y295D01*
X68Y286D01*
X70Y278D01*
X74Y271D01*
X82Y266D01*
X90Y264D01*
X98Y266D01*
X106Y271D01*
X106Y272D01*
X126D01*
Y256D01*
X228D01*
Y327D01*
D02*
G37*
G36*
X51Y323D02*
X-51D01*
Y301D01*
X-104D01*
X-104Y302D01*
X-112Y307D01*
X-120Y308D01*
X-128Y307D01*
X-136Y302D01*
X-140Y295D01*
X-142Y286D01*
X-140Y278D01*
X-136Y271D01*
X-128Y266D01*
X-120Y264D01*
X-112Y266D01*
X-104Y271D01*
X-104Y272D01*
X-51D01*
Y252D01*
X51D01*
Y323D01*
D02*
G37*
G36*
X-1115Y303D02*
X-1166D01*
Y274D01*
X-1218D01*
Y300D01*
X-1277D01*
Y230D01*
X-1218D01*
Y256D01*
X-1166D01*
Y237D01*
X-1115D01*
Y303D01*
D02*
G37*
G36*
X-1076Y354D02*
X-1081Y353D01*
X-1086Y350D01*
X-1089Y345D01*
X-1090Y340D01*
Y276D01*
X-1089Y271D01*
X-1086Y266D01*
X-1081Y263D01*
X-1076Y262D01*
X-1075Y262D01*
X-1073Y262D01*
X-1070Y261D01*
X-1066Y262D01*
X-1063Y264D01*
X-1061Y266D01*
X-1060Y270D01*
X-1061Y274D01*
X-1062Y275D01*
X-1062Y276D01*
Y340D01*
X-1063Y345D01*
X-1066Y350D01*
X-1071Y353D01*
X-1076Y354D01*
D02*
G37*
G36*
X-467Y806D02*
X-538D01*
X-541Y805D01*
X-543Y804D01*
X-545Y802D01*
X-545Y799D01*
Y781D01*
X-545Y778D01*
X-543Y776D01*
X-541Y775D01*
X-538Y774D01*
X-467D01*
X-464Y775D01*
X-462Y776D01*
X-460Y778D01*
X-460Y781D01*
X-399D01*
X-224Y606D01*
Y225D01*
X-223Y221D01*
X-221Y219D01*
X-178Y175D01*
X-175Y173D01*
X-171Y172D01*
X-51D01*
Y140D01*
X51D01*
Y167D01*
X126D01*
Y143D01*
X228D01*
Y167D01*
X303D01*
Y143D01*
X406D01*
Y167D01*
X480D01*
Y143D01*
X583D01*
Y167D01*
X657D01*
Y143D01*
X760D01*
Y167D01*
X835D01*
Y143D01*
X937D01*
Y167D01*
X1012D01*
Y143D01*
X1114D01*
Y167D01*
X1189D01*
Y143D01*
X1291D01*
Y167D01*
X1366D01*
Y143D01*
X1469D01*
Y167D01*
X1543D01*
Y143D01*
X1646D01*
Y167D01*
X1720D01*
Y143D01*
X1823D01*
Y167D01*
X1898D01*
Y143D01*
X2000D01*
Y167D01*
X2075D01*
Y143D01*
X2177D01*
Y167D01*
X2252D01*
Y143D01*
X2354D01*
Y167D01*
X2429D01*
Y143D01*
X2532D01*
Y167D01*
X2606D01*
Y143D01*
X2709D01*
Y167D01*
X2783D01*
Y143D01*
X2886D01*
Y167D01*
X2961D01*
Y143D01*
X3063D01*
Y167D01*
X3138D01*
Y143D01*
X3240D01*
Y167D01*
X3315D01*
Y143D01*
X3417D01*
Y167D01*
X3492D01*
Y143D01*
X3595D01*
Y167D01*
X3669D01*
Y143D01*
X3772D01*
Y167D01*
X3846D01*
Y143D01*
X3949D01*
Y167D01*
X4024D01*
Y143D01*
X4126D01*
Y214D01*
X4024D01*
Y196D01*
X3949D01*
Y214D01*
X3846D01*
Y196D01*
X3772D01*
Y214D01*
X3669D01*
Y196D01*
X3595D01*
Y214D01*
X3492D01*
Y196D01*
X3417D01*
Y214D01*
X3315D01*
Y196D01*
X3240D01*
Y214D01*
X3138D01*
Y196D01*
X3063D01*
Y214D01*
X2961D01*
Y196D01*
X2886D01*
Y214D01*
X2783D01*
Y196D01*
X2709D01*
Y214D01*
X2606D01*
Y196D01*
X2532D01*
Y214D01*
X2429D01*
Y196D01*
X2354D01*
Y214D01*
X2252D01*
Y196D01*
X2177D01*
Y214D01*
X2075D01*
Y196D01*
X2000D01*
Y214D01*
X1898D01*
Y196D01*
X1823D01*
Y214D01*
X1720D01*
Y196D01*
X1646D01*
Y214D01*
X1543D01*
Y196D01*
X1469D01*
Y214D01*
X1366D01*
Y196D01*
X1291D01*
Y214D01*
X1189D01*
Y196D01*
X1114D01*
Y214D01*
X1012D01*
Y196D01*
X937D01*
Y214D01*
X835D01*
Y196D01*
X760D01*
Y214D01*
X657D01*
Y196D01*
X583D01*
Y214D01*
X480D01*
Y196D01*
X406D01*
Y214D01*
X303D01*
Y196D01*
X228D01*
Y214D01*
X126D01*
Y196D01*
X51D01*
Y210D01*
X-51D01*
Y191D01*
X-168D01*
X-206Y229D01*
Y610D01*
X-207Y614D01*
X-209Y616D01*
X-389Y796D01*
X-391Y798D01*
X-395Y799D01*
X-460D01*
X-460Y802D01*
X-462Y804D01*
X-464Y805D01*
X-467Y806D01*
D02*
G37*
G36*
X-771Y189D02*
X-809D01*
Y121D01*
X-771D01*
Y189D01*
D02*
G37*
G36*
X-826D02*
X-874D01*
Y121D01*
X-826D01*
Y189D01*
D02*
G37*
G36*
X-886D02*
X-934D01*
Y121D01*
X-886D01*
Y189D01*
D02*
G37*
G36*
X-946D02*
X-994D01*
Y121D01*
X-946D01*
Y189D01*
D02*
G37*
G36*
X-1006D02*
X-1054D01*
Y121D01*
X-1006D01*
Y189D01*
D02*
G37*
G36*
X-1066D02*
X-1114D01*
Y121D01*
X-1066D01*
Y189D01*
D02*
G37*
G36*
X-1126D02*
X-1174D01*
Y121D01*
X-1126D01*
Y189D01*
D02*
G37*
G36*
X-1186D02*
X-1234D01*
Y121D01*
X-1186D01*
Y189D01*
D02*
G37*
G36*
X-1246D02*
X-1294D01*
Y121D01*
X-1246D01*
Y189D01*
D02*
G37*
G36*
X-1293Y300D02*
X-1352D01*
Y230D01*
X-1339D01*
Y189D01*
X-1354D01*
Y121D01*
X-1306D01*
Y189D01*
X-1321D01*
Y230D01*
X-1293D01*
Y300D01*
D02*
G37*
G36*
X-1366Y189D02*
X-1414D01*
Y121D01*
X-1366D01*
Y189D01*
D02*
G37*
G36*
X-1426D02*
X-1474D01*
Y121D01*
X-1426D01*
Y189D01*
D02*
G37*
G36*
X-1488Y504D02*
X-1522D01*
X-1539Y487D01*
Y433D01*
X-1522Y416D01*
X-1522D01*
Y300D01*
X-1542D01*
Y230D01*
X-1519D01*
Y189D01*
X-1534D01*
Y121D01*
X-1486D01*
Y189D01*
X-1501D01*
Y230D01*
X-1483D01*
Y300D01*
X-1503D01*
Y416D01*
X-1488D01*
X-1471Y433D01*
Y487D01*
X-1488Y504D01*
D02*
G37*
G36*
X-696Y131D02*
X-764D01*
Y93D01*
X-696D01*
Y131D01*
D02*
G37*
G36*
X4126Y92D02*
X4024D01*
Y66D01*
X4006D01*
X4006Y67D01*
X3998Y72D01*
X3990Y73D01*
X3982Y72D01*
X3974Y67D01*
X3970Y60D01*
X3968Y51D01*
X3970Y43D01*
X3974Y36D01*
X3982Y31D01*
X3990Y29D01*
X3998Y31D01*
X4006Y36D01*
X4006Y37D01*
X4024D01*
Y21D01*
X4126D01*
Y92D01*
D02*
G37*
G36*
X3949D02*
X3846D01*
Y66D01*
X3831D01*
X3831Y67D01*
X3823Y72D01*
X3815Y73D01*
X3807Y72D01*
X3799Y67D01*
X3795Y60D01*
X3793Y51D01*
X3795Y43D01*
X3799Y36D01*
X3807Y31D01*
X3815Y29D01*
X3823Y31D01*
X3831Y36D01*
X3831Y37D01*
X3846D01*
Y21D01*
X3949D01*
Y92D01*
D02*
G37*
G36*
X3772D02*
X3669D01*
Y66D01*
X3651D01*
X3651Y67D01*
X3643Y72D01*
X3635Y73D01*
X3627Y72D01*
X3619Y67D01*
X3615Y60D01*
X3613Y51D01*
X3615Y43D01*
X3619Y36D01*
X3627Y31D01*
X3635Y29D01*
X3643Y31D01*
X3651Y36D01*
X3651Y37D01*
X3669D01*
Y21D01*
X3772D01*
Y92D01*
D02*
G37*
G36*
X3595D02*
X3492D01*
Y66D01*
X3476D01*
X3476Y67D01*
X3468Y72D01*
X3460Y73D01*
X3452Y72D01*
X3444Y67D01*
X3440Y60D01*
X3438Y51D01*
X3440Y43D01*
X3444Y36D01*
X3452Y31D01*
X3460Y29D01*
X3468Y31D01*
X3476Y36D01*
X3476Y37D01*
X3492D01*
Y21D01*
X3595D01*
Y92D01*
D02*
G37*
G36*
X3417D02*
X3315D01*
Y66D01*
X3296D01*
X3296Y67D01*
X3288Y72D01*
X3280Y73D01*
X3272Y72D01*
X3264Y67D01*
X3260Y60D01*
X3258Y51D01*
X3260Y43D01*
X3264Y36D01*
X3272Y31D01*
X3280Y29D01*
X3288Y31D01*
X3296Y36D01*
X3296Y37D01*
X3315D01*
Y21D01*
X3417D01*
Y92D01*
D02*
G37*
G36*
X3240D02*
X3138D01*
Y66D01*
X3121D01*
X3121Y67D01*
X3113Y72D01*
X3105Y73D01*
X3097Y72D01*
X3089Y67D01*
X3085Y60D01*
X3083Y51D01*
X3085Y43D01*
X3089Y36D01*
X3097Y31D01*
X3105Y29D01*
X3113Y31D01*
X3121Y36D01*
X3121Y37D01*
X3138D01*
Y21D01*
X3240D01*
Y92D01*
D02*
G37*
G36*
X3063D02*
X2961D01*
Y66D01*
X2941D01*
X2941Y67D01*
X2933Y72D01*
X2925Y73D01*
X2917Y72D01*
X2909Y67D01*
X2905Y60D01*
X2903Y51D01*
X2905Y43D01*
X2909Y36D01*
X2917Y31D01*
X2925Y29D01*
X2933Y31D01*
X2941Y36D01*
X2941Y37D01*
X2961D01*
Y21D01*
X3063D01*
Y92D01*
D02*
G37*
G36*
X2886D02*
X2783D01*
Y66D01*
X2766D01*
X2766Y67D01*
X2758Y72D01*
X2750Y73D01*
X2742Y72D01*
X2734Y67D01*
X2730Y60D01*
X2728Y51D01*
X2730Y43D01*
X2734Y36D01*
X2742Y31D01*
X2750Y29D01*
X2758Y31D01*
X2766Y36D01*
X2766Y37D01*
X2783D01*
Y21D01*
X2886D01*
Y92D01*
D02*
G37*
G36*
X2709D02*
X2606D01*
Y66D01*
X2586D01*
X2586Y67D01*
X2578Y72D01*
X2570Y73D01*
X2562Y72D01*
X2554Y67D01*
X2550Y60D01*
X2548Y51D01*
X2550Y43D01*
X2554Y36D01*
X2562Y31D01*
X2570Y29D01*
X2578Y31D01*
X2586Y36D01*
X2586Y37D01*
X2606D01*
Y21D01*
X2709D01*
Y92D01*
D02*
G37*
G36*
X2532D02*
X2429D01*
Y66D01*
X2411D01*
X2411Y67D01*
X2403Y72D01*
X2395Y73D01*
X2387Y72D01*
X2379Y67D01*
X2375Y60D01*
X2373Y51D01*
X2375Y43D01*
X2379Y36D01*
X2387Y31D01*
X2395Y29D01*
X2403Y31D01*
X2411Y36D01*
X2411Y37D01*
X2429D01*
Y21D01*
X2532D01*
Y92D01*
D02*
G37*
G36*
X2354D02*
X2252D01*
Y66D01*
X2236D01*
X2236Y67D01*
X2228Y72D01*
X2220Y73D01*
X2212Y72D01*
X2204Y67D01*
X2200Y60D01*
X2198Y51D01*
X2200Y43D01*
X2204Y36D01*
X2212Y31D01*
X2220Y29D01*
X2228Y31D01*
X2236Y36D01*
X2236Y37D01*
X2252D01*
Y21D01*
X2354D01*
Y92D01*
D02*
G37*
G36*
X2177D02*
X2075D01*
Y66D01*
X2056D01*
X2056Y67D01*
X2048Y72D01*
X2040Y73D01*
X2032Y72D01*
X2024Y67D01*
X2020Y60D01*
X2018Y51D01*
X2020Y43D01*
X2024Y36D01*
X2032Y31D01*
X2040Y29D01*
X2048Y31D01*
X2056Y36D01*
X2056Y37D01*
X2075D01*
Y21D01*
X2177D01*
Y92D01*
D02*
G37*
G36*
X2000D02*
X1898D01*
Y66D01*
X1881D01*
X1881Y67D01*
X1873Y72D01*
X1865Y73D01*
X1857Y72D01*
X1849Y67D01*
X1845Y60D01*
X1843Y51D01*
X1845Y43D01*
X1849Y36D01*
X1857Y31D01*
X1865Y29D01*
X1873Y31D01*
X1881Y36D01*
X1881Y37D01*
X1898D01*
Y21D01*
X2000D01*
Y92D01*
D02*
G37*
G36*
X1823D02*
X1720D01*
Y66D01*
X1706D01*
X1706Y67D01*
X1698Y72D01*
X1690Y73D01*
X1682Y72D01*
X1674Y67D01*
X1670Y60D01*
X1668Y51D01*
X1670Y43D01*
X1674Y36D01*
X1682Y31D01*
X1690Y29D01*
X1698Y31D01*
X1706Y36D01*
X1706Y37D01*
X1720D01*
Y21D01*
X1823D01*
Y92D01*
D02*
G37*
G36*
X1646D02*
X1543D01*
Y66D01*
X1531D01*
X1531Y67D01*
X1523Y72D01*
X1515Y73D01*
X1507Y72D01*
X1499Y67D01*
X1495Y60D01*
X1493Y51D01*
X1495Y43D01*
X1499Y36D01*
X1507Y31D01*
X1515Y29D01*
X1523Y31D01*
X1531Y36D01*
X1531Y37D01*
X1543D01*
Y21D01*
X1646D01*
Y92D01*
D02*
G37*
G36*
X1469D02*
X1366D01*
Y66D01*
X1351D01*
X1351Y67D01*
X1343Y72D01*
X1335Y73D01*
X1327Y72D01*
X1319Y67D01*
X1315Y60D01*
X1313Y51D01*
X1315Y43D01*
X1319Y36D01*
X1327Y31D01*
X1335Y29D01*
X1343Y31D01*
X1351Y36D01*
X1351Y37D01*
X1366D01*
Y21D01*
X1469D01*
Y92D01*
D02*
G37*
G36*
X1291D02*
X1189D01*
Y66D01*
X1171D01*
X1171Y67D01*
X1163Y72D01*
X1155Y73D01*
X1147Y72D01*
X1139Y67D01*
X1135Y60D01*
X1133Y51D01*
X1135Y43D01*
X1139Y36D01*
X1147Y31D01*
X1155Y29D01*
X1163Y31D01*
X1171Y36D01*
X1171Y37D01*
X1189D01*
Y21D01*
X1291D01*
Y92D01*
D02*
G37*
G36*
X1114D02*
X1012D01*
Y66D01*
X991D01*
X991Y67D01*
X983Y72D01*
X975Y73D01*
X967Y72D01*
X959Y67D01*
X955Y60D01*
X953Y51D01*
X955Y43D01*
X959Y36D01*
X967Y31D01*
X975Y29D01*
X983Y31D01*
X991Y36D01*
X991Y37D01*
X1012D01*
Y21D01*
X1114D01*
Y92D01*
D02*
G37*
G36*
X937D02*
X835D01*
Y66D01*
X811D01*
X811Y67D01*
X803Y72D01*
X795Y73D01*
X787Y72D01*
X779Y67D01*
X775Y60D01*
X773Y51D01*
X775Y43D01*
X779Y36D01*
X787Y31D01*
X795Y29D01*
X803Y31D01*
X811Y36D01*
X811Y37D01*
X835D01*
Y21D01*
X937D01*
Y92D01*
D02*
G37*
G36*
X760D02*
X657D01*
Y66D01*
X636D01*
X636Y67D01*
X628Y72D01*
X620Y73D01*
X612Y72D01*
X604Y67D01*
X600Y60D01*
X598Y51D01*
X600Y43D01*
X604Y36D01*
X612Y31D01*
X620Y29D01*
X628Y31D01*
X636Y36D01*
X636Y37D01*
X657D01*
Y21D01*
X760D01*
Y92D01*
D02*
G37*
G36*
X583D02*
X480D01*
Y66D01*
X461D01*
X461Y67D01*
X453Y72D01*
X445Y73D01*
X437Y72D01*
X429Y67D01*
X425Y60D01*
X423Y51D01*
X425Y43D01*
X429Y36D01*
X437Y31D01*
X445Y29D01*
X453Y31D01*
X461Y36D01*
X461Y37D01*
X480D01*
Y21D01*
X583D01*
Y92D01*
D02*
G37*
G36*
X406D02*
X303D01*
Y66D01*
X286D01*
X286Y67D01*
X278Y72D01*
X270Y73D01*
X262Y72D01*
X254Y67D01*
X250Y60D01*
X248Y51D01*
X250Y43D01*
X254Y36D01*
X262Y31D01*
X270Y29D01*
X278Y31D01*
X286Y36D01*
X286Y37D01*
X303D01*
Y21D01*
X406D01*
Y92D01*
D02*
G37*
G36*
X228D02*
X126D01*
Y66D01*
X106D01*
X106Y67D01*
X98Y72D01*
X90Y73D01*
X82Y72D01*
X74Y67D01*
X70Y60D01*
X68Y51D01*
X70Y43D01*
X74Y36D01*
X82Y31D01*
X90Y29D01*
X98Y31D01*
X106Y36D01*
X106Y37D01*
X126D01*
Y21D01*
X228D01*
Y92D01*
D02*
G37*
G36*
X51Y89D02*
X-51D01*
Y66D01*
X-104D01*
X-104Y67D01*
X-112Y72D01*
X-120Y73D01*
X-128Y72D01*
X-136Y67D01*
X-140Y60D01*
X-142Y51D01*
X-140Y43D01*
X-136Y36D01*
X-128Y31D01*
X-120Y29D01*
X-112Y31D01*
X-104Y36D01*
X-104Y37D01*
X-51D01*
Y18D01*
X51D01*
Y89D01*
D02*
G37*
G36*
X-696Y76D02*
X-764D01*
Y28D01*
X-696D01*
Y76D01*
D02*
G37*
G36*
Y16D02*
X-764D01*
Y-32D01*
X-696D01*
Y16D01*
D02*
G37*
G36*
X-467Y756D02*
X-538D01*
X-541Y755D01*
X-543Y754D01*
X-545Y752D01*
X-545Y749D01*
Y731D01*
X-545Y728D01*
X-543Y726D01*
X-541Y725D01*
X-538Y724D01*
X-467D01*
X-464Y725D01*
X-462Y726D01*
X-460Y728D01*
X-460Y731D01*
X-429D01*
X-284Y586D01*
Y11D01*
X-283Y7D01*
X-281Y4D01*
X-221Y-56D01*
X-218Y-58D01*
X-214Y-59D01*
X-51D01*
Y-94D01*
X51D01*
Y-68D01*
X126D01*
Y-92D01*
X228D01*
Y-68D01*
X303D01*
Y-92D01*
X406D01*
Y-68D01*
X480D01*
Y-92D01*
X583D01*
Y-68D01*
X657D01*
Y-92D01*
X760D01*
Y-68D01*
X835D01*
Y-92D01*
X937D01*
Y-68D01*
X1012D01*
Y-92D01*
X1114D01*
Y-68D01*
X1189D01*
Y-92D01*
X1291D01*
Y-68D01*
X1366D01*
Y-92D01*
X1469D01*
Y-68D01*
X1543D01*
Y-92D01*
X1646D01*
Y-68D01*
X1720D01*
Y-92D01*
X1823D01*
Y-68D01*
X1898D01*
Y-92D01*
X2000D01*
Y-68D01*
X2075D01*
Y-92D01*
X2177D01*
Y-68D01*
X2252D01*
Y-92D01*
X2354D01*
Y-68D01*
X2429D01*
Y-92D01*
X2532D01*
Y-68D01*
X2606D01*
Y-92D01*
X2709D01*
Y-68D01*
X2783D01*
Y-92D01*
X2886D01*
Y-68D01*
X2961D01*
Y-92D01*
X3063D01*
Y-68D01*
X3138D01*
Y-92D01*
X3240D01*
Y-68D01*
X3315D01*
Y-92D01*
X3417D01*
Y-68D01*
X3492D01*
Y-92D01*
X3595D01*
Y-68D01*
X3669D01*
Y-92D01*
X3772D01*
Y-68D01*
X3846D01*
Y-92D01*
X3949D01*
Y-68D01*
X4024D01*
Y-92D01*
X4126D01*
Y-21D01*
X4024D01*
Y-39D01*
X3949D01*
Y-21D01*
X3846D01*
Y-39D01*
X3772D01*
Y-21D01*
X3669D01*
Y-39D01*
X3595D01*
Y-21D01*
X3492D01*
Y-39D01*
X3417D01*
Y-21D01*
X3315D01*
Y-39D01*
X3240D01*
Y-21D01*
X3138D01*
Y-39D01*
X3063D01*
Y-21D01*
X2961D01*
Y-39D01*
X2886D01*
Y-21D01*
X2783D01*
Y-39D01*
X2709D01*
Y-21D01*
X2606D01*
Y-39D01*
X2532D01*
Y-21D01*
X2429D01*
Y-39D01*
X2354D01*
Y-21D01*
X2252D01*
Y-39D01*
X2177D01*
Y-21D01*
X2075D01*
Y-39D01*
X2000D01*
Y-21D01*
X1898D01*
Y-39D01*
X1823D01*
Y-21D01*
X1720D01*
Y-39D01*
X1646D01*
Y-21D01*
X1543D01*
Y-39D01*
X1469D01*
Y-21D01*
X1366D01*
Y-39D01*
X1291D01*
Y-21D01*
X1189D01*
Y-39D01*
X1114D01*
Y-21D01*
X1012D01*
Y-39D01*
X937D01*
Y-21D01*
X835D01*
Y-39D01*
X760D01*
Y-21D01*
X657D01*
Y-39D01*
X583D01*
Y-21D01*
X480D01*
Y-39D01*
X406D01*
Y-21D01*
X303D01*
Y-39D01*
X228D01*
Y-21D01*
X126D01*
Y-39D01*
X51D01*
Y-23D01*
X-51D01*
Y-41D01*
X-210D01*
X-266Y15D01*
Y590D01*
X-267Y594D01*
X-269Y596D01*
X-419Y746D01*
X-421Y748D01*
X-425Y749D01*
X-460D01*
X-460Y752D01*
X-462Y754D01*
X-464Y755D01*
X-467Y756D01*
D02*
G37*
G36*
X-696Y-44D02*
X-764D01*
Y-92D01*
X-696D01*
Y-44D01*
D02*
G37*
G36*
Y-104D02*
X-764D01*
Y-152D01*
X-696D01*
Y-104D01*
D02*
G37*
G36*
Y-164D02*
X-764D01*
Y-212D01*
X-696D01*
Y-164D01*
D02*
G37*
G36*
X2545Y-128D02*
X2537Y-130D01*
X2529Y-134D01*
X2525Y-142D01*
X2523Y-150D01*
X2525Y-158D01*
X2529Y-166D01*
X2536Y-170D01*
Y-193D01*
X2510D01*
Y-221D01*
X2485D01*
X2481Y-222D01*
X2479Y-224D01*
X2469Y-234D01*
X2467Y-236D01*
X2466Y-240D01*
Y-261D01*
X2465Y-262D01*
X2423D01*
X2421Y-263D01*
X2419Y-264D01*
X2417Y-266D01*
X2416Y-269D01*
Y-286D01*
X2417Y-289D01*
X2419Y-291D01*
X2421Y-293D01*
X2423Y-293D01*
X2465D01*
X2468Y-293D01*
X2470Y-291D01*
X2472Y-289D01*
X2472Y-286D01*
Y-285D01*
X2474Y-284D01*
X2482Y-276D01*
X2484Y-273D01*
X2485Y-269D01*
Y-244D01*
X2489Y-240D01*
X2510D01*
Y-252D01*
X2580D01*
Y-193D01*
X2554D01*
Y-170D01*
X2561Y-166D01*
X2565Y-158D01*
X2567Y-150D01*
X2565Y-142D01*
X2561Y-134D01*
X2553Y-130D01*
X2545Y-128D01*
D02*
G37*
G36*
X1763Y-141D02*
X1763Y-141D01*
X1337D01*
X1331Y-142D01*
X1327Y-145D01*
X1327Y-145D01*
X1315Y-157D01*
X1312Y-161D01*
X1311Y-167D01*
X1311Y-167D01*
Y-198D01*
X1280D01*
Y-257D01*
X1350D01*
Y-198D01*
X1339D01*
Y-173D01*
X1343Y-169D01*
X1757D01*
X1766Y-178D01*
Y-200D01*
X1733D01*
Y-263D01*
X1824D01*
Y-244D01*
X1845D01*
Y-257D01*
X1915D01*
Y-243D01*
X1943D01*
Y-256D01*
X2007D01*
Y-205D01*
X1943D01*
Y-215D01*
X1915D01*
Y-198D01*
X1845D01*
Y-215D01*
X1824D01*
Y-200D01*
X1794D01*
Y-172D01*
X1793Y-166D01*
X1790Y-162D01*
X1790Y-162D01*
X1773Y-145D01*
X1769Y-142D01*
X1763Y-141D01*
D02*
G37*
G36*
X1465Y-200D02*
X1375D01*
Y-263D01*
X1465D01*
Y-200D01*
D02*
G37*
G36*
X-696Y-224D02*
X-764D01*
Y-272D01*
X-696D01*
Y-224D01*
D02*
G37*
G36*
X2225Y-128D02*
X2217Y-130D01*
X2209Y-134D01*
X2205Y-142D01*
X2203Y-150D01*
X2205Y-158D01*
X2209Y-166D01*
X2216Y-170D01*
Y-193D01*
X2190D01*
Y-252D01*
X2260D01*
Y-232D01*
X2275D01*
X2276Y-232D01*
Y-254D01*
X2277Y-258D01*
X2279Y-261D01*
X2300Y-283D01*
X2303Y-285D01*
X2307Y-285D01*
X2318D01*
Y-286D01*
X2318Y-289D01*
X2320Y-291D01*
X2322Y-293D01*
X2325Y-293D01*
X2367D01*
X2369Y-293D01*
X2371Y-291D01*
X2373Y-289D01*
X2374Y-286D01*
Y-269D01*
X2373Y-266D01*
X2371Y-264D01*
X2369Y-263D01*
X2367Y-262D01*
X2325D01*
X2322Y-263D01*
X2320Y-264D01*
X2318Y-266D01*
X2318Y-267D01*
X2311D01*
X2294Y-251D01*
Y-228D01*
X2293Y-225D01*
X2291Y-222D01*
X2286Y-216D01*
X2283Y-214D01*
X2279Y-213D01*
X2260D01*
Y-193D01*
X2234D01*
Y-170D01*
X2241Y-166D01*
X2245Y-158D01*
X2247Y-150D01*
X2245Y-142D01*
X2241Y-134D01*
X2233Y-130D01*
X2225Y-128D01*
D02*
G37*
G36*
X1880Y-288D02*
X1790D01*
X1785Y-289D01*
X1780Y-292D01*
X1777Y-297D01*
X1776Y-302D01*
X1777Y-308D01*
X1780Y-312D01*
X1785Y-316D01*
X1790Y-317D01*
X1880D01*
X1885Y-316D01*
X1890Y-312D01*
X1893Y-308D01*
X1894Y-302D01*
X1893Y-297D01*
X1890Y-292D01*
X1885Y-289D01*
X1880Y-288D01*
D02*
G37*
G36*
X2390Y-201D02*
X2386Y-202D01*
X2384Y-204D01*
X2382Y-206D01*
X2381Y-210D01*
Y-306D01*
X2346D01*
X2342Y-307D01*
X2339Y-309D01*
X2337Y-311D01*
X2336Y-315D01*
X2337Y-319D01*
X2339Y-321D01*
X2342Y-323D01*
X2346Y-324D01*
X2444D01*
X2448Y-323D01*
X2451Y-321D01*
X2453Y-319D01*
X2454Y-315D01*
X2453Y-311D01*
X2451Y-309D01*
X2448Y-307D01*
X2444Y-306D01*
X2399D01*
Y-210D01*
X2398Y-206D01*
X2396Y-204D01*
X2394Y-202D01*
X2390Y-201D01*
D02*
G37*
G36*
X-696Y-289D02*
X-764D01*
Y-327D01*
X-696D01*
Y-289D01*
D02*
G37*
G36*
X2580Y-268D02*
X2510D01*
Y-327D01*
X2531D01*
Y-335D01*
X2527Y-338D01*
X2510D01*
X2510Y-338D01*
X2510Y-338D01*
X2469D01*
X2468Y-337D01*
X2465Y-337D01*
X2423D01*
X2421Y-337D01*
X2419Y-339D01*
X2417Y-341D01*
X2416Y-344D01*
Y-361D01*
X2417Y-364D01*
X2419Y-366D01*
X2421Y-367D01*
X2423Y-368D01*
X2465D01*
X2468Y-368D01*
X2468Y-368D01*
X2469Y-373D01*
X2465Y-377D01*
X2462Y-381D01*
X2461Y-387D01*
X2461Y-387D01*
Y-418D01*
X2450D01*
Y-438D01*
X2425D01*
X2421Y-432D01*
X2413Y-427D01*
X2405Y-426D01*
X2397Y-427D01*
X2389Y-432D01*
X2385Y-439D01*
X2383Y-448D01*
X2385Y-456D01*
X2389Y-463D01*
X2397Y-468D01*
X2405Y-470D01*
X2413Y-468D01*
X2421Y-463D01*
X2425Y-457D01*
X2450D01*
Y-482D01*
X2501D01*
Y-418D01*
X2490D01*
Y-393D01*
X2516Y-367D01*
X2533D01*
X2533Y-367D01*
X2539Y-366D01*
X2543Y-362D01*
X2555Y-351D01*
X2555Y-351D01*
X2558Y-346D01*
X2559Y-341D01*
Y-327D01*
X2580D01*
Y-268D01*
D02*
G37*
G36*
X2367Y-337D02*
X2325D01*
X2322Y-337D01*
X2320Y-339D01*
X2318Y-341D01*
X2318Y-343D01*
X2313D01*
X2309Y-344D01*
X2306Y-346D01*
X2289Y-364D01*
X2287Y-366D01*
X2286Y-370D01*
Y-441D01*
X2269Y-458D01*
X2260D01*
Y-438D01*
X2190D01*
Y-497D01*
X2260D01*
Y-477D01*
X2273D01*
X2276Y-476D01*
X2279Y-474D01*
X2301Y-451D01*
X2303Y-449D01*
X2304Y-445D01*
Y-374D01*
X2313Y-365D01*
X2314Y-364D01*
X2319Y-366D01*
X2320Y-366D01*
X2322Y-367D01*
X2325Y-368D01*
X2367D01*
X2369Y-367D01*
X2371Y-366D01*
X2373Y-364D01*
X2374Y-361D01*
Y-344D01*
X2373Y-341D01*
X2371Y-339D01*
X2369Y-337D01*
X2367Y-337D01*
D02*
G37*
G36*
X-850Y-233D02*
X-858Y-235D01*
X-866Y-239D01*
X-870Y-247D01*
X-872Y-255D01*
X-870Y-263D01*
X-866Y-271D01*
X-859Y-275D01*
Y-317D01*
X-874D01*
Y-385D01*
X-859D01*
Y-413D01*
X-875D01*
Y-477D01*
X-859D01*
Y-504D01*
X-858Y-508D01*
X-856Y-511D01*
X-850Y-516D01*
X-847Y-518D01*
X-844Y-519D01*
X1750D01*
X1754Y-518D01*
X1756Y-516D01*
X1791Y-481D01*
X1793Y-479D01*
X1794Y-475D01*
Y-440D01*
X1824D01*
Y-423D01*
X1927D01*
X1927Y-423D01*
X1933Y-422D01*
X1938Y-419D01*
X1985Y-371D01*
X1985Y-371D01*
X1988Y-366D01*
X1989Y-361D01*
Y-325D01*
X2007D01*
Y-313D01*
X2190D01*
Y-327D01*
X2211D01*
Y-363D01*
X2190D01*
Y-383D01*
X2160D01*
X2156Y-377D01*
X2148Y-372D01*
X2140Y-371D01*
X2132Y-372D01*
X2124Y-377D01*
X2120Y-384D01*
X2118Y-393D01*
X2120Y-401D01*
X2124Y-408D01*
X2132Y-413D01*
X2140Y-415D01*
X2148Y-413D01*
X2156Y-408D01*
X2160Y-402D01*
X2190D01*
Y-422D01*
X2260D01*
Y-363D01*
X2239D01*
Y-327D01*
X2260D01*
Y-268D01*
X2190D01*
Y-284D01*
X2007D01*
Y-274D01*
X1943D01*
Y-325D01*
X1961D01*
Y-355D01*
X1922Y-394D01*
X1824D01*
Y-377D01*
X1733D01*
Y-440D01*
X1776D01*
Y-471D01*
X1746Y-501D01*
X-840D01*
X-840Y-500D01*
Y-477D01*
X-824D01*
Y-413D01*
X-841D01*
Y-385D01*
X-826D01*
Y-317D01*
X-841D01*
Y-275D01*
X-834Y-271D01*
X-830Y-263D01*
X-828Y-255D01*
X-830Y-247D01*
X-834Y-239D01*
X-842Y-235D01*
X-850Y-233D01*
D02*
G37*
G36*
X-886Y-317D02*
X-934D01*
Y-385D01*
X-886D01*
Y-317D01*
D02*
G37*
G36*
X-946D02*
X-994D01*
Y-385D01*
X-946D01*
Y-317D01*
D02*
G37*
G36*
X-1006D02*
X-1054D01*
Y-385D01*
X-1006D01*
Y-317D01*
D02*
G37*
G36*
X-1066D02*
X-1114D01*
Y-385D01*
X-1066D01*
Y-317D01*
D02*
G37*
G36*
X-1126D02*
X-1174D01*
Y-385D01*
X-1126D01*
Y-317D01*
D02*
G37*
G36*
X-1186D02*
X-1234D01*
Y-385D01*
X-1186D01*
Y-317D01*
D02*
G37*
G36*
X-1246D02*
X-1294D01*
Y-385D01*
X-1246D01*
Y-317D01*
D02*
G37*
G36*
X-1306D02*
X-1354D01*
Y-385D01*
X-1306D01*
Y-317D01*
D02*
G37*
G36*
X-1366D02*
X-1414D01*
Y-385D01*
X-1366D01*
Y-317D01*
D02*
G37*
G36*
X-1450Y-256D02*
X-1458Y-257D01*
X-1466Y-262D01*
X-1470Y-269D01*
X-1472Y-278D01*
X-1470Y-286D01*
X-1466Y-293D01*
X-1459Y-297D01*
Y-317D01*
X-1474D01*
Y-385D01*
X-1426D01*
Y-317D01*
X-1441D01*
Y-297D01*
X-1434Y-293D01*
X-1430Y-286D01*
X-1428Y-278D01*
X-1430Y-269D01*
X-1434Y-262D01*
X-1442Y-257D01*
X-1450Y-256D01*
D02*
G37*
G36*
X-1510Y-223D02*
X-1518Y-225D01*
X-1526Y-229D01*
X-1530Y-237D01*
X-1532Y-245D01*
X-1530Y-253D01*
X-1526Y-261D01*
X-1519Y-265D01*
Y-317D01*
X-1534D01*
Y-385D01*
X-1486D01*
Y-317D01*
X-1501D01*
Y-265D01*
X-1494Y-261D01*
X-1490Y-253D01*
X-1488Y-245D01*
X-1490Y-237D01*
X-1494Y-229D01*
X-1502Y-225D01*
X-1510Y-223D01*
D02*
G37*
G36*
X1350Y-273D02*
X1280D01*
Y-332D01*
X1301D01*
Y-369D01*
X1299Y-369D01*
X1295Y-377D01*
X1293Y-385D01*
X1295Y-393D01*
X1299Y-401D01*
X1307Y-405D01*
X1315Y-407D01*
X1323Y-405D01*
X1331Y-401D01*
X1335Y-393D01*
X1337Y-385D01*
X1335Y-377D01*
X1331Y-369D01*
X1329Y-369D01*
Y-332D01*
X1350D01*
Y-273D01*
D02*
G37*
G36*
X4045Y-287D02*
X4032Y-288D01*
X4019Y-292D01*
X4007Y-298D01*
X3997Y-307D01*
X3988Y-317D01*
X3984Y-325D01*
X3984Y-325D01*
X3984Y-325D01*
X3984Y-325D01*
X3984Y-325D01*
X3984Y-325D01*
X3982Y-329D01*
X3981Y-333D01*
X3979Y-336D01*
Y-337D01*
X3979Y-337D01*
X3978Y-341D01*
X3978Y-342D01*
X3978Y-343D01*
X3977Y-348D01*
X3977Y-349D01*
X3977Y-349D01*
Y-361D01*
X3977Y-361D01*
X3977Y-362D01*
X3978Y-367D01*
X3978Y-368D01*
X3978Y-369D01*
X3979Y-373D01*
X3979Y-373D01*
Y-374D01*
X3981Y-377D01*
X3982Y-381D01*
X3984Y-385D01*
X3984Y-385D01*
X3984Y-385D01*
X3984Y-385D01*
X3984Y-385D01*
X3984Y-385D01*
X3988Y-393D01*
X3997Y-403D01*
X4007Y-412D01*
X4019Y-418D01*
X4032Y-422D01*
X4045Y-423D01*
X4058Y-422D01*
X4071Y-418D01*
X4083Y-412D01*
X4093Y-403D01*
X4102Y-393D01*
X4108Y-381D01*
X4112Y-368D01*
X4113Y-355D01*
X4112Y-342D01*
X4108Y-329D01*
X4102Y-317D01*
X4093Y-307D01*
X4083Y-298D01*
X4071Y-292D01*
X4058Y-288D01*
X4045Y-287D01*
D02*
G37*
G36*
X1465Y-377D02*
X1375D01*
Y-440D01*
X1465D01*
Y-377D01*
D02*
G37*
G36*
X-701Y-431D02*
X-781D01*
X-786Y-432D01*
X-791Y-435D01*
X-794Y-440D01*
X-795Y-445D01*
X-794Y-450D01*
X-791Y-455D01*
X-786Y-458D01*
X-781Y-459D01*
X-701D01*
X-695Y-458D01*
X-690Y-455D01*
X-687Y-450D01*
X-686Y-445D01*
X-687Y-440D01*
X-690Y-435D01*
X-695Y-432D01*
X-701Y-431D01*
D02*
G37*
G36*
X2629Y-436D02*
X2544D01*
X2539Y-437D01*
X2534Y-440D01*
X2531Y-445D01*
X2530Y-450D01*
X2531Y-455D01*
X2534Y-460D01*
X2539Y-463D01*
X2544Y-464D01*
X2629D01*
X2634Y-463D01*
X2639Y-460D01*
X2642Y-455D01*
X2643Y-450D01*
X2642Y-445D01*
X2639Y-440D01*
X2634Y-437D01*
X2629Y-436D01*
D02*
G37*
%LPD*%
G36*
X-575Y2660D02*
X-1215D01*
X-1278Y2723D01*
Y3000D01*
X-575D01*
Y2660D01*
D02*
G37*
G36*
X800Y2610D02*
Y2560D01*
Y2540D01*
Y2535D01*
Y2530D01*
X695D01*
Y2631D01*
X800D01*
Y2610D01*
D02*
G37*
G36*
Y2669D02*
X676D01*
X669Y2668D01*
X662Y2664D01*
X658Y2657D01*
X657Y2650D01*
Y2530D01*
X480D01*
Y2793D01*
X433Y2840D01*
X120D01*
Y2715D01*
X-195D01*
Y2900D01*
X-190Y2905D01*
X-195Y2910D01*
X-370D01*
Y2833D01*
X-371Y2826D01*
Y2764D01*
X-370Y2757D01*
Y2723D01*
X-435D01*
X-435Y2975D01*
X800Y2975D01*
Y2669D01*
D02*
G37*
D21*
X-1415Y783D02*
X-1351D01*
X650Y2365D02*
X715Y2430D01*
X650Y2310D02*
Y2365D01*
X-1250Y890D02*
X-1205Y935D01*
X-1250Y665D02*
Y890D01*
X-1260Y655D02*
X-1250Y665D01*
X-1076Y276D02*
X-1070Y270D01*
X1790Y-302D02*
X1790Y-302D01*
X-1450Y640D02*
X-1445Y645D01*
X-1431D01*
X-1371Y705D01*
X-1351D01*
X-1440Y692D02*
X-1402Y730D01*
X-1495Y692D02*
X-1440D01*
X-1540Y730D02*
X-1425D01*
X-1399Y756D01*
X-1150Y1070D02*
X-1125Y1095D01*
Y1135D01*
X-1250Y1070D02*
X-1150D01*
X-1399Y756D02*
X-1351D01*
X-1070Y630D02*
Y675D01*
X-1099Y705D02*
X-1070Y675D01*
X-1119Y705D02*
X-1099D01*
X-1205Y1040D02*
X-697D01*
X-1195Y1020D02*
X-785D01*
X-1195Y995D02*
X-800D01*
X-1190Y975D02*
X-835D01*
X-751Y891D01*
X-1307Y858D02*
X-1190Y975D01*
X-785Y1020D02*
X-755Y990D01*
X-1310Y935D02*
X-1205Y1040D01*
X-800Y995D02*
X-745Y940D01*
X-1305Y910D02*
X-1195Y1020D01*
X-1306Y884D02*
X-1195Y995D01*
X-755Y990D02*
X-697D01*
X-503Y840D02*
X-375D01*
X-745Y940D02*
X-697D01*
X-751Y891D02*
X-699D01*
X-1505Y1200D02*
X-1352D01*
X-1402Y730D02*
X-1351D01*
X-864Y625D02*
X-835D01*
X-775Y792D02*
X-711D01*
X-699Y891D02*
X-697Y890D01*
X-1159Y834D02*
X-1120D01*
X-1119Y833D01*
X-1190Y865D02*
X-1159Y834D01*
X-1205Y910D02*
X-1119D01*
X-1230Y885D02*
X-1205Y910D01*
X-1230Y585D02*
Y885D01*
X-1205Y935D02*
X-1119D01*
X-1351Y858D02*
X-1307D01*
X-1351Y884D02*
X-1306D01*
X-1351Y910D02*
X-1305D01*
X-1351Y935D02*
X-1310D01*
X-980Y860D02*
X-951D01*
X-1058Y782D02*
X-980Y860D01*
X-1119Y782D02*
X-1058D01*
X-1052Y858D02*
X-975Y935D01*
X-1076Y884D02*
X-1030Y930D01*
X-1119Y884D02*
X-1076D01*
X-1119Y858D02*
X-1052D01*
X-951Y860D02*
X-950Y859D01*
X-503Y690D02*
X-501Y688D01*
X-950Y290D02*
Y626D01*
Y240D02*
Y290D01*
X-1120Y460D02*
X-950Y290D01*
X-1405Y460D02*
X-1120D01*
X1785Y-475D02*
Y-415D01*
X1778Y-409D02*
X1785Y-415D01*
X1750Y-510D02*
X1785Y-475D01*
X-844Y-510D02*
X1750D01*
X-849Y-504D02*
X-844Y-510D01*
X-849Y-504D02*
Y-445D01*
X-850Y-351D02*
Y-255D01*
X-821Y625D02*
X-815Y631D01*
Y849D01*
X-865Y626D02*
X-864Y625D01*
X-821Y855D02*
X-815Y849D01*
X-861Y855D02*
X-821D01*
X-865Y859D02*
X-861Y855D01*
X-950Y626D02*
X-865D01*
X-950Y859D02*
X-865D01*
X-1415Y833D02*
X-1351D01*
X-1505Y1400D02*
X-1347D01*
X-1505Y1500D02*
X-1359D01*
X-1190Y755D02*
X-1120D01*
X-1119Y756D01*
X-775Y738D02*
X-711D01*
X-775Y843D02*
X-711D01*
X-1350Y807D02*
X-1286D01*
X-1119Y730D02*
X-1065D01*
X-1035Y700D01*
Y685D02*
Y700D01*
X-215Y225D02*
Y610D01*
X-395Y790D02*
X-215Y610D01*
X-503Y790D02*
X-395D01*
X-170Y420D02*
Y635D01*
X-375Y840D02*
X-170Y635D01*
X-110Y650D02*
X-8D01*
X-350Y890D02*
X-110Y650D01*
X-503Y890D02*
X-350D01*
X-275Y11D02*
Y590D01*
Y11D02*
X-214Y-50D01*
X-8D01*
X0Y-58D01*
X-425Y740D02*
X-275Y590D01*
X-503Y740D02*
X-425D01*
X-6Y181D02*
X0Y175D01*
X-171Y181D02*
X-6D01*
X-215Y225D02*
X-171Y181D01*
X-170Y420D02*
X-158Y408D01*
X0D01*
X-8Y650D02*
X0Y642D01*
X-190Y875D02*
X0D01*
X-255Y940D02*
X-190Y875D01*
X-503Y940D02*
X-255D01*
X-135Y1110D02*
X-2D01*
X0Y1108D01*
X-255Y990D02*
X-135Y1110D01*
X-503Y990D02*
X-255D01*
X-385Y1040D02*
X-84Y1341D01*
X0D01*
X-503Y1040D02*
X-385D01*
X-1450Y-351D02*
Y-278D01*
X-1510Y-351D02*
Y-245D01*
X-1145Y265D02*
X-1140Y270D01*
X-1248Y265D02*
X-1145D01*
X-1512Y453D02*
X-1505Y460D01*
X-1512Y265D02*
Y453D01*
X-1330Y257D02*
X-1322Y265D01*
X-1330Y155D02*
Y257D01*
X-1512Y265D02*
X-1510Y263D01*
Y155D02*
Y263D01*
X-701Y-445D02*
X-700Y-444D01*
X-850D02*
X-849Y-445D01*
X-850Y-444D02*
Y-351D01*
X2390Y-315D02*
X2444D01*
X2346D02*
X2390D01*
Y-210D01*
X2545Y-223D02*
Y-150D01*
X2225Y-223D02*
Y-150D01*
X2405Y-448D02*
X2470D01*
X2140Y-393D02*
X2225D01*
X2295Y-445D02*
Y-370D01*
X2273Y-467D02*
X2295Y-445D01*
X2313Y-352D02*
X2346D01*
X2295Y-370D02*
X2313Y-352D01*
X2225Y-467D02*
X2273D01*
X2279Y-223D02*
X2285Y-228D01*
X2225Y-223D02*
X2279D01*
X2285Y-254D02*
Y-228D01*
Y-254D02*
X2307Y-276D01*
X2344D01*
X2346Y-278D01*
X2467D02*
X2476Y-269D01*
X2444Y-278D02*
X2467D01*
X2476Y-269D02*
Y-240D01*
X2485Y-231D02*
X2537D01*
X2545Y-223D01*
X2476Y-240D02*
X2485Y-231D01*
X3635Y2310D02*
Y2320D01*
Y2240D02*
Y2310D01*
X2190D02*
Y2315D01*
Y2235D02*
Y2310D01*
X800D02*
Y2315D01*
Y2235D02*
Y2310D01*
X3585Y2210D02*
Y2310D01*
X2140Y2200D02*
Y2310D01*
X750Y2200D02*
Y2310D01*
X3485D02*
Y2364D01*
X3479Y2370D02*
X3485Y2364D01*
X2296Y2370D02*
X3479D01*
X2290Y2364D02*
X2296Y2370D01*
X2290Y2310D02*
Y2364D01*
X2028Y2370D02*
X2038Y2360D01*
Y2312D02*
Y2360D01*
Y2312D02*
X2040Y2310D01*
X910Y2370D02*
X2028D01*
X898Y2358D02*
X910Y2370D01*
X898Y2312D02*
Y2358D01*
Y2312D02*
X900Y2310D01*
X698Y1795D02*
X700Y1797D01*
X3535Y1810D02*
X3550Y1795D01*
D25*
X-1293Y2255D02*
D03*
X-1367D02*
D03*
X-1347Y1400D02*
D03*
X-1273D02*
D03*
X-1278Y1200D02*
D03*
X-1352D02*
D03*
X-1512Y265D02*
D03*
X-1438D02*
D03*
X-1322D02*
D03*
X-1248D02*
D03*
D26*
X254Y2650D02*
D03*
X676D02*
D03*
D27*
X-30Y2537D02*
D03*
Y2813D02*
D03*
X-910Y2537D02*
D03*
Y2813D02*
D03*
D28*
X-530Y1651D02*
D03*
Y1769D02*
D03*
X-945Y1651D02*
D03*
Y1769D02*
D03*
X4075Y1452D02*
D03*
Y1340D02*
D03*
X3898Y1452D02*
D03*
Y1340D02*
D03*
X3720Y1452D02*
D03*
Y1340D02*
D03*
X3543Y1452D02*
D03*
Y1340D02*
D03*
X3366Y1452D02*
D03*
Y1340D02*
D03*
X3189Y1452D02*
D03*
Y1340D02*
D03*
X3012Y1452D02*
D03*
Y1340D02*
D03*
X2835Y1452D02*
D03*
Y1340D02*
D03*
X2657Y1452D02*
D03*
Y1340D02*
D03*
X2480Y1452D02*
D03*
Y1340D02*
D03*
X2303Y1452D02*
D03*
Y1340D02*
D03*
X2126Y1452D02*
D03*
Y1340D02*
D03*
X1949Y1452D02*
D03*
Y1340D02*
D03*
X1772Y1452D02*
D03*
Y1340D02*
D03*
X1594Y1452D02*
D03*
Y1340D02*
D03*
X1417Y1452D02*
D03*
Y1340D02*
D03*
X1240Y1452D02*
D03*
Y1340D02*
D03*
X1063Y1452D02*
D03*
Y1340D02*
D03*
X886Y1452D02*
D03*
Y1340D02*
D03*
X709Y1452D02*
D03*
Y1340D02*
D03*
X531Y1452D02*
D03*
Y1340D02*
D03*
X354Y1452D02*
D03*
Y1340D02*
D03*
X177Y1452D02*
D03*
Y1340D02*
D03*
X0Y1454D02*
D03*
Y1341D02*
D03*
X4075Y1221D02*
D03*
Y1109D02*
D03*
X3898Y1221D02*
D03*
Y1109D02*
D03*
X3720Y1221D02*
D03*
Y1109D02*
D03*
X3543Y1221D02*
D03*
Y1109D02*
D03*
X3366Y1221D02*
D03*
Y1109D02*
D03*
X3189Y1221D02*
D03*
Y1109D02*
D03*
X3012Y1221D02*
D03*
Y1109D02*
D03*
X2835Y1221D02*
D03*
Y1109D02*
D03*
X2657Y1221D02*
D03*
Y1109D02*
D03*
X2480Y1221D02*
D03*
Y1109D02*
D03*
X2303Y1221D02*
D03*
Y1109D02*
D03*
X2126Y1221D02*
D03*
Y1109D02*
D03*
X1949Y1221D02*
D03*
Y1109D02*
D03*
X1772Y1221D02*
D03*
Y1109D02*
D03*
X1594Y1221D02*
D03*
Y1109D02*
D03*
X1417Y1221D02*
D03*
Y1109D02*
D03*
X1240Y1221D02*
D03*
Y1109D02*
D03*
X1063Y1221D02*
D03*
Y1109D02*
D03*
X886Y1221D02*
D03*
Y1109D02*
D03*
X709Y1221D02*
D03*
Y1109D02*
D03*
X531Y1221D02*
D03*
Y1109D02*
D03*
X354Y1221D02*
D03*
Y1109D02*
D03*
X177Y1221D02*
D03*
Y1109D02*
D03*
X0Y1220D02*
D03*
Y1108D02*
D03*
X4075Y986D02*
D03*
Y874D02*
D03*
X3898Y986D02*
D03*
Y874D02*
D03*
X3720Y986D02*
D03*
Y874D02*
D03*
X3543Y986D02*
D03*
Y874D02*
D03*
X3366Y986D02*
D03*
Y874D02*
D03*
X3189Y986D02*
D03*
Y874D02*
D03*
X3012Y986D02*
D03*
Y874D02*
D03*
X2835Y986D02*
D03*
Y874D02*
D03*
X2657Y986D02*
D03*
Y874D02*
D03*
X2480Y986D02*
D03*
Y874D02*
D03*
X2303Y986D02*
D03*
Y874D02*
D03*
X2126Y986D02*
D03*
Y874D02*
D03*
X1949Y986D02*
D03*
Y874D02*
D03*
X1772Y986D02*
D03*
Y874D02*
D03*
X1594Y986D02*
D03*
Y874D02*
D03*
X1417Y986D02*
D03*
Y874D02*
D03*
X1240Y986D02*
D03*
Y874D02*
D03*
X1063Y986D02*
D03*
Y874D02*
D03*
X886Y986D02*
D03*
Y874D02*
D03*
X709Y986D02*
D03*
Y874D02*
D03*
X531Y986D02*
D03*
Y874D02*
D03*
X354Y986D02*
D03*
Y874D02*
D03*
X177Y986D02*
D03*
Y874D02*
D03*
X0Y987D02*
D03*
Y875D02*
D03*
X4075Y746D02*
D03*
Y634D02*
D03*
X3898Y746D02*
D03*
Y634D02*
D03*
X3720Y746D02*
D03*
Y634D02*
D03*
X3543Y746D02*
D03*
Y634D02*
D03*
X3366Y746D02*
D03*
Y634D02*
D03*
X3189Y746D02*
D03*
Y634D02*
D03*
X3012Y746D02*
D03*
Y634D02*
D03*
X2835Y746D02*
D03*
Y634D02*
D03*
X2657Y746D02*
D03*
Y634D02*
D03*
X2480Y746D02*
D03*
Y634D02*
D03*
X2303Y746D02*
D03*
Y634D02*
D03*
X2126Y746D02*
D03*
Y634D02*
D03*
X1949Y746D02*
D03*
Y634D02*
D03*
X1772Y746D02*
D03*
Y634D02*
D03*
X1594Y746D02*
D03*
Y634D02*
D03*
X1417Y746D02*
D03*
Y634D02*
D03*
X1240Y746D02*
D03*
Y634D02*
D03*
X1063Y746D02*
D03*
Y634D02*
D03*
X886Y746D02*
D03*
Y634D02*
D03*
X709Y746D02*
D03*
Y634D02*
D03*
X531Y746D02*
D03*
Y634D02*
D03*
X354Y746D02*
D03*
Y634D02*
D03*
X177Y746D02*
D03*
Y634D02*
D03*
X0Y754D02*
D03*
Y642D02*
D03*
X4075Y521D02*
D03*
Y409D02*
D03*
X3898Y521D02*
D03*
Y409D02*
D03*
X3720Y521D02*
D03*
Y409D02*
D03*
X3543Y521D02*
D03*
Y409D02*
D03*
X3366Y521D02*
D03*
Y409D02*
D03*
X3189Y521D02*
D03*
Y409D02*
D03*
X3012Y521D02*
D03*
Y409D02*
D03*
X2835Y521D02*
D03*
Y409D02*
D03*
X2657Y521D02*
D03*
Y409D02*
D03*
X2480Y521D02*
D03*
Y409D02*
D03*
X2303Y521D02*
D03*
Y409D02*
D03*
X2126Y521D02*
D03*
Y409D02*
D03*
X1949Y521D02*
D03*
Y409D02*
D03*
X1772Y521D02*
D03*
Y409D02*
D03*
X1594Y521D02*
D03*
Y409D02*
D03*
X1417Y521D02*
D03*
Y409D02*
D03*
X1240Y521D02*
D03*
Y409D02*
D03*
X1063Y521D02*
D03*
Y409D02*
D03*
X886Y521D02*
D03*
Y409D02*
D03*
X709Y521D02*
D03*
Y409D02*
D03*
X531Y521D02*
D03*
Y409D02*
D03*
X354Y521D02*
D03*
Y409D02*
D03*
X177Y521D02*
D03*
Y409D02*
D03*
X0Y520D02*
D03*
Y408D02*
D03*
X4075Y291D02*
D03*
Y179D02*
D03*
X3898Y291D02*
D03*
Y179D02*
D03*
X3720Y291D02*
D03*
Y179D02*
D03*
X3543Y291D02*
D03*
Y179D02*
D03*
X3366Y291D02*
D03*
Y179D02*
D03*
X3189Y291D02*
D03*
Y179D02*
D03*
X3012Y291D02*
D03*
Y179D02*
D03*
X2835Y291D02*
D03*
Y179D02*
D03*
X2657Y291D02*
D03*
Y179D02*
D03*
X2480Y291D02*
D03*
Y179D02*
D03*
X2303Y291D02*
D03*
Y179D02*
D03*
X2126Y291D02*
D03*
Y179D02*
D03*
X1949Y291D02*
D03*
Y179D02*
D03*
X1772Y291D02*
D03*
Y179D02*
D03*
X1594Y291D02*
D03*
Y179D02*
D03*
X1417Y291D02*
D03*
Y179D02*
D03*
X1240Y291D02*
D03*
Y179D02*
D03*
X1063Y291D02*
D03*
Y179D02*
D03*
X886Y291D02*
D03*
Y179D02*
D03*
X709Y291D02*
D03*
Y179D02*
D03*
X531Y291D02*
D03*
Y179D02*
D03*
X354Y291D02*
D03*
Y179D02*
D03*
X177Y291D02*
D03*
Y179D02*
D03*
X0Y287D02*
D03*
Y175D02*
D03*
X4075Y56D02*
D03*
Y-56D02*
D03*
X3898Y56D02*
D03*
Y-56D02*
D03*
X3720Y56D02*
D03*
Y-56D02*
D03*
X3543Y56D02*
D03*
Y-56D02*
D03*
X3366Y56D02*
D03*
Y-56D02*
D03*
X3189Y56D02*
D03*
Y-56D02*
D03*
X3012Y56D02*
D03*
Y-56D02*
D03*
X2835Y56D02*
D03*
Y-56D02*
D03*
X2657Y56D02*
D03*
Y-56D02*
D03*
X2480Y56D02*
D03*
Y-56D02*
D03*
X2303Y56D02*
D03*
Y-56D02*
D03*
X2126Y56D02*
D03*
Y-56D02*
D03*
X1949Y56D02*
D03*
Y-56D02*
D03*
X1772Y56D02*
D03*
Y-56D02*
D03*
X1594Y56D02*
D03*
Y-56D02*
D03*
X1417Y56D02*
D03*
Y-56D02*
D03*
X1240Y56D02*
D03*
Y-56D02*
D03*
X1063Y56D02*
D03*
Y-56D02*
D03*
X886Y56D02*
D03*
Y-56D02*
D03*
X709Y56D02*
D03*
Y-56D02*
D03*
X531Y56D02*
D03*
Y-56D02*
D03*
X354Y56D02*
D03*
Y-56D02*
D03*
X177Y56D02*
D03*
Y-56D02*
D03*
X0Y54D02*
D03*
Y-58D02*
D03*
D29*
X-740Y1834D02*
D03*
D30*
X-649Y1586D02*
D03*
X-739D02*
D03*
X-829D02*
D03*
D31*
X-1291Y1500D02*
D03*
X-1359D02*
D03*
X-569Y615D02*
D03*
X-501D02*
D03*
X-781Y-445D02*
D03*
X-849D02*
D03*
X3754Y2430D02*
D03*
X3686D02*
D03*
X2309Y2420D02*
D03*
X2241D02*
D03*
X919Y2430D02*
D03*
X851D02*
D03*
X2544Y-450D02*
D03*
X2476D02*
D03*
D32*
X-1351Y935D02*
D03*
Y910D02*
D03*
Y884D02*
D03*
Y858D02*
D03*
Y833D02*
D03*
Y807D02*
D03*
Y782D02*
D03*
Y705D02*
D03*
X-1119Y935D02*
D03*
Y910D02*
D03*
Y756D02*
D03*
Y730D02*
D03*
Y705D02*
D03*
D33*
X-1351Y756D02*
D03*
Y730D02*
D03*
X-1119Y884D02*
D03*
Y858D02*
D03*
Y833D02*
D03*
Y807D02*
D03*
Y782D02*
D03*
D34*
X-865Y859D02*
D03*
Y791D02*
D03*
X-950D02*
D03*
Y859D02*
D03*
X-865Y626D02*
D03*
Y694D02*
D03*
X-950Y626D02*
D03*
Y694D02*
D03*
X1975Y-231D02*
D03*
Y-299D02*
D03*
D35*
X-697Y1040D02*
D03*
Y990D02*
D03*
Y940D02*
D03*
Y890D02*
D03*
Y840D02*
D03*
Y790D02*
D03*
Y740D02*
D03*
Y690D02*
D03*
X-503D02*
D03*
Y740D02*
D03*
Y790D02*
D03*
Y840D02*
D03*
Y890D02*
D03*
Y940D02*
D03*
Y990D02*
D03*
Y1040D02*
D03*
D36*
X-1510Y-351D02*
D03*
X-1450D02*
D03*
X-1390D02*
D03*
X-1330D02*
D03*
X-1270D02*
D03*
X-1210D02*
D03*
X-1150D02*
D03*
X-1090D02*
D03*
X-1030D02*
D03*
X-970D02*
D03*
X-910D02*
D03*
X-850D02*
D03*
X-1510Y155D02*
D03*
X-1450D02*
D03*
X-1390D02*
D03*
X-1330D02*
D03*
X-1270D02*
D03*
X-1210D02*
D03*
X-1150D02*
D03*
X-1090D02*
D03*
X-1030D02*
D03*
X-970D02*
D03*
X-910D02*
D03*
X-850D02*
D03*
D37*
X-790Y-351D02*
D03*
Y155D02*
D03*
D38*
X-730Y-308D02*
D03*
Y112D02*
D03*
D39*
Y-248D02*
D03*
Y-188D02*
D03*
Y-128D02*
D03*
Y-68D02*
D03*
Y-8D02*
D03*
Y52D02*
D03*
D40*
X3385Y2115D02*
D03*
X3435D02*
D03*
X3485D02*
D03*
X3535D02*
D03*
X3585D02*
D03*
X3635D02*
D03*
X3685D02*
D03*
X3735D02*
D03*
Y2310D02*
D03*
X3685D02*
D03*
X3635D02*
D03*
X3585D02*
D03*
X3535D02*
D03*
X3485D02*
D03*
X3435D02*
D03*
X3385D02*
D03*
X1940Y2115D02*
D03*
X1990D02*
D03*
X2040D02*
D03*
X2090D02*
D03*
X2140D02*
D03*
X2190D02*
D03*
X2240D02*
D03*
X2290D02*
D03*
Y2310D02*
D03*
X2240D02*
D03*
X2190D02*
D03*
X2140D02*
D03*
X2090D02*
D03*
X2040D02*
D03*
X1990D02*
D03*
X1940D02*
D03*
X550Y2115D02*
D03*
X600D02*
D03*
X650D02*
D03*
X700D02*
D03*
X750D02*
D03*
X800D02*
D03*
X850D02*
D03*
X900D02*
D03*
Y2310D02*
D03*
X850D02*
D03*
X800D02*
D03*
X750D02*
D03*
X700D02*
D03*
X650D02*
D03*
X600D02*
D03*
X550D02*
D03*
D41*
X4085Y1795D02*
D03*
Y1585D02*
D03*
X3907Y1795D02*
D03*
Y1585D02*
D03*
X3728Y1795D02*
D03*
Y1585D02*
D03*
X3550Y1795D02*
D03*
Y1585D02*
D03*
X3372Y1795D02*
D03*
Y1585D02*
D03*
X3194Y1795D02*
D03*
Y1585D02*
D03*
X3015Y1795D02*
D03*
Y1585D02*
D03*
X2837Y1795D02*
D03*
Y1585D02*
D03*
X2659Y1795D02*
D03*
Y1585D02*
D03*
X2481Y1795D02*
D03*
Y1585D02*
D03*
X2302Y1795D02*
D03*
Y1585D02*
D03*
X2124Y1795D02*
D03*
Y1585D02*
D03*
X1946Y1795D02*
D03*
Y1585D02*
D03*
X1768Y1795D02*
D03*
Y1585D02*
D03*
X1589Y1795D02*
D03*
Y1585D02*
D03*
X1411Y1795D02*
D03*
Y1585D02*
D03*
X1233Y1795D02*
D03*
Y1585D02*
D03*
X1055Y1795D02*
D03*
Y1585D02*
D03*
X876Y1795D02*
D03*
Y1585D02*
D03*
X698Y1795D02*
D03*
Y1585D02*
D03*
X520Y1795D02*
D03*
Y1585D02*
D03*
X342Y1795D02*
D03*
Y1585D02*
D03*
X163Y1795D02*
D03*
Y1585D02*
D03*
X-15Y1795D02*
D03*
Y1585D02*
D03*
D42*
X1880Y-302D02*
D03*
Y-228D02*
D03*
X1315Y-228D02*
D03*
Y-302D02*
D03*
X2225Y-467D02*
D03*
Y-393D02*
D03*
Y-223D02*
D03*
Y-297D02*
D03*
X2545Y-223D02*
D03*
Y-297D02*
D03*
D43*
X2346Y-278D02*
D03*
Y-315D02*
D03*
Y-352D02*
D03*
X2444Y-278D02*
D03*
Y-315D02*
D03*
Y-352D02*
D03*
D44*
X-1520Y2255D02*
D03*
X-1450D02*
D03*
X-1070Y270D02*
D03*
X-1140D02*
D03*
D45*
X1420Y-231D02*
D03*
Y-409D02*
D03*
X1778Y-231D02*
D03*
Y-409D02*
D03*
D75*
X3580Y2605D02*
X3650Y2535D01*
X3535Y2650D02*
X3580Y2605D01*
X2075Y2650D02*
X3535D01*
X1937Y2307D02*
Y2310D01*
X-1293Y2120D02*
Y2255D01*
X-497Y2660D02*
X244D01*
X-537Y2700D02*
X-497Y2660D01*
X244D02*
X254Y2650D01*
X-649Y1509D02*
Y1586D01*
Y1509D02*
X-630Y1490D01*
X-540D01*
X-739Y1479D02*
Y1586D01*
X-530Y1500D02*
Y1651D01*
X-540Y1490D02*
X-530Y1500D01*
Y1651D02*
X-404D01*
X811Y2650D02*
X2075D01*
X811D02*
X851Y2610D01*
X676Y2650D02*
X811D01*
X676Y2485D02*
Y2650D01*
X2075D02*
X2155Y2570D01*
X553Y2313D02*
Y2362D01*
X676Y2485D01*
X-537Y2252D02*
Y2700D01*
Y2795D01*
Y2252D02*
X-535Y2250D01*
X2205Y2520D02*
X2235Y2490D01*
X2155Y2570D02*
X2205Y2520D01*
X3650Y2535D02*
X3682Y2503D01*
X3305Y2310D02*
X3385D01*
X3305Y2310D02*
X3305Y2310D01*
X1835D02*
X1937D01*
X3682Y2433D02*
Y2503D01*
Y2433D02*
X3686Y2430D01*
X2235Y2426D02*
Y2490D01*
Y2426D02*
X2241Y2420D01*
X851Y2430D02*
Y2610D01*
X-1273Y1400D02*
X-1046D01*
X-945Y1501D01*
X-757Y1461D02*
X-739Y1479D01*
X-905Y1461D02*
X-757D01*
X-945Y1501D02*
X-905Y1461D01*
X-945Y1501D02*
Y1651D01*
X-739Y1586D02*
Y1833D01*
X-740Y1834D02*
X-739Y1833D01*
D76*
X3904Y1798D02*
Y1936D01*
X3875Y1965D02*
X3904Y1936D01*
X3725Y1965D02*
X3875D01*
X3635Y2055D02*
X3725Y1965D01*
X2595Y2005D02*
X2670Y1930D01*
X2295Y2005D02*
X2595D01*
X2240Y2060D02*
X2295Y2005D01*
X650Y2035D02*
Y2115D01*
X520Y1905D02*
X650Y2035D01*
X520Y1795D02*
Y1905D01*
X460Y1975D02*
X550Y2065D01*
X260Y1975D02*
X460D01*
X163Y1878D02*
X260Y1975D01*
X550Y2065D02*
Y2115D01*
X1764Y-231D02*
X1780Y-216D01*
X3720Y1341D02*
X4074D01*
X3366D02*
X3720D01*
X3012D02*
X3366D01*
X2480D02*
X3012D01*
X1949D02*
X2480D01*
X1417D02*
X1949D01*
X1063D02*
X1417D01*
X709D02*
X1063D01*
X354D02*
X709D01*
X0D02*
X354D01*
X163Y1465D02*
X177Y1451D01*
X90Y1216D02*
X205D01*
X90Y1451D02*
X177D01*
X90Y751D02*
X205D01*
X90Y981D02*
X205D01*
X90Y286D02*
X205D01*
X90Y516D02*
X205D01*
X90Y51D02*
X205D01*
X354Y1451D02*
X385D01*
X270Y981D02*
X385D01*
X270Y1216D02*
X385D01*
X270Y516D02*
X385D01*
X270Y751D02*
X385D01*
X270Y51D02*
X385D01*
X270Y286D02*
X385D01*
X531Y1451D02*
X560D01*
X506Y1452D02*
X520Y1466D01*
X445Y981D02*
X560D01*
X445Y1216D02*
X560D01*
X445Y516D02*
X560D01*
X445Y751D02*
X560D01*
X445Y51D02*
X560D01*
X445Y286D02*
X560D01*
X700Y1451D02*
X735D01*
X700D02*
Y1583D01*
X620Y981D02*
X735D01*
X620Y1216D02*
X735D01*
X620Y516D02*
X735D01*
X620Y751D02*
X735D01*
X620Y51D02*
X735D01*
X620Y286D02*
X735D01*
X886Y1451D02*
X910D01*
X795Y981D02*
X910D01*
X795Y1216D02*
X910D01*
X795Y516D02*
X910D01*
X795Y751D02*
X910D01*
X795Y51D02*
X910D01*
X795Y286D02*
X910D01*
X975Y1216D02*
X1090D01*
X975Y1451D02*
X1090D01*
X975Y751D02*
X1090D01*
X975Y981D02*
X1090D01*
X975Y286D02*
X1090D01*
X975Y516D02*
X1090D01*
X975Y51D02*
X1090D01*
X1240Y1451D02*
X1270D01*
X1221Y1452D02*
X1233Y1464D01*
X1155Y981D02*
X1270D01*
X1155Y1216D02*
X1270D01*
X1155Y516D02*
X1270D01*
X1155Y751D02*
X1270D01*
X1155Y51D02*
X1270D01*
X1155Y286D02*
X1270D01*
X1411Y1458D02*
X1417Y1451D01*
X1335Y1216D02*
X1450D01*
X1335Y1451D02*
X1417D01*
X1335Y751D02*
X1450D01*
X1335Y981D02*
X1450D01*
X1335Y286D02*
X1450D01*
X1335Y516D02*
X1450D01*
X1335Y51D02*
X1450D01*
X1589Y1456D02*
X1594Y1451D01*
X1515Y1216D02*
X1630D01*
X1515Y1451D02*
X1594D01*
X1515Y751D02*
X1630D01*
X1515Y981D02*
X1630D01*
X1515Y286D02*
X1630D01*
X1515Y516D02*
X1630D01*
X1515Y51D02*
X1630D01*
X1760Y1451D02*
X1805D01*
X1761Y1452D02*
X1768Y1459D01*
X1690Y1216D02*
X1805D01*
X1690Y751D02*
X1805D01*
X1690Y981D02*
X1805D01*
X1690Y516D02*
X1805D01*
X1690Y51D02*
X1805D01*
X1690Y286D02*
X1805D01*
X1949Y1451D02*
X1980D01*
X1865D02*
X1949D01*
X1865Y981D02*
X1980D01*
X1865Y1216D02*
X1980D01*
X1865Y516D02*
X1980D01*
X1865Y751D02*
X1980D01*
X1865Y51D02*
X1980D01*
X1865Y286D02*
X1980D01*
X2126Y1451D02*
X2155D01*
X2111Y1452D02*
X2124Y1465D01*
X2040Y981D02*
X2155D01*
X2040Y1216D02*
X2155D01*
X2040Y516D02*
X2155D01*
X2040Y751D02*
X2155D01*
X2040Y51D02*
X2155D01*
X2040Y286D02*
X2155D01*
X2290Y1451D02*
X2335D01*
X2291Y1452D02*
X2302Y1464D01*
X2220Y981D02*
X2335D01*
X2220Y1216D02*
X2335D01*
X2220Y516D02*
X2335D01*
X2220Y751D02*
X2335D01*
X2220Y51D02*
X2335D01*
X2220Y286D02*
X2335D01*
X2471Y1452D02*
X2481Y1462D01*
X2470Y1451D02*
X2510D01*
X2395Y981D02*
X2510D01*
X2395Y1216D02*
X2510D01*
X2395Y516D02*
X2510D01*
X2395Y751D02*
X2510D01*
X2395Y51D02*
X2510D01*
X2395Y286D02*
X2510D01*
X2570Y1216D02*
X2685D01*
X2570Y1451D02*
X2685D01*
X2570Y751D02*
X2685D01*
X2570Y981D02*
X2685D01*
X2570Y286D02*
X2685D01*
X2570Y516D02*
X2685D01*
X2570Y51D02*
X2685D01*
X2837Y1459D02*
X2844Y1452D01*
X2750Y1451D02*
X2845D01*
X2750Y981D02*
X2865D01*
X2750Y1216D02*
X2865D01*
X2750Y516D02*
X2865D01*
X2750Y751D02*
X2865D01*
X2750Y51D02*
X2865D01*
X2750Y286D02*
X2865D01*
X3006Y1452D02*
X3015Y1462D01*
X3005Y1451D02*
X3040D01*
X2925Y981D02*
X3040D01*
X2925Y1216D02*
X3040D01*
X2925Y516D02*
X3040D01*
X2925Y751D02*
X3040D01*
X2925Y51D02*
X3040D01*
X2925Y286D02*
X3040D01*
X3186Y1452D02*
X3194Y1460D01*
X3185Y1451D02*
X3220D01*
X3105Y981D02*
X3220D01*
X3105Y1216D02*
X3220D01*
X3105Y516D02*
X3220D01*
X3105Y751D02*
X3220D01*
X3105Y51D02*
X3220D01*
X3105Y286D02*
X3220D01*
X3366Y1451D02*
X3372Y1457D01*
X3280Y1216D02*
X3395D01*
X3280Y1451D02*
X3366D01*
X3280Y751D02*
X3395D01*
X3280Y981D02*
X3395D01*
X3280Y286D02*
X3395D01*
X3280Y516D02*
X3395D01*
X3280Y51D02*
X3395D01*
X3542Y1451D02*
X3575D01*
X3530D02*
Y1565D01*
X3460Y981D02*
X3575D01*
X3460Y1216D02*
X3575D01*
X3460Y516D02*
X3575D01*
X3460Y751D02*
X3575D01*
X3460Y51D02*
X3575D01*
X3460Y286D02*
X3575D01*
X3719Y1451D02*
X3750D01*
X3714D02*
Y1571D01*
X3635Y981D02*
X3750D01*
X3635Y1216D02*
X3750D01*
X3635Y516D02*
X3750D01*
X3635Y751D02*
X3750D01*
X3635Y51D02*
X3750D01*
X3635Y286D02*
X3750D01*
X3898Y1451D02*
X3907Y1460D01*
X3815Y1216D02*
X3930D01*
X3815Y1451D02*
X3898D01*
X3815Y751D02*
X3930D01*
X3815Y981D02*
X3930D01*
X3815Y286D02*
X3930D01*
X3815Y516D02*
X3930D01*
X3815Y51D02*
X3930D01*
X4085Y1451D02*
Y1585D01*
X3990Y1451D02*
X4085D01*
X3990Y981D02*
X4105D01*
X3990Y1216D02*
X4105D01*
X3990Y516D02*
X4105D01*
X3990Y751D02*
X4105D01*
X3990Y51D02*
X4105D01*
X3990Y286D02*
X4105D01*
X3543Y1106D02*
X4069D01*
X3012D02*
X3543D01*
X2480D02*
X3012D01*
X2126D02*
X2480D01*
X1772D02*
X2126D01*
X1240D02*
X1772D01*
X886D02*
X1240D01*
X531D02*
X886D01*
X-5D02*
X531D01*
X3720Y876D02*
X4079D01*
X3366D02*
X3720D01*
X3012D02*
X3366D01*
X2480D02*
X3012D01*
X1949D02*
X2480D01*
X1417D02*
X1949D01*
X1063D02*
X1417D01*
X709D02*
X1063D01*
X5D02*
X709D01*
X3543Y641D02*
X4059D01*
X3012D02*
X3543D01*
X2480D02*
X3012D01*
X2126D02*
X2480D01*
X1772D02*
X2126D01*
X0D02*
X531D01*
X886D01*
X-15D02*
X0D01*
X1240D02*
X1772D01*
X886D02*
X1240D01*
X3720Y411D02*
X4079D01*
X3366D02*
X3720D01*
X3012D02*
X3366D01*
X2480D02*
X3012D01*
X2126D02*
X2480D01*
X1772D02*
X2126D01*
X886D02*
X1240D01*
X1772D01*
X531D02*
X886D01*
X5D02*
X531D01*
X3366Y181D02*
X3720D01*
X4084D01*
X3012D02*
X3366D01*
X2480D02*
X3012D01*
X2126D02*
X2480D01*
X1417D02*
X2126D01*
X709D02*
X1063D01*
X1417D01*
X354D02*
X709D01*
X10D02*
X354D01*
X3720Y-54D02*
X4079D01*
X3366D02*
X3720D01*
X3012D02*
X3366D01*
X2480D02*
X3012D01*
X2126D02*
X2480D01*
X1772D02*
X2126D01*
X531D02*
X886D01*
X1772D01*
X5D02*
X531D01*
X2090Y2321D02*
Y2385D01*
X3535Y2331D02*
Y2395D01*
X3751Y2054D02*
X3839D01*
X3737Y2068D02*
Y2118D01*
Y2068D02*
X3751Y2054D01*
X2306D02*
X2394D01*
X2292Y2068D02*
Y2118D01*
Y2068D02*
X2306Y2054D01*
X902Y2063D02*
X916Y2049D01*
X902Y2063D02*
Y2113D01*
X900Y2115D02*
X902Y2113D01*
X916Y2049D02*
X1004D01*
X-31Y2406D02*
Y2483D01*
X-1519Y2257D02*
Y2334D01*
X-529Y1782D02*
Y1859D01*
X-944Y1782D02*
Y1859D01*
X-1291Y1497D02*
Y1574D01*
X-570Y540D02*
Y615D01*
X-774Y690D02*
X-697D01*
X-865Y746D02*
Y792D01*
X-950Y745D02*
Y791D01*
X-1076Y276D02*
Y340D01*
X1790Y-302D02*
X1880D01*
X-1200Y1170D02*
Y1255D01*
X-1270Y1100D02*
X-1200Y1170D01*
X-1505Y1100D02*
X-1270D01*
X-1273Y1328D02*
X-1200Y1255D01*
X-1273Y1328D02*
Y1400D01*
X-575Y707D02*
Y1130D01*
X-620Y670D02*
Y1200D01*
X600Y2246D02*
Y2310D01*
X584Y2230D02*
X600Y2246D01*
X285Y2230D02*
X584D01*
X-15Y1930D02*
X285Y2230D01*
X-15Y1795D02*
Y1930D01*
X163Y1795D02*
Y1878D01*
X-739Y1319D02*
X-620Y1200D01*
X-665Y625D02*
X-620Y670D01*
X-575Y707D02*
X-560Y692D01*
X-504D01*
X-503Y690D01*
X-575Y1130D02*
X-404Y1301D01*
Y1651D01*
X-821Y625D02*
X-665D01*
X-739Y1319D02*
Y1479D01*
X-835Y625D02*
X-821D01*
X-1450Y2255D02*
X-1367D01*
X-501Y615D02*
Y688D01*
X-781Y-445D02*
X-701D01*
X2544Y-450D02*
X2629D01*
X1315Y-385D02*
Y-302D01*
X1780Y-216D02*
Y-172D01*
X1763Y-155D02*
X1780Y-172D01*
X1337Y-155D02*
X1763D01*
X1325Y-218D02*
Y-167D01*
X1337Y-155D01*
X1315Y-228D02*
X1325Y-218D01*
X1764Y-231D02*
X1778D01*
X1780Y-230D01*
X1878D01*
X1880Y-228D01*
X1881Y-229D01*
X1974D01*
X1975Y-231D01*
Y-361D02*
Y-299D01*
X1927Y-409D02*
X1975Y-361D01*
X1778Y-409D02*
X1927D01*
X2444Y-352D02*
X2510D01*
X2224Y-298D02*
X2225Y-297D01*
X1976Y-298D02*
X2224D01*
X1975Y-299D02*
X1976Y-298D01*
X2510Y-352D02*
X2533D01*
X2476Y-387D02*
X2510Y-352D01*
X2476Y-450D02*
Y-387D01*
X2533Y-352D02*
X2545Y-341D01*
Y-297D01*
X2225Y-393D02*
Y-297D01*
X1660Y2205D02*
X1955D01*
X1411Y1956D02*
X1660Y2205D01*
X1411Y1795D02*
Y1956D01*
X1955Y2205D02*
X1990Y2240D01*
Y2310D01*
X2240Y2310D02*
Y2420D01*
X2241Y2420D01*
X2240Y2310D02*
X2240Y2310D01*
X920Y2436D02*
Y2500D01*
X850Y2430D02*
X851Y2430D01*
X850Y2310D02*
Y2430D01*
X850Y2310D02*
X850Y2310D01*
X2310Y2416D02*
Y2480D01*
X400Y1920D02*
X465D01*
X360Y1880D02*
X400Y1920D01*
X465D02*
X600Y2055D01*
Y2115D01*
X360Y1813D02*
Y1880D01*
X342Y1795D02*
X360Y1813D01*
X700Y1797D02*
Y2115D01*
X876Y1795D02*
Y1859D01*
X750Y1985D02*
X876Y1859D01*
X750Y1985D02*
Y2115D01*
X1063Y1803D02*
Y1902D01*
X1050Y1915D02*
X1063Y1902D01*
X895Y1915D02*
X1050D01*
X1055Y1795D02*
X1063Y1803D01*
X800Y2010D02*
X895Y1915D01*
X800Y2010D02*
Y2115D01*
X1233Y1795D02*
Y1937D01*
X1210Y1960D02*
X1233Y1937D01*
X930Y1960D02*
X1210D01*
X850Y2040D02*
X930Y1960D01*
X850Y2040D02*
Y2115D01*
X1990Y2055D02*
Y2115D01*
X1768Y1833D02*
X1990Y2055D01*
X1768Y1795D02*
Y1833D01*
X1925Y2045D02*
X1940Y2060D01*
Y2115D01*
X1714Y2045D02*
X1925D01*
X1589Y1920D02*
X1714Y2045D01*
X1589Y1795D02*
Y1920D01*
X1946Y1795D02*
Y1930D01*
X2040Y2024D01*
Y2115D01*
X2120Y1799D02*
Y1955D01*
Y1799D02*
X2124Y1795D01*
X2090Y1985D02*
X2120Y1955D01*
X2090Y1985D02*
Y2115D01*
X2302Y1795D02*
Y1863D01*
X2140Y2025D02*
X2302Y1863D01*
X2140Y2025D02*
Y2115D01*
X2481Y1795D02*
Y1934D01*
X2450Y1965D02*
X2481Y1934D01*
X2260Y1965D02*
X2450D01*
X2190Y2035D02*
X2260Y1965D01*
X2190Y2035D02*
Y2115D01*
X2670Y1806D02*
Y1930D01*
X2240Y2060D02*
Y2115D01*
X3435Y2255D02*
Y2310D01*
X3395Y2215D02*
X3435Y2255D01*
X3020Y2215D02*
X3395D01*
X2837Y2032D02*
X3020Y2215D01*
X2837Y1795D02*
Y2032D01*
X3015Y1795D02*
Y1910D01*
X3085Y1980D01*
X3310D01*
X3241Y1945D02*
X3320D01*
X3200Y1904D02*
X3241Y1945D01*
X3320D02*
X3435Y2060D01*
X3310Y1980D02*
X3385Y2055D01*
Y2115D01*
X3200Y1801D02*
Y1904D01*
X3194Y1795D02*
X3200Y1801D01*
X3435Y2060D02*
Y2115D01*
X3380Y1803D02*
Y1935D01*
X3372Y1795D02*
X3380Y1803D01*
Y1935D02*
X3485Y2040D01*
Y2115D01*
X3535Y1810D02*
Y2115D01*
X3728Y1795D02*
Y1892D01*
X3585Y2035D02*
X3728Y1892D01*
X3585Y2035D02*
Y2115D01*
X3904Y1798D02*
X3907Y1795D01*
X3635Y2055D02*
Y2115D01*
X4085Y1795D02*
Y1985D01*
X4060Y2010D02*
X4085Y1985D01*
X3740Y2010D02*
X4060D01*
X3685Y2065D02*
X3740Y2010D01*
X3685Y2065D02*
Y2115D01*
X4085Y1795D02*
X4085Y1795D01*
X3755Y2441D02*
Y2505D01*
Y2441D02*
X3760Y2436D01*
X3754Y2430D02*
X3760Y2436D01*
X3685Y2430D02*
X3686Y2430D01*
X3685Y2310D02*
Y2430D01*
X3685Y2310D02*
X3685Y2310D01*
X4084Y1452D02*
X4085Y1451D01*
X4075Y1452D02*
X4084D01*
X4085Y1451D02*
X4085Y1451D01*
X3898D02*
Y1452D01*
X3907Y1460D02*
Y1585D01*
X3635Y1451D02*
X3714D01*
X3719D02*
X3720Y1452D01*
X3714Y1451D02*
X3719D01*
X3714Y1571D02*
X3728Y1585D01*
X3460Y1451D02*
X3530D01*
X3542D02*
X3543Y1452D01*
X3530Y1451D02*
X3542D01*
X3530Y1565D02*
X3550Y1585D01*
X3366Y1451D02*
Y1452D01*
X3372Y1457D02*
Y1585D01*
X3105Y1451D02*
X3185D01*
X3186Y1452D02*
X3189D01*
X3185Y1451D02*
X3186Y1452D01*
X3194Y1460D02*
Y1585D01*
X2925Y1451D02*
X3005D01*
X3006Y1452D02*
X3012D01*
X3005Y1451D02*
X3006Y1452D01*
X3015Y1462D02*
Y1585D01*
X2835Y1452D02*
X2844D01*
X2845Y1451D01*
X2837Y1459D02*
Y1585D01*
X2657Y1452D02*
X2659Y1454D01*
Y1585D01*
X2395Y1451D02*
X2470D01*
X2471Y1452D01*
X2480D01*
X2481Y1462D02*
Y1585D01*
X2220Y1451D02*
X2290D01*
X2291Y1452D02*
X2303D01*
X2290Y1451D02*
X2291Y1452D01*
X2302Y1464D02*
Y1585D01*
X2040Y1451D02*
X2110D01*
X2111Y1452D01*
X2126D01*
X2124Y1465D02*
Y1585D01*
X1949Y1452D02*
Y1582D01*
Y1451D02*
Y1452D01*
X1946Y1585D02*
X1949Y1582D01*
X1690Y1451D02*
X1760D01*
X1761Y1452D02*
X1772D01*
X1760Y1451D02*
X1761Y1452D01*
X1768Y1459D02*
Y1585D01*
X1594Y1451D02*
Y1452D01*
X1589Y1456D02*
Y1585D01*
X1417Y1451D02*
Y1452D01*
X1411Y1458D02*
Y1585D01*
X1155Y1451D02*
X1220D01*
X1221Y1452D01*
X1240D01*
X1233Y1464D02*
Y1585D01*
X1055Y1461D02*
X1063Y1452D01*
X1055Y1461D02*
Y1585D01*
X795Y1451D02*
X870D01*
X871Y1452D02*
X876Y1458D01*
X871Y1452D02*
X886D01*
X870Y1451D02*
X871Y1452D01*
X876Y1458D02*
Y1585D01*
X620Y1451D02*
X700D01*
X701Y1452D02*
X709D01*
X700Y1451D02*
X701Y1452D01*
X698Y1585D02*
X700Y1583D01*
X445Y1451D02*
X505D01*
X506Y1452D01*
X531D01*
X520Y1466D02*
Y1585D01*
X270Y1451D02*
X335D01*
X336Y1452D02*
X342Y1458D01*
X335Y1451D02*
X336Y1452D01*
X354D01*
X342Y1458D02*
Y1585D01*
X177Y1451D02*
Y1452D01*
X163Y1465D02*
Y1585D01*
X-2Y1451D02*
X0Y1454D01*
X-5Y1451D02*
X-2D01*
X-15Y1461D02*
X-5Y1451D01*
X-15Y1461D02*
Y1585D01*
X-120Y51D02*
X-5D01*
X-120Y286D02*
X-5D01*
X-120Y516D02*
X-5D01*
X-120Y751D02*
X-5D01*
X-120Y981D02*
X-5D01*
X-120Y1216D02*
X-5D01*
X-120Y1451D02*
X-5D01*
X4074Y1341D02*
X4075Y1340D01*
D77*
X-535Y2250D02*
D03*
D78*
X-1135D02*
D03*
D79*
X-1323Y2620D02*
D03*
D80*
X-1441Y2805D02*
D03*
D81*
X-1205D02*
D03*
D82*
X-1505Y1100D02*
D03*
Y1200D02*
D03*
Y1300D02*
D03*
Y1400D02*
D03*
Y1500D02*
D03*
D83*
Y460D02*
D03*
X-1405D02*
D03*
D84*
X-336Y2795D02*
D03*
X-403D02*
D03*
X-470D02*
D03*
X-537D02*
D03*
X-604D02*
D03*
D85*
X3580Y2605D02*
D03*
X-1205Y1880D02*
D03*
X-1450D02*
D03*
X-1060Y-475D02*
D03*
X-1305D02*
D03*
X-365Y370D02*
D03*
X-610D02*
D03*
X1485Y2475D02*
D03*
X1240D02*
D03*
X2920Y2500D02*
D03*
X2675D02*
D03*
X1785Y2780D02*
D03*
X1540D02*
D03*
X2685Y2790D02*
D03*
X2930D02*
D03*
X3790D02*
D03*
X4050Y2505D02*
D03*
X770Y-220D02*
D03*
Y-465D02*
D03*
X407Y-220D02*
D03*
Y-465D02*
D03*
X3560Y-220D02*
D03*
Y-465D02*
D03*
X3915D02*
D03*
X3150D02*
D03*
X3915Y-220D02*
D03*
X3150D02*
D03*
X2090Y2385D02*
D03*
X3535Y2395D02*
D03*
X3839Y2054D02*
D03*
X2394D02*
D03*
X715Y2430D02*
D03*
X1004Y2049D02*
D03*
X-31Y2406D02*
D03*
X-1519Y2334D02*
D03*
X-529Y1859D02*
D03*
X-944D02*
D03*
X-1291Y1574D02*
D03*
X-570Y540D02*
D03*
X-774Y690D02*
D03*
X-865Y746D02*
D03*
X-950Y745D02*
D03*
X-1076Y340D02*
D03*
X1790Y-302D02*
D03*
X-1450Y640D02*
D03*
X-1495Y692D02*
D03*
X-1540Y730D02*
D03*
X-1125Y1135D02*
D03*
X-1250Y1070D02*
D03*
X-1070Y630D02*
D03*
X-1293Y2120D02*
D03*
X-775Y792D02*
D03*
X-404Y1651D02*
D03*
X3650Y2535D02*
D03*
X2205Y2520D02*
D03*
X2155Y2570D02*
D03*
X3305Y2310D02*
D03*
X1835Y2310D02*
D03*
X-1190Y865D02*
D03*
X-975Y935D02*
D03*
X-1030Y930D02*
D03*
X-950Y240D02*
D03*
X-850Y-255D02*
D03*
X-1415Y833D02*
D03*
X-1230Y585D02*
D03*
X-1190Y755D02*
D03*
X-1260Y655D02*
D03*
X-775Y738D02*
D03*
Y843D02*
D03*
X-1415Y783D02*
D03*
X-1286Y807D02*
D03*
X-1035Y675D02*
D03*
X-1450Y-278D02*
D03*
X-1510Y-245D02*
D03*
X-700Y-444D02*
D03*
X2390Y-210D02*
D03*
X2629Y-450D02*
D03*
X1315Y-385D02*
D03*
X2545Y-150D02*
D03*
X2225D02*
D03*
X2405Y-448D02*
D03*
X2140Y-393D02*
D03*
X3635Y2240D02*
D03*
X2190Y2235D02*
D03*
X800D02*
D03*
X3585Y2210D02*
D03*
X2140Y2200D02*
D03*
X750D02*
D03*
X920Y2500D02*
D03*
X2310Y2480D02*
D03*
X3755Y2505D02*
D03*
X3990Y1451D02*
D03*
Y1216D02*
D03*
Y981D02*
D03*
Y751D02*
D03*
Y516D02*
D03*
Y286D02*
D03*
Y51D02*
D03*
X3815Y1451D02*
D03*
Y1216D02*
D03*
Y981D02*
D03*
Y751D02*
D03*
Y516D02*
D03*
Y286D02*
D03*
Y51D02*
D03*
X3635Y1451D02*
D03*
Y1216D02*
D03*
Y981D02*
D03*
Y751D02*
D03*
Y516D02*
D03*
Y286D02*
D03*
Y51D02*
D03*
X3460Y1451D02*
D03*
Y1216D02*
D03*
Y981D02*
D03*
Y751D02*
D03*
Y516D02*
D03*
Y286D02*
D03*
Y51D02*
D03*
X3280Y1451D02*
D03*
Y1216D02*
D03*
Y981D02*
D03*
Y751D02*
D03*
Y516D02*
D03*
Y286D02*
D03*
Y51D02*
D03*
X3105Y1451D02*
D03*
Y1216D02*
D03*
Y981D02*
D03*
Y751D02*
D03*
Y516D02*
D03*
Y286D02*
D03*
Y51D02*
D03*
X2925Y1451D02*
D03*
Y1216D02*
D03*
Y981D02*
D03*
Y751D02*
D03*
Y516D02*
D03*
Y286D02*
D03*
Y51D02*
D03*
X2750Y1451D02*
D03*
Y1216D02*
D03*
Y981D02*
D03*
Y751D02*
D03*
Y516D02*
D03*
Y286D02*
D03*
Y51D02*
D03*
X2570Y1451D02*
D03*
Y1216D02*
D03*
Y981D02*
D03*
Y751D02*
D03*
Y516D02*
D03*
Y286D02*
D03*
Y51D02*
D03*
X2395Y1451D02*
D03*
Y1216D02*
D03*
Y981D02*
D03*
Y751D02*
D03*
Y516D02*
D03*
Y286D02*
D03*
Y51D02*
D03*
X2220Y1451D02*
D03*
Y1216D02*
D03*
Y981D02*
D03*
Y751D02*
D03*
Y516D02*
D03*
Y286D02*
D03*
Y51D02*
D03*
X2040Y1451D02*
D03*
Y1216D02*
D03*
Y981D02*
D03*
Y751D02*
D03*
Y516D02*
D03*
Y286D02*
D03*
Y51D02*
D03*
X1865Y1451D02*
D03*
Y1216D02*
D03*
Y981D02*
D03*
Y751D02*
D03*
Y516D02*
D03*
Y286D02*
D03*
Y51D02*
D03*
X1690Y1451D02*
D03*
Y1216D02*
D03*
Y981D02*
D03*
Y751D02*
D03*
Y516D02*
D03*
Y286D02*
D03*
Y51D02*
D03*
X1515Y1451D02*
D03*
Y1216D02*
D03*
Y981D02*
D03*
Y751D02*
D03*
Y516D02*
D03*
Y286D02*
D03*
Y51D02*
D03*
X1335Y1451D02*
D03*
Y1216D02*
D03*
Y981D02*
D03*
Y751D02*
D03*
Y516D02*
D03*
Y286D02*
D03*
Y51D02*
D03*
X1155Y1451D02*
D03*
Y1216D02*
D03*
Y981D02*
D03*
Y751D02*
D03*
Y516D02*
D03*
Y286D02*
D03*
Y51D02*
D03*
X975Y1451D02*
D03*
Y1216D02*
D03*
Y981D02*
D03*
Y751D02*
D03*
Y516D02*
D03*
Y286D02*
D03*
Y51D02*
D03*
X795Y1451D02*
D03*
Y1216D02*
D03*
Y981D02*
D03*
Y751D02*
D03*
Y516D02*
D03*
Y286D02*
D03*
Y51D02*
D03*
X620Y1451D02*
D03*
Y1216D02*
D03*
Y981D02*
D03*
Y751D02*
D03*
Y516D02*
D03*
Y286D02*
D03*
Y51D02*
D03*
X445Y1451D02*
D03*
Y1216D02*
D03*
Y981D02*
D03*
Y751D02*
D03*
Y516D02*
D03*
Y286D02*
D03*
Y51D02*
D03*
X270Y1451D02*
D03*
Y1216D02*
D03*
Y981D02*
D03*
Y751D02*
D03*
Y516D02*
D03*
Y286D02*
D03*
Y51D02*
D03*
X90Y1451D02*
D03*
Y1216D02*
D03*
Y981D02*
D03*
Y751D02*
D03*
Y516D02*
D03*
Y286D02*
D03*
Y51D02*
D03*
X-120D02*
D03*
Y286D02*
D03*
Y516D02*
D03*
Y751D02*
D03*
Y981D02*
D03*
Y1216D02*
D03*
Y1451D02*
D03*
M02*
