G04*
G04 #@! TF.GenerationSoftware,Altium Limited,Altium Designer,19.0.15 (446)*
G04*
G04 Layer_Color=255*
%FSLAX23Y23*%
%MOIN*%
G70*
G01*
G75*
%ADD25R,0.051X0.063*%
%ADD26R,0.180X0.217*%
%ADD27R,0.098X0.170*%
%ADD28R,0.094X0.063*%
%ADD29R,0.150X0.079*%
%ADD30R,0.059X0.079*%
%ADD31R,0.043X0.055*%
%ADD32O,0.055X0.010*%
%ADD33O,0.055X0.010*%
%ADD34R,0.055X0.043*%
G04:AMPARAMS|DCode=35|XSize=78mil|YSize=24mil|CornerRadius=3mil|HoleSize=0mil|Usage=FLASHONLY|Rotation=0.000|XOffset=0mil|YOffset=0mil|HoleType=Round|Shape=RoundedRectangle|*
%AMROUNDEDRECTD35*
21,1,0.078,0.018,0,0,0.0*
21,1,0.072,0.024,0,0,0.0*
1,1,0.006,0.036,-0.009*
1,1,0.006,-0.036,-0.009*
1,1,0.006,-0.036,0.009*
1,1,0.006,0.036,0.009*
%
%ADD35ROUNDEDRECTD35*%
%ADD36R,0.040X0.060*%
%ADD37R,0.030X0.060*%
%ADD38R,0.060X0.030*%
%ADD39R,0.060X0.040*%
G04:AMPARAMS|DCode=40|XSize=78mil|YSize=24mil|CornerRadius=3mil|HoleSize=0mil|Usage=FLASHONLY|Rotation=90.000|XOffset=0mil|YOffset=0mil|HoleType=Round|Shape=RoundedRectangle|*
%AMROUNDEDRECTD40*
21,1,0.078,0.018,0,0,90.0*
21,1,0.072,0.024,0,0,90.0*
1,1,0.006,0.009,0.036*
1,1,0.006,0.009,-0.036*
1,1,0.006,-0.009,-0.036*
1,1,0.006,-0.009,0.036*
%
%ADD40ROUNDEDRECTD40*%
%ADD41R,0.130X0.090*%
%ADD42R,0.063X0.051*%
G04:AMPARAMS|DCode=43|XSize=48mil|YSize=23mil|CornerRadius=3mil|HoleSize=0mil|Usage=FLASHONLY|Rotation=0.000|XOffset=0mil|YOffset=0mil|HoleType=Round|Shape=RoundedRectangle|*
%AMROUNDEDRECTD43*
21,1,0.048,0.017,0,0,0.0*
21,1,0.042,0.023,0,0,0.0*
1,1,0.006,0.021,-0.009*
1,1,0.006,-0.021,-0.009*
1,1,0.006,-0.021,0.009*
1,1,0.006,0.021,0.009*
%
%ADD43ROUNDEDRECTD43*%
%ADD44R,0.043X0.057*%
%ADD45R,0.083X0.055*%
%ADD77R,0.098X0.098*%
%ADD78C,0.098*%
%ADD79O,0.177X0.089*%
%ADD80O,0.089X0.177*%
%ADD81O,0.098X0.197*%
G04:AMPARAMS|DCode=82|XSize=80mil|YSize=60mil|CornerRadius=0mil|HoleSize=0mil|Usage=FLASHONLY|Rotation=180.000|XOffset=0mil|YOffset=0mil|HoleType=Round|Shape=Octagon|*
%AMOCTAGOND82*
4,1,8,-0.040,0.015,-0.040,-0.015,-0.025,-0.030,0.025,-0.030,0.040,-0.015,0.040,0.015,0.025,0.030,-0.025,0.030,-0.040,0.015,0.0*
%
%ADD82OCTAGOND82*%

G04:AMPARAMS|DCode=83|XSize=80mil|YSize=60mil|CornerRadius=0mil|HoleSize=0mil|Usage=FLASHONLY|Rotation=90.000|XOffset=0mil|YOffset=0mil|HoleType=Round|Shape=Octagon|*
%AMOCTAGOND83*
4,1,8,0.015,0.040,-0.015,0.040,-0.030,0.025,-0.030,-0.025,-0.015,-0.040,0.015,-0.040,0.030,-0.025,0.030,0.025,0.015,0.040,0.0*
%
%ADD83OCTAGOND83*%

%ADD84O,0.061X0.122*%
D25*
X-1293Y2255D02*
D03*
X-1367D02*
D03*
X-1347Y1400D02*
D03*
X-1273D02*
D03*
X-1278Y1200D02*
D03*
X-1352D02*
D03*
X-1512Y265D02*
D03*
X-1438D02*
D03*
X-1322D02*
D03*
X-1248D02*
D03*
D26*
X254Y2650D02*
D03*
X676D02*
D03*
D27*
X-30Y2537D02*
D03*
Y2813D02*
D03*
X-910Y2537D02*
D03*
Y2813D02*
D03*
D28*
X-530Y1651D02*
D03*
Y1769D02*
D03*
X-945Y1651D02*
D03*
Y1769D02*
D03*
X4075Y1452D02*
D03*
Y1340D02*
D03*
X3898Y1452D02*
D03*
Y1340D02*
D03*
X3720Y1452D02*
D03*
Y1340D02*
D03*
X3543Y1452D02*
D03*
Y1340D02*
D03*
X3366Y1452D02*
D03*
Y1340D02*
D03*
X3189Y1452D02*
D03*
Y1340D02*
D03*
X3012Y1452D02*
D03*
Y1340D02*
D03*
X2835Y1452D02*
D03*
Y1340D02*
D03*
X2657Y1452D02*
D03*
Y1340D02*
D03*
X2480Y1452D02*
D03*
Y1340D02*
D03*
X2303Y1452D02*
D03*
Y1340D02*
D03*
X2126Y1452D02*
D03*
Y1340D02*
D03*
X1949Y1452D02*
D03*
Y1340D02*
D03*
X1772Y1452D02*
D03*
Y1340D02*
D03*
X1594Y1452D02*
D03*
Y1340D02*
D03*
X1417Y1452D02*
D03*
Y1340D02*
D03*
X1240Y1452D02*
D03*
Y1340D02*
D03*
X1063Y1452D02*
D03*
Y1340D02*
D03*
X886Y1452D02*
D03*
Y1340D02*
D03*
X709Y1452D02*
D03*
Y1340D02*
D03*
X531Y1452D02*
D03*
Y1340D02*
D03*
X354Y1452D02*
D03*
Y1340D02*
D03*
X177Y1452D02*
D03*
Y1340D02*
D03*
X0Y1454D02*
D03*
Y1341D02*
D03*
X4075Y1221D02*
D03*
Y1109D02*
D03*
X3898Y1221D02*
D03*
Y1109D02*
D03*
X3720Y1221D02*
D03*
Y1109D02*
D03*
X3543Y1221D02*
D03*
Y1109D02*
D03*
X3366Y1221D02*
D03*
Y1109D02*
D03*
X3189Y1221D02*
D03*
Y1109D02*
D03*
X3012Y1221D02*
D03*
Y1109D02*
D03*
X2835Y1221D02*
D03*
Y1109D02*
D03*
X2657Y1221D02*
D03*
Y1109D02*
D03*
X2480Y1221D02*
D03*
Y1109D02*
D03*
X2303Y1221D02*
D03*
Y1109D02*
D03*
X2126Y1221D02*
D03*
Y1109D02*
D03*
X1949Y1221D02*
D03*
Y1109D02*
D03*
X1772Y1221D02*
D03*
Y1109D02*
D03*
X1594Y1221D02*
D03*
Y1109D02*
D03*
X1417Y1221D02*
D03*
Y1109D02*
D03*
X1240Y1221D02*
D03*
Y1109D02*
D03*
X1063Y1221D02*
D03*
Y1109D02*
D03*
X886Y1221D02*
D03*
Y1109D02*
D03*
X709Y1221D02*
D03*
Y1109D02*
D03*
X531Y1221D02*
D03*
Y1109D02*
D03*
X354Y1221D02*
D03*
Y1109D02*
D03*
X177Y1221D02*
D03*
Y1109D02*
D03*
X0Y1220D02*
D03*
Y1108D02*
D03*
X4075Y986D02*
D03*
Y874D02*
D03*
X3898Y986D02*
D03*
Y874D02*
D03*
X3720Y986D02*
D03*
Y874D02*
D03*
X3543Y986D02*
D03*
Y874D02*
D03*
X3366Y986D02*
D03*
Y874D02*
D03*
X3189Y986D02*
D03*
Y874D02*
D03*
X3012Y986D02*
D03*
Y874D02*
D03*
X2835Y986D02*
D03*
Y874D02*
D03*
X2657Y986D02*
D03*
Y874D02*
D03*
X2480Y986D02*
D03*
Y874D02*
D03*
X2303Y986D02*
D03*
Y874D02*
D03*
X2126Y986D02*
D03*
Y874D02*
D03*
X1949Y986D02*
D03*
Y874D02*
D03*
X1772Y986D02*
D03*
Y874D02*
D03*
X1594Y986D02*
D03*
Y874D02*
D03*
X1417Y986D02*
D03*
Y874D02*
D03*
X1240Y986D02*
D03*
Y874D02*
D03*
X1063Y986D02*
D03*
Y874D02*
D03*
X886Y986D02*
D03*
Y874D02*
D03*
X709Y986D02*
D03*
Y874D02*
D03*
X531Y986D02*
D03*
Y874D02*
D03*
X354Y986D02*
D03*
Y874D02*
D03*
X177Y986D02*
D03*
Y874D02*
D03*
X0Y987D02*
D03*
Y875D02*
D03*
X4075Y746D02*
D03*
Y634D02*
D03*
X3898Y746D02*
D03*
Y634D02*
D03*
X3720Y746D02*
D03*
Y634D02*
D03*
X3543Y746D02*
D03*
Y634D02*
D03*
X3366Y746D02*
D03*
Y634D02*
D03*
X3189Y746D02*
D03*
Y634D02*
D03*
X3012Y746D02*
D03*
Y634D02*
D03*
X2835Y746D02*
D03*
Y634D02*
D03*
X2657Y746D02*
D03*
Y634D02*
D03*
X2480Y746D02*
D03*
Y634D02*
D03*
X2303Y746D02*
D03*
Y634D02*
D03*
X2126Y746D02*
D03*
Y634D02*
D03*
X1949Y746D02*
D03*
Y634D02*
D03*
X1772Y746D02*
D03*
Y634D02*
D03*
X1594Y746D02*
D03*
Y634D02*
D03*
X1417Y746D02*
D03*
Y634D02*
D03*
X1240Y746D02*
D03*
Y634D02*
D03*
X1063Y746D02*
D03*
Y634D02*
D03*
X886Y746D02*
D03*
Y634D02*
D03*
X709Y746D02*
D03*
Y634D02*
D03*
X531Y746D02*
D03*
Y634D02*
D03*
X354Y746D02*
D03*
Y634D02*
D03*
X177Y746D02*
D03*
Y634D02*
D03*
X0Y754D02*
D03*
Y642D02*
D03*
X4075Y521D02*
D03*
Y409D02*
D03*
X3898Y521D02*
D03*
Y409D02*
D03*
X3720Y521D02*
D03*
Y409D02*
D03*
X3543Y521D02*
D03*
Y409D02*
D03*
X3366Y521D02*
D03*
Y409D02*
D03*
X3189Y521D02*
D03*
Y409D02*
D03*
X3012Y521D02*
D03*
Y409D02*
D03*
X2835Y521D02*
D03*
Y409D02*
D03*
X2657Y521D02*
D03*
Y409D02*
D03*
X2480Y521D02*
D03*
Y409D02*
D03*
X2303Y521D02*
D03*
Y409D02*
D03*
X2126Y521D02*
D03*
Y409D02*
D03*
X1949Y521D02*
D03*
Y409D02*
D03*
X1772Y521D02*
D03*
Y409D02*
D03*
X1594Y521D02*
D03*
Y409D02*
D03*
X1417Y521D02*
D03*
Y409D02*
D03*
X1240Y521D02*
D03*
Y409D02*
D03*
X1063Y521D02*
D03*
Y409D02*
D03*
X886Y521D02*
D03*
Y409D02*
D03*
X709Y521D02*
D03*
Y409D02*
D03*
X531Y521D02*
D03*
Y409D02*
D03*
X354Y521D02*
D03*
Y409D02*
D03*
X177Y521D02*
D03*
Y409D02*
D03*
X0Y520D02*
D03*
Y408D02*
D03*
X4075Y291D02*
D03*
Y179D02*
D03*
X3898Y291D02*
D03*
Y179D02*
D03*
X3720Y291D02*
D03*
Y179D02*
D03*
X3543Y291D02*
D03*
Y179D02*
D03*
X3366Y291D02*
D03*
Y179D02*
D03*
X3189Y291D02*
D03*
Y179D02*
D03*
X3012Y291D02*
D03*
Y179D02*
D03*
X2835Y291D02*
D03*
Y179D02*
D03*
X2657Y291D02*
D03*
Y179D02*
D03*
X2480Y291D02*
D03*
Y179D02*
D03*
X2303Y291D02*
D03*
Y179D02*
D03*
X2126Y291D02*
D03*
Y179D02*
D03*
X1949Y291D02*
D03*
Y179D02*
D03*
X1772Y291D02*
D03*
Y179D02*
D03*
X1594Y291D02*
D03*
Y179D02*
D03*
X1417Y291D02*
D03*
Y179D02*
D03*
X1240Y291D02*
D03*
Y179D02*
D03*
X1063Y291D02*
D03*
Y179D02*
D03*
X886Y291D02*
D03*
Y179D02*
D03*
X709Y291D02*
D03*
Y179D02*
D03*
X531Y291D02*
D03*
Y179D02*
D03*
X354Y291D02*
D03*
Y179D02*
D03*
X177Y291D02*
D03*
Y179D02*
D03*
X0Y287D02*
D03*
Y175D02*
D03*
X4075Y56D02*
D03*
Y-56D02*
D03*
X3898Y56D02*
D03*
Y-56D02*
D03*
X3720Y56D02*
D03*
Y-56D02*
D03*
X3543Y56D02*
D03*
Y-56D02*
D03*
X3366Y56D02*
D03*
Y-56D02*
D03*
X3189Y56D02*
D03*
Y-56D02*
D03*
X3012Y56D02*
D03*
Y-56D02*
D03*
X2835Y56D02*
D03*
Y-56D02*
D03*
X2657Y56D02*
D03*
Y-56D02*
D03*
X2480Y56D02*
D03*
Y-56D02*
D03*
X2303Y56D02*
D03*
Y-56D02*
D03*
X2126Y56D02*
D03*
Y-56D02*
D03*
X1949Y56D02*
D03*
Y-56D02*
D03*
X1772Y56D02*
D03*
Y-56D02*
D03*
X1594Y56D02*
D03*
Y-56D02*
D03*
X1417Y56D02*
D03*
Y-56D02*
D03*
X1240Y56D02*
D03*
Y-56D02*
D03*
X1063Y56D02*
D03*
Y-56D02*
D03*
X886Y56D02*
D03*
Y-56D02*
D03*
X709Y56D02*
D03*
Y-56D02*
D03*
X531Y56D02*
D03*
Y-56D02*
D03*
X354Y56D02*
D03*
Y-56D02*
D03*
X177Y56D02*
D03*
Y-56D02*
D03*
X0Y54D02*
D03*
Y-58D02*
D03*
D29*
X-740Y1834D02*
D03*
D30*
X-649Y1586D02*
D03*
X-739D02*
D03*
X-829D02*
D03*
D31*
X-1291Y1500D02*
D03*
X-1359D02*
D03*
X-569Y615D02*
D03*
X-501D02*
D03*
X-781Y-445D02*
D03*
X-849D02*
D03*
X3754Y2430D02*
D03*
X3686D02*
D03*
X2309Y2420D02*
D03*
X2241D02*
D03*
X919Y2430D02*
D03*
X851D02*
D03*
X2544Y-450D02*
D03*
X2476D02*
D03*
D32*
X-1351Y935D02*
D03*
Y910D02*
D03*
Y884D02*
D03*
Y858D02*
D03*
Y833D02*
D03*
Y807D02*
D03*
Y782D02*
D03*
Y705D02*
D03*
X-1119Y935D02*
D03*
Y910D02*
D03*
Y756D02*
D03*
Y730D02*
D03*
Y705D02*
D03*
D33*
X-1351Y756D02*
D03*
Y730D02*
D03*
X-1119Y884D02*
D03*
Y858D02*
D03*
Y833D02*
D03*
Y807D02*
D03*
Y782D02*
D03*
D34*
X-865Y859D02*
D03*
Y791D02*
D03*
X-950D02*
D03*
Y859D02*
D03*
X-865Y626D02*
D03*
Y694D02*
D03*
X-950Y626D02*
D03*
Y694D02*
D03*
X1975Y-231D02*
D03*
Y-299D02*
D03*
D35*
X-697Y1040D02*
D03*
Y990D02*
D03*
Y940D02*
D03*
Y890D02*
D03*
Y840D02*
D03*
Y790D02*
D03*
Y740D02*
D03*
Y690D02*
D03*
X-503D02*
D03*
Y740D02*
D03*
Y790D02*
D03*
Y840D02*
D03*
Y890D02*
D03*
Y940D02*
D03*
Y990D02*
D03*
Y1040D02*
D03*
D36*
X-1510Y-351D02*
D03*
X-1450D02*
D03*
X-1390D02*
D03*
X-1330D02*
D03*
X-1270D02*
D03*
X-1210D02*
D03*
X-1150D02*
D03*
X-1090D02*
D03*
X-1030D02*
D03*
X-970D02*
D03*
X-910D02*
D03*
X-850D02*
D03*
X-1510Y155D02*
D03*
X-1450D02*
D03*
X-1390D02*
D03*
X-1330D02*
D03*
X-1270D02*
D03*
X-1210D02*
D03*
X-1150D02*
D03*
X-1090D02*
D03*
X-1030D02*
D03*
X-970D02*
D03*
X-910D02*
D03*
X-850D02*
D03*
D37*
X-790Y-351D02*
D03*
Y155D02*
D03*
D38*
X-730Y-308D02*
D03*
Y112D02*
D03*
D39*
Y-248D02*
D03*
Y-188D02*
D03*
Y-128D02*
D03*
Y-68D02*
D03*
Y-8D02*
D03*
Y52D02*
D03*
D40*
X3385Y2115D02*
D03*
X3435D02*
D03*
X3485D02*
D03*
X3535D02*
D03*
X3585D02*
D03*
X3635D02*
D03*
X3685D02*
D03*
X3735D02*
D03*
Y2310D02*
D03*
X3685D02*
D03*
X3635D02*
D03*
X3585D02*
D03*
X3535D02*
D03*
X3485D02*
D03*
X3435D02*
D03*
X3385D02*
D03*
X1940Y2115D02*
D03*
X1990D02*
D03*
X2040D02*
D03*
X2090D02*
D03*
X2140D02*
D03*
X2190D02*
D03*
X2240D02*
D03*
X2290D02*
D03*
Y2310D02*
D03*
X2240D02*
D03*
X2190D02*
D03*
X2140D02*
D03*
X2090D02*
D03*
X2040D02*
D03*
X1990D02*
D03*
X1940D02*
D03*
X550Y2115D02*
D03*
X600D02*
D03*
X650D02*
D03*
X700D02*
D03*
X750D02*
D03*
X800D02*
D03*
X850D02*
D03*
X900D02*
D03*
Y2310D02*
D03*
X850D02*
D03*
X800D02*
D03*
X750D02*
D03*
X700D02*
D03*
X650D02*
D03*
X600D02*
D03*
X550D02*
D03*
D41*
X4085Y1795D02*
D03*
Y1585D02*
D03*
X3907Y1795D02*
D03*
Y1585D02*
D03*
X3728Y1795D02*
D03*
Y1585D02*
D03*
X3550Y1795D02*
D03*
Y1585D02*
D03*
X3372Y1795D02*
D03*
Y1585D02*
D03*
X3194Y1795D02*
D03*
Y1585D02*
D03*
X3015Y1795D02*
D03*
Y1585D02*
D03*
X2837Y1795D02*
D03*
Y1585D02*
D03*
X2659Y1795D02*
D03*
Y1585D02*
D03*
X2481Y1795D02*
D03*
Y1585D02*
D03*
X2302Y1795D02*
D03*
Y1585D02*
D03*
X2124Y1795D02*
D03*
Y1585D02*
D03*
X1946Y1795D02*
D03*
Y1585D02*
D03*
X1768Y1795D02*
D03*
Y1585D02*
D03*
X1589Y1795D02*
D03*
Y1585D02*
D03*
X1411Y1795D02*
D03*
Y1585D02*
D03*
X1233Y1795D02*
D03*
Y1585D02*
D03*
X1055Y1795D02*
D03*
Y1585D02*
D03*
X876Y1795D02*
D03*
Y1585D02*
D03*
X698Y1795D02*
D03*
Y1585D02*
D03*
X520Y1795D02*
D03*
Y1585D02*
D03*
X342Y1795D02*
D03*
Y1585D02*
D03*
X163Y1795D02*
D03*
Y1585D02*
D03*
X-15Y1795D02*
D03*
Y1585D02*
D03*
D42*
X1880Y-302D02*
D03*
Y-228D02*
D03*
X1315Y-228D02*
D03*
Y-302D02*
D03*
X2225Y-467D02*
D03*
Y-393D02*
D03*
Y-223D02*
D03*
Y-297D02*
D03*
X2545Y-223D02*
D03*
Y-297D02*
D03*
D43*
X2346Y-278D02*
D03*
Y-315D02*
D03*
Y-352D02*
D03*
X2444Y-278D02*
D03*
Y-315D02*
D03*
Y-352D02*
D03*
D44*
X-1520Y2255D02*
D03*
X-1450D02*
D03*
X-1070Y270D02*
D03*
X-1140D02*
D03*
D45*
X1420Y-231D02*
D03*
Y-409D02*
D03*
X1778Y-231D02*
D03*
Y-409D02*
D03*
D77*
X-535Y2250D02*
D03*
D78*
X-1135D02*
D03*
D79*
X-1323Y2620D02*
D03*
D80*
X-1441Y2805D02*
D03*
D81*
X-1205D02*
D03*
D82*
X-1505Y1100D02*
D03*
Y1200D02*
D03*
Y1300D02*
D03*
Y1400D02*
D03*
Y1500D02*
D03*
D83*
Y460D02*
D03*
X-1405D02*
D03*
D84*
X-336Y2795D02*
D03*
X-403D02*
D03*
X-470D02*
D03*
X-537D02*
D03*
X-604D02*
D03*
M02*
