G04*
G04 #@! TF.GenerationSoftware,Altium Limited,Altium Designer,19.0.15 (446)*
G04*
G04 Layer_Physical_Order=2*
G04 Layer_Color=16711680*
%FSLAX23Y23*%
%MOIN*%
G70*
G01*
G75*
%ADD21C,0.010*%
%ADD75C,0.030*%
%ADD76C,0.020*%
%ADD77R,0.098X0.098*%
%ADD78C,0.098*%
%ADD79O,0.177X0.089*%
%ADD80O,0.089X0.177*%
%ADD81O,0.098X0.197*%
G04:AMPARAMS|DCode=82|XSize=80mil|YSize=60mil|CornerRadius=0mil|HoleSize=0mil|Usage=FLASHONLY|Rotation=180.000|XOffset=0mil|YOffset=0mil|HoleType=Round|Shape=Octagon|*
%AMOCTAGOND82*
4,1,8,-0.040,0.015,-0.040,-0.015,-0.025,-0.030,0.025,-0.030,0.040,-0.015,0.040,0.015,0.025,0.030,-0.025,0.030,-0.040,0.015,0.0*
%
%ADD82OCTAGOND82*%

G04:AMPARAMS|DCode=83|XSize=80mil|YSize=60mil|CornerRadius=0mil|HoleSize=0mil|Usage=FLASHONLY|Rotation=90.000|XOffset=0mil|YOffset=0mil|HoleType=Round|Shape=Octagon|*
%AMOCTAGOND83*
4,1,8,0.015,0.040,-0.015,0.040,-0.030,0.025,-0.030,-0.025,-0.015,-0.040,0.015,-0.040,0.030,-0.025,0.030,0.025,0.015,0.040,0.0*
%
%ADD83OCTAGOND83*%

%ADD84O,0.061X0.122*%
%ADD85C,0.035*%
G36*
X4196Y-551D02*
X-1586D01*
Y3046D01*
X4196D01*
Y-551D01*
D02*
G37*
%LPC*%
G36*
X-537Y2860D02*
X-546Y2859D01*
X-554Y2856D01*
X-562Y2850D01*
X-567Y2843D01*
X-568Y2841D01*
X-573D01*
X-574Y2843D01*
X-579Y2850D01*
X-586Y2856D01*
X-595Y2859D01*
X-604Y2860D01*
X-613Y2859D01*
X-621Y2856D01*
X-628Y2850D01*
X-634Y2843D01*
X-637Y2835D01*
X-639Y2826D01*
Y2764D01*
X-637Y2755D01*
X-634Y2747D01*
X-628Y2740D01*
X-621Y2734D01*
X-613Y2731D01*
X-604Y2730D01*
X-595Y2731D01*
X-586Y2734D01*
X-579Y2740D01*
X-574Y2747D01*
X-573Y2749D01*
X-568D01*
X-567Y2747D01*
X-562Y2740D01*
X-554Y2734D01*
X-546Y2731D01*
X-537Y2730D01*
X-528Y2731D01*
X-520Y2734D01*
X-512Y2740D01*
X-507Y2747D01*
X-503Y2755D01*
X-502Y2764D01*
Y2826D01*
X-503Y2835D01*
X-507Y2843D01*
X-512Y2850D01*
X-520Y2856D01*
X-528Y2859D01*
X-537Y2860D01*
D02*
G37*
G36*
X4045Y2918D02*
X4032Y2917D01*
X4019Y2913D01*
X4007Y2907D01*
X3997Y2898D01*
X3988Y2888D01*
X3982Y2876D01*
X3978Y2863D01*
X3977Y2850D01*
X3978Y2837D01*
X3982Y2824D01*
X3988Y2812D01*
X3997Y2802D01*
X4007Y2793D01*
X4019Y2787D01*
X4032Y2783D01*
X4045Y2782D01*
X4058Y2783D01*
X4071Y2787D01*
X4083Y2793D01*
X4093Y2802D01*
X4102Y2812D01*
X4108Y2824D01*
X4112Y2837D01*
X4113Y2850D01*
X4112Y2863D01*
X4108Y2876D01*
X4102Y2888D01*
X4093Y2898D01*
X4083Y2907D01*
X4071Y2913D01*
X4058Y2917D01*
X4045Y2918D01*
D02*
G37*
G36*
X-1205Y2908D02*
X-1219Y2906D01*
X-1232Y2901D01*
X-1243Y2892D01*
X-1251Y2881D01*
X-1257Y2868D01*
X-1259Y2854D01*
Y2756D01*
X-1257Y2742D01*
X-1251Y2729D01*
X-1243Y2718D01*
X-1232Y2709D01*
X-1219Y2704D01*
X-1205Y2702D01*
X-1191Y2704D01*
X-1178Y2709D01*
X-1167Y2718D01*
X-1159Y2729D01*
X-1153Y2742D01*
X-1151Y2756D01*
Y2854D01*
X-1153Y2868D01*
X-1159Y2881D01*
X-1167Y2892D01*
X-1178Y2901D01*
X-1191Y2906D01*
X-1205Y2908D01*
D02*
G37*
G36*
X3580Y2627D02*
X3572Y2625D01*
X3564Y2621D01*
X3560Y2613D01*
X3558Y2605D01*
X3560Y2597D01*
X3564Y2589D01*
X3572Y2585D01*
X3580Y2583D01*
X3588Y2585D01*
X3596Y2589D01*
X3600Y2597D01*
X3602Y2605D01*
X3600Y2613D01*
X3596Y2621D01*
X3588Y2625D01*
X3580Y2627D01*
D02*
G37*
G36*
X2155Y2592D02*
X2147Y2590D01*
X2139Y2586D01*
X2135Y2578D01*
X2133Y2570D01*
X2135Y2562D01*
X2139Y2554D01*
X2147Y2550D01*
X2155Y2548D01*
X2163Y2550D01*
X2171Y2554D01*
X2175Y2562D01*
X2177Y2570D01*
X2175Y2578D01*
X2171Y2586D01*
X2163Y2590D01*
X2155Y2592D01*
D02*
G37*
G36*
X3650Y2557D02*
X3642Y2555D01*
X3640Y2554D01*
X3460D01*
X3453Y2553D01*
X3446Y2549D01*
X3291Y2394D01*
X3287Y2387D01*
X3286Y2380D01*
Y2320D01*
X3285Y2319D01*
X3283Y2310D01*
X3285Y2302D01*
X3289Y2295D01*
X3297Y2290D01*
X3305Y2288D01*
X3313Y2290D01*
X3321Y2295D01*
X3325Y2302D01*
X3327Y2310D01*
X3325Y2319D01*
X3324Y2320D01*
Y2372D01*
X3468Y2516D01*
X3640D01*
X3642Y2515D01*
X3650Y2513D01*
X3658Y2515D01*
X3666Y2519D01*
X3670Y2527D01*
X3672Y2535D01*
X3670Y2543D01*
X3666Y2551D01*
X3658Y2555D01*
X3650Y2557D01*
D02*
G37*
G36*
X2205Y2542D02*
X2197Y2540D01*
X2195Y2539D01*
X1950D01*
X1943Y2538D01*
X1936Y2534D01*
X1821Y2419D01*
X1817Y2412D01*
X1816Y2405D01*
Y2320D01*
X1815Y2318D01*
X1813Y2310D01*
X1815Y2302D01*
X1819Y2294D01*
X1827Y2290D01*
X1835Y2288D01*
X1843Y2290D01*
X1851Y2294D01*
X1855Y2302D01*
X1857Y2310D01*
X1855Y2318D01*
X1854Y2320D01*
Y2397D01*
X1958Y2501D01*
X2195D01*
X2197Y2500D01*
X2205Y2498D01*
X2213Y2500D01*
X2221Y2504D01*
X2225Y2512D01*
X2227Y2520D01*
X2225Y2528D01*
X2221Y2536D01*
X2213Y2540D01*
X2205Y2542D01*
D02*
G37*
G36*
X715Y2452D02*
X707Y2450D01*
X699Y2446D01*
X695Y2439D01*
X150D01*
X146Y2438D01*
X144Y2436D01*
X-296Y1996D01*
X-298Y1994D01*
X-299Y1990D01*
Y1579D01*
X-544Y1334D01*
X-935D01*
X-939Y1333D01*
X-941Y1331D01*
X-1118Y1155D01*
X-1125Y1157D01*
X-1133Y1155D01*
X-1141Y1151D01*
X-1145Y1143D01*
X-1147Y1135D01*
X-1145Y1127D01*
X-1141Y1119D01*
X-1133Y1115D01*
X-1125Y1113D01*
X-1117Y1115D01*
X-1109Y1119D01*
X-1105Y1127D01*
X-1103Y1135D01*
X-1105Y1142D01*
X-931Y1316D01*
X-540D01*
X-536Y1317D01*
X-534Y1319D01*
X-284Y1569D01*
X-282Y1571D01*
X-281Y1575D01*
Y1986D01*
X154Y2421D01*
X695D01*
X699Y2414D01*
X707Y2410D01*
X715Y2408D01*
X723Y2410D01*
X731Y2414D01*
X735Y2422D01*
X737Y2430D01*
X735Y2438D01*
X731Y2446D01*
X723Y2450D01*
X715Y2452D01*
D02*
G37*
G36*
X3635Y2262D02*
X3627Y2260D01*
X3619Y2256D01*
X3615Y2248D01*
X3614Y2247D01*
X2208D01*
X2206Y2251D01*
X2198Y2255D01*
X2190Y2257D01*
X2182Y2255D01*
X2174Y2251D01*
X2170Y2244D01*
X820D01*
X816Y2251D01*
X808Y2255D01*
X800Y2257D01*
X792Y2255D01*
X784Y2251D01*
X780Y2244D01*
X40D01*
X36Y2243D01*
X34Y2241D01*
X-186Y2021D01*
X-188Y2019D01*
X-189Y2015D01*
Y1604D01*
X-739Y1054D01*
X-915D01*
X-919Y1053D01*
X-921Y1051D01*
X-1023Y950D01*
X-1030Y952D01*
X-1038Y950D01*
X-1046Y946D01*
X-1050Y938D01*
X-1052Y930D01*
X-1050Y922D01*
X-1046Y914D01*
X-1038Y910D01*
X-1030Y908D01*
X-1022Y910D01*
X-1014Y914D01*
X-1010Y922D01*
X-1008Y930D01*
X-1010Y937D01*
X-996Y951D01*
X-993Y947D01*
X-995Y943D01*
X-997Y935D01*
X-995Y927D01*
X-991Y919D01*
X-983Y915D01*
X-975Y913D01*
X-967Y915D01*
X-959Y919D01*
X-955Y926D01*
X-770D01*
X-766Y927D01*
X-764Y929D01*
X-139Y1554D01*
X-137Y1556D01*
X-136Y1560D01*
Y2001D01*
X54Y2191D01*
X730D01*
X734Y2184D01*
X742Y2180D01*
X750Y2178D01*
X758Y2180D01*
X766Y2184D01*
X770Y2191D01*
X2120D01*
X2124Y2184D01*
X2132Y2180D01*
X2140Y2178D01*
X2148Y2180D01*
X2156Y2184D01*
X2160Y2191D01*
X3568D01*
X3572Y2192D01*
X3573Y2192D01*
X3577Y2190D01*
X3585Y2188D01*
X3593Y2190D01*
X3601Y2194D01*
X3605Y2202D01*
X3607Y2210D01*
X3605Y2218D01*
X3602Y2223D01*
X3605Y2228D01*
X3617D01*
X3619Y2224D01*
X3627Y2220D01*
X3635Y2218D01*
X3643Y2220D01*
X3651Y2224D01*
X3655Y2232D01*
X3657Y2240D01*
X3655Y2248D01*
X3651Y2256D01*
X3643Y2260D01*
X3635Y2262D01*
D02*
G37*
G36*
X-482Y2303D02*
X-588D01*
Y2197D01*
X-482D01*
Y2303D01*
D02*
G37*
G36*
X-403Y2860D02*
X-412Y2859D01*
X-420Y2856D01*
X-428Y2850D01*
X-433Y2843D01*
X-437Y2835D01*
X-438Y2826D01*
Y2764D01*
X-437Y2755D01*
X-433Y2747D01*
X-428Y2740D01*
X-423Y2736D01*
Y2013D01*
X-428Y2011D01*
X-505Y2089D01*
X-511Y2093D01*
X-519Y2094D01*
X-1240D01*
X-1272Y2127D01*
X-1272Y2128D01*
X-1277Y2136D01*
X-1284Y2140D01*
X-1293Y2142D01*
X-1301Y2140D01*
X-1308Y2136D01*
X-1313Y2128D01*
X-1315Y2120D01*
X-1313Y2112D01*
X-1308Y2104D01*
X-1301Y2100D01*
X-1299Y2099D01*
X-1261Y2061D01*
X-1255Y2057D01*
X-1248Y2056D01*
X-527D01*
X-423Y1952D01*
Y1661D01*
X-424Y1659D01*
X-426Y1651D01*
X-424Y1643D01*
X-420Y1635D01*
X-412Y1631D01*
X-404Y1629D01*
X-396Y1631D01*
X-389Y1635D01*
X-384Y1643D01*
X-382Y1651D01*
X-384Y1659D01*
X-384Y1660D01*
Y1960D01*
Y2735D01*
X-378Y2740D01*
X-373Y2747D01*
X-369Y2755D01*
X-368Y2764D01*
Y2826D01*
X-369Y2835D01*
X-373Y2843D01*
X-378Y2850D01*
X-386Y2856D01*
X-394Y2859D01*
X-403Y2860D01*
D02*
G37*
G36*
X-1330Y1818D02*
X-1343Y1817D01*
X-1356Y1813D01*
X-1368Y1807D01*
X-1378Y1798D01*
X-1387Y1788D01*
X-1393Y1776D01*
X-1397Y1763D01*
X-1398Y1750D01*
X-1397Y1737D01*
X-1393Y1724D01*
X-1387Y1712D01*
X-1378Y1702D01*
X-1368Y1693D01*
X-1356Y1687D01*
X-1343Y1683D01*
X-1330Y1682D01*
X-1317Y1683D01*
X-1304Y1687D01*
X-1292Y1693D01*
X-1282Y1702D01*
X-1273Y1712D01*
X-1267Y1724D01*
X-1263Y1737D01*
X-1262Y1750D01*
X-1263Y1763D01*
X-1267Y1776D01*
X-1273Y1788D01*
X-1282Y1798D01*
X-1292Y1807D01*
X-1304Y1813D01*
X-1317Y1817D01*
X-1330Y1818D01*
D02*
G37*
G36*
X-1478Y1434D02*
X-1532D01*
X-1549Y1417D01*
Y1409D01*
X-1554D01*
X-1558Y1408D01*
X-1561Y1406D01*
X-1576Y1391D01*
X-1578Y1388D01*
X-1579Y1384D01*
Y770D01*
X-1578Y766D01*
X-1576Y764D01*
X-1557Y744D01*
X-1560Y739D01*
X-1562Y730D01*
X-1560Y722D01*
X-1556Y715D01*
X-1548Y710D01*
X-1540Y709D01*
X-1532Y710D01*
X-1524Y715D01*
X-1520Y722D01*
X-1518Y730D01*
X-1520Y739D01*
X-1524Y746D01*
X-1532Y751D01*
X-1539Y752D01*
X-1561Y774D01*
Y1380D01*
X-1554Y1387D01*
X-1549Y1385D01*
Y1383D01*
X-1532Y1366D01*
X-1478D01*
X-1461Y1383D01*
Y1417D01*
X-1478Y1434D01*
D02*
G37*
G36*
Y1134D02*
X-1532D01*
X-1549Y1117D01*
Y1083D01*
X-1532Y1066D01*
X-1478D01*
X-1461Y1083D01*
Y1117D01*
X-1478Y1134D01*
D02*
G37*
G36*
Y1534D02*
X-1532D01*
X-1549Y1517D01*
Y1483D01*
X-1532Y1466D01*
X-1478D01*
X-1461Y1483D01*
Y1491D01*
X-1294D01*
X-1199Y1396D01*
Y885D01*
X-1206Y881D01*
X-1210Y873D01*
X-1212Y865D01*
X-1210Y857D01*
X-1206Y849D01*
X-1202Y847D01*
X-1203Y842D01*
X-1271D01*
X-1272Y842D01*
X-1275Y843D01*
X-1297D01*
X-1301Y842D01*
X-1301Y842D01*
X-1395D01*
X-1399Y848D01*
X-1407Y853D01*
X-1415Y855D01*
X-1423Y853D01*
X-1431Y848D01*
X-1435Y841D01*
X-1436Y838D01*
X-1441Y839D01*
Y951D01*
X-1331Y1061D01*
X-1270D01*
X-1266Y1054D01*
X-1258Y1050D01*
X-1250Y1048D01*
X-1242Y1050D01*
X-1234Y1054D01*
X-1230Y1062D01*
X-1228Y1070D01*
X-1230Y1078D01*
X-1234Y1086D01*
X-1242Y1090D01*
X-1250Y1092D01*
X-1258Y1090D01*
X-1266Y1086D01*
X-1270Y1079D01*
X-1335D01*
X-1339Y1078D01*
X-1341Y1076D01*
X-1456Y961D01*
X-1458Y959D01*
X-1459Y955D01*
Y660D01*
X-1466Y656D01*
X-1470Y648D01*
X-1472Y640D01*
X-1470Y632D01*
X-1466Y624D01*
X-1458Y620D01*
X-1450Y618D01*
X-1442Y620D01*
X-1434Y624D01*
X-1430Y632D01*
X-1428Y640D01*
X-1430Y648D01*
X-1434Y656D01*
X-1441Y660D01*
Y777D01*
X-1436Y777D01*
X-1435Y774D01*
X-1431Y767D01*
X-1423Y763D01*
X-1415Y761D01*
X-1407Y763D01*
X-1402Y766D01*
X-1230D01*
X-1226Y767D01*
X-1224Y769D01*
X-1210Y782D01*
X-833D01*
X-795Y745D01*
X-797Y738D01*
X-795Y729D01*
X-791Y722D01*
X-783Y718D01*
X-775Y716D01*
X-767Y718D01*
X-759Y722D01*
X-755Y729D01*
X-753Y738D01*
X-755Y746D01*
X-759Y753D01*
X-767Y758D01*
X-775Y760D01*
X-782Y758D01*
X-817Y793D01*
X-815Y798D01*
X-801D01*
X-797Y793D01*
X-797Y792D01*
X-795Y783D01*
X-791Y776D01*
X-783Y771D01*
X-775Y770D01*
X-767Y771D01*
X-759Y776D01*
X-755Y783D01*
X-753Y792D01*
X-755Y800D01*
X-759Y807D01*
X-767Y812D01*
X-775Y813D01*
X-783Y812D01*
X-787Y810D01*
X-791Y814D01*
X-794Y816D01*
X-797Y816D01*
X-1263D01*
X-1265Y819D01*
X-1262Y824D01*
X-792D01*
X-788Y824D01*
X-787Y825D01*
X-783Y823D01*
X-775Y821D01*
X-767Y823D01*
X-759Y827D01*
X-755Y834D01*
X-753Y843D01*
X-755Y851D01*
X-759Y858D01*
X-767Y863D01*
X-775Y865D01*
X-783Y863D01*
X-791Y858D01*
X-795Y851D01*
X-797Y843D01*
X-798Y842D01*
X-1177D01*
X-1178Y847D01*
X-1174Y849D01*
X-1170Y857D01*
X-1168Y865D01*
X-1170Y873D01*
X-1174Y881D01*
X-1181Y885D01*
Y1400D01*
X-1182Y1404D01*
X-1184Y1406D01*
X-1284Y1506D01*
X-1286Y1508D01*
X-1290Y1509D01*
X-1461D01*
Y1517D01*
X-1478Y1534D01*
D02*
G37*
G36*
Y1234D02*
X-1532D01*
X-1549Y1217D01*
Y1183D01*
X-1532Y1166D01*
X-1478D01*
X-1461Y1183D01*
Y1191D01*
X-1449D01*
X-1424Y1166D01*
Y1054D01*
X-1501Y976D01*
X-1503Y974D01*
X-1504Y970D01*
Y712D01*
X-1511Y707D01*
X-1515Y700D01*
X-1517Y692D01*
X-1515Y683D01*
X-1511Y676D01*
X-1503Y672D01*
X-1495Y670D01*
X-1487Y672D01*
X-1479Y676D01*
X-1475Y683D01*
X-1473Y692D01*
X-1475Y700D01*
X-1479Y707D01*
X-1486Y712D01*
Y966D01*
X-1409Y1044D01*
X-1407Y1046D01*
X-1406Y1050D01*
Y1170D01*
X-1407Y1174D01*
X-1409Y1176D01*
X-1439Y1206D01*
X-1441Y1208D01*
X-1445Y1209D01*
X-1461D01*
Y1217D01*
X-1478Y1234D01*
D02*
G37*
G36*
X-1260Y677D02*
X-1268Y675D01*
X-1276Y671D01*
X-1280Y663D01*
X-1282Y655D01*
X-1280Y648D01*
X-1326Y601D01*
X-1328Y599D01*
X-1329Y595D01*
Y-81D01*
X-1481Y-233D01*
X-1492D01*
X-1494Y-229D01*
X-1502Y-225D01*
X-1510Y-223D01*
X-1518Y-225D01*
X-1526Y-229D01*
X-1530Y-237D01*
X-1532Y-245D01*
X-1530Y-253D01*
X-1526Y-261D01*
X-1518Y-265D01*
X-1510Y-267D01*
X-1502Y-265D01*
X-1494Y-261D01*
X-1490Y-253D01*
X-1489Y-252D01*
X-1477D01*
X-1474Y-251D01*
X-1471Y-249D01*
X-1314Y-91D01*
X-1312Y-89D01*
X-1311Y-85D01*
Y591D01*
X-1267Y635D01*
X-1260Y633D01*
X-1252Y635D01*
X-1244Y639D01*
X-1240Y647D01*
X-1238Y655D01*
X-1240Y663D01*
X-1244Y671D01*
X-1252Y675D01*
X-1260Y677D01*
D02*
G37*
G36*
X-1230Y607D02*
X-1238Y605D01*
X-1246Y601D01*
X-1250Y593D01*
X-1252Y585D01*
X-1250Y578D01*
X-1301Y526D01*
X-1303Y524D01*
X-1304Y520D01*
Y-119D01*
X-1443Y-257D01*
X-1450Y-256D01*
X-1458Y-257D01*
X-1466Y-262D01*
X-1470Y-269D01*
X-1472Y-278D01*
X-1470Y-286D01*
X-1466Y-293D01*
X-1458Y-298D01*
X-1450Y-300D01*
X-1442Y-298D01*
X-1434Y-293D01*
X-1430Y-286D01*
X-1428Y-278D01*
X-1430Y-270D01*
X-1289Y-129D01*
X-1287Y-126D01*
X-1286Y-123D01*
Y516D01*
X-1237Y565D01*
X-1230Y563D01*
X-1222Y565D01*
X-1214Y569D01*
X-1210Y577D01*
X-1208Y585D01*
X-1210Y593D01*
X-1214Y601D01*
X-1222Y605D01*
X-1230Y607D01*
D02*
G37*
G36*
X-1388Y504D02*
X-1422D01*
X-1439Y487D01*
Y433D01*
X-1422Y416D01*
X-1388D01*
X-1371Y433D01*
Y487D01*
X-1388Y504D01*
D02*
G37*
G36*
X-1488D02*
X-1522D01*
X-1539Y487D01*
Y433D01*
X-1522Y416D01*
X-1488D01*
X-1471Y433D01*
Y487D01*
X-1488Y504D01*
D02*
G37*
G36*
X3990Y1473D02*
X3982Y1472D01*
X3974Y1467D01*
X3970Y1460D01*
X3968Y1451D01*
X3970Y1443D01*
X3974Y1436D01*
X3976Y1435D01*
Y1233D01*
X3974Y1232D01*
X3970Y1225D01*
X3968Y1216D01*
X3970Y1208D01*
X3974Y1201D01*
X3976Y1200D01*
Y998D01*
X3974Y997D01*
X3970Y990D01*
X3968Y981D01*
X3970Y973D01*
X3974Y966D01*
X3976Y965D01*
Y768D01*
X3974Y767D01*
X3970Y760D01*
X3968Y751D01*
X3970Y743D01*
X3974Y736D01*
X3976Y735D01*
Y533D01*
X3974Y532D01*
X3970Y525D01*
X3968Y516D01*
X3970Y508D01*
X3974Y501D01*
X3976Y500D01*
Y303D01*
X3974Y302D01*
X3970Y295D01*
X3968Y286D01*
X3970Y278D01*
X3974Y271D01*
X3976Y270D01*
Y68D01*
X3974Y67D01*
X3970Y60D01*
X3968Y51D01*
X3970Y43D01*
X3974Y36D01*
X3982Y31D01*
X3990Y29D01*
X3998Y31D01*
X4006Y36D01*
X4010Y43D01*
X4012Y51D01*
X4010Y60D01*
X4006Y67D01*
X4004Y68D01*
Y270D01*
X4006Y271D01*
X4010Y278D01*
X4012Y286D01*
X4010Y295D01*
X4006Y302D01*
X4004Y303D01*
Y500D01*
X4006Y501D01*
X4010Y508D01*
X4012Y516D01*
X4010Y525D01*
X4006Y532D01*
X4004Y533D01*
Y735D01*
X4006Y736D01*
X4010Y743D01*
X4012Y751D01*
X4010Y760D01*
X4006Y767D01*
X4004Y768D01*
Y965D01*
X4006Y966D01*
X4010Y973D01*
X4012Y981D01*
X4010Y990D01*
X4006Y997D01*
X4004Y998D01*
Y1200D01*
X4006Y1201D01*
X4010Y1208D01*
X4012Y1216D01*
X4010Y1225D01*
X4006Y1232D01*
X4004Y1233D01*
Y1435D01*
X4006Y1436D01*
X4010Y1443D01*
X4012Y1451D01*
X4010Y1460D01*
X4006Y1467D01*
X3998Y1472D01*
X3990Y1473D01*
D02*
G37*
G36*
X3815D02*
X3807Y1472D01*
X3799Y1467D01*
X3795Y1460D01*
X3793Y1451D01*
X3795Y1443D01*
X3799Y1436D01*
X3801Y1435D01*
Y1233D01*
X3799Y1232D01*
X3795Y1225D01*
X3793Y1216D01*
X3795Y1208D01*
X3799Y1201D01*
X3801Y1200D01*
Y998D01*
X3799Y997D01*
X3795Y990D01*
X3793Y981D01*
X3795Y973D01*
X3799Y966D01*
X3801Y965D01*
Y768D01*
X3799Y767D01*
X3795Y760D01*
X3793Y751D01*
X3795Y743D01*
X3799Y736D01*
X3801Y735D01*
Y533D01*
X3799Y532D01*
X3795Y525D01*
X3793Y516D01*
X3795Y508D01*
X3799Y501D01*
X3801Y500D01*
Y303D01*
X3799Y302D01*
X3795Y295D01*
X3793Y286D01*
X3795Y278D01*
X3799Y271D01*
X3801Y270D01*
Y68D01*
X3799Y67D01*
X3795Y60D01*
X3793Y51D01*
X3795Y43D01*
X3799Y36D01*
X3807Y31D01*
X3815Y29D01*
X3823Y31D01*
X3831Y36D01*
X3835Y43D01*
X3837Y51D01*
X3835Y60D01*
X3831Y67D01*
X3829Y68D01*
Y270D01*
X3831Y271D01*
X3835Y278D01*
X3837Y286D01*
X3835Y295D01*
X3831Y302D01*
X3829Y303D01*
Y500D01*
X3831Y501D01*
X3835Y508D01*
X3837Y516D01*
X3835Y525D01*
X3831Y532D01*
X3829Y533D01*
Y735D01*
X3831Y736D01*
X3835Y743D01*
X3837Y751D01*
X3835Y760D01*
X3831Y767D01*
X3829Y768D01*
Y965D01*
X3831Y966D01*
X3835Y973D01*
X3837Y981D01*
X3835Y990D01*
X3831Y997D01*
X3829Y998D01*
Y1200D01*
X3831Y1201D01*
X3835Y1208D01*
X3837Y1216D01*
X3835Y1225D01*
X3831Y1232D01*
X3829Y1233D01*
Y1435D01*
X3831Y1436D01*
X3835Y1443D01*
X3837Y1451D01*
X3835Y1460D01*
X3831Y1467D01*
X3823Y1472D01*
X3815Y1473D01*
D02*
G37*
G36*
X3635D02*
X3627Y1472D01*
X3619Y1467D01*
X3615Y1460D01*
X3613Y1451D01*
X3615Y1443D01*
X3619Y1436D01*
X3621Y1435D01*
Y1233D01*
X3619Y1232D01*
X3615Y1225D01*
X3613Y1216D01*
X3615Y1208D01*
X3619Y1201D01*
X3621Y1200D01*
Y998D01*
X3619Y997D01*
X3615Y990D01*
X3613Y981D01*
X3615Y973D01*
X3619Y966D01*
X3621Y965D01*
Y768D01*
X3619Y767D01*
X3615Y760D01*
X3613Y751D01*
X3615Y743D01*
X3619Y736D01*
X3621Y735D01*
Y533D01*
X3619Y532D01*
X3615Y525D01*
X3613Y516D01*
X3615Y508D01*
X3619Y501D01*
X3621Y500D01*
Y303D01*
X3619Y302D01*
X3615Y295D01*
X3613Y286D01*
X3615Y278D01*
X3619Y271D01*
X3621Y270D01*
Y68D01*
X3619Y67D01*
X3615Y60D01*
X3613Y51D01*
X3615Y43D01*
X3619Y36D01*
X3627Y31D01*
X3635Y29D01*
X3643Y31D01*
X3651Y36D01*
X3655Y43D01*
X3657Y51D01*
X3655Y60D01*
X3651Y67D01*
X3649Y68D01*
Y270D01*
X3651Y271D01*
X3655Y278D01*
X3657Y286D01*
X3655Y295D01*
X3651Y302D01*
X3649Y303D01*
Y500D01*
X3651Y501D01*
X3655Y508D01*
X3657Y516D01*
X3655Y525D01*
X3651Y532D01*
X3649Y533D01*
Y735D01*
X3651Y736D01*
X3655Y743D01*
X3657Y751D01*
X3655Y760D01*
X3651Y767D01*
X3649Y768D01*
Y965D01*
X3651Y966D01*
X3655Y973D01*
X3657Y981D01*
X3655Y990D01*
X3651Y997D01*
X3649Y998D01*
Y1200D01*
X3651Y1201D01*
X3655Y1208D01*
X3657Y1216D01*
X3655Y1225D01*
X3651Y1232D01*
X3649Y1233D01*
Y1435D01*
X3651Y1436D01*
X3655Y1443D01*
X3657Y1451D01*
X3655Y1460D01*
X3651Y1467D01*
X3643Y1472D01*
X3635Y1473D01*
D02*
G37*
G36*
X3460D02*
X3452Y1472D01*
X3444Y1467D01*
X3440Y1460D01*
X3438Y1451D01*
X3440Y1443D01*
X3444Y1436D01*
X3446Y1435D01*
Y1233D01*
X3444Y1232D01*
X3440Y1225D01*
X3438Y1216D01*
X3440Y1208D01*
X3444Y1201D01*
X3446Y1200D01*
Y998D01*
X3444Y997D01*
X3440Y990D01*
X3438Y981D01*
X3440Y973D01*
X3444Y966D01*
X3446Y965D01*
Y768D01*
X3444Y767D01*
X3440Y760D01*
X3438Y751D01*
X3440Y743D01*
X3444Y736D01*
X3446Y735D01*
Y533D01*
X3444Y532D01*
X3440Y525D01*
X3438Y516D01*
X3440Y508D01*
X3444Y501D01*
X3446Y500D01*
Y303D01*
X3444Y302D01*
X3440Y295D01*
X3438Y286D01*
X3440Y278D01*
X3444Y271D01*
X3446Y270D01*
Y68D01*
X3444Y67D01*
X3440Y60D01*
X3438Y51D01*
X3440Y43D01*
X3444Y36D01*
X3452Y31D01*
X3460Y29D01*
X3468Y31D01*
X3476Y36D01*
X3480Y43D01*
X3482Y51D01*
X3480Y60D01*
X3476Y67D01*
X3474Y68D01*
Y270D01*
X3476Y271D01*
X3480Y278D01*
X3482Y286D01*
X3480Y295D01*
X3476Y302D01*
X3474Y303D01*
Y500D01*
X3476Y501D01*
X3480Y508D01*
X3482Y516D01*
X3480Y525D01*
X3476Y532D01*
X3474Y533D01*
Y735D01*
X3476Y736D01*
X3480Y743D01*
X3482Y751D01*
X3480Y760D01*
X3476Y767D01*
X3474Y768D01*
Y965D01*
X3476Y966D01*
X3480Y973D01*
X3482Y981D01*
X3480Y990D01*
X3476Y997D01*
X3474Y998D01*
Y1200D01*
X3476Y1201D01*
X3480Y1208D01*
X3482Y1216D01*
X3480Y1225D01*
X3476Y1232D01*
X3474Y1233D01*
Y1435D01*
X3476Y1436D01*
X3480Y1443D01*
X3482Y1451D01*
X3480Y1460D01*
X3476Y1467D01*
X3468Y1472D01*
X3460Y1473D01*
D02*
G37*
G36*
X3280D02*
X3272Y1472D01*
X3264Y1467D01*
X3260Y1460D01*
X3258Y1451D01*
X3260Y1443D01*
X3264Y1436D01*
X3266Y1435D01*
Y1233D01*
X3264Y1232D01*
X3260Y1225D01*
X3258Y1216D01*
X3260Y1208D01*
X3264Y1201D01*
X3266Y1200D01*
Y998D01*
X3264Y997D01*
X3260Y990D01*
X3258Y981D01*
X3260Y973D01*
X3264Y966D01*
X3266Y965D01*
Y768D01*
X3264Y767D01*
X3260Y760D01*
X3258Y751D01*
X3260Y743D01*
X3264Y736D01*
X3266Y735D01*
Y533D01*
X3264Y532D01*
X3260Y525D01*
X3258Y516D01*
X3260Y508D01*
X3264Y501D01*
X3266Y500D01*
Y303D01*
X3264Y302D01*
X3260Y295D01*
X3258Y286D01*
X3260Y278D01*
X3264Y271D01*
X3266Y270D01*
Y68D01*
X3264Y67D01*
X3260Y60D01*
X3258Y51D01*
X3260Y43D01*
X3264Y36D01*
X3272Y31D01*
X3280Y29D01*
X3288Y31D01*
X3296Y36D01*
X3300Y43D01*
X3302Y51D01*
X3300Y60D01*
X3296Y67D01*
X3294Y68D01*
Y270D01*
X3296Y271D01*
X3300Y278D01*
X3302Y286D01*
X3300Y295D01*
X3296Y302D01*
X3294Y303D01*
Y500D01*
X3296Y501D01*
X3300Y508D01*
X3302Y516D01*
X3300Y525D01*
X3296Y532D01*
X3294Y533D01*
Y735D01*
X3296Y736D01*
X3300Y743D01*
X3302Y751D01*
X3300Y760D01*
X3296Y767D01*
X3294Y768D01*
Y965D01*
X3296Y966D01*
X3300Y973D01*
X3302Y981D01*
X3300Y990D01*
X3296Y997D01*
X3294Y998D01*
Y1200D01*
X3296Y1201D01*
X3300Y1208D01*
X3302Y1216D01*
X3300Y1225D01*
X3296Y1232D01*
X3294Y1233D01*
Y1435D01*
X3296Y1436D01*
X3300Y1443D01*
X3302Y1451D01*
X3300Y1460D01*
X3296Y1467D01*
X3288Y1472D01*
X3280Y1473D01*
D02*
G37*
G36*
X3105D02*
X3097Y1472D01*
X3089Y1467D01*
X3085Y1460D01*
X3083Y1451D01*
X3085Y1443D01*
X3089Y1436D01*
X3091Y1435D01*
Y1233D01*
X3089Y1232D01*
X3085Y1225D01*
X3083Y1216D01*
X3085Y1208D01*
X3089Y1201D01*
X3091Y1200D01*
Y998D01*
X3089Y997D01*
X3085Y990D01*
X3083Y981D01*
X3085Y973D01*
X3089Y966D01*
X3091Y965D01*
Y768D01*
X3089Y767D01*
X3085Y760D01*
X3083Y751D01*
X3085Y743D01*
X3089Y736D01*
X3091Y735D01*
Y533D01*
X3089Y532D01*
X3085Y525D01*
X3083Y516D01*
X3085Y508D01*
X3089Y501D01*
X3091Y500D01*
Y303D01*
X3089Y302D01*
X3085Y295D01*
X3083Y286D01*
X3085Y278D01*
X3089Y271D01*
X3091Y270D01*
Y68D01*
X3089Y67D01*
X3085Y60D01*
X3083Y51D01*
X3085Y43D01*
X3089Y36D01*
X3097Y31D01*
X3105Y29D01*
X3113Y31D01*
X3121Y36D01*
X3125Y43D01*
X3127Y51D01*
X3125Y60D01*
X3121Y67D01*
X3119Y68D01*
Y270D01*
X3121Y271D01*
X3125Y278D01*
X3127Y286D01*
X3125Y295D01*
X3121Y302D01*
X3119Y303D01*
Y500D01*
X3121Y501D01*
X3125Y508D01*
X3127Y516D01*
X3125Y525D01*
X3121Y532D01*
X3119Y533D01*
Y735D01*
X3121Y736D01*
X3125Y743D01*
X3127Y751D01*
X3125Y760D01*
X3121Y767D01*
X3119Y768D01*
Y965D01*
X3121Y966D01*
X3125Y973D01*
X3127Y981D01*
X3125Y990D01*
X3121Y997D01*
X3119Y998D01*
Y1200D01*
X3121Y1201D01*
X3125Y1208D01*
X3127Y1216D01*
X3125Y1225D01*
X3121Y1232D01*
X3119Y1233D01*
Y1435D01*
X3121Y1436D01*
X3125Y1443D01*
X3127Y1451D01*
X3125Y1460D01*
X3121Y1467D01*
X3113Y1472D01*
X3105Y1473D01*
D02*
G37*
G36*
X2925D02*
X2917Y1472D01*
X2909Y1467D01*
X2905Y1460D01*
X2903Y1451D01*
X2905Y1443D01*
X2909Y1436D01*
X2911Y1435D01*
Y1233D01*
X2909Y1232D01*
X2905Y1225D01*
X2903Y1216D01*
X2905Y1208D01*
X2909Y1201D01*
X2911Y1200D01*
Y998D01*
X2909Y997D01*
X2905Y990D01*
X2903Y981D01*
X2905Y973D01*
X2909Y966D01*
X2911Y965D01*
Y768D01*
X2909Y767D01*
X2905Y760D01*
X2903Y751D01*
X2905Y743D01*
X2909Y736D01*
X2911Y735D01*
Y533D01*
X2909Y532D01*
X2905Y525D01*
X2903Y516D01*
X2905Y508D01*
X2909Y501D01*
X2911Y500D01*
Y303D01*
X2909Y302D01*
X2905Y295D01*
X2903Y286D01*
X2905Y278D01*
X2909Y271D01*
X2911Y270D01*
Y68D01*
X2909Y67D01*
X2905Y60D01*
X2903Y51D01*
X2905Y43D01*
X2909Y36D01*
X2917Y31D01*
X2925Y29D01*
X2933Y31D01*
X2941Y36D01*
X2945Y43D01*
X2947Y51D01*
X2945Y60D01*
X2941Y67D01*
X2939Y68D01*
Y270D01*
X2941Y271D01*
X2945Y278D01*
X2947Y286D01*
X2945Y295D01*
X2941Y302D01*
X2939Y303D01*
Y500D01*
X2941Y501D01*
X2945Y508D01*
X2947Y516D01*
X2945Y525D01*
X2941Y532D01*
X2939Y533D01*
Y735D01*
X2941Y736D01*
X2945Y743D01*
X2947Y751D01*
X2945Y760D01*
X2941Y767D01*
X2939Y768D01*
Y965D01*
X2941Y966D01*
X2945Y973D01*
X2947Y981D01*
X2945Y990D01*
X2941Y997D01*
X2939Y998D01*
Y1200D01*
X2941Y1201D01*
X2945Y1208D01*
X2947Y1216D01*
X2945Y1225D01*
X2941Y1232D01*
X2939Y1233D01*
Y1435D01*
X2941Y1436D01*
X2945Y1443D01*
X2947Y1451D01*
X2945Y1460D01*
X2941Y1467D01*
X2933Y1472D01*
X2925Y1473D01*
D02*
G37*
G36*
X2750D02*
X2742Y1472D01*
X2734Y1467D01*
X2730Y1460D01*
X2728Y1451D01*
X2730Y1443D01*
X2734Y1436D01*
X2736Y1435D01*
Y1233D01*
X2734Y1232D01*
X2730Y1225D01*
X2728Y1216D01*
X2730Y1208D01*
X2734Y1201D01*
X2736Y1200D01*
Y998D01*
X2734Y997D01*
X2730Y990D01*
X2728Y981D01*
X2730Y973D01*
X2734Y966D01*
X2736Y965D01*
Y768D01*
X2734Y767D01*
X2730Y760D01*
X2728Y751D01*
X2730Y743D01*
X2734Y736D01*
X2736Y735D01*
Y533D01*
X2734Y532D01*
X2730Y525D01*
X2728Y516D01*
X2730Y508D01*
X2734Y501D01*
X2736Y500D01*
Y303D01*
X2734Y302D01*
X2730Y295D01*
X2728Y286D01*
X2730Y278D01*
X2734Y271D01*
X2736Y270D01*
Y68D01*
X2734Y67D01*
X2730Y60D01*
X2728Y51D01*
X2730Y43D01*
X2734Y36D01*
X2742Y31D01*
X2750Y29D01*
X2758Y31D01*
X2766Y36D01*
X2770Y43D01*
X2772Y51D01*
X2770Y60D01*
X2766Y67D01*
X2764Y68D01*
Y270D01*
X2766Y271D01*
X2770Y278D01*
X2772Y286D01*
X2770Y295D01*
X2766Y302D01*
X2764Y303D01*
Y500D01*
X2766Y501D01*
X2770Y508D01*
X2772Y516D01*
X2770Y525D01*
X2766Y532D01*
X2764Y533D01*
Y735D01*
X2766Y736D01*
X2770Y743D01*
X2772Y751D01*
X2770Y760D01*
X2766Y767D01*
X2764Y768D01*
Y965D01*
X2766Y966D01*
X2770Y973D01*
X2772Y981D01*
X2770Y990D01*
X2766Y997D01*
X2764Y998D01*
Y1200D01*
X2766Y1201D01*
X2770Y1208D01*
X2772Y1216D01*
X2770Y1225D01*
X2766Y1232D01*
X2764Y1233D01*
Y1435D01*
X2766Y1436D01*
X2770Y1443D01*
X2772Y1451D01*
X2770Y1460D01*
X2766Y1467D01*
X2758Y1472D01*
X2750Y1473D01*
D02*
G37*
G36*
X2570D02*
X2562Y1472D01*
X2554Y1467D01*
X2550Y1460D01*
X2548Y1451D01*
X2550Y1443D01*
X2554Y1436D01*
X2556Y1435D01*
Y1233D01*
X2554Y1232D01*
X2550Y1225D01*
X2548Y1216D01*
X2550Y1208D01*
X2554Y1201D01*
X2556Y1200D01*
Y998D01*
X2554Y997D01*
X2550Y990D01*
X2548Y981D01*
X2550Y973D01*
X2554Y966D01*
X2556Y965D01*
Y768D01*
X2554Y767D01*
X2550Y760D01*
X2548Y751D01*
X2550Y743D01*
X2554Y736D01*
X2556Y735D01*
Y533D01*
X2554Y532D01*
X2550Y525D01*
X2548Y516D01*
X2550Y508D01*
X2554Y501D01*
X2556Y500D01*
Y303D01*
X2554Y302D01*
X2550Y295D01*
X2548Y286D01*
X2550Y278D01*
X2554Y271D01*
X2556Y270D01*
Y68D01*
X2554Y67D01*
X2550Y60D01*
X2548Y51D01*
X2550Y43D01*
X2554Y36D01*
X2562Y31D01*
X2570Y29D01*
X2578Y31D01*
X2586Y36D01*
X2590Y43D01*
X2592Y51D01*
X2590Y60D01*
X2586Y67D01*
X2584Y68D01*
Y270D01*
X2586Y271D01*
X2590Y278D01*
X2592Y286D01*
X2590Y295D01*
X2586Y302D01*
X2584Y303D01*
Y500D01*
X2586Y501D01*
X2590Y508D01*
X2592Y516D01*
X2590Y525D01*
X2586Y532D01*
X2584Y533D01*
Y735D01*
X2586Y736D01*
X2590Y743D01*
X2592Y751D01*
X2590Y760D01*
X2586Y767D01*
X2584Y768D01*
Y965D01*
X2586Y966D01*
X2590Y973D01*
X2592Y981D01*
X2590Y990D01*
X2586Y997D01*
X2584Y998D01*
Y1200D01*
X2586Y1201D01*
X2590Y1208D01*
X2592Y1216D01*
X2590Y1225D01*
X2586Y1232D01*
X2584Y1233D01*
Y1435D01*
X2586Y1436D01*
X2590Y1443D01*
X2592Y1451D01*
X2590Y1460D01*
X2586Y1467D01*
X2578Y1472D01*
X2570Y1473D01*
D02*
G37*
G36*
X2395D02*
X2387Y1472D01*
X2379Y1467D01*
X2375Y1460D01*
X2373Y1451D01*
X2375Y1443D01*
X2379Y1436D01*
X2381Y1435D01*
Y1233D01*
X2379Y1232D01*
X2375Y1225D01*
X2373Y1216D01*
X2375Y1208D01*
X2379Y1201D01*
X2381Y1200D01*
Y998D01*
X2379Y997D01*
X2375Y990D01*
X2373Y981D01*
X2375Y973D01*
X2379Y966D01*
X2381Y965D01*
Y768D01*
X2379Y767D01*
X2375Y760D01*
X2373Y751D01*
X2375Y743D01*
X2379Y736D01*
X2381Y735D01*
Y533D01*
X2379Y532D01*
X2375Y525D01*
X2373Y516D01*
X2375Y508D01*
X2379Y501D01*
X2381Y500D01*
Y303D01*
X2379Y302D01*
X2375Y295D01*
X2373Y286D01*
X2375Y278D01*
X2379Y271D01*
X2381Y270D01*
Y68D01*
X2379Y67D01*
X2375Y60D01*
X2373Y51D01*
X2375Y43D01*
X2379Y36D01*
X2387Y31D01*
X2395Y29D01*
X2403Y31D01*
X2411Y36D01*
X2415Y43D01*
X2417Y51D01*
X2415Y60D01*
X2411Y67D01*
X2409Y68D01*
Y270D01*
X2411Y271D01*
X2415Y278D01*
X2417Y286D01*
X2415Y295D01*
X2411Y302D01*
X2409Y303D01*
Y500D01*
X2411Y501D01*
X2415Y508D01*
X2417Y516D01*
X2415Y525D01*
X2411Y532D01*
X2409Y533D01*
Y735D01*
X2411Y736D01*
X2415Y743D01*
X2417Y751D01*
X2415Y760D01*
X2411Y767D01*
X2409Y768D01*
Y965D01*
X2411Y966D01*
X2415Y973D01*
X2417Y981D01*
X2415Y990D01*
X2411Y997D01*
X2409Y998D01*
Y1200D01*
X2411Y1201D01*
X2415Y1208D01*
X2417Y1216D01*
X2415Y1225D01*
X2411Y1232D01*
X2409Y1233D01*
Y1435D01*
X2411Y1436D01*
X2415Y1443D01*
X2417Y1451D01*
X2415Y1460D01*
X2411Y1467D01*
X2403Y1472D01*
X2395Y1473D01*
D02*
G37*
G36*
X2220D02*
X2212Y1472D01*
X2204Y1467D01*
X2200Y1460D01*
X2198Y1451D01*
X2200Y1443D01*
X2204Y1436D01*
X2206Y1435D01*
Y1233D01*
X2204Y1232D01*
X2200Y1225D01*
X2198Y1216D01*
X2200Y1208D01*
X2204Y1201D01*
X2206Y1200D01*
Y998D01*
X2204Y997D01*
X2200Y990D01*
X2198Y981D01*
X2200Y973D01*
X2204Y966D01*
X2206Y965D01*
Y768D01*
X2204Y767D01*
X2200Y760D01*
X2198Y751D01*
X2200Y743D01*
X2204Y736D01*
X2206Y735D01*
Y533D01*
X2204Y532D01*
X2200Y525D01*
X2198Y516D01*
X2200Y508D01*
X2204Y501D01*
X2206Y500D01*
Y303D01*
X2204Y302D01*
X2200Y295D01*
X2198Y286D01*
X2200Y278D01*
X2204Y271D01*
X2206Y270D01*
Y68D01*
X2204Y67D01*
X2200Y60D01*
X2198Y51D01*
X2200Y43D01*
X2204Y36D01*
X2212Y31D01*
X2220Y29D01*
X2228Y31D01*
X2236Y36D01*
X2240Y43D01*
X2242Y51D01*
X2240Y60D01*
X2236Y67D01*
X2234Y68D01*
Y270D01*
X2236Y271D01*
X2240Y278D01*
X2242Y286D01*
X2240Y295D01*
X2236Y302D01*
X2234Y303D01*
Y500D01*
X2236Y501D01*
X2240Y508D01*
X2242Y516D01*
X2240Y525D01*
X2236Y532D01*
X2234Y533D01*
Y735D01*
X2236Y736D01*
X2240Y743D01*
X2242Y751D01*
X2240Y760D01*
X2236Y767D01*
X2234Y768D01*
Y965D01*
X2236Y966D01*
X2240Y973D01*
X2242Y981D01*
X2240Y990D01*
X2236Y997D01*
X2234Y998D01*
Y1200D01*
X2236Y1201D01*
X2240Y1208D01*
X2242Y1216D01*
X2240Y1225D01*
X2236Y1232D01*
X2234Y1233D01*
Y1435D01*
X2236Y1436D01*
X2240Y1443D01*
X2242Y1451D01*
X2240Y1460D01*
X2236Y1467D01*
X2228Y1472D01*
X2220Y1473D01*
D02*
G37*
G36*
X2040D02*
X2032Y1472D01*
X2024Y1467D01*
X2020Y1460D01*
X2018Y1451D01*
X2020Y1443D01*
X2024Y1436D01*
X2026Y1435D01*
Y1233D01*
X2024Y1232D01*
X2020Y1225D01*
X2018Y1216D01*
X2020Y1208D01*
X2024Y1201D01*
X2026Y1200D01*
Y998D01*
X2024Y997D01*
X2020Y990D01*
X2018Y981D01*
X2020Y973D01*
X2024Y966D01*
X2026Y965D01*
Y768D01*
X2024Y767D01*
X2020Y760D01*
X2018Y751D01*
X2020Y743D01*
X2024Y736D01*
X2026Y735D01*
Y533D01*
X2024Y532D01*
X2020Y525D01*
X2018Y516D01*
X2020Y508D01*
X2024Y501D01*
X2026Y500D01*
Y303D01*
X2024Y302D01*
X2020Y295D01*
X2018Y286D01*
X2020Y278D01*
X2024Y271D01*
X2026Y270D01*
Y68D01*
X2024Y67D01*
X2020Y60D01*
X2018Y51D01*
X2020Y43D01*
X2024Y36D01*
X2032Y31D01*
X2040Y29D01*
X2048Y31D01*
X2056Y36D01*
X2060Y43D01*
X2062Y51D01*
X2060Y60D01*
X2056Y67D01*
X2054Y68D01*
Y270D01*
X2056Y271D01*
X2060Y278D01*
X2062Y286D01*
X2060Y295D01*
X2056Y302D01*
X2054Y303D01*
Y500D01*
X2056Y501D01*
X2060Y508D01*
X2062Y516D01*
X2060Y525D01*
X2056Y532D01*
X2054Y533D01*
Y735D01*
X2056Y736D01*
X2060Y743D01*
X2062Y751D01*
X2060Y760D01*
X2056Y767D01*
X2054Y768D01*
Y965D01*
X2056Y966D01*
X2060Y973D01*
X2062Y981D01*
X2060Y990D01*
X2056Y997D01*
X2054Y998D01*
Y1200D01*
X2056Y1201D01*
X2060Y1208D01*
X2062Y1216D01*
X2060Y1225D01*
X2056Y1232D01*
X2054Y1233D01*
Y1435D01*
X2056Y1436D01*
X2060Y1443D01*
X2062Y1451D01*
X2060Y1460D01*
X2056Y1467D01*
X2048Y1472D01*
X2040Y1473D01*
D02*
G37*
G36*
X1865D02*
X1857Y1472D01*
X1849Y1467D01*
X1845Y1460D01*
X1843Y1451D01*
X1845Y1443D01*
X1849Y1436D01*
X1851Y1435D01*
Y1233D01*
X1849Y1232D01*
X1845Y1225D01*
X1843Y1216D01*
X1845Y1208D01*
X1849Y1201D01*
X1851Y1200D01*
Y998D01*
X1849Y997D01*
X1845Y990D01*
X1843Y981D01*
X1845Y973D01*
X1849Y966D01*
X1851Y965D01*
Y768D01*
X1849Y767D01*
X1845Y760D01*
X1843Y751D01*
X1845Y743D01*
X1849Y736D01*
X1851Y735D01*
Y533D01*
X1849Y532D01*
X1845Y525D01*
X1843Y516D01*
X1845Y508D01*
X1849Y501D01*
X1851Y500D01*
Y303D01*
X1849Y302D01*
X1845Y295D01*
X1843Y286D01*
X1845Y278D01*
X1849Y271D01*
X1851Y270D01*
Y68D01*
X1849Y67D01*
X1845Y60D01*
X1843Y51D01*
X1845Y43D01*
X1849Y36D01*
X1857Y31D01*
X1865Y29D01*
X1873Y31D01*
X1881Y36D01*
X1885Y43D01*
X1887Y51D01*
X1885Y60D01*
X1881Y67D01*
X1879Y68D01*
Y270D01*
X1881Y271D01*
X1885Y278D01*
X1887Y286D01*
X1885Y295D01*
X1881Y302D01*
X1879Y303D01*
Y500D01*
X1881Y501D01*
X1885Y508D01*
X1887Y516D01*
X1885Y525D01*
X1881Y532D01*
X1879Y533D01*
Y735D01*
X1881Y736D01*
X1885Y743D01*
X1887Y751D01*
X1885Y760D01*
X1881Y767D01*
X1879Y768D01*
Y965D01*
X1881Y966D01*
X1885Y973D01*
X1887Y981D01*
X1885Y990D01*
X1881Y997D01*
X1879Y998D01*
Y1200D01*
X1881Y1201D01*
X1885Y1208D01*
X1887Y1216D01*
X1885Y1225D01*
X1881Y1232D01*
X1879Y1233D01*
Y1435D01*
X1881Y1436D01*
X1885Y1443D01*
X1887Y1451D01*
X1885Y1460D01*
X1881Y1467D01*
X1873Y1472D01*
X1865Y1473D01*
D02*
G37*
G36*
X1690D02*
X1682Y1472D01*
X1674Y1467D01*
X1670Y1460D01*
X1668Y1451D01*
X1670Y1443D01*
X1674Y1436D01*
X1676Y1435D01*
Y1233D01*
X1674Y1232D01*
X1670Y1225D01*
X1668Y1216D01*
X1670Y1208D01*
X1674Y1201D01*
X1676Y1200D01*
Y998D01*
X1674Y997D01*
X1670Y990D01*
X1668Y981D01*
X1670Y973D01*
X1674Y966D01*
X1676Y965D01*
Y768D01*
X1674Y767D01*
X1670Y760D01*
X1668Y751D01*
X1670Y743D01*
X1674Y736D01*
X1676Y735D01*
Y533D01*
X1674Y532D01*
X1670Y525D01*
X1668Y516D01*
X1670Y508D01*
X1674Y501D01*
X1676Y500D01*
Y303D01*
X1674Y302D01*
X1670Y295D01*
X1668Y286D01*
X1670Y278D01*
X1674Y271D01*
X1676Y270D01*
Y68D01*
X1674Y67D01*
X1670Y60D01*
X1668Y51D01*
X1670Y43D01*
X1674Y36D01*
X1682Y31D01*
X1690Y29D01*
X1698Y31D01*
X1706Y36D01*
X1710Y43D01*
X1712Y51D01*
X1710Y60D01*
X1706Y67D01*
X1704Y68D01*
Y270D01*
X1706Y271D01*
X1710Y278D01*
X1712Y286D01*
X1710Y295D01*
X1706Y302D01*
X1704Y303D01*
Y500D01*
X1706Y501D01*
X1710Y508D01*
X1712Y516D01*
X1710Y525D01*
X1706Y532D01*
X1704Y533D01*
Y735D01*
X1706Y736D01*
X1710Y743D01*
X1712Y751D01*
X1710Y760D01*
X1706Y767D01*
X1704Y768D01*
Y965D01*
X1706Y966D01*
X1710Y973D01*
X1712Y981D01*
X1710Y990D01*
X1706Y997D01*
X1704Y998D01*
Y1200D01*
X1706Y1201D01*
X1710Y1208D01*
X1712Y1216D01*
X1710Y1225D01*
X1706Y1232D01*
X1704Y1233D01*
Y1435D01*
X1706Y1436D01*
X1710Y1443D01*
X1712Y1451D01*
X1710Y1460D01*
X1706Y1467D01*
X1698Y1472D01*
X1690Y1473D01*
D02*
G37*
G36*
X1515D02*
X1507Y1472D01*
X1499Y1467D01*
X1495Y1460D01*
X1493Y1451D01*
X1495Y1443D01*
X1499Y1436D01*
X1501Y1435D01*
Y1233D01*
X1499Y1232D01*
X1495Y1225D01*
X1493Y1216D01*
X1495Y1208D01*
X1499Y1201D01*
X1501Y1200D01*
Y998D01*
X1499Y997D01*
X1495Y990D01*
X1493Y981D01*
X1495Y973D01*
X1499Y966D01*
X1501Y965D01*
Y768D01*
X1499Y767D01*
X1495Y760D01*
X1493Y751D01*
X1495Y743D01*
X1499Y736D01*
X1501Y735D01*
Y533D01*
X1499Y532D01*
X1495Y525D01*
X1493Y516D01*
X1495Y508D01*
X1499Y501D01*
X1501Y500D01*
Y303D01*
X1499Y302D01*
X1495Y295D01*
X1493Y286D01*
X1495Y278D01*
X1499Y271D01*
X1501Y270D01*
Y68D01*
X1499Y67D01*
X1495Y60D01*
X1493Y51D01*
X1495Y43D01*
X1499Y36D01*
X1507Y31D01*
X1515Y29D01*
X1523Y31D01*
X1531Y36D01*
X1535Y43D01*
X1537Y51D01*
X1535Y60D01*
X1531Y67D01*
X1529Y68D01*
Y270D01*
X1531Y271D01*
X1535Y278D01*
X1537Y286D01*
X1535Y295D01*
X1531Y302D01*
X1529Y303D01*
Y500D01*
X1531Y501D01*
X1535Y508D01*
X1537Y516D01*
X1535Y525D01*
X1531Y532D01*
X1529Y533D01*
Y735D01*
X1531Y736D01*
X1535Y743D01*
X1537Y751D01*
X1535Y760D01*
X1531Y767D01*
X1529Y768D01*
Y965D01*
X1531Y966D01*
X1535Y973D01*
X1537Y981D01*
X1535Y990D01*
X1531Y997D01*
X1529Y998D01*
Y1200D01*
X1531Y1201D01*
X1535Y1208D01*
X1537Y1216D01*
X1535Y1225D01*
X1531Y1232D01*
X1529Y1233D01*
Y1435D01*
X1531Y1436D01*
X1535Y1443D01*
X1537Y1451D01*
X1535Y1460D01*
X1531Y1467D01*
X1523Y1472D01*
X1515Y1473D01*
D02*
G37*
G36*
X1335D02*
X1327Y1472D01*
X1319Y1467D01*
X1315Y1460D01*
X1313Y1451D01*
X1315Y1443D01*
X1319Y1436D01*
X1321Y1435D01*
Y1233D01*
X1319Y1232D01*
X1315Y1225D01*
X1313Y1216D01*
X1315Y1208D01*
X1319Y1201D01*
X1321Y1200D01*
Y998D01*
X1319Y997D01*
X1315Y990D01*
X1313Y981D01*
X1315Y973D01*
X1319Y966D01*
X1321Y965D01*
Y768D01*
X1319Y767D01*
X1315Y760D01*
X1313Y751D01*
X1315Y743D01*
X1319Y736D01*
X1321Y735D01*
Y533D01*
X1319Y532D01*
X1315Y525D01*
X1313Y516D01*
X1315Y508D01*
X1319Y501D01*
X1321Y500D01*
Y303D01*
X1319Y302D01*
X1315Y295D01*
X1313Y286D01*
X1315Y278D01*
X1319Y271D01*
X1321Y270D01*
Y68D01*
X1319Y67D01*
X1315Y60D01*
X1313Y51D01*
X1315Y43D01*
X1319Y36D01*
X1327Y31D01*
X1335Y29D01*
X1343Y31D01*
X1351Y36D01*
X1355Y43D01*
X1357Y51D01*
X1355Y60D01*
X1351Y67D01*
X1349Y68D01*
Y270D01*
X1351Y271D01*
X1355Y278D01*
X1357Y286D01*
X1355Y295D01*
X1351Y302D01*
X1349Y303D01*
Y500D01*
X1351Y501D01*
X1355Y508D01*
X1357Y516D01*
X1355Y525D01*
X1351Y532D01*
X1349Y533D01*
Y735D01*
X1351Y736D01*
X1355Y743D01*
X1357Y751D01*
X1355Y760D01*
X1351Y767D01*
X1349Y768D01*
Y965D01*
X1351Y966D01*
X1355Y973D01*
X1357Y981D01*
X1355Y990D01*
X1351Y997D01*
X1349Y998D01*
Y1200D01*
X1351Y1201D01*
X1355Y1208D01*
X1357Y1216D01*
X1355Y1225D01*
X1351Y1232D01*
X1349Y1233D01*
Y1435D01*
X1351Y1436D01*
X1355Y1443D01*
X1357Y1451D01*
X1355Y1460D01*
X1351Y1467D01*
X1343Y1472D01*
X1335Y1473D01*
D02*
G37*
G36*
X1155D02*
X1147Y1472D01*
X1139Y1467D01*
X1135Y1460D01*
X1133Y1451D01*
X1135Y1443D01*
X1139Y1436D01*
X1141Y1435D01*
Y1233D01*
X1139Y1232D01*
X1135Y1225D01*
X1133Y1216D01*
X1135Y1208D01*
X1139Y1201D01*
X1141Y1200D01*
Y998D01*
X1139Y997D01*
X1135Y990D01*
X1133Y981D01*
X1135Y973D01*
X1139Y966D01*
X1141Y965D01*
Y768D01*
X1139Y767D01*
X1135Y760D01*
X1133Y751D01*
X1135Y743D01*
X1139Y736D01*
X1141Y735D01*
Y533D01*
X1139Y532D01*
X1135Y525D01*
X1133Y516D01*
X1135Y508D01*
X1139Y501D01*
X1141Y500D01*
Y303D01*
X1139Y302D01*
X1135Y295D01*
X1133Y286D01*
X1135Y278D01*
X1139Y271D01*
X1141Y270D01*
Y68D01*
X1139Y67D01*
X1135Y60D01*
X1133Y51D01*
X1135Y43D01*
X1139Y36D01*
X1147Y31D01*
X1155Y29D01*
X1163Y31D01*
X1171Y36D01*
X1175Y43D01*
X1177Y51D01*
X1175Y60D01*
X1171Y67D01*
X1169Y68D01*
Y270D01*
X1171Y271D01*
X1175Y278D01*
X1177Y286D01*
X1175Y295D01*
X1171Y302D01*
X1169Y303D01*
Y500D01*
X1171Y501D01*
X1175Y508D01*
X1177Y516D01*
X1175Y525D01*
X1171Y532D01*
X1169Y533D01*
Y735D01*
X1171Y736D01*
X1175Y743D01*
X1177Y751D01*
X1175Y760D01*
X1171Y767D01*
X1169Y768D01*
Y965D01*
X1171Y966D01*
X1175Y973D01*
X1177Y981D01*
X1175Y990D01*
X1171Y997D01*
X1169Y998D01*
Y1200D01*
X1171Y1201D01*
X1175Y1208D01*
X1177Y1216D01*
X1175Y1225D01*
X1171Y1232D01*
X1169Y1233D01*
Y1435D01*
X1171Y1436D01*
X1175Y1443D01*
X1177Y1451D01*
X1175Y1460D01*
X1171Y1467D01*
X1163Y1472D01*
X1155Y1473D01*
D02*
G37*
G36*
X975D02*
X967Y1472D01*
X959Y1467D01*
X955Y1460D01*
X953Y1451D01*
X955Y1443D01*
X959Y1436D01*
X961Y1435D01*
Y1233D01*
X959Y1232D01*
X955Y1225D01*
X953Y1216D01*
X955Y1208D01*
X959Y1201D01*
X961Y1200D01*
Y998D01*
X959Y997D01*
X955Y990D01*
X953Y981D01*
X955Y973D01*
X959Y966D01*
X961Y965D01*
Y768D01*
X959Y767D01*
X955Y760D01*
X953Y751D01*
X955Y743D01*
X959Y736D01*
X961Y735D01*
Y533D01*
X959Y532D01*
X955Y525D01*
X953Y516D01*
X955Y508D01*
X959Y501D01*
X961Y500D01*
Y303D01*
X959Y302D01*
X955Y295D01*
X953Y286D01*
X955Y278D01*
X959Y271D01*
X961Y270D01*
Y68D01*
X959Y67D01*
X955Y60D01*
X953Y51D01*
X955Y43D01*
X959Y36D01*
X967Y31D01*
X975Y29D01*
X983Y31D01*
X991Y36D01*
X995Y43D01*
X997Y51D01*
X995Y60D01*
X991Y67D01*
X989Y68D01*
Y270D01*
X991Y271D01*
X995Y278D01*
X997Y286D01*
X995Y295D01*
X991Y302D01*
X989Y303D01*
Y500D01*
X991Y501D01*
X995Y508D01*
X997Y516D01*
X995Y525D01*
X991Y532D01*
X989Y533D01*
Y735D01*
X991Y736D01*
X995Y743D01*
X997Y751D01*
X995Y760D01*
X991Y767D01*
X989Y768D01*
Y965D01*
X991Y966D01*
X995Y973D01*
X997Y981D01*
X995Y990D01*
X991Y997D01*
X989Y998D01*
Y1200D01*
X991Y1201D01*
X995Y1208D01*
X997Y1216D01*
X995Y1225D01*
X991Y1232D01*
X989Y1233D01*
Y1435D01*
X991Y1436D01*
X995Y1443D01*
X997Y1451D01*
X995Y1460D01*
X991Y1467D01*
X983Y1472D01*
X975Y1473D01*
D02*
G37*
G36*
X795D02*
X787Y1472D01*
X779Y1467D01*
X775Y1460D01*
X773Y1451D01*
X775Y1443D01*
X779Y1436D01*
X781Y1435D01*
Y1233D01*
X779Y1232D01*
X775Y1225D01*
X773Y1216D01*
X775Y1208D01*
X779Y1201D01*
X781Y1200D01*
Y998D01*
X779Y997D01*
X775Y990D01*
X773Y981D01*
X775Y973D01*
X779Y966D01*
X781Y965D01*
Y768D01*
X779Y767D01*
X775Y760D01*
X773Y751D01*
X775Y743D01*
X779Y736D01*
X781Y735D01*
Y533D01*
X779Y532D01*
X775Y525D01*
X773Y516D01*
X775Y508D01*
X779Y501D01*
X781Y500D01*
Y303D01*
X779Y302D01*
X775Y295D01*
X773Y286D01*
X775Y278D01*
X779Y271D01*
X781Y270D01*
Y68D01*
X779Y67D01*
X775Y60D01*
X773Y51D01*
X775Y43D01*
X779Y36D01*
X787Y31D01*
X795Y29D01*
X803Y31D01*
X811Y36D01*
X815Y43D01*
X817Y51D01*
X815Y60D01*
X811Y67D01*
X809Y68D01*
Y270D01*
X811Y271D01*
X815Y278D01*
X817Y286D01*
X815Y295D01*
X811Y302D01*
X809Y303D01*
Y500D01*
X811Y501D01*
X815Y508D01*
X817Y516D01*
X815Y525D01*
X811Y532D01*
X809Y533D01*
Y735D01*
X811Y736D01*
X815Y743D01*
X817Y751D01*
X815Y760D01*
X811Y767D01*
X809Y768D01*
Y965D01*
X811Y966D01*
X815Y973D01*
X817Y981D01*
X815Y990D01*
X811Y997D01*
X809Y998D01*
Y1200D01*
X811Y1201D01*
X815Y1208D01*
X817Y1216D01*
X815Y1225D01*
X811Y1232D01*
X809Y1233D01*
Y1435D01*
X811Y1436D01*
X815Y1443D01*
X817Y1451D01*
X815Y1460D01*
X811Y1467D01*
X803Y1472D01*
X795Y1473D01*
D02*
G37*
G36*
X620D02*
X612Y1472D01*
X604Y1467D01*
X600Y1460D01*
X598Y1451D01*
X600Y1443D01*
X604Y1436D01*
X606Y1435D01*
Y1233D01*
X604Y1232D01*
X600Y1225D01*
X598Y1216D01*
X600Y1208D01*
X604Y1201D01*
X606Y1200D01*
Y998D01*
X604Y997D01*
X600Y990D01*
X598Y981D01*
X600Y973D01*
X604Y966D01*
X606Y965D01*
Y768D01*
X604Y767D01*
X600Y760D01*
X598Y751D01*
X600Y743D01*
X604Y736D01*
X606Y735D01*
Y533D01*
X604Y532D01*
X600Y525D01*
X598Y516D01*
X600Y508D01*
X604Y501D01*
X606Y500D01*
Y303D01*
X604Y302D01*
X600Y295D01*
X598Y286D01*
X600Y278D01*
X604Y271D01*
X606Y270D01*
Y68D01*
X604Y67D01*
X600Y60D01*
X598Y51D01*
X600Y43D01*
X604Y36D01*
X612Y31D01*
X620Y29D01*
X628Y31D01*
X636Y36D01*
X640Y43D01*
X642Y51D01*
X640Y60D01*
X636Y67D01*
X634Y68D01*
Y270D01*
X636Y271D01*
X640Y278D01*
X642Y286D01*
X640Y295D01*
X636Y302D01*
X634Y303D01*
Y500D01*
X636Y501D01*
X640Y508D01*
X642Y516D01*
X640Y525D01*
X636Y532D01*
X634Y533D01*
Y735D01*
X636Y736D01*
X640Y743D01*
X642Y751D01*
X640Y760D01*
X636Y767D01*
X634Y768D01*
Y965D01*
X636Y966D01*
X640Y973D01*
X642Y981D01*
X640Y990D01*
X636Y997D01*
X634Y998D01*
Y1200D01*
X636Y1201D01*
X640Y1208D01*
X642Y1216D01*
X640Y1225D01*
X636Y1232D01*
X634Y1233D01*
Y1435D01*
X636Y1436D01*
X640Y1443D01*
X642Y1451D01*
X640Y1460D01*
X636Y1467D01*
X628Y1472D01*
X620Y1473D01*
D02*
G37*
G36*
X445D02*
X437Y1472D01*
X429Y1467D01*
X425Y1460D01*
X423Y1451D01*
X425Y1443D01*
X429Y1436D01*
X431Y1435D01*
Y1233D01*
X429Y1232D01*
X425Y1225D01*
X423Y1216D01*
X425Y1208D01*
X429Y1201D01*
X431Y1200D01*
Y998D01*
X429Y997D01*
X425Y990D01*
X423Y981D01*
X425Y973D01*
X429Y966D01*
X431Y965D01*
Y768D01*
X429Y767D01*
X425Y760D01*
X423Y751D01*
X425Y743D01*
X429Y736D01*
X431Y735D01*
Y533D01*
X429Y532D01*
X425Y525D01*
X423Y516D01*
X425Y508D01*
X429Y501D01*
X431Y500D01*
Y303D01*
X429Y302D01*
X425Y295D01*
X423Y286D01*
X425Y278D01*
X429Y271D01*
X431Y270D01*
Y68D01*
X429Y67D01*
X425Y60D01*
X423Y51D01*
X425Y43D01*
X429Y36D01*
X437Y31D01*
X445Y29D01*
X453Y31D01*
X461Y36D01*
X465Y43D01*
X467Y51D01*
X465Y60D01*
X461Y67D01*
X459Y68D01*
Y270D01*
X461Y271D01*
X465Y278D01*
X467Y286D01*
X465Y295D01*
X461Y302D01*
X459Y303D01*
Y500D01*
X461Y501D01*
X465Y508D01*
X467Y516D01*
X465Y525D01*
X461Y532D01*
X459Y533D01*
Y735D01*
X461Y736D01*
X465Y743D01*
X467Y751D01*
X465Y760D01*
X461Y767D01*
X459Y768D01*
Y965D01*
X461Y966D01*
X465Y973D01*
X467Y981D01*
X465Y990D01*
X461Y997D01*
X459Y998D01*
Y1200D01*
X461Y1201D01*
X465Y1208D01*
X467Y1216D01*
X465Y1225D01*
X461Y1232D01*
X459Y1233D01*
Y1435D01*
X461Y1436D01*
X465Y1443D01*
X467Y1451D01*
X465Y1460D01*
X461Y1467D01*
X453Y1472D01*
X445Y1473D01*
D02*
G37*
G36*
X270D02*
X262Y1472D01*
X254Y1467D01*
X250Y1460D01*
X248Y1451D01*
X250Y1443D01*
X254Y1436D01*
X256Y1435D01*
Y1233D01*
X254Y1232D01*
X250Y1225D01*
X248Y1216D01*
X250Y1208D01*
X254Y1201D01*
X256Y1200D01*
Y998D01*
X254Y997D01*
X250Y990D01*
X248Y981D01*
X250Y973D01*
X254Y966D01*
X256Y965D01*
Y768D01*
X254Y767D01*
X250Y760D01*
X248Y751D01*
X250Y743D01*
X254Y736D01*
X256Y735D01*
Y533D01*
X254Y532D01*
X250Y525D01*
X248Y516D01*
X250Y508D01*
X254Y501D01*
X256Y500D01*
Y303D01*
X254Y302D01*
X250Y295D01*
X248Y286D01*
X250Y278D01*
X254Y271D01*
X256Y270D01*
Y68D01*
X254Y67D01*
X250Y60D01*
X248Y51D01*
X250Y43D01*
X254Y36D01*
X262Y31D01*
X270Y29D01*
X278Y31D01*
X286Y36D01*
X290Y43D01*
X292Y51D01*
X290Y60D01*
X286Y67D01*
X284Y68D01*
Y270D01*
X286Y271D01*
X290Y278D01*
X292Y286D01*
X290Y295D01*
X286Y302D01*
X284Y303D01*
Y500D01*
X286Y501D01*
X290Y508D01*
X292Y516D01*
X290Y525D01*
X286Y532D01*
X284Y533D01*
Y735D01*
X286Y736D01*
X290Y743D01*
X292Y751D01*
X290Y760D01*
X286Y767D01*
X284Y768D01*
Y965D01*
X286Y966D01*
X290Y973D01*
X292Y981D01*
X290Y990D01*
X286Y997D01*
X284Y998D01*
Y1200D01*
X286Y1201D01*
X290Y1208D01*
X292Y1216D01*
X290Y1225D01*
X286Y1232D01*
X284Y1233D01*
Y1435D01*
X286Y1436D01*
X290Y1443D01*
X292Y1451D01*
X290Y1460D01*
X286Y1467D01*
X278Y1472D01*
X270Y1473D01*
D02*
G37*
G36*
X90D02*
X82Y1472D01*
X74Y1467D01*
X70Y1460D01*
X68Y1451D01*
X70Y1443D01*
X74Y1436D01*
X76Y1435D01*
Y1233D01*
X74Y1232D01*
X70Y1225D01*
X68Y1216D01*
X70Y1208D01*
X74Y1201D01*
X76Y1200D01*
Y998D01*
X74Y997D01*
X70Y990D01*
X68Y981D01*
X70Y973D01*
X74Y966D01*
X76Y965D01*
Y768D01*
X74Y767D01*
X70Y760D01*
X68Y751D01*
X70Y743D01*
X74Y736D01*
X76Y735D01*
Y533D01*
X74Y532D01*
X70Y525D01*
X68Y516D01*
X70Y508D01*
X74Y501D01*
X76Y500D01*
Y303D01*
X74Y302D01*
X70Y295D01*
X68Y286D01*
X70Y278D01*
X74Y271D01*
X76Y270D01*
Y68D01*
X74Y67D01*
X70Y60D01*
X68Y51D01*
X70Y43D01*
X74Y36D01*
X82Y31D01*
X90Y29D01*
X98Y31D01*
X106Y36D01*
X110Y43D01*
X112Y51D01*
X110Y60D01*
X106Y67D01*
X104Y68D01*
Y270D01*
X106Y271D01*
X110Y278D01*
X112Y286D01*
X110Y295D01*
X106Y302D01*
X104Y303D01*
Y500D01*
X106Y501D01*
X110Y508D01*
X112Y516D01*
X110Y525D01*
X106Y532D01*
X104Y533D01*
Y735D01*
X106Y736D01*
X110Y743D01*
X112Y751D01*
X110Y760D01*
X106Y767D01*
X104Y768D01*
Y965D01*
X106Y966D01*
X110Y973D01*
X112Y981D01*
X110Y990D01*
X106Y997D01*
X104Y998D01*
Y1200D01*
X106Y1201D01*
X110Y1208D01*
X112Y1216D01*
X110Y1225D01*
X106Y1232D01*
X104Y1233D01*
Y1435D01*
X106Y1436D01*
X110Y1443D01*
X112Y1451D01*
X110Y1460D01*
X106Y1467D01*
X98Y1472D01*
X90Y1473D01*
D02*
G37*
G36*
X-120D02*
X-128Y1472D01*
X-136Y1467D01*
X-140Y1460D01*
X-142Y1451D01*
X-140Y1443D01*
X-136Y1436D01*
X-134Y1435D01*
Y1233D01*
X-136Y1232D01*
X-140Y1225D01*
X-142Y1216D01*
X-140Y1208D01*
X-136Y1201D01*
X-134Y1200D01*
Y998D01*
X-136Y997D01*
X-140Y990D01*
X-142Y981D01*
X-140Y973D01*
X-136Y966D01*
X-134Y965D01*
Y768D01*
X-136Y767D01*
X-140Y760D01*
X-142Y751D01*
X-140Y743D01*
X-136Y736D01*
X-134Y735D01*
Y533D01*
X-136Y532D01*
X-140Y525D01*
X-142Y516D01*
X-140Y508D01*
X-136Y501D01*
X-134Y500D01*
Y303D01*
X-136Y302D01*
X-140Y295D01*
X-142Y286D01*
X-140Y278D01*
X-136Y271D01*
X-134Y270D01*
Y68D01*
X-136Y67D01*
X-140Y60D01*
X-142Y51D01*
X-140Y43D01*
X-136Y36D01*
X-128Y31D01*
X-120Y29D01*
X-112Y31D01*
X-104Y36D01*
X-100Y43D01*
X-98Y51D01*
X-100Y60D01*
X-104Y67D01*
X-106Y68D01*
Y270D01*
X-104Y271D01*
X-100Y278D01*
X-98Y286D01*
X-100Y295D01*
X-104Y302D01*
X-106Y303D01*
Y500D01*
X-104Y501D01*
X-100Y508D01*
X-98Y516D01*
X-100Y525D01*
X-104Y532D01*
X-106Y533D01*
Y735D01*
X-104Y736D01*
X-100Y743D01*
X-98Y751D01*
X-100Y760D01*
X-104Y767D01*
X-106Y768D01*
Y965D01*
X-104Y966D01*
X-100Y973D01*
X-98Y981D01*
X-100Y990D01*
X-104Y997D01*
X-106Y998D01*
Y1200D01*
X-104Y1201D01*
X-100Y1208D01*
X-98Y1216D01*
X-100Y1225D01*
X-104Y1232D01*
X-106Y1233D01*
Y1435D01*
X-104Y1436D01*
X-100Y1443D01*
X-98Y1451D01*
X-100Y1460D01*
X-104Y1467D01*
X-112Y1472D01*
X-120Y1473D01*
D02*
G37*
G36*
X-1035Y697D02*
X-1043Y695D01*
X-1051Y691D01*
X-1055Y683D01*
X-1057Y675D01*
X-1055Y667D01*
X-1051Y659D01*
X-1043Y655D01*
X-1035Y653D01*
X-1028Y655D01*
X-286Y-86D01*
X-284Y-88D01*
X-280Y-89D01*
X2496D01*
X2533Y-126D01*
X2533Y-132D01*
X2529Y-134D01*
X2525Y-142D01*
X2523Y-150D01*
X2525Y-158D01*
X2529Y-166D01*
X2537Y-170D01*
X2545Y-172D01*
X2553Y-170D01*
X2561Y-166D01*
X2565Y-158D01*
X2567Y-150D01*
X2565Y-142D01*
X2561Y-134D01*
X2554Y-130D01*
Y-125D01*
X2553Y-121D01*
X2551Y-119D01*
X2506Y-74D01*
X2504Y-72D01*
X2500Y-71D01*
X-276D01*
X-1015Y668D01*
X-1013Y675D01*
X-1015Y683D01*
X-1019Y691D01*
X-1027Y695D01*
X-1035Y697D01*
D02*
G37*
G36*
X-1070Y652D02*
X-1078Y650D01*
X-1085Y646D01*
X-1090Y638D01*
X-1091Y630D01*
X-1090Y622D01*
X-1085Y614D01*
X-1079Y610D01*
Y585D01*
X-1078Y581D01*
X-1076Y578D01*
X-341Y-156D01*
X-339Y-158D01*
X-335Y-159D01*
X2205D01*
X2209Y-166D01*
X2217Y-170D01*
X2225Y-172D01*
X2233Y-170D01*
X2241Y-166D01*
X2245Y-158D01*
X2247Y-150D01*
X2245Y-142D01*
X2241Y-134D01*
X2233Y-130D01*
X2225Y-128D01*
X2217Y-130D01*
X2209Y-134D01*
X2205Y-141D01*
X-331D01*
X-1060Y588D01*
Y610D01*
X-1054Y614D01*
X-1049Y622D01*
X-1048Y630D01*
X-1049Y638D01*
X-1054Y646D01*
X-1061Y650D01*
X-1070Y652D01*
D02*
G37*
G36*
X-950Y262D02*
X-958Y260D01*
X-966Y256D01*
X-970Y248D01*
X-972Y240D01*
X-970Y232D01*
X-966Y224D01*
X-959Y220D01*
Y10D01*
X-958Y6D01*
X-956Y4D01*
X-859Y-94D01*
Y-235D01*
X-866Y-239D01*
X-870Y-247D01*
X-872Y-255D01*
X-870Y-263D01*
X-866Y-271D01*
X-858Y-275D01*
X-850Y-277D01*
X-842Y-275D01*
X-834Y-271D01*
X-830Y-263D01*
X-828Y-255D01*
X-830Y-247D01*
X-834Y-239D01*
X-841Y-235D01*
Y-90D01*
X-842Y-86D01*
X-844Y-84D01*
X-941Y14D01*
Y220D01*
X-934Y224D01*
X-930Y232D01*
X-928Y240D01*
X-930Y248D01*
X-934Y256D01*
X-942Y260D01*
X-950Y262D01*
D02*
G37*
G36*
X-1190Y777D02*
X-1198Y775D01*
X-1206Y771D01*
X-1210Y763D01*
X-1212Y755D01*
X-1210Y747D01*
X-1206Y739D01*
X-1199Y735D01*
Y585D01*
X-1198Y581D01*
X-1196Y579D01*
X-226Y-391D01*
X-224Y-393D01*
X-220Y-394D01*
X1295D01*
X1299Y-401D01*
X1307Y-405D01*
X1315Y-407D01*
X1323Y-405D01*
X1331Y-401D01*
X1335Y-393D01*
X1337Y-385D01*
X1335Y-377D01*
X1331Y-369D01*
X1323Y-365D01*
X1315Y-363D01*
X1307Y-365D01*
X1299Y-369D01*
X1295Y-376D01*
X-216D01*
X-1181Y589D01*
Y735D01*
X-1174Y739D01*
X-1170Y747D01*
X-1168Y755D01*
X-1170Y763D01*
X-1174Y771D01*
X-1182Y775D01*
X-1190Y777D01*
D02*
G37*
G36*
X4045Y-287D02*
X4032Y-288D01*
X4019Y-292D01*
X4007Y-298D01*
X3997Y-307D01*
X3988Y-317D01*
X3984Y-325D01*
X3984Y-325D01*
X3984Y-325D01*
X3984Y-325D01*
X3984Y-325D01*
X3984Y-325D01*
X3982Y-329D01*
X3981Y-333D01*
X3979Y-336D01*
Y-337D01*
X3979Y-337D01*
X3978Y-341D01*
X3978Y-342D01*
X3978Y-343D01*
X3977Y-348D01*
X3977Y-349D01*
X3977Y-349D01*
Y-361D01*
X3977Y-361D01*
X3977Y-362D01*
X3978Y-367D01*
X3978Y-368D01*
X3978Y-369D01*
X3979Y-373D01*
X3979Y-373D01*
Y-374D01*
X3981Y-377D01*
X3982Y-381D01*
X3984Y-385D01*
X3984Y-385D01*
X3984Y-385D01*
X3984Y-385D01*
X3984Y-385D01*
X3984Y-385D01*
X3988Y-393D01*
X3997Y-403D01*
X4007Y-412D01*
X4019Y-418D01*
X4032Y-422D01*
X4045Y-423D01*
X4058Y-422D01*
X4071Y-418D01*
X4083Y-412D01*
X4093Y-403D01*
X4102Y-393D01*
X4108Y-381D01*
X4112Y-368D01*
X4113Y-355D01*
X4112Y-342D01*
X4108Y-329D01*
X4102Y-317D01*
X4093Y-307D01*
X4083Y-298D01*
X4071Y-292D01*
X4058Y-288D01*
X4045Y-287D01*
D02*
G37*
G36*
X2140Y-371D02*
X2132Y-372D01*
X2124Y-377D01*
X2120Y-384D01*
X2118Y-393D01*
X2120Y-401D01*
X2124Y-408D01*
X2132Y-413D01*
X2140Y-415D01*
X2147Y-413D01*
X2189Y-454D01*
X2191Y-456D01*
X2195Y-457D01*
X2385D01*
X2389Y-463D01*
X2397Y-468D01*
X2405Y-470D01*
X2413Y-468D01*
X2421Y-463D01*
X2425Y-456D01*
X2427Y-448D01*
X2425Y-439D01*
X2421Y-432D01*
X2413Y-427D01*
X2405Y-426D01*
X2397Y-427D01*
X2389Y-432D01*
X2385Y-438D01*
X2199D01*
X2160Y-400D01*
X2162Y-393D01*
X2160Y-384D01*
X2156Y-377D01*
X2148Y-372D01*
X2140Y-371D01*
D02*
G37*
%LPD*%
D21*
X-290Y1990D02*
X150Y2430D01*
X715D01*
X-1450Y955D02*
X-1335Y1070D01*
X-1450Y640D02*
Y955D01*
X-1495Y970D02*
X-1415Y1050D01*
X-1495Y692D02*
Y970D01*
X-1540Y730D02*
Y740D01*
X-1570Y770D02*
X-1540Y740D01*
X-1335Y1070D02*
X-1250D01*
X-1190Y865D02*
Y1400D01*
X-1290Y1500D02*
X-1190Y1400D01*
X-1505Y1500D02*
X-1290D01*
X-1190Y585D02*
Y755D01*
X-1070Y585D02*
Y630D01*
X-335Y-150D02*
X2225D01*
X-1070Y585D02*
X-335Y-150D01*
X-1190Y585D02*
X-220Y-385D01*
X-1505Y1200D02*
X-1445D01*
X-1415Y1170D01*
Y1050D02*
Y1170D01*
X-1570Y770D02*
Y1384D01*
X-1125Y1135D02*
X-935Y1325D01*
X-540D01*
X-290Y1575D01*
Y1990D01*
X40Y2235D02*
X800D01*
X-180Y2015D02*
X40Y2235D01*
X-180Y1600D02*
Y2015D01*
X50Y2200D02*
X750D01*
X-145Y2005D02*
X50Y2200D01*
X800Y2235D02*
X2190D01*
X750Y2200D02*
X2140D01*
X-782Y792D02*
X-775D01*
X-797Y807D02*
X-782Y792D01*
X-735Y1045D02*
X-180Y1600D01*
X-145Y1560D02*
Y2005D01*
X-770Y935D02*
X-145Y1560D01*
X-1554Y1400D02*
X-1505D01*
X-1570Y1384D02*
X-1554Y1400D01*
X-1274Y833D02*
X-792D01*
X-1275Y834D02*
X-1274Y833D01*
X-1297Y834D02*
X-1275D01*
X-1298Y833D02*
X-1297Y834D01*
X-1415Y833D02*
X-1298D01*
X-792D02*
X-782Y843D01*
X-975Y935D02*
X-770D01*
X-915Y1045D02*
X-735D01*
X-1030Y930D02*
X-915Y1045D01*
X-850Y-255D02*
Y-90D01*
X-950Y10D02*
X-850Y-90D01*
X-950Y10D02*
Y240D01*
X-782Y843D02*
X-775D01*
X-1407Y775D02*
X-1230D01*
X-1213Y792D01*
X-1415Y783D02*
X-1407Y775D01*
X-829Y792D02*
X-775Y738D01*
X-1213Y792D02*
X-829D01*
X-1320Y-85D02*
Y595D01*
X-1260Y655D01*
X-1295Y-123D02*
Y520D01*
X-1450Y-278D02*
X-1295Y-123D01*
Y520D02*
X-1230Y585D01*
X-1477Y-243D02*
X-1320Y-85D01*
X-1508Y-243D02*
X-1477D01*
X-1510Y-245D02*
X-1508Y-243D01*
X-1286Y807D02*
X-797D01*
X-220Y-385D02*
X1315D01*
X2545Y-150D02*
Y-125D01*
X2500Y-80D02*
X2545Y-125D01*
X-280Y-80D02*
X2500D01*
X-1035Y675D02*
X-280Y-80D01*
X2195Y-448D02*
X2405D01*
X2140Y-393D02*
X2195Y-448D01*
X3632Y2237D02*
X3635Y2240D01*
X2193Y2237D02*
X3632D01*
X2190Y2235D02*
X2193Y2237D01*
X3578Y2210D02*
X3585D01*
X3568Y2200D02*
X3578Y2210D01*
X2140Y2200D02*
X3568D01*
D75*
X-404Y1960D02*
Y2795D01*
Y1651D02*
Y1960D01*
X-519Y2075D02*
X-404Y1960D01*
X-1248Y2075D02*
X-519D01*
X-1293Y2120D02*
X-1248Y2075D01*
X-404Y1651D02*
X-404Y1651D01*
Y2795D02*
X-403Y2795D01*
X1835Y2405D02*
X1950Y2520D01*
X2205D01*
X1835Y2310D02*
Y2405D01*
X3305Y2380D02*
X3460Y2535D01*
X3650D01*
X3305Y2310D02*
Y2380D01*
D76*
X-120Y51D02*
Y286D01*
Y516D01*
X3990Y51D02*
Y286D01*
Y516D01*
Y751D01*
Y981D01*
Y1216D01*
Y1451D01*
X3815Y51D02*
Y286D01*
Y516D01*
Y751D01*
Y981D01*
Y1216D01*
Y1451D01*
X3635Y51D02*
Y286D01*
Y516D01*
Y751D01*
Y981D01*
Y1216D01*
Y1451D01*
X3460Y51D02*
Y286D01*
Y516D01*
Y751D01*
Y981D01*
Y1216D01*
Y1451D01*
X3280Y51D02*
Y286D01*
Y516D01*
Y751D01*
Y981D01*
Y1216D01*
Y1451D01*
X3105Y51D02*
Y286D01*
Y516D01*
Y751D01*
Y981D01*
Y1216D01*
Y1451D01*
X2925Y51D02*
Y286D01*
Y516D01*
Y751D01*
Y981D01*
Y1216D01*
Y1451D01*
X2750Y51D02*
Y286D01*
Y516D01*
Y751D01*
Y981D01*
Y1216D01*
Y1451D01*
X2570Y51D02*
Y286D01*
Y516D01*
Y751D01*
Y981D01*
Y1216D01*
Y1451D01*
X2395Y51D02*
Y286D01*
Y516D01*
Y751D01*
Y981D01*
Y1216D01*
Y1451D01*
X2220Y51D02*
Y286D01*
Y516D01*
Y751D01*
Y981D01*
Y1216D01*
Y1451D01*
X2040Y51D02*
Y286D01*
Y516D01*
Y751D01*
Y981D01*
Y1216D01*
Y1451D01*
X1865Y51D02*
Y286D01*
Y516D01*
Y751D01*
Y981D01*
Y1216D01*
Y1451D01*
X1690Y51D02*
Y286D01*
Y516D01*
Y751D01*
Y981D01*
Y1216D01*
Y1451D01*
X1515Y51D02*
Y286D01*
Y516D01*
Y751D01*
Y981D01*
Y1216D01*
Y1451D01*
X1335Y51D02*
Y286D01*
Y516D01*
Y751D01*
Y981D01*
Y1216D01*
Y1451D01*
X1155Y51D02*
Y286D01*
Y516D01*
Y751D01*
Y981D01*
Y1216D01*
Y1451D01*
X975Y51D02*
Y286D01*
Y516D01*
Y751D01*
Y981D01*
Y1216D01*
Y1451D01*
X795Y51D02*
Y286D01*
Y516D01*
Y751D01*
Y981D01*
Y1216D01*
Y1451D01*
X620Y51D02*
Y286D01*
Y516D01*
Y751D01*
Y981D01*
Y1216D01*
Y1451D01*
X445Y51D02*
Y286D01*
Y516D01*
Y751D01*
Y981D01*
Y1216D01*
Y1451D01*
X270Y51D02*
Y286D01*
Y516D01*
Y751D01*
Y981D01*
Y1216D01*
Y1451D01*
X90Y51D02*
Y286D01*
Y516D01*
Y751D01*
Y981D01*
Y1216D01*
Y1451D01*
X-120Y1216D02*
Y1451D01*
Y981D02*
Y1216D01*
Y751D02*
Y981D01*
Y516D02*
Y751D01*
D77*
X-535Y2250D02*
D03*
D78*
X-1135D02*
D03*
D79*
X-1323Y2620D02*
D03*
D80*
X-1441Y2805D02*
D03*
D81*
X-1205D02*
D03*
D82*
X-1505Y1100D02*
D03*
Y1200D02*
D03*
Y1300D02*
D03*
Y1400D02*
D03*
Y1500D02*
D03*
D83*
Y460D02*
D03*
X-1405D02*
D03*
D84*
X-336Y2795D02*
D03*
X-403D02*
D03*
X-470D02*
D03*
X-537D02*
D03*
X-604D02*
D03*
D85*
X3580Y2605D02*
D03*
X-1205Y1880D02*
D03*
X-1450D02*
D03*
X-1060Y-475D02*
D03*
X-1305D02*
D03*
X-365Y370D02*
D03*
X-610D02*
D03*
X1485Y2475D02*
D03*
X1240D02*
D03*
X2920Y2500D02*
D03*
X2675D02*
D03*
X1785Y2780D02*
D03*
X1540D02*
D03*
X2685Y2790D02*
D03*
X2930D02*
D03*
X3790D02*
D03*
X4050Y2505D02*
D03*
X770Y-220D02*
D03*
Y-465D02*
D03*
X407Y-220D02*
D03*
Y-465D02*
D03*
X3560Y-220D02*
D03*
Y-465D02*
D03*
X3915D02*
D03*
X3150D02*
D03*
X3915Y-220D02*
D03*
X3150D02*
D03*
X2090Y2385D02*
D03*
X3535Y2395D02*
D03*
X3839Y2054D02*
D03*
X2394D02*
D03*
X715Y2430D02*
D03*
X1004Y2049D02*
D03*
X-31Y2406D02*
D03*
X-1519Y2334D02*
D03*
X-529Y1859D02*
D03*
X-944D02*
D03*
X-1291Y1574D02*
D03*
X-570Y540D02*
D03*
X-774Y690D02*
D03*
X-865Y746D02*
D03*
X-950Y745D02*
D03*
X-1076Y340D02*
D03*
X1790Y-302D02*
D03*
X-1450Y640D02*
D03*
X-1495Y692D02*
D03*
X-1540Y730D02*
D03*
X-1125Y1135D02*
D03*
X-1250Y1070D02*
D03*
X-1070Y630D02*
D03*
X-1293Y2120D02*
D03*
X-775Y792D02*
D03*
X-404Y1651D02*
D03*
X3650Y2535D02*
D03*
X2205Y2520D02*
D03*
X2155Y2570D02*
D03*
X3305Y2310D02*
D03*
X1835Y2310D02*
D03*
X-1190Y865D02*
D03*
X-975Y935D02*
D03*
X-1030Y930D02*
D03*
X-950Y240D02*
D03*
X-850Y-255D02*
D03*
X-1415Y833D02*
D03*
X-1230Y585D02*
D03*
X-1190Y755D02*
D03*
X-1260Y655D02*
D03*
X-775Y738D02*
D03*
Y843D02*
D03*
X-1415Y783D02*
D03*
X-1286Y807D02*
D03*
X-1035Y675D02*
D03*
X-1450Y-278D02*
D03*
X-1510Y-245D02*
D03*
X-700Y-444D02*
D03*
X2390Y-210D02*
D03*
X2629Y-450D02*
D03*
X1315Y-385D02*
D03*
X2545Y-150D02*
D03*
X2225D02*
D03*
X2405Y-448D02*
D03*
X2140Y-393D02*
D03*
X3635Y2240D02*
D03*
X2190Y2235D02*
D03*
X800D02*
D03*
X3585Y2210D02*
D03*
X2140Y2200D02*
D03*
X750D02*
D03*
X920Y2500D02*
D03*
X2310Y2480D02*
D03*
X3755Y2505D02*
D03*
X3990Y1451D02*
D03*
Y1216D02*
D03*
Y981D02*
D03*
Y751D02*
D03*
Y516D02*
D03*
Y286D02*
D03*
Y51D02*
D03*
X3815Y1451D02*
D03*
Y1216D02*
D03*
Y981D02*
D03*
Y751D02*
D03*
Y516D02*
D03*
Y286D02*
D03*
Y51D02*
D03*
X3635Y1451D02*
D03*
Y1216D02*
D03*
Y981D02*
D03*
Y751D02*
D03*
Y516D02*
D03*
Y286D02*
D03*
Y51D02*
D03*
X3460Y1451D02*
D03*
Y1216D02*
D03*
Y981D02*
D03*
Y751D02*
D03*
Y516D02*
D03*
Y286D02*
D03*
Y51D02*
D03*
X3280Y1451D02*
D03*
Y1216D02*
D03*
Y981D02*
D03*
Y751D02*
D03*
Y516D02*
D03*
Y286D02*
D03*
Y51D02*
D03*
X3105Y1451D02*
D03*
Y1216D02*
D03*
Y981D02*
D03*
Y751D02*
D03*
Y516D02*
D03*
Y286D02*
D03*
Y51D02*
D03*
X2925Y1451D02*
D03*
Y1216D02*
D03*
Y981D02*
D03*
Y751D02*
D03*
Y516D02*
D03*
Y286D02*
D03*
Y51D02*
D03*
X2750Y1451D02*
D03*
Y1216D02*
D03*
Y981D02*
D03*
Y751D02*
D03*
Y516D02*
D03*
Y286D02*
D03*
Y51D02*
D03*
X2570Y1451D02*
D03*
Y1216D02*
D03*
Y981D02*
D03*
Y751D02*
D03*
Y516D02*
D03*
Y286D02*
D03*
Y51D02*
D03*
X2395Y1451D02*
D03*
Y1216D02*
D03*
Y981D02*
D03*
Y751D02*
D03*
Y516D02*
D03*
Y286D02*
D03*
Y51D02*
D03*
X2220Y1451D02*
D03*
Y1216D02*
D03*
Y981D02*
D03*
Y751D02*
D03*
Y516D02*
D03*
Y286D02*
D03*
Y51D02*
D03*
X2040Y1451D02*
D03*
Y1216D02*
D03*
Y981D02*
D03*
Y751D02*
D03*
Y516D02*
D03*
Y286D02*
D03*
Y51D02*
D03*
X1865Y1451D02*
D03*
Y1216D02*
D03*
Y981D02*
D03*
Y751D02*
D03*
Y516D02*
D03*
Y286D02*
D03*
Y51D02*
D03*
X1690Y1451D02*
D03*
Y1216D02*
D03*
Y981D02*
D03*
Y751D02*
D03*
Y516D02*
D03*
Y286D02*
D03*
Y51D02*
D03*
X1515Y1451D02*
D03*
Y1216D02*
D03*
Y981D02*
D03*
Y751D02*
D03*
Y516D02*
D03*
Y286D02*
D03*
Y51D02*
D03*
X1335Y1451D02*
D03*
Y1216D02*
D03*
Y981D02*
D03*
Y751D02*
D03*
Y516D02*
D03*
Y286D02*
D03*
Y51D02*
D03*
X1155Y1451D02*
D03*
Y1216D02*
D03*
Y981D02*
D03*
Y751D02*
D03*
Y516D02*
D03*
Y286D02*
D03*
Y51D02*
D03*
X975Y1451D02*
D03*
Y1216D02*
D03*
Y981D02*
D03*
Y751D02*
D03*
Y516D02*
D03*
Y286D02*
D03*
Y51D02*
D03*
X795Y1451D02*
D03*
Y1216D02*
D03*
Y981D02*
D03*
Y751D02*
D03*
Y516D02*
D03*
Y286D02*
D03*
Y51D02*
D03*
X620Y1451D02*
D03*
Y1216D02*
D03*
Y981D02*
D03*
Y751D02*
D03*
Y516D02*
D03*
Y286D02*
D03*
Y51D02*
D03*
X445Y1451D02*
D03*
Y1216D02*
D03*
Y981D02*
D03*
Y751D02*
D03*
Y516D02*
D03*
Y286D02*
D03*
Y51D02*
D03*
X270Y1451D02*
D03*
Y1216D02*
D03*
Y981D02*
D03*
Y751D02*
D03*
Y516D02*
D03*
Y286D02*
D03*
Y51D02*
D03*
X90Y1451D02*
D03*
Y1216D02*
D03*
Y981D02*
D03*
Y751D02*
D03*
Y516D02*
D03*
Y286D02*
D03*
Y51D02*
D03*
X-120D02*
D03*
Y286D02*
D03*
Y516D02*
D03*
Y751D02*
D03*
Y981D02*
D03*
Y1216D02*
D03*
Y1451D02*
D03*
M02*
